# Blender 4.3.2
# www.blender.org
o BudLobes
v 0.007314 0.646365 0.254108
v 0.159284 0.596987 0.254108
v 0.114773 0.596987 0.361567
v 0.007314 0.596987 0.406078
v -0.100145 0.596987 0.361567
v -0.144656 0.596987 0.254108
v -0.100145 0.596987 0.146649
v 0.007314 0.596987 0.102138
v 0.114773 0.596987 0.146649
v 0.253206 0.467714 0.254108
v 0.181186 0.467714 0.427980
v 0.007314 0.467714 0.500000
v -0.166558 0.467714 0.427980
v -0.238578 0.467714 0.254108
v -0.166558 0.467714 0.080236
v 0.007314 0.467714 0.008216
v 0.181186 0.467714 0.080236
v 0.253206 0.307924 0.254108
v 0.181186 0.307924 0.427980
v 0.007314 0.307924 0.500000
v -0.166558 0.307924 0.427980
v -0.238578 0.307924 0.254108
v -0.166558 0.307924 0.080236
v 0.007314 0.307924 0.008216
v 0.181186 0.307924 0.080236
v 0.159284 0.178651 0.254108
v 0.114773 0.178651 0.361567
v 0.007314 0.178651 0.406078
v -0.100145 0.178651 0.361567
v -0.144656 0.178651 0.254108
v -0.100145 0.178651 0.146649
v 0.007314 0.178651 0.102138
v 0.114773 0.178651 0.146649
v 0.007314 0.129273 0.254108
v -0.063199 0.399571 -0.309993
v 0.054232 0.361416 -0.309993
v 0.019838 0.361416 -0.226956
v -0.063199 0.361416 -0.192562
v -0.146235 0.361416 -0.226956
v -0.180630 0.361416 -0.309993
v -0.146235 0.361416 -0.393029
v -0.063199 0.361416 -0.427424
v 0.019838 0.361416 -0.393029
v 0.126809 0.261523 -0.309993
v 0.071157 0.261523 -0.175637
v -0.063199 0.261523 -0.119985
v -0.197554 0.261523 -0.175637
v -0.253206 0.261523 -0.309993
v -0.197554 0.261523 -0.444348
v -0.063199 0.261523 -0.500000
v 0.071157 0.261523 -0.444348
v 0.126809 0.138048 -0.309993
v 0.071157 0.138048 -0.175637
v -0.063199 0.138048 -0.119985
v -0.197554 0.138048 -0.175637
v -0.253206 0.138048 -0.309993
v -0.197554 0.138048 -0.444348
v -0.063199 0.138048 -0.500000
v 0.071157 0.138048 -0.444348
v 0.054232 0.038156 -0.309993
v 0.019838 0.038156 -0.226956
v -0.063199 0.038156 -0.192562
v -0.146235 0.038156 -0.226956
v -0.180630 0.038156 -0.309993
v -0.146235 0.038156 -0.393029
v -0.063199 0.038156 -0.427424
v 0.019838 0.038156 -0.393029
v -0.063199 0.000000 -0.309993
v 0.101331 0.716878 -0.051446
v 0.184223 0.689944 -0.051446
v 0.159945 0.689944 0.007167
v 0.101331 0.689944 0.031446
v 0.042717 0.689944 0.007167
v 0.018438 0.689944 -0.051446
v 0.042717 0.689944 -0.110060
v 0.101331 0.689944 -0.134339
v 0.159945 0.689944 -0.110060
v 0.235454 0.619432 -0.051446
v 0.196170 0.619432 0.043393
v 0.101331 0.619432 0.082676
v 0.006492 0.619432 0.043393
v -0.032792 0.619432 -0.051446
v 0.006492 0.619432 -0.146286
v 0.101331 0.619432 -0.185569
v 0.196170 0.619432 -0.146286
v 0.235454 0.532274 -0.051446
v 0.196170 0.532274 0.043393
v 0.101331 0.532274 0.082676
v 0.006492 0.532274 0.043393
v -0.032792 0.532274 -0.051446
v 0.006492 0.532274 -0.146286
v 0.101331 0.532274 -0.185569
v 0.196170 0.532274 -0.146286
v 0.184223 0.461761 -0.051446
v 0.159945 0.461761 0.007167
v 0.101331 0.461761 0.031446
v 0.042717 0.461761 0.007167
v 0.018438 0.461761 -0.051446
v 0.042717 0.461761 -0.110060
v 0.101331 0.461761 -0.134339
v 0.159945 0.461761 -0.110060
v 0.101331 0.434828 -0.051446
vn -0.3065 -0.9434 -0.1270
vn -0.1270 -0.9434 -0.3065
vn 0.1270 -0.9434 -0.3065
vn 0.3065 -0.9434 -0.1270
vn 0.3065 -0.9434 0.1270
vn 0.1270 -0.9434 0.3065
vn -0.1270 -0.9434 0.3065
vn -0.3065 -0.9434 0.1270
vn -0.7671 -0.5573 -0.3177
vn -0.3177 -0.5573 -0.7671
vn 0.3177 -0.5573 -0.7671
vn 0.7671 -0.5573 -0.3177
vn 0.7671 -0.5573 0.3177
vn 0.3177 -0.5573 0.7671
vn -0.3177 -0.5573 0.7671
vn -0.7671 -0.5573 0.3177
vn -0.9239 -0.0000 -0.3827
vn -0.3827 -0.0000 -0.9239
vn 0.3827 -0.0000 -0.9239
vn 0.9239 -0.0000 -0.3827
vn 0.9239 -0.0000 0.3827
vn 0.3827 -0.0000 0.9239
vn -0.3827 -0.0000 0.9239
vn -0.9239 -0.0000 0.3827
vn -0.7671 0.5573 -0.3177
vn -0.3177 0.5573 -0.7671
vn 0.3177 0.5573 -0.7671
vn 0.7671 0.5573 -0.3177
vn 0.7671 0.5573 0.3177
vn 0.3177 0.5573 0.7671
vn -0.3177 0.5573 0.7671
vn -0.7671 0.5573 0.3177
vn -0.3065 0.9434 -0.1270
vn -0.1270 0.9434 -0.3065
vn 0.1270 0.9434 -0.3065
vn 0.3065 0.9434 -0.1270
vn 0.3065 0.9434 0.1270
vn 0.1270 0.9434 0.3065
vn -0.1270 0.9434 0.3065
vn -0.3065 0.9434 0.1270
s 0
f 1//1 2//1 3//1
f 1//2 3//2 4//2
f 1//3 4//3 5//3
f 1//4 5//4 6//4
f 1//5 6//5 7//5
f 1//6 7//6 8//6
f 1//7 8//7 9//7
f 1//8 9//8 2//8
f 2//9 11//9 3//9
f 3//10 12//10 4//10
f 4//11 13//11 5//11
f 5//12 14//12 6//12
f 14//13 7//13 6//13
f 15//14 8//14 7//14
f 16//15 9//15 8//15
f 9//16 10//16 2//16
f 18//17 11//17 10//17
f 19//18 12//18 11//18
f 20//19 13//19 12//19
f 21//20 14//20 13//20
f 22//21 15//21 14//21
f 23//22 16//22 15//22
f 24//23 17//23 16//23
f 25//24 10//24 17//24
f 26//25 19//25 18//25
f 19//26 28//26 20//26
f 28//27 21//27 20//27
f 29//28 22//28 21//28
f 30//29 23//29 22//29
f 31//30 24//30 23//30
f 32//31 25//31 24//31
f 25//32 26//32 18//32
f 34//33 27//33 26//33
f 34//34 28//34 27//34
f 34//35 29//35 28//35
f 34//36 30//36 29//36
f 34//37 31//37 30//37
f 34//38 32//38 31//38
f 34//39 33//39 32//39
f 34//40 26//40 33//40
f 35//1 36//1 37//1
f 35//2 37//2 38//2
f 35//3 38//3 39//3
f 35//4 39//4 40//4
f 35//5 40//5 41//5
f 35//6 41//6 42//6
f 35//7 42//7 43//7
f 35//8 43//8 36//8
f 36//9 45//9 37//9
f 37//10 46//10 38//10
f 46//11 39//11 38//11
f 47//12 40//12 39//12
f 48//13 41//13 40//13
f 49//14 42//14 41//14
f 50//15 43//15 42//15
f 43//16 44//16 36//16
f 52//17 45//17 44//17
f 53//18 46//18 45//18
f 54//19 47//19 46//19
f 55//20 48//20 47//20
f 56//21 49//21 48//21
f 57//22 50//22 49//22
f 58//23 51//23 50//23
f 59//24 44//24 51//24
f 60//25 53//25 52//25
f 61//26 54//26 53//26
f 62//27 55//27 54//27
f 55//28 64//28 56//28
f 64//29 57//29 56//29
f 65//30 58//30 57//30
f 66//31 59//31 58//31
f 67//32 52//32 59//32
f 68//33 61//33 60//33
f 68//34 62//34 61//34
f 68//35 63//35 62//35
f 68//36 64//36 63//36
f 68//37 65//37 64//37
f 68//38 66//38 65//38
f 68//39 67//39 66//39
f 68//40 60//40 67//40
f 69//1 70//1 71//1
f 69//2 71//2 72//2
f 69//3 72//3 73//3
f 69//4 73//4 74//4
f 69//5 74//5 75//5
f 69//6 75//6 76//6
f 69//7 76//7 77//7
f 69//8 77//8 70//8
f 78//9 71//9 70//9
f 71//10 80//10 72//10
f 72//11 81//11 73//11
f 81//12 74//12 73//12
f 74//13 83//13 75//13
f 75//14 84//14 76//14
f 84//15 77//15 76//15
f 77//16 78//16 70//16
f 86//17 79//17 78//17
f 87//18 80//18 79//18
f 88//19 81//19 80//19
f 89//20 82//20 81//20
f 90//21 83//21 82//21
f 91//22 84//22 83//22
f 92//23 85//23 84//23
f 93//24 78//24 85//24
f 94//25 87//25 86//25
f 95//26 88//26 87//26
f 96//27 89//27 88//27
f 97//28 90//28 89//28
f 98//29 91//29 90//29
f 91//30 100//30 92//30
f 100//31 93//31 92//31
f 93//32 94//32 86//32
f 102//33 95//33 94//33
f 102//34 96//34 95//34
f 102//35 97//35 96//35
f 102//36 98//36 97//36
f 102//37 99//37 98//37
f 102//38 100//38 99//38
f 102//39 101//39 100//39
f 102//40 94//40 101//40
f 2//9 10//9 11//9
f 3//10 11//10 12//10
f 4//11 12//11 13//11
f 5//12 13//12 14//12
f 14//13 15//13 7//13
f 15//14 16//14 8//14
f 16//15 17//15 9//15
f 9//16 17//16 10//16
f 18//17 19//17 11//17
f 19//18 20//18 12//18
f 20//19 21//19 13//19
f 21//20 22//20 14//20
f 22//21 23//21 15//21
f 23//22 24//22 16//22
f 24//23 25//23 17//23
f 25//24 18//24 10//24
f 26//25 27//25 19//25
f 19//26 27//26 28//26
f 28//27 29//27 21//27
f 29//28 30//28 22//28
f 30//29 31//29 23//29
f 31//30 32//30 24//30
f 32//31 33//31 25//31
f 25//32 33//32 26//32
f 36//9 44//9 45//9
f 37//10 45//10 46//10
f 46//11 47//11 39//11
f 47//12 48//12 40//12
f 48//13 49//13 41//13
f 49//14 50//14 42//14
f 50//15 51//15 43//15
f 43//16 51//16 44//16
f 52//17 53//17 45//17
f 53//18 54//18 46//18
f 54//19 55//19 47//19
f 55//20 56//20 48//20
f 56//21 57//21 49//21
f 57//22 58//22 50//22
f 58//23 59//23 51//23
f 59//24 52//24 44//24
f 60//25 61//25 53//25
f 61//26 62//26 54//26
f 62//27 63//27 55//27
f 55//28 63//28 64//28
f 64//29 65//29 57//29
f 65//30 66//30 58//30
f 66//31 67//31 59//31
f 67//32 60//32 52//32
f 78//9 79//9 71//9
f 71//10 79//10 80//10
f 72//11 80//11 81//11
f 81//12 82//12 74//12
f 74//13 82//13 83//13
f 75//14 83//14 84//14
f 84//15 85//15 77//15
f 77//16 85//16 78//16
f 86//17 87//17 79//17
f 87//18 88//18 80//18
f 88//19 89//19 81//19
f 89//20 90//20 82//20
f 90//21 91//21 83//21
f 91//22 92//22 84//22
f 92//23 93//23 85//23
f 93//24 86//24 78//24
f 94//25 95//25 87//25
f 95//26 96//26 88//26
f 96//27 97//27 89//27
f 97//28 98//28 90//28
f 98//29 99//29 91//29
f 91//30 99//30 100//30
f 100//31 101//31 93//31
f 93//32 101//32 94//32
