# Blender 4.3.2
# www.blender.org
o Carapace
v 0.236908 0.292882 0.242014
v 0.087488 0.292882 0.201978
v 0.241064 0.260434 0.308062
v 0.050866 0.260434 0.257099
v 0.244943 0.213996 0.369732
v 0.016671 0.213996 0.308566
v 0.248365 0.154197 0.424114
v -0.013483 0.154197 0.353952
v 0.251151 0.082263 0.468399
v -0.038039 0.082263 0.390911
v 0.253139 0.000000 0.500000
v -0.055561 0.000000 0.417284
v 0.086433 0.292882 0.201272
v -0.007737 0.292882 0.078548
v 0.049522 0.260434 0.256201
v -0.070347 0.260434 0.099984
v 0.015058 0.213996 0.307489
v -0.128808 0.213996 0.119999
v -0.015333 0.154197 0.352716
v -0.180359 0.154197 0.137649
v -0.040082 0.082263 0.389545
v -0.222340 0.082263 0.152023
v -0.057742 0.000000 0.415827
v -0.252296 0.000000 0.162279
v -0.008145 0.292882 0.077345
v -0.008145 0.292882 -0.077345
v -0.070867 0.260434 0.098453
v -0.070867 0.260434 -0.098453
v -0.129431 0.213996 0.118163
v -0.129431 0.213996 -0.118163
v -0.181075 0.154197 0.135543
v -0.181075 0.154197 -0.135543
v -0.223129 0.082263 0.149696
v -0.223129 0.082263 -0.149696
v -0.253139 0.000000 0.159795
v -0.253139 0.000000 -0.159795
v -0.007737 0.292882 -0.078548
v 0.086433 0.292882 -0.201272
v -0.070347 0.260434 -0.099984
v 0.049522 0.260434 -0.256201
v -0.128808 0.213996 -0.119999
v 0.015058 0.213996 -0.307489
v -0.180359 0.154197 -0.137649
v -0.015333 0.154197 -0.352716
v -0.222340 0.082263 -0.152023
v -0.040082 0.082263 -0.389545
v -0.252296 0.000000 -0.162279
v -0.057742 0.000000 -0.415827
v 0.087488 0.292882 -0.201978
v 0.236908 0.292882 -0.242014
v 0.050866 0.260434 -0.257099
v 0.241064 0.260434 -0.308062
v 0.016671 0.213996 -0.308566
v 0.244943 0.213996 -0.369732
v -0.013483 0.154197 -0.353952
v 0.248365 0.154197 -0.424114
v -0.038039 0.082263 -0.390911
v 0.251151 0.082263 -0.468399
v -0.055561 0.000000 -0.417284
v 0.253139 0.000000 -0.500000
vn -0.1189 0.8882 0.4438
vn -0.1608 0.7836 0.6001
vn -0.1959 0.6536 0.7310
vn -0.2234 0.5047 0.8339
vn -0.2431 0.3427 0.9074
vn -0.3645 0.8882 0.2797
vn -0.4929 0.7836 0.3782
vn -0.6004 0.6536 0.4607
vn -0.6849 0.5047 0.5255
vn -0.7453 0.3427 0.5719
vn -0.4595 0.8882 -0.0000
vn -0.6213 0.7836 -0.0000
vn -0.7568 0.6536 -0.0000
vn -0.8633 0.5047 -0.0000
vn -0.9394 0.3427 -0.0000
vn -0.3645 0.8882 -0.2797
vn -0.4929 0.7836 -0.3782
vn -0.6004 0.6536 -0.4607
vn -0.6849 0.5047 -0.5255
vn -0.7453 0.3427 -0.5719
vn -0.1189 0.8882 -0.4438
vn -0.1608 0.7836 -0.6001
vn -0.1959 0.6536 -0.7310
vn -0.2234 0.5047 -0.8339
vn -0.2431 0.3427 -0.9074
s 0
f 2//1 3//1 1//1
f 4//2 5//2 3//2
f 6//3 7//3 5//3
f 8//4 9//4 7//4
f 10//5 11//5 9//5
f 14//6 15//6 13//6
f 15//7 18//7 17//7
f 18//8 19//8 17//8
f 20//9 21//9 19//9
f 22//10 23//10 21//10
f 25//11 28//11 27//11
f 28//12 29//12 27//12
f 30//13 31//13 29//13
f 32//14 33//14 31//14
f 34//15 35//15 33//15
f 38//16 39//16 37//16
f 40//17 41//17 39//17
f 41//18 44//18 43//18
f 44//19 45//19 43//19
f 46//20 47//20 45//20
f 50//21 51//21 49//21
f 52//22 53//22 51//22
f 54//23 55//23 53//23
f 56//24 57//24 55//24
f 58//25 59//25 57//25
f 2//1 4//1 3//1
f 4//2 6//2 5//2
f 6//3 8//3 7//3
f 8//4 10//4 9//4
f 10//5 12//5 11//5
f 14//6 16//6 15//6
f 15//7 16//7 18//7
f 18//8 20//8 19//8
f 20//9 22//9 21//9
f 22//10 24//10 23//10
f 25//11 26//11 28//11
f 28//12 30//12 29//12
f 30//13 32//13 31//13
f 32//14 34//14 33//14
f 34//15 36//15 35//15
f 38//16 40//16 39//16
f 40//17 42//17 41//17
f 41//18 42//18 44//18
f 44//19 46//19 45//19
f 46//20 48//20 47//20
f 50//21 52//21 51//21
f 52//22 54//22 53//22
f 54//23 56//23 55//23
f 56//24 58//24 57//24
f 58//25 60//25 59//25
