# Blender 4.3.2
# www.blender.org
o CiliaFringe
v 0.292786 0.345869 0.000000
v 0.322581 0.360531 -0.033207
v 0.352375 0.375193 -0.000000
v 0.322581 0.360531 0.033207
v 0.500000 0.000000 0.000000
v 0.248815 0.347512 0.161290
v 0.282237 0.353787 0.128903
v 0.309911 0.373550 0.161290
v 0.276489 0.367275 0.193678
v 0.433013 0.000000 0.250000
v 0.129045 0.352597 0.279363
v 0.164324 0.348201 0.248680
v 0.193535 0.368465 0.279363
v 0.158256 0.372861 0.310046
v 0.250000 0.000000 0.433013
v -0.033207 0.360531 0.322581
v 0.000000 0.345869 0.292786
v 0.033207 0.360531 0.322581
v 0.000000 0.375193 0.352375
v 0.000000 0.000000 0.500000
v -0.193535 0.368465 0.279363
v -0.164324 0.348201 0.248680
v -0.129045 0.352597 0.279363
v -0.158256 0.372861 0.310046
v -0.250000 0.000000 0.433013
v -0.309911 0.373550 0.161290
v -0.282237 0.353787 0.128903
v -0.248815 0.347512 0.161290
v -0.276489 0.367275 0.193678
v -0.433013 0.000000 0.250000
v -0.352375 0.375193 0.000000
v -0.322581 0.360531 -0.033207
v -0.292786 0.345869 0.000000
v -0.322581 0.360531 0.033207
v -0.500000 0.000000 0.000000
v -0.309911 0.373550 -0.161290
v -0.276489 0.367275 -0.193678
v -0.248815 0.347512 -0.161290
v -0.282237 0.353787 -0.128903
v -0.433013 0.000000 -0.250000
v -0.193535 0.368465 -0.279363
v -0.158256 0.372861 -0.310046
v -0.129045 0.352597 -0.279363
v -0.164324 0.348201 -0.248680
v -0.250000 0.000000 -0.433013
v -0.033207 0.360531 -0.322581
v -0.000000 0.375193 -0.352375
v 0.033207 0.360531 -0.322581
v -0.000000 0.345869 -0.292786
v -0.000000 0.000000 -0.500000
v 0.129045 0.352597 -0.279363
v 0.158256 0.372861 -0.310046
v 0.193535 0.368465 -0.279363
v 0.164324 0.348201 -0.248680
v 0.250000 0.000000 -0.433013
v 0.248815 0.347512 -0.161290
v 0.276489 0.367275 -0.193678
v 0.309911 0.373550 -0.161290
v 0.282237 0.353787 -0.128903
v 0.433013 0.000000 -0.250000
vn -0.6076 -0.3640 -0.7059
vn 0.6591 0.2593 -0.7059
vn 0.6591 0.2593 0.7059
vn -0.6076 -0.3640 0.7059
vn 0.4415 -0.8972 -0.0000
vn -0.5660 -0.4725 -0.6756
vn 0.7328 0.0810 -0.6756
vn 0.6106 0.3678 0.7014
vn -0.6882 -0.1857 0.7014
vn 0.3824 -0.8972 0.2208
vn -0.6081 -0.4831 -0.6299
vn 0.7628 -0.1458 -0.6299
vn 0.6338 0.3784 0.6746
vn -0.7371 0.0411 0.6746
vn 0.2208 -0.8972 0.3824
vn -0.7059 -0.3640 -0.6076
vn 0.7059 -0.3640 -0.6076
vn 0.7059 0.2593 0.6591
vn -0.7059 0.2593 0.6591
vn -0.0000 -0.8972 0.4415
vn -0.7628 -0.1458 -0.6299
vn 0.6081 -0.4831 -0.6299
vn 0.7371 0.0411 0.6746
vn -0.6338 0.3784 0.6746
vn -0.2208 -0.8972 0.3824
vn -0.7328 0.0810 -0.6756
vn 0.5660 -0.4725 -0.6756
vn 0.6882 -0.1857 0.7014
vn -0.6106 0.3678 0.7014
vn -0.3824 -0.8972 0.2208
vn -0.6591 0.2593 -0.7059
vn 0.6076 -0.3640 -0.7059
vn 0.6076 -0.3640 0.7059
vn -0.6591 0.2593 0.7059
vn -0.4415 -0.8972 -0.0000
vn -0.6106 0.3678 -0.7014
vn 0.6882 -0.1857 -0.7014
vn 0.5660 -0.4725 0.6756
vn -0.7328 0.0810 0.6756
vn -0.3824 -0.8972 -0.2208
vn -0.6338 0.3784 -0.6746
vn 0.7371 0.0411 -0.6746
vn 0.6081 -0.4831 0.6299
vn -0.7628 -0.1458 0.6299
vn -0.2208 -0.8972 -0.3824
vn -0.7059 0.2593 -0.6591
vn 0.7059 0.2593 -0.6591
vn 0.7059 -0.3640 0.6076
vn -0.7059 -0.3640 0.6076
vn -0.0000 -0.8972 -0.4415
vn -0.7371 0.0411 -0.6746
vn 0.6338 0.3784 -0.6746
vn 0.7628 -0.1458 0.6299
vn -0.6081 -0.4831 0.6299
vn 0.2208 -0.8972 -0.3824
vn -0.6882 -0.1857 -0.7014
vn 0.6106 0.3678 -0.7014
vn 0.7328 0.0810 0.6756
vn -0.5660 -0.4725 0.6756
vn 0.3824 -0.8972 -0.2208
s 0
f 1//1 2//1 5//1
f 2//2 3//2 5//2
f 3//3 4//3 5//3
f 4//4 1//4 5//4
f 2//5 4//5 1//5
f 6//6 7//6 10//6
f 7//7 8//7 10//7
f 8//8 9//8 10//8
f 9//9 6//9 10//9
f 6//10 8//10 9//10
f 11//11 12//11 15//11
f 12//12 13//12 15//12
f 13//13 14//13 15//13
f 14//14 11//14 15//14
f 11//15 13//15 14//15
f 16//16 17//16 20//16
f 17//17 18//17 20//17
f 18//18 19//18 20//18
f 19//19 16//19 20//19
f 17//20 19//20 16//20
f 21//21 22//21 25//21
f 22//22 23//22 25//22
f 23//23 24//23 25//23
f 24//24 21//24 25//24
f 21//25 23//25 24//25
f 26//26 27//26 30//26
f 27//27 28//27 30//27
f 28//28 29//28 30//28
f 29//29 26//29 30//29
f 26//30 28//30 29//30
f 31//31 32//31 35//31
f 32//32 33//32 35//32
f 33//33 34//33 35//33
f 34//34 31//34 35//34
f 32//35 34//35 31//35
f 36//36 37//36 40//36
f 37//37 38//37 40//37
f 38//38 39//38 40//38
f 39//39 36//39 40//39
f 37//40 39//40 36//40
f 41//41 42//41 45//41
f 42//42 43//42 45//42
f 43//43 44//43 45//43
f 44//44 41//44 45//44
f 42//45 44//45 41//45
f 46//46 47//46 50//46
f 47//47 48//47 50//47
f 48//48 49//48 50//48
f 49//49 46//49 50//49
f 47//50 49//50 46//50
f 51//51 52//51 55//51
f 52//52 53//52 55//52
f 53//53 54//53 55//53
f 54//54 51//54 55//54
f 51//55 53//55 54//55
f 56//56 57//56 60//56
f 57//57 58//57 60//57
f 58//58 59//58 60//58
f 59//59 56//59 60//59
f 57//60 59//60 56//60
f 2//5 3//5 4//5
f 6//10 7//10 8//10
f 11//15 12//15 13//15
f 17//20 18//20 19//20
f 21//25 22//25 23//25
f 26//30 27//30 28//30
f 32//35 33//35 34//35
f 37//40 38//40 39//40
f 42//45 43//45 44//45
f 47//50 48//50 49//50
f 51//55 52//55 53//55
f 57//60 58//60 59//60
