# Blender 4.3.2
# www.blender.org
o SporeCrown
v 0.116667 0.000000 0.000000
v 0.058333 0.000000 -0.101036
v -0.058333 0.000000 -0.101036
v -0.116667 0.000000 -0.000000
v -0.058333 0.000000 0.101036
v 0.058333 0.000000 0.101036
v 0.000000 0.566667 0.000000
v 0.000000 0.833333 0.000000
v 0.500000 0.600000 0.000000
v 0.404508 0.600000 0.293893
v 0.154509 0.600000 0.475528
v -0.154509 0.600000 0.475528
v -0.404508 0.600000 0.293893
v -0.500000 0.600000 0.000000
v -0.404508 0.600000 -0.293893
v -0.154509 0.600000 -0.475528
v 0.154509 0.600000 -0.475528
v 0.404508 0.600000 -0.293893
v 0.383333 0.525000 0.000000
v 0.448151 0.498151 0.000000
v 0.415742 0.498151 0.056134
v 0.350924 0.498151 0.056134
v 0.318515 0.498151 0.000000
v 0.350924 0.498151 -0.056134
v 0.415742 0.498151 -0.056134
v 0.475000 0.433333 0.000000
v 0.429167 0.433333 0.079386
v 0.337500 0.433333 0.079386
v 0.291667 0.433333 0.000000
v 0.337500 0.433333 -0.079386
v 0.429167 0.433333 -0.079386
v 0.448151 0.368515 0.000000
v 0.415742 0.368515 0.056134
v 0.350924 0.368515 0.056134
v 0.318515 0.368515 0.000000
v 0.350924 0.368515 -0.056134
v 0.415742 0.368515 -0.056134
v 0.383333 0.341667 0.000000
v 0.191667 0.525000 0.331976
v 0.256485 0.498151 0.331976
v 0.224076 0.498151 0.388111
v 0.159258 0.498151 0.388111
v 0.126849 0.498151 0.331976
v 0.159258 0.498151 0.275842
v 0.224076 0.498151 0.275842
v 0.283333 0.433333 0.331976
v 0.237500 0.433333 0.411362
v 0.145833 0.433333 0.411362
v 0.100000 0.433333 0.331976
v 0.145833 0.433333 0.252591
v 0.237500 0.433333 0.252591
v 0.256485 0.368515 0.331976
v 0.224076 0.368515 0.388111
v 0.159258 0.368515 0.388111
v 0.126849 0.368515 0.331976
v 0.159258 0.368515 0.275842
v 0.224076 0.368515 0.275842
v 0.191667 0.341667 0.331976
v -0.191667 0.525000 0.331976
v -0.126849 0.498151 0.331976
v -0.159258 0.498151 0.388111
v -0.224076 0.498151 0.388111
v -0.256485 0.498151 0.331976
v -0.224076 0.498151 0.275842
v -0.159258 0.498151 0.275842
v -0.100000 0.433333 0.331976
v -0.145833 0.433333 0.411362
v -0.237500 0.433333 0.411362
v -0.283333 0.433333 0.331976
v -0.237500 0.433333 0.252591
v -0.145833 0.433333 0.252591
v -0.126849 0.368515 0.331976
v -0.159258 0.368515 0.388111
v -0.224076 0.368515 0.388111
v -0.256485 0.368515 0.331976
v -0.224076 0.368515 0.275842
v -0.159258 0.368515 0.275842
v -0.191667 0.341667 0.331976
v -0.383333 0.525000 0.000000
v -0.318515 0.498151 0.000000
v -0.350924 0.498151 0.056134
v -0.415742 0.498151 0.056134
v -0.448151 0.498151 0.000000
v -0.415742 0.498151 -0.056134
v -0.350924 0.498151 -0.056134
v -0.291667 0.433333 0.000000
v -0.337500 0.433333 0.079386
v -0.429167 0.433333 0.079386
v -0.475000 0.433333 0.000000
v -0.429167 0.433333 -0.079386
v -0.337500 0.433333 -0.079386
v -0.318515 0.368515 0.000000
v -0.350924 0.368515 0.056134
v -0.415742 0.368515 0.056134
v -0.448151 0.368515 0.000000
v -0.415742 0.368515 -0.056134
v -0.350924 0.368515 -0.056134
v -0.383333 0.341667 0.000000
v -0.191667 0.525000 -0.331976
v -0.126849 0.498151 -0.331976
v -0.159258 0.498151 -0.275842
v -0.224076 0.498151 -0.275842
v -0.256485 0.498151 -0.331976
v -0.224076 0.498151 -0.388111
v -0.159258 0.498151 -0.388111
v -0.100000 0.433333 -0.331976
v -0.145833 0.433333 -0.252591
v -0.237500 0.433333 -0.252591
v -0.283333 0.433333 -0.331976
v -0.237500 0.433333 -0.411362
v -0.145833 0.433333 -0.411362
v -0.126849 0.368515 -0.331976
v -0.159258 0.368515 -0.275842
v -0.224076 0.368515 -0.275842
v -0.256485 0.368515 -0.331976
v -0.224076 0.368515 -0.388111
v -0.159258 0.368515 -0.388111
v -0.191667 0.341667 -0.331976
v 0.191667 0.525000 -0.331976
v 0.256485 0.498151 -0.331976
v 0.224076 0.498151 -0.275842
v 0.159258 0.498151 -0.275842
v 0.126849 0.498151 -0.331976
v 0.159258 0.498151 -0.388111
v 0.224076 0.498151 -0.388111
v 0.283333 0.433333 -0.331976
v 0.237500 0.433333 -0.252591
v 0.145833 0.433333 -0.252591
v 0.100000 0.433333 -0.331976
v 0.145833 0.433333 -0.411362
v 0.237500 0.433333 -0.411362
v 0.256485 0.368515 -0.331976
v 0.224076 0.368515 -0.275842
v 0.159258 0.368515 -0.275842
v 0.126849 0.368515 -0.331976
v 0.159258 0.368515 -0.388111
v 0.224076 0.368515 -0.388111
v 0.191667 0.341667 -0.331976
vn 0.8526 0.1755 -0.4922
vn -0.0000 0.1755 -0.9845
vn -0.8526 0.1755 -0.4922
vn -0.8526 0.1755 0.4922
vn -0.0000 0.1755 0.9845
vn 0.8526 0.1755 0.4922
vn -0.0000 1.0000 -0.0000
vn 0.4189 0.8977 0.1361
vn 0.2589 0.8977 0.3564
vn -0.0000 0.8977 0.4405
vn -0.2589 0.8977 0.3564
vn -0.4189 0.8977 0.1361
vn -0.4189 0.8977 -0.1361
vn -0.2589 0.8977 -0.3564
vn -0.0000 0.8977 -0.4405
vn 0.2589 0.8977 -0.3564
vn 0.4189 0.8977 -0.1361
vn -0.3737 -0.9021 -0.2157
vn -0.0000 -0.9021 -0.4315
vn 0.3737 -0.9021 -0.2157
vn 0.3737 -0.9021 0.2157
vn -0.0000 -0.9021 0.4315
vn -0.3737 -0.9021 0.2157
vn -0.8152 -0.3377 -0.4706
vn -0.0000 -0.3377 -0.9413
vn 0.8152 -0.3377 -0.4706
vn 0.8152 -0.3377 0.4706
vn -0.0000 -0.3377 0.9413
vn -0.8152 -0.3377 0.4706
vn -0.8152 0.3377 -0.4706
vn -0.0000 0.3377 -0.9413
vn 0.8152 0.3377 -0.4706
vn 0.8152 0.3377 0.4706
vn -0.0000 0.3377 0.9413
vn -0.8152 0.3377 0.4706
vn -0.3737 0.9021 -0.2157
vn -0.0000 0.9021 -0.4315
vn 0.3737 0.9021 -0.2157
vn 0.3737 0.9021 0.2157
vn -0.0000 0.9021 0.4315
vn -0.3737 0.9021 0.2157
s 0
f 1//1 2//1 7//1
f 2//2 3//2 7//2
f 3//3 4//3 7//3
f 4//4 5//4 7//4
f 5//5 6//5 7//5
f 6//6 1//6 7//6
f 2//7 4//7 6//7
f 8//8 10//8 9//8
f 8//9 11//9 10//9
f 8//10 12//10 11//10
f 8//11 13//11 12//11
f 8//12 14//12 13//12
f 8//13 15//13 14//13
f 8//14 16//14 15//14
f 8//15 17//15 16//15
f 8//16 18//16 17//16
f 8//17 9//17 18//17
f 15//7 11//7 9//7
f 19//18 20//18 21//18
f 19//19 21//19 22//19
f 19//20 22//20 23//20
f 19//21 23//21 24//21
f 19//22 24//22 25//22
f 19//23 25//23 20//23
f 26//24 21//24 20//24
f 27//25 22//25 21//25
f 28//26 23//26 22//26
f 23//27 30//27 24//27
f 24//28 31//28 25//28
f 31//29 20//29 25//29
f 26//30 33//30 27//30
f 33//31 28//31 27//31
f 28//32 35//32 29//32
f 35//33 30//33 29//33
f 36//34 31//34 30//34
f 37//35 26//35 31//35
f 38//36 33//36 32//36
f 38//37 34//37 33//37
f 38//38 35//38 34//38
f 38//39 36//39 35//39
f 38//40 37//40 36//40
f 38//41 32//41 37//41
f 39//18 40//18 41//18
f 39//19 41//19 42//19
f 39//20 42//20 43//20
f 39//21 43//21 44//21
f 39//22 44//22 45//22
f 39//23 45//23 40//23
f 46//24 41//24 40//24
f 47//25 42//25 41//25
f 48//26 43//26 42//26
f 49//27 44//27 43//27
f 44//28 51//28 45//28
f 45//29 46//29 40//29
f 52//30 47//30 46//30
f 53//31 48//31 47//31
f 54//32 49//32 48//32
f 49//33 56//33 50//33
f 56//34 51//34 50//34
f 51//35 52//35 46//35
f 58//36 53//36 52//36
f 58//37 54//37 53//37
f 58//38 55//38 54//38
f 58//39 56//39 55//39
f 58//40 57//40 56//40
f 58//41 52//41 57//41
f 59//18 60//18 61//18
f 59//19 61//19 62//19
f 59//20 62//20 63//20
f 59//21 63//21 64//21
f 59//22 64//22 65//22
f 59//23 65//23 60//23
f 60//24 67//24 61//24
f 67//25 62//25 61//25
f 68//26 63//26 62//26
f 69//27 64//27 63//27
f 70//28 65//28 64//28
f 65//29 66//29 60//29
f 72//30 67//30 66//30
f 73//31 68//31 67//31
f 74//32 69//32 68//32
f 69//33 76//33 70//33
f 76//34 71//34 70//34
f 77//35 66//35 71//35
f 78//36 73//36 72//36
f 78//37 74//37 73//37
f 78//38 75//38 74//38
f 78//39 76//39 75//39
f 78//40 77//40 76//40
f 78//41 72//41 77//41
f 79//18 80//18 81//18
f 79//19 81//19 82//19
f 79//20 82//20 83//20
f 79//21 83//21 84//21
f 79//22 84//22 85//22
f 79//23 85//23 80//23
f 80//24 87//24 81//24
f 81//25 88//25 82//25
f 88//26 83//26 82//26
f 89//27 84//27 83//27
f 90//28 85//28 84//28
f 91//29 80//29 85//29
f 92//30 87//30 86//30
f 93//31 88//31 87//31
f 94//32 89//32 88//32
f 89//33 96//33 90//33
f 96//34 91//34 90//34
f 91//35 92//35 86//35
f 98//36 93//36 92//36
f 98//37 94//37 93//37
f 98//38 95//38 94//38
f 98//39 96//39 95//39
f 98//40 97//40 96//40
f 98//41 92//41 97//41
f 99//18 100//18 101//18
f 99//19 101//19 102//19
f 99//20 102//20 103//20
f 99//21 103//21 104//21
f 99//22 104//22 105//22
f 99//23 105//23 100//23
f 106//24 101//24 100//24
f 101//25 108//25 102//25
f 102//26 109//26 103//26
f 109//27 104//27 103//27
f 110//28 105//28 104//28
f 111//29 100//29 105//29
f 106//30 113//30 107//30
f 113//31 108//31 107//31
f 108//32 115//32 109//32
f 115//33 110//33 109//33
f 116//34 111//34 110//34
f 117//35 106//35 111//35
f 118//36 113//36 112//36
f 118//37 114//37 113//37
f 118//38 115//38 114//38
f 118//39 116//39 115//39
f 118//40 117//40 116//40
f 118//41 112//41 117//41
f 119//18 120//18 121//18
f 119//19 121//19 122//19
f 119//20 122//20 123//20
f 119//21 123//21 124//21
f 119//22 124//22 125//22
f 119//23 125//23 120//23
f 126//24 121//24 120//24
f 127//25 122//25 121//25
f 122//26 129//26 123//26
f 123//27 130//27 124//27
f 130//28 125//28 124//28
f 131//29 120//29 125//29
f 126//30 133//30 127//30
f 133//31 128//31 127//31
f 134//32 129//32 128//32
f 135//33 130//33 129//33
f 136//34 131//34 130//34
f 137//35 126//35 131//35
f 138//36 133//36 132//36
f 138//37 134//37 133//37
f 138//38 135//38 134//38
f 138//39 136//39 135//39
f 138//40 137//40 136//40
f 138//41 132//41 137//41
f 6//7 1//7 2//7
f 2//7 3//7 4//7
f 4//7 5//7 6//7
f 9//7 18//7 17//7
f 17//7 16//7 15//7
f 15//7 14//7 13//7
f 13//7 12//7 11//7
f 11//7 10//7 9//7
f 9//7 17//7 15//7
f 15//7 13//7 11//7
f 26//24 27//24 21//24
f 27//25 28//25 22//25
f 28//26 29//26 23//26
f 23//27 29//27 30//27
f 24//28 30//28 31//28
f 31//29 26//29 20//29
f 26//30 32//30 33//30
f 33//31 34//31 28//31
f 28//32 34//32 35//32
f 35//33 36//33 30//33
f 36//34 37//34 31//34
f 37//35 32//35 26//35
f 46//24 47//24 41//24
f 47//25 48//25 42//25
f 48//26 49//26 43//26
f 49//27 50//27 44//27
f 44//28 50//28 51//28
f 45//29 51//29 46//29
f 52//30 53//30 47//30
f 53//31 54//31 48//31
f 54//32 55//32 49//32
f 49//33 55//33 56//33
f 56//34 57//34 51//34
f 51//35 57//35 52//35
f 60//24 66//24 67//24
f 67//25 68//25 62//25
f 68//26 69//26 63//26
f 69//27 70//27 64//27
f 70//28 71//28 65//28
f 65//29 71//29 66//29
f 72//30 73//30 67//30
f 73//31 74//31 68//31
f 74//32 75//32 69//32
f 69//33 75//33 76//33
f 76//34 77//34 71//34
f 77//35 72//35 66//35
f 80//24 86//24 87//24
f 81//25 87//25 88//25
f 88//26 89//26 83//26
f 89//27 90//27 84//27
f 90//28 91//28 85//28
f 91//29 86//29 80//29
f 92//30 93//30 87//30
f 93//31 94//31 88//31
f 94//32 95//32 89//32
f 89//33 95//33 96//33
f 96//34 97//34 91//34
f 91//35 97//35 92//35
f 106//24 107//24 101//24
f 101//25 107//25 108//25
f 102//26 108//26 109//26
f 109//27 110//27 104//27
f 110//28 111//28 105//28
f 111//29 106//29 100//29
f 106//30 112//30 113//30
f 113//31 114//31 108//31
f 108//32 114//32 115//32
f 115//33 116//33 110//33
f 116//34 117//34 111//34
f 117//35 112//35 106//35
f 126//24 127//24 121//24
f 127//25 128//25 122//25
f 122//26 128//26 129//26
f 123//27 129//27 130//27
f 130//28 131//28 125//28
f 131//29 126//29 120//29
f 126//30 132//30 133//30
f 133//31 134//31 128//31
f 134//32 135//32 129//32
f 135//33 136//33 130//33
f 136//34 137//34 131//34
f 137//35 132//35 126//35
