# Blender 5.2.1 LTS
# www.blender.org
mtllib BaseMeadow.mtl
o Plinth
v 0.000000 0.000000 -2.350000
v -0.043876 0.338992 -2.391692
v 1.381295 0.000000 -1.901190
v 1.351904 0.316363 -1.900642
v 2.234983 0.000000 -0.726190
v 2.253174 0.290758 -0.760837
v 2.234983 0.000000 0.726190
v 2.178385 0.315159 0.685898
v 1.381295 0.000000 1.901190
v 1.412769 0.316068 1.960937
v 0.000000 0.000000 2.350000
v 0.026585 0.352059 2.382548
v -1.381295 0.000000 1.901190
v -1.333124 0.285832 1.957519
v -2.234983 0.000000 0.726190
v -2.230013 0.311447 0.673492
v -2.234983 0.000000 -0.726190
v -2.268991 0.286091 -0.716844
v -1.381295 0.000000 -1.901190
v -1.414692 0.319698 -1.893736
vn 0.3089 0.0303 -0.9506
vn 0.8032 -0.1198 -0.5836
vn 0.9843 0.1768 -0.0000
vn 0.7901 0.2153 0.5740
vn 0.3071 -0.1106 0.9452
vn -0.3062 -0.1341 0.9425
vn -0.8040 0.1117 0.5841
vn -0.9999 0.0160 -0.0000
vn -0.0011 1.0000 -0.0096
vn -0.8070 -0.0706 -0.5863
vn -0.3053 -0.1551 -0.9396
vn -0.0000 -1.0000 -0.0000
vn 0.3299 -0.0731 -0.9412
vn 0.7831 0.0738 -0.6175
vn 0.9970 -0.0561 0.0525
vn 0.8433 -0.1797 0.5065
vn 0.2799 -0.2052 0.9378
vn -0.2948 -0.0659 0.9533
vn -0.8193 0.0252 0.5728
vn -0.9924 -0.1190 0.0300
vn 0.0115 0.9998 0.0134
vn -0.0050 0.9997 0.0249
vn 0.0569 0.9982 -0.0198
vn -0.0108 0.9927 -0.1202
vn -0.0294 0.9994 -0.0184
vn -0.0007 0.9995 0.0306
vn -0.0110 0.9999 0.0040
vn -0.8058 -0.0766 -0.5871
vn -0.3412 -0.0137 -0.9399
s 0
usemtl Plinth
f 1//1 4//1 3//1
f 3//2 6//2 5//2
f 5//3 8//3 7//3
f 8//4 9//4 7//4
f 9//5 12//5 11//5
f 11//6 14//6 13//6
f 13//7 16//7 15//7
f 16//8 17//8 15//8
f 18//9 10//9 6//9
f 17//10 20//10 19//10
f 19//11 2//11 1//11
f 7//12 15//12 19//12
f 1//13 2//13 4//13
f 3//14 4//14 6//14
f 5//15 6//15 8//15
f 8//16 10//16 9//16
f 9//17 10//17 12//17
f 11//18 12//18 14//18
f 13//19 14//19 16//19
f 16//20 18//20 17//20
f 6//21 4//21 2//21
f 2//22 20//22 18//22
f 18//23 16//23 14//23
f 14//24 12//24 10//24
f 10//25 8//25 6//25
f 6//26 2//26 18//26
f 18//27 14//27 10//27
f 17//28 18//28 20//28
f 19//29 20//29 2//29
f 19//12 1//12 3//12
f 3//12 5//12 7//12
f 7//12 9//12 11//12
f 11//12 13//12 15//12
f 15//12 17//12 19//12
f 19//12 3//12 7//12
f 7//12 11//12 15//12
o Stem
v 0.000000 0.300000 -1.000000
v 0.027362 2.784036 -0.886870
v 0.500000 0.300000 -0.866025
v 0.405092 2.808495 -0.764912
v 0.866025 0.300000 -0.500000
v 0.754966 2.803814 -0.418488
v 1.000000 0.300000 0.000000
v 0.866408 2.787702 -0.004872
v 0.866025 0.300000 0.500000
v 0.740622 2.808028 0.436388
v 0.500000 0.300000 0.866025
v 0.459689 2.801590 0.717818
v 0.000000 0.300000 1.000000
v -0.003309 2.783293 0.873906
v -0.500000 0.300000 0.866025
v -0.458353 2.793465 0.746888
v -0.866025 0.300000 0.500000
v -0.751981 2.800927 0.406493
v -1.000000 0.300000 0.000000
v -0.856369 2.782859 0.015833
v -0.866025 0.300000 -0.500000
v -0.755273 2.800368 -0.408202
v -0.500000 0.300000 -0.866025
v -0.400079 2.788546 -0.755251
vn 0.2586 0.0411 -0.9651
vn 0.7061 0.0543 -0.7061
vn 0.9647 0.0513 -0.2585
vn 0.9646 0.0523 0.2585
vn 0.7061 0.0532 0.7061
vn 0.2585 0.0493 0.9647
vn -0.2585 0.0486 0.9648
vn -0.7064 0.0455 0.7064
vn -0.9645 0.0541 0.2584
vn -0.9643 0.0574 -0.2584
vn -0.0022 0.9999 0.0146
vn -0.7058 0.0598 -0.7058
vn -0.2585 0.0533 -0.9646
vn -0.0000 -1.0000 -0.0000
vn 0.3039 0.0498 -0.9514
vn 0.7029 0.0552 -0.7091
vn 0.9648 0.0512 -0.2580
vn 0.9609 0.0549 0.2714
vn 0.3167 0.0612 0.9466
vn -0.2675 0.0504 0.9622
vn -0.7553 0.0588 0.6528
vn -0.9653 0.0536 0.2555
vn -0.9719 0.0515 -0.2296
vn -0.1013 0.9881 0.1157
vn 0.0001 0.9994 -0.0339
vn -0.1706 0.9853 -0.0000
vn 0.0214 0.9998 0.0035
vn -0.0479 0.9985 -0.0249
vn 0.1516 0.9884 -0.0023
vn -0.0025 0.9993 -0.0382
vn 0.0240 0.9997 -0.0008
vn -0.0365 0.9993 -0.0055
vn -0.6967 0.0571 -0.7150
vn -0.2935 0.0467 -0.9548
s 0
usemtl Stem
f 22//30 23//30 21//30
f 23//31 26//31 25//31
f 25//32 28//32 27//32
f 28//33 29//33 27//33
f 29//34 32//34 31//34
f 31//35 34//35 33//35
f 34//36 35//36 33//36
f 36//37 37//37 35//37
f 37//38 40//38 39//38
f 40//39 41//39 39//39
f 42//40 34//40 26//40
f 41//41 44//41 43//41
f 44//42 21//42 43//42
f 27//43 35//43 43//43
f 22//44 24//44 23//44
f 23//45 24//45 26//45
f 25//46 26//46 28//46
f 28//47 30//47 29//47
f 29//34 30//34 32//34
f 31//48 32//48 34//48
f 34//49 36//49 35//49
f 36//50 38//50 37//50
f 37//51 38//51 40//51
f 40//52 42//52 41//52
f 26//53 24//53 22//53
f 22//54 44//54 42//54
f 42//55 40//55 38//55
f 38//56 36//56 34//56
f 34//57 32//57 30//57
f 30//58 28//58 26//58
f 26//59 22//59 42//59
f 42//60 38//60 34//60
f 34//61 30//61 26//61
f 41//62 42//62 44//62
f 44//63 22//63 21//63
f 43//43 21//43 23//43
f 23//43 25//43 27//43
f 27//43 29//43 31//43
f 31//43 33//43 35//43
f 35//43 37//43 39//43
f 39//43 41//43 43//43
f 43//43 23//43 27//43
f 27//43 31//43 35//43
f 35//43 39//43 43//43
o Cap
v 0.000000 4.174796 0.000000
v 0.000000 3.229445 -2.436978
v 0.000000 2.620000 -2.637766
v 0.378522 4.067649 -0.913833
v 0.699418 3.748328 -1.688543
v 0.913833 3.237595 -2.206188
v 0.989126 2.620000 -2.387961
v 0.659087 4.037206 -0.659087
v 1.217834 3.689252 -1.217834
v 1.591177 3.258769 -1.591177
v 1.722278 2.620000 -1.722277
v 0.920227 4.056589 -0.381170
v 1.700358 3.711369 -0.704311
v 2.221625 3.274587 -0.920227
v 2.404669 2.620000 -0.996046
v 1.004132 4.077680 0.000000
v 1.855394 3.771582 0.000000
v 2.424189 3.222658 0.000000
v 2.623924 2.620000 0.000000
v 0.862891 4.094560 0.357421
v 1.594415 3.702997 0.660429
v 2.083204 3.238508 0.862892
v 2.254843 2.620000 0.933987
v 0.692673 4.117458 0.692674
v 1.279893 3.740254 1.279894
v 1.672261 3.249148 1.672262
v 1.810042 2.620000 1.810043
v 0.388359 4.097795 0.937582
v 0.717594 3.694339 1.732426
v 0.937582 3.250845 2.263524
v 1.014831 2.620000 2.450020
v -0.000000 4.089763 0.942256
v -0.000001 3.718062 1.741062
v -0.000001 3.178123 2.274807
v -0.000001 2.620000 2.462234
v -0.368356 4.117206 0.889289
v -0.680633 3.735210 1.643192
v -0.889290 3.246905 2.146933
v -0.962560 2.620000 2.323824
v -0.720963 4.118535 0.720963
v -1.332166 3.759349 1.332165
v -1.740559 3.267132 1.740557
v -1.883967 2.620000 1.883966
v -0.882895 4.070149 0.365707
v -1.631377 3.768027 0.675738
v -2.131497 3.219485 0.882894
v -2.307116 2.620000 0.955637
v -0.947553 4.124212 -0.000000
v -1.750850 3.775822 -0.000001
v -2.287595 3.184768 -0.000001
v -2.476075 2.620000 -0.000001
v -0.940230 4.044250 -0.389457
v -1.737319 3.709634 -0.719622
v -2.269917 3.271570 -0.940231
v -2.456940 2.620000 -1.017699
v -0.687376 4.074269 -0.687377
v -1.270105 3.750600 -1.270106
v -1.659472 3.205125 -1.659474
v -1.796200 2.620000 -1.796201
v -0.358518 4.081378 -0.865540
v -0.662455 3.726522 -1.599309
v -0.865539 3.210114 -2.089598
v -0.936852 2.620000 -2.261765
v 0.000001 4.089161 -1.009429
v 0.000001 3.746361 -1.865182
vn 0.1606 0.7322 -0.6619
vn 0.0777 0.9934 -0.0843
vn 0.2333 0.3043 -0.9236
vn 0.0909 0.9244 -0.3703
vn 0.6439 0.2872 -0.7092
vn 0.3244 0.9143 -0.2425
vn 0.4531 0.7212 -0.5239
vn 0.1541 0.9867 -0.0518
vn 0.4577 0.7678 -0.4482
vn 0.0708 0.9882 -0.1355
vn 0.7012 0.2724 -0.6589
vn 0.2788 0.9119 -0.3012
vn 0.6170 0.7816 -0.0917
vn 0.0960 0.9925 -0.0760
vn 0.9292 0.3079 -0.2045
vn 0.3453 0.9256 -0.1551
vn 0.8888 0.2946 0.3512
vn 0.3297 0.9168 0.2255
vn 0.6719 0.6962 0.2527
vn 0.0963 0.9953 -0.0090
vn 0.8554 0.2824 0.4343
vn 0.4170 0.8951 0.1579
vn 0.6128 0.7305 0.3015
vn 0.0997 0.9949 -0.0173
vn 0.3941 0.7792 0.4874
vn 0.0011 0.9967 0.0814
vn 0.5993 0.2936 0.7447
vn 0.2215 0.9035 0.3669
vn -0.0508 0.7561 0.6524
vn -0.0195 0.9958 0.0899
vn 0.0115 0.2848 0.9585
vn 0.0350 0.8969 0.4408
vn -0.1351 0.3154 0.9393
vn -0.0404 0.8979 0.4382
vn -0.0425 0.7261 0.6863
vn 0.0612 0.9941 0.0897
vn -0.1501 0.9106 0.3851
vn -0.2759 0.7389 0.6147
vn -0.0226 0.9982 0.0553
vn -0.4132 0.2833 0.8655
vn -0.6341 0.7322 0.2484
vn -0.1453 0.9870 -0.0682
vn -0.8731 0.2817 0.3980
vn -0.3613 0.9156 0.1768
vn -0.0527 0.9865 0.1551
vn -0.9355 0.3122 0.1654
vn -0.3475 0.9349 0.0722
vn -0.7163 0.6907 0.0995
vn -0.9605 0.2778 -0.0181
vn -0.3527 0.9312 -0.0923
vn -0.6484 0.7591 0.0579
vn -0.0522 0.9780 -0.2018
vn -0.4478 0.7718 -0.4514
vn -0.1324 0.9911 -0.0125
vn -0.7241 0.3128 -0.6146
vn -0.3103 0.9306 -0.1941
vn -0.3454 0.6960 -0.6295
vn -0.0651 0.9946 -0.0804
vn -0.4541 0.3020 -0.8382
vn -0.1562 0.9215 -0.3557
vn -0.0000 -1.0000 -0.0000
vn -0.3562 0.2924 -0.8875
vn -0.1743 0.9141 -0.3662
vn -0.2747 0.7133 -0.6448
vn -0.0555 0.9949 -0.0844
vn 0.1640 0.7353 -0.6576
vn 0.2310 0.3005 -0.9254
vn 0.1361 0.9345 -0.3288
vn 0.6409 0.2784 -0.7154
vn 0.3228 0.9139 -0.2463
vn 0.4713 0.7746 -0.4218
vn 0.4435 0.7750 -0.4501
vn 0.6966 0.2787 -0.6611
vn 0.2608 0.9147 -0.3088
vn 0.6790 0.7036 -0.2096
vn 0.9394 0.2848 -0.1907
vn 0.3357 0.9336 -0.1256
vn 0.8925 0.2876 0.3474
vn 0.4269 0.8954 0.1264
vn 0.5848 0.7500 0.3090
vn 0.8557 0.2870 0.4307
vn 0.4173 0.8962 0.1507
vn 0.6055 0.7514 0.2622
vn 0.3814 0.7435 0.5493
vn 0.5996 0.2943 0.7442
vn 0.2273 0.9067 0.3552
vn 0.0318 0.7027 0.7108
vn -0.0133 0.3183 0.9479
vn -0.0137 0.9066 0.4218
vn -0.1151 0.2822 0.9524
vn 0.0069 0.9066 0.4219
vn -0.0842 0.7005 0.7086
vn -0.1800 0.9055 0.3842
vn -0.2648 0.7449 0.6124
vn -0.4064 0.2918 0.8658
vn -0.6445 0.7020 0.3030
vn -0.8736 0.3022 0.3814
vn -0.3607 0.9319 0.0375
vn -0.9428 0.2950 0.1551
vn -0.3897 0.8986 0.2017
vn -0.7333 0.6659 0.1373
vn -0.9485 0.3165 0.0114
vn -0.3905 0.9003 -0.1922
vn -0.7382 0.6704 -0.0755
vn -0.5642 0.7070 -0.4263
vn -0.7185 0.2818 -0.6359
vn -0.3287 0.9260 -0.1857
vn -0.3105 0.7159 -0.6254
vn -0.4559 0.2996 -0.8381
vn -0.2111 0.9114 -0.3533
vn -0.3610 0.3011 -0.8826
vn -0.1689 0.9129 -0.3715
vn -0.2782 0.7166 -0.6396
s 0
usemtl Cap
f 109//64 50//64 46//64
f 108//65 45//65 48//65
f 46//66 51//66 47//66
f 108//67 49//67 109//67
f 50//68 55//68 51//68
f 48//69 53//69 49//69
f 49//70 54//70 50//70
f 48//71 45//71 52//71
f 54//72 57//72 58//72
f 52//73 45//73 56//73
f 55//74 58//74 59//74
f 53//75 56//75 57//75
f 57//76 62//76 58//76
f 56//77 45//77 60//77
f 59//78 62//78 63//78
f 56//79 61//79 57//79
f 62//80 67//80 63//80
f 60//81 65//81 61//81
f 61//82 66//82 62//82
f 60//83 45//83 64//83
f 67//84 70//84 71//84
f 65//85 68//85 69//85
f 66//86 69//86 70//86
f 64//87 45//87 68//87
f 70//88 73//88 74//88
f 68//89 45//89 72//89
f 71//90 74//90 75//90
f 69//91 72//91 73//91
f 73//92 78//92 74//92
f 72//93 45//93 76//93
f 74//94 79//94 75//94
f 72//95 77//95 73//95
f 78//96 83//96 79//96
f 77//97 80//97 81//97
f 78//98 81//98 82//98
f 76//99 45//99 80//99
f 81//100 84//100 85//100
f 82//101 85//101 86//101
f 80//102 45//102 84//102
f 83//103 86//103 87//103
f 85//104 90//104 86//104
f 84//105 45//105 88//105
f 86//106 91//106 87//106
f 84//107 89//107 85//107
f 88//108 45//108 92//108
f 91//109 94//109 95//109
f 88//110 93//110 89//110
f 89//111 94//111 90//111
f 95//112 98//112 99//112
f 93//113 96//113 97//113
f 94//114 97//114 98//114
f 92//115 45//115 96//115
f 97//116 102//116 98//116
f 96//117 45//117 100//117
f 99//118 102//118 103//118
f 96//119 101//119 97//119
f 101//120 106//120 102//120
f 100//121 45//121 104//121
f 102//122 107//122 103//122
f 100//123 105//123 101//123
f 79//124 95//124 47//124
f 107//125 46//125 47//125
f 105//126 108//126 109//126
f 106//127 109//127 46//127
f 104//128 45//128 108//128
f 109//129 49//129 50//129
f 46//130 50//130 51//130
f 108//131 48//131 49//131
f 50//132 54//132 55//132
f 48//133 52//133 53//133
f 49//134 53//134 54//134
f 54//135 53//135 57//135
f 55//136 54//136 58//136
f 53//137 52//137 56//137
f 57//138 61//138 62//138
f 59//139 58//139 62//139
f 56//140 60//140 61//140
f 62//141 66//141 67//141
f 60//142 64//142 65//142
f 61//143 65//143 66//143
f 67//144 66//144 70//144
f 65//145 64//145 68//145
f 66//146 65//146 69//146
f 70//147 69//147 73//147
f 71//148 70//148 74//148
f 69//149 68//149 72//149
f 73//150 77//150 78//150
f 74//151 78//151 79//151
f 72//152 76//152 77//152
f 78//153 82//153 83//153
f 77//154 76//154 80//154
f 78//155 77//155 81//155
f 81//156 80//156 84//156
f 82//157 81//157 85//157
f 83//158 82//158 86//158
f 85//159 89//159 90//159
f 86//160 90//160 91//160
f 84//161 88//161 89//161
f 91//162 90//162 94//162
f 88//163 92//163 93//163
f 89//164 93//164 94//164
f 95//165 94//165 98//165
f 93//166 92//166 96//166
f 94//167 93//167 97//167
f 97//168 101//168 102//168
f 99//169 98//169 102//169
f 96//170 100//170 101//170
f 101//171 105//171 106//171
f 102//172 106//172 107//172
f 100//173 104//173 105//173
f 47//124 51//124 55//124
f 55//124 59//124 63//124
f 63//124 67//124 71//124
f 71//124 75//124 79//124
f 79//124 83//124 87//124
f 87//124 91//124 95//124
f 95//124 99//124 103//124
f 103//124 107//124 47//124
f 47//124 55//124 63//124
f 63//124 71//124 79//124
f 79//124 87//124 95//124
f 95//124 103//124 47//124
f 47//124 63//124 79//124
f 107//174 106//174 46//174
f 105//175 104//175 108//175
f 106//176 105//176 109//176
o Spots
v 0.000000 4.002600 0.000000
v 0.448632 4.112273 0.325946
v -0.171359 4.112273 0.527397
v -0.554543 4.112273 0.000000
v -0.171359 4.112273 -0.527397
v 0.448632 4.112273 -0.325946
v 0.171359 4.289728 0.527397
v -0.448632 4.289728 0.325946
v -0.448632 4.289728 -0.325946
v 0.171359 4.289728 -0.527397
v 0.554543 4.289728 0.000000
v 0.000000 4.399400 0.000000
v 1.049458 3.900524 -0.383082
v 1.365240 3.908177 -0.166613
v 0.964503 4.041118 -0.037175
v 0.710220 4.077667 -0.396377
v 0.953812 3.967312 -0.747810
v 1.358633 3.862562 -0.605806
v 1.221166 4.090050 -0.046119
v 0.816345 4.194800 -0.188123
v 0.809738 4.149186 -0.627316
v 1.210475 4.016244 -0.756754
v 1.464758 3.979695 -0.397552
v 1.125520 4.156838 -0.410847
v -1.096872 3.543193 -1.506908
v -0.870100 3.800396 -1.382715
v -1.255465 3.723840 -1.232650
v -1.455469 3.476764 -1.508044
v -1.193704 3.400624 -1.828313
v -0.831930 3.600640 -1.750852
v -1.088545 3.892930 -1.307093
v -1.450319 3.692914 -1.384554
v -1.412149 3.493158 -1.752691
v -1.026783 3.569715 -1.902756
v -0.826780 3.816790 -1.627362
v -1.185377 3.750362 -1.628498
v -1.264878 3.640027 1.198377
v -1.035163 3.725205 1.416799
v -1.357917 3.545108 1.498487
v -1.585762 3.570980 1.197325
v -1.403815 3.767070 0.929511
v -1.063529 3.862385 1.065155
v -1.214075 3.708801 1.550742
v -1.554360 3.613487 1.415098
v -1.582726 3.750666 1.063454
v -1.259972 3.930764 0.981766
v -1.032128 3.904891 1.282928
v -1.353011 3.835845 1.281876
v 0.927618 3.451922 1.749156
v 1.202541 3.297122 1.932070
v 0.810686 3.344238 2.077384
v 0.610162 3.614552 1.825173
v 0.878096 3.734496 1.523985
v 1.244203 3.538313 1.590053
v 1.054997 3.364081 2.121137
v 0.688890 3.560264 2.055069
v 0.730552 3.801455 1.713052
v 1.122408 3.754339 1.567738
v 1.322931 3.484025 1.819949
v 1.005475 3.646655 1.895966
v 0.847976 3.063994 -2.181123
v 1.095357 3.149156 -2.101345
v 0.834107 3.325911 -2.103528
v 0.615559 3.174748 -2.273490
v 0.741746 2.904567 -2.376347
v 1.038275 2.888753 -2.269955
v 1.015829 3.312544 -2.144404
v 0.719300 3.328359 -2.250797
v 0.662219 3.067956 -2.419407
v 0.923469 2.891200 -2.417224
v 1.142017 3.042364 -2.247261
v 0.909599 3.153117 -2.339628
v -2.343921 3.023066 -0.334118
v -2.311868 3.244521 -0.211228
v -2.441202 3.005144 -0.098774
v -2.497458 2.819576 -0.320305
v -2.402890 2.944272 -0.569671
v -2.288190 3.206900 -0.502256
v -2.445596 3.177898 -0.121463
v -2.560296 2.915269 -0.188879
v -2.536618 2.877649 -0.479907
v -2.407284 3.117026 -0.592361
v -2.351028 3.302594 -0.370830
v -2.504565 3.099103 -0.357017
v -0.269386 2.959034 2.386803
v -0.077839 2.868657 2.493273
v -0.329731 2.763183 2.505944
v -0.504877 2.951320 2.412863
v -0.361226 3.173069 2.342664
v -0.097304 3.121978 2.392361
v -0.194948 2.805086 2.585135
v -0.458870 2.856176 2.535439
v -0.478335 3.109497 2.434527
v -0.226443 3.214971 2.421855
v -0.051297 3.026834 2.514937
v -0.286789 3.019120 2.540997
vn 0.0734 -0.9714 0.2258
vn 0.2375 -0.9714 -0.0000
vn -0.1921 -0.9714 0.1396
vn -0.1921 -0.9714 -0.1396
vn 0.0734 -0.9714 -0.2258
vn 0.8587 -0.5125 -0.0000
vn 0.2654 -0.5125 0.8167
vn -0.6947 -0.5125 0.5047
vn -0.6947 -0.5125 -0.5047
vn 0.2654 -0.5125 -0.8167
vn 0.6947 0.5125 0.5047
vn -0.2654 0.5125 0.8167
vn -0.8587 0.5125 -0.0000
vn -0.2654 0.5125 -0.8167
vn 0.6947 0.5125 -0.5047
vn 0.1921 0.9714 0.1396
vn -0.0734 0.9714 0.2258
vn -0.2375 0.9714 -0.0000
vn -0.0734 0.9714 -0.2258
vn 0.1921 0.9714 -0.1396
vn -0.2011 -0.9237 0.3260
vn -0.0471 -0.9935 0.1039
vn -0.4570 -0.8575 0.2363
vn -0.4612 -0.8863 -0.0414
vn -0.2079 -0.9704 -0.1232
vn 0.6785 -0.7317 0.0658
vn 0.1217 -0.4794 0.8691
vn -0.8037 -0.2400 0.5445
vn -0.8188 -0.3442 -0.4594
vn 0.0972 -0.6481 -0.7553
vn 0.8188 0.3442 0.4594
vn -0.0972 0.6481 0.7553
vn -0.6785 0.7317 -0.0658
vn -0.1217 0.4794 -0.8691
vn 0.8037 0.2400 -0.5445
vn 0.4612 0.8863 0.0414
vn 0.2079 0.9704 0.1232
vn 0.0471 0.9935 -0.1039
vn 0.2011 0.9237 -0.3260
vn 0.4570 0.8575 -0.2363
vn 0.3839 -0.6535 0.6524
vn 0.5576 -0.7040 0.4398
vn 0.1437 -0.7862 0.6010
vn 0.1691 -0.9188 0.3566
vn 0.4249 -0.8680 0.2570
vn 0.9791 -0.1179 0.1655
vn 0.3509 0.0649 0.9342
vn -0.5174 -0.4152 0.7483
vn -0.4258 -0.8946 -0.1354
vn 0.4991 -0.7109 -0.4955
vn 0.4258 0.8946 0.1354
vn -0.4991 0.7109 0.4955
vn -0.9791 0.1179 -0.1655
vn -0.3509 -0.0649 -0.9342
vn 0.5174 0.4152 -0.7483
vn -0.1691 0.9188 -0.3566
vn -0.4249 0.8680 -0.2570
vn -0.5576 0.7040 -0.4398
vn -0.3839 0.6535 -0.6524
vn -0.1437 0.7862 -0.6010
vn 0.4561 -0.8794 -0.1367
vn 0.5903 -0.7348 -0.3342
vn 0.2051 -0.9497 -0.2368
vn 0.1842 -0.8485 -0.4961
vn 0.4222 -0.7157 -0.5564
vn 0.9868 -0.1071 -0.1214
vn 0.5016 -0.6300 0.5928
vn -0.4059 -0.8842 0.2311
vn -0.4815 -0.5184 -0.7067
vn 0.3792 -0.0381 -0.9245
vn 0.4815 0.5184 0.7067
vn -0.3792 0.0381 0.9245
vn -0.9868 0.1071 0.1214
vn -0.5016 0.6300 -0.5928
vn 0.4059 0.8842 -0.2311
vn -0.1842 0.8485 0.4961
vn -0.4222 0.7157 0.5564
vn -0.5903 0.7348 0.3342
vn -0.4561 0.8794 0.1367
vn -0.2051 0.9497 0.2368
vn -0.2483 -0.8908 -0.3807
vn -0.0704 -0.8111 -0.5806
vn -0.4913 -0.7605 -0.4245
vn -0.4636 -0.6004 -0.6516
vn -0.2035 -0.6317 -0.7480
vn 0.6577 -0.6510 -0.3790
vn 0.0147 -0.9389 0.3439
vn -0.8641 -0.4680 0.1854
vn -0.7641 0.1109 -0.6355
vn 0.1765 -0.0022 -0.9843
vn 0.7641 -0.1109 0.6355
vn -0.1765 0.0022 0.9843
vn -0.6577 0.6510 0.3790
vn -0.0147 0.9389 -0.3439
vn 0.8641 0.4680 -0.1854
vn 0.4636 0.6004 0.6516
vn 0.2035 0.6317 0.7480
vn 0.0704 0.8111 0.5806
vn 0.2483 0.8908 0.3807
vn 0.4913 0.7605 0.4245
vn -0.2027 -0.2880 0.9359
vn -0.0910 -0.5271 0.8449
vn -0.4651 -0.2740 0.8418
vn -0.5156 -0.5045 0.6926
vn -0.2844 -0.6609 0.6945
vn 0.6338 -0.5135 0.5785
vn 0.2300 0.3511 0.9076
vn -0.7190 0.4018 0.5672
vn -0.9016 -0.4316 0.0276
vn -0.0656 -0.9972 0.0346
vn 0.9016 0.4316 -0.0276
vn 0.0656 0.9972 -0.0346
vn -0.6338 0.5135 -0.5785
vn -0.2300 -0.3511 -0.9076
vn 0.7190 -0.4018 -0.5672
vn 0.5156 0.5045 -0.6926
vn 0.2844 0.6609 -0.6945
vn 0.0910 0.5271 -0.8449
vn 0.2027 0.2880 -0.9359
vn 0.4651 0.2740 -0.8418
vn 0.8846 -0.3175 0.3415
vn 0.9743 -0.1993 0.1050
vn 0.7759 -0.5666 0.2776
vn 0.7983 -0.6022 0.0016
vn 0.9210 -0.3753 -0.1050
vn 0.8336 0.5523 -0.0036
vn 0.5094 0.1248 0.8515
vn 0.1161 -0.7757 0.6203
vn 0.1973 -0.9047 -0.3776
vn 0.6407 -0.0839 -0.7632
vn -0.1973 0.9047 0.3776
vn -0.6407 0.0839 0.7632
vn -0.8336 -0.5523 0.0036
vn -0.5094 -0.1248 -0.8515
vn -0.1161 0.7757 -0.6203
vn -0.7983 0.6022 -0.0016
vn -0.9210 0.3753 0.1050
vn -0.9743 0.1993 -0.1050
vn -0.8846 0.3175 -0.3415
vn -0.7759 0.5666 -0.2776
vn 0.1905 -0.5524 -0.8115
vn 0.3372 -0.3259 -0.8832
vn -0.0790 -0.5002 -0.8623
vn -0.0989 -0.2415 -0.9653
vn 0.1583 -0.1338 -0.9783
vn 0.9054 -0.0953 -0.4138
vn 0.3750 -0.9141 -0.1545
vn -0.5996 -0.7254 -0.3380
vn -0.6715 0.2100 -0.7107
vn 0.2587 0.5995 -0.7575
vn 0.6715 -0.2100 0.7107
vn -0.2587 -0.5995 0.7575
vn -0.9054 0.0953 0.4138
vn -0.3750 0.9141 0.1545
vn 0.5996 0.7254 0.3380
vn 0.0989 0.2415 0.9653
vn -0.1583 0.1338 0.9783
vn -0.3372 0.3259 0.8832
vn -0.1905 0.5524 0.8115
vn 0.0790 0.5002 0.8623
s 0
usemtl Spots
f 110//177 111//177 112//177
f 111//178 110//178 115//178
f 110//179 112//179 113//179
f 110//180 113//180 114//180
f 110//181 114//181 115//181
f 111//182 115//182 120//182
f 112//183 111//183 116//183
f 113//184 112//184 117//184
f 114//185 113//185 118//185
f 115//186 114//186 119//186
f 111//187 120//187 116//187
f 112//188 116//188 117//188
f 113//189 117//189 118//189
f 114//190 118//190 119//190
f 115//191 119//191 120//191
f 116//192 120//192 121//192
f 117//193 116//193 121//193
f 118//194 117//194 121//194
f 119//195 118//195 121//195
f 120//196 119//196 121//196
f 122//197 123//197 124//197
f 123//198 122//198 127//198
f 122//199 124//199 125//199
f 122//200 125//200 126//200
f 122//201 126//201 127//201
f 123//202 127//202 132//202
f 124//203 123//203 128//203
f 125//204 124//204 129//204
f 126//205 125//205 130//205
f 127//206 126//206 131//206
f 123//207 132//207 128//207
f 124//208 128//208 129//208
f 125//209 129//209 130//209
f 126//210 130//210 131//210
f 127//211 131//211 132//211
f 128//212 132//212 133//212
f 129//213 128//213 133//213
f 130//214 129//214 133//214
f 131//215 130//215 133//215
f 132//216 131//216 133//216
f 134//217 135//217 136//217
f 135//218 134//218 139//218
f 134//219 136//219 137//219
f 134//220 137//220 138//220
f 134//221 138//221 139//221
f 135//222 139//222 144//222
f 136//223 135//223 140//223
f 137//224 136//224 141//224
f 138//225 137//225 142//225
f 139//226 138//226 143//226
f 135//227 144//227 140//227
f 136//228 140//228 141//228
f 137//229 141//229 142//229
f 138//230 142//230 143//230
f 139//231 143//231 144//231
f 140//232 144//232 145//232
f 141//233 140//233 145//233
f 142//234 141//234 145//234
f 143//235 142//235 145//235
f 144//236 143//236 145//236
f 146//237 147//237 148//237
f 147//238 146//238 151//238
f 146//239 148//239 149//239
f 146//240 149//240 150//240
f 146//241 150//241 151//241
f 147//242 151//242 156//242
f 148//243 147//243 152//243
f 149//244 148//244 153//244
f 150//245 149//245 154//245
f 151//246 150//246 155//246
f 147//247 156//247 152//247
f 148//248 152//248 153//248
f 149//249 153//249 154//249
f 150//250 154//250 155//250
f 151//251 155//251 156//251
f 152//252 156//252 157//252
f 153//253 152//253 157//253
f 154//254 153//254 157//254
f 155//255 154//255 157//255
f 156//256 155//256 157//256
f 158//257 159//257 160//257
f 159//258 158//258 163//258
f 158//259 160//259 161//259
f 158//260 161//260 162//260
f 158//261 162//261 163//261
f 159//262 163//262 168//262
f 160//263 159//263 164//263
f 161//264 160//264 165//264
f 162//265 161//265 166//265
f 163//266 162//266 167//266
f 159//267 168//267 164//267
f 160//268 164//268 165//268
f 161//269 165//269 166//269
f 162//270 166//270 167//270
f 163//271 167//271 168//271
f 164//272 168//272 169//272
f 165//273 164//273 169//273
f 166//274 165//274 169//274
f 167//275 166//275 169//275
f 168//276 167//276 169//276
f 170//277 171//277 172//277
f 171//278 170//278 175//278
f 170//279 172//279 173//279
f 170//280 173//280 174//280
f 170//281 174//281 175//281
f 171//282 175//282 180//282
f 172//283 171//283 176//283
f 173//284 172//284 177//284
f 174//285 173//285 178//285
f 175//286 174//286 179//286
f 171//287 180//287 176//287
f 172//288 176//288 177//288
f 173//289 177//289 178//289
f 174//290 178//290 179//290
f 175//291 179//291 180//291
f 176//292 180//292 181//292
f 177//293 176//293 181//293
f 178//294 177//294 181//294
f 179//295 178//295 181//295
f 180//296 179//296 181//296
f 182//297 183//297 184//297
f 183//298 182//298 187//298
f 182//299 184//299 185//299
f 182//300 185//300 186//300
f 182//301 186//301 187//301
f 183//302 187//302 192//302
f 184//303 183//303 188//303
f 185//304 184//304 189//304
f 186//305 185//305 190//305
f 187//306 186//306 191//306
f 183//307 192//307 188//307
f 184//308 188//308 189//308
f 185//309 189//309 190//309
f 186//310 190//310 191//310
f 187//311 191//311 192//311
f 188//312 192//312 193//312
f 189//313 188//313 193//313
f 190//314 189//314 193//314
f 191//315 190//315 193//315
f 192//316 191//316 193//316
f 194//317 195//317 196//317
f 195//318 194//318 199//318
f 194//319 196//319 197//319
f 194//320 197//320 198//320
f 194//321 198//321 199//321
f 195//322 199//322 204//322
f 196//323 195//323 200//323
f 197//324 196//324 201//324
f 198//325 197//325 202//325
f 199//326 198//326 203//326
f 195//327 204//327 200//327
f 196//328 200//328 201//328
f 197//329 201//329 202//329
f 198//330 202//330 203//330
f 199//331 203//331 204//331
f 200//332 204//332 205//332
f 201//333 200//333 205//333
f 202//334 201//334 205//334
f 203//335 202//335 205//335
f 204//336 203//336 205//336
o Door
v -0.390000 0.330000 1.130000
v -0.390000 1.190000 1.130000
v -0.390000 0.330000 0.910000
v -0.390000 1.190000 0.910000
v 0.390000 0.330000 1.130000
v 0.390000 1.190000 1.130000
v 0.390000 0.330000 0.910000
v 0.390000 1.190000 0.910000
v 0.000000 1.580000 0.910000
v 0.000000 1.580000 1.130000
v 0.229236 1.505517 0.910000
v 0.229236 1.505517 1.130000
v 0.370912 1.310517 0.910000
v 0.370912 1.310517 1.130000
v 0.370912 1.069483 0.910000
v 0.370912 1.069483 1.130000
v 0.229236 0.874483 0.910000
v 0.229236 0.874483 1.130000
v 0.000000 0.800000 0.910000
v 0.000000 0.800000 1.130000
v -0.229236 0.874483 0.910000
v -0.229236 0.874483 1.130000
v -0.370912 1.069483 0.910000
v -0.370912 1.069483 1.130000
v -0.370912 1.310517 0.910000
v -0.370912 1.310517 1.130000
v -0.229236 1.505517 0.910000
v -0.229236 1.505517 1.130000
vn -1.0000 -0.0000 -0.0000
vn -0.0000 -0.0000 -1.0000
vn 1.0000 -0.0000 -0.0000
vn -0.0000 -0.0000 1.0000
vn -0.0000 -1.0000 -0.0000
vn -0.0000 1.0000 -0.0000
vn 0.3090 0.9511 -0.0000
vn 0.8090 0.5878 -0.0000
vn 0.8090 -0.5878 -0.0000
vn 0.3090 -0.9511 -0.0000
vn -0.3090 -0.9511 -0.0000
vn -0.8090 -0.5878 -0.0000
vn -0.8090 0.5878 -0.0000
vn -0.3090 0.9511 -0.0000
s 0
usemtl Door
f 207//337 208//337 206//337
f 209//338 212//338 208//338
f 213//339 210//339 212//339
f 211//340 206//340 210//340
f 212//341 206//341 208//341
f 209//342 211//342 213//342
f 215//343 216//343 214//343
f 217//344 218//344 216//344
f 219//339 220//339 218//339
f 221//345 222//345 220//345
f 223//346 224//346 222//346
f 225//347 226//347 224//347
f 227//348 228//348 226//348
f 229//337 230//337 228//337
f 231//340 223//340 219//340
f 231//349 232//349 230//349
f 233//350 214//350 232//350
f 220//338 228//338 232//338
f 207//337 209//337 208//337
f 209//338 213//338 212//338
f 213//339 211//339 210//339
f 211//340 207//340 206//340
f 212//341 210//341 206//341
f 209//342 207//342 211//342
f 215//343 217//343 216//343
f 217//344 219//344 218//344
f 219//339 221//339 220//339
f 221//345 223//345 222//345
f 223//346 225//346 224//346
f 225//347 227//347 226//347
f 227//348 229//348 228//348
f 229//337 231//337 230//337
f 219//340 217//340 215//340
f 215//340 233//340 231//340
f 231//340 229//340 227//340
f 227//340 225//340 223//340
f 223//340 221//340 219//340
f 219//340 215//340 231//340
f 231//340 227//340 223//340
f 231//349 233//349 232//349
f 233//350 215//350 214//350
f 232//338 214//338 216//338
f 216//338 218//338 220//338
f 220//338 222//338 224//338
f 224//338 226//338 228//338
f 228//338 230//338 232//338
f 232//338 216//338 220//338
f 220//338 224//338 228//338
o Windows
v -0.550000 2.250000 0.830000
v -0.550000 2.250000 1.030000
v -0.432443 2.211803 0.830000
v -0.432443 2.211803 1.030000
v -0.359789 2.111803 0.830000
v -0.359789 2.111803 1.030000
v -0.359789 1.988197 0.830000
v -0.359789 1.988196 1.030000
v -0.432443 1.888197 0.830000
v -0.432443 1.888197 1.030000
v -0.550000 1.850000 0.830000
v -0.550000 1.850000 1.030000
v -0.667557 1.888197 0.830000
v -0.667557 1.888197 1.030000
v -0.740211 1.988197 0.830000
v -0.740211 1.988196 1.030000
v -0.740211 2.111803 0.830000
v -0.740211 2.111803 1.030000
v -0.667557 2.211803 0.830000
v -0.667557 2.211803 1.030000
v 0.580000 2.020000 0.830000
v 0.580000 2.020000 1.030000
v 0.679923 1.987533 0.830000
v 0.679923 1.987533 1.030000
v 0.741680 1.902533 0.830000
v 0.741680 1.902533 1.030000
v 0.741680 1.797467 0.830000
v 0.741680 1.797467 1.030000
v 0.679923 1.712467 0.830000
v 0.679923 1.712467 1.030000
v 0.580000 1.680000 0.830000
v 0.580000 1.680000 1.030000
v 0.480076 1.712467 0.830000
v 0.480076 1.712467 1.030000
v 0.418320 1.797467 0.830000
v 0.418320 1.797467 1.030000
v 0.418320 1.902533 0.830000
v 0.418320 1.902533 1.030000
v 0.480076 1.987533 0.830000
v 0.480076 1.987533 1.030000
v 0.837749 3.413675 1.756206
v 0.903896 3.549753 2.015257
v 0.991395 3.369421 1.740220
v 1.057541 3.505500 1.999271
v 1.097498 3.253564 1.773987
v 1.163645 3.389643 2.033037
v 1.115531 3.110357 1.844609
v 1.181677 3.246436 2.103659
v 1.038605 2.994500 1.925111
v 1.104752 3.130579 2.184161
v 0.896104 2.950247 1.984743
v 0.962251 3.086326 2.243794
v 0.742459 2.994500 2.000729
v 0.808605 3.130579 2.259780
v 0.636356 3.110357 1.966962
v 0.702502 3.246436 2.226013
v 0.618323 3.253564 1.896340
v 0.684469 3.389643 2.155391
v 0.695248 3.369421 1.815839
v 0.761395 3.505500 2.074889
vn 0.3090 0.9511 -0.0000
vn 0.8090 0.5878 -0.0000
vn 1.0000 -0.0000 -0.0000
vn 0.8090 -0.5878 -0.0000
vn 0.3090 -0.9511 -0.0000
vn -0.3090 -0.9511 -0.0000
vn -0.8090 -0.5878 -0.0000
vn -1.0000 -0.0000 -0.0000
vn -0.0000 -0.0000 1.0000
vn -0.8090 0.5878 -0.0000
vn -0.3090 0.9511 -0.0000
vn -0.0000 -0.0000 -1.0000
vn 0.1927 0.8476 -0.4944
vn 0.7179 0.5238 -0.4585
vn 0.9689 -0.0000 -0.2474
vn 0.8498 -0.5238 0.0582
vn 0.4061 -0.8476 0.3415
vn -0.1927 -0.8476 0.4944
vn -0.7179 -0.5238 0.4585
vn -0.9689 -0.0000 0.2474
vn 0.2205 0.4536 0.8635
vn -0.8498 0.5238 -0.0582
vn -0.4061 0.8476 -0.3415
vn -0.2205 -0.4536 -0.8635
s 0
usemtl Windows
f 235//351 236//351 234//351
f 236//352 239//352 238//352
f 239//353 240//353 238//353
f 241//354 242//354 240//354
f 243//355 244//355 242//355
f 245//356 246//356 244//356
f 247//357 248//357 246//357
f 248//358 251//358 250//358
f 251//359 243//359 239//359
f 251//360 252//360 250//360
f 253//361 234//361 252//361
f 240//362 248//362 252//362
f 255//351 256//351 254//351
f 257//352 258//352 256//352
f 259//353 260//353 258//353
f 261//354 262//354 260//354
f 263//355 264//355 262//355
f 265//356 266//356 264//356
f 267//357 268//357 266//357
f 269//358 270//358 268//358
f 271//359 263//359 259//359
f 271//360 272//360 270//360
f 273//361 254//361 272//361
f 260//362 268//362 272//362
f 275//363 276//363 274//363
f 277//364 278//364 276//364
f 279//365 280//365 278//365
f 281//366 282//366 280//366
f 283//367 284//367 282//367
f 284//368 287//368 286//368
f 287//369 288//369 286//369
f 288//370 291//370 290//370
f 291//371 283//371 279//371
f 291//372 292//372 290//372
f 293//373 274//373 292//373
f 280//374 288//374 292//374
f 235//351 237//351 236//351
f 236//352 237//352 239//352
f 239//353 241//353 240//353
f 241//354 243//354 242//354
f 243//355 245//355 244//355
f 245//356 247//356 246//356
f 247//357 249//357 248//357
f 248//358 249//358 251//358
f 239//359 237//359 235//359
f 235//359 253//359 251//359
f 251//359 249//359 247//359
f 247//359 245//359 243//359
f 243//359 241//359 239//359
f 239//359 235//359 251//359
f 251//359 247//359 243//359
f 251//360 253//360 252//360
f 253//361 235//361 234//361
f 252//362 234//362 236//362
f 236//362 238//362 240//362
f 240//362 242//362 244//362
f 244//362 246//362 248//362
f 248//362 250//362 252//362
f 252//362 236//362 240//362
f 240//362 244//362 248//362
f 255//351 257//351 256//351
f 257//352 259//352 258//352
f 259//353 261//353 260//353
f 261//354 263//354 262//354
f 263//355 265//355 264//355
f 265//356 267//356 266//356
f 267//357 269//357 268//357
f 269//358 271//358 270//358
f 259//359 257//359 255//359
f 255//359 273//359 271//359
f 271//359 269//359 267//359
f 267//359 265//359 263//359
f 263//359 261//359 259//359
f 259//359 255//359 271//359
f 271//359 267//359 263//359
f 271//360 273//360 272//360
f 273//361 255//361 254//361
f 272//362 254//362 256//362
f 256//362 258//362 260//362
f 260//362 262//362 264//362
f 264//362 266//362 268//362
f 268//362 270//362 272//362
f 272//362 256//362 260//362
f 260//362 264//362 268//362
f 275//363 277//363 276//363
f 277//364 279//364 278//364
f 279//365 281//365 280//365
f 281//366 283//366 282//366
f 283//367 285//367 284//367
f 284//368 285//368 287//368
f 287//369 289//369 288//369
f 288//370 289//370 291//370
f 279//371 277//371 275//371
f 275//371 293//371 291//371
f 291//371 289//371 287//371
f 287//371 285//371 283//371
f 283//371 281//371 279//371
f 279//371 275//371 291//371
f 291//371 287//371 283//371
f 291//372 293//372 292//372
f 293//373 275//373 274//373
f 292//374 274//374 276//374
f 276//374 278//374 280//374
f 280//374 282//374 284//374
f 284//374 286//374 288//374
f 288//374 290//374 292//374
f 292//374 276//374 280//374
f 280//374 284//374 288//374
