# Blender 5.2.1 LTS
# www.blender.org
mtllib BaseDunes.mtl
o Plinth
v 0.000000 0.000000 -2.300000
v -0.004762 0.285453 -2.305977
v 1.351906 0.000000 -1.860739
v 1.348471 0.265243 -1.861523
v 2.187430 0.000000 -0.710739
v 2.155896 0.267793 -0.711930
v 2.187430 0.000000 0.710739
v 2.216727 0.248204 0.751327
v 1.351906 0.000000 1.860739
v 1.310973 0.271606 1.829775
v 0.000000 0.000000 2.300000
v -0.045812 0.287885 2.251781
v -1.351906 0.000000 1.860739
v -1.336514 0.239450 1.849183
v -2.187430 0.000000 0.710739
v -2.235930 0.233573 0.707901
v -2.187430 0.000000 -0.710739
v -2.218409 0.231805 -0.684933
v -1.351906 0.000000 -1.860739
v -1.355513 0.280546 -1.854792
v -0.004762 0.275453 -1.805977
v -0.003435 0.495243 -1.800784
v 1.026479 0.257793 -1.457421
v 1.087311 0.478204 -1.415643
v 1.670969 0.261606 -0.587195
v 1.666090 0.517886 -0.604450
v 1.727294 0.229450 0.544674
v 1.663402 0.463573 0.553392
v 1.027034 0.221805 1.482036
v 1.054407 0.510546 1.462177
v 0.001912 0.249986 1.785971
v 0.016245 0.476690 1.804267
v -1.008248 0.270413 1.406661
v -1.037233 0.473780 1.474703
v -1.732998 0.265977 0.599208
v -1.721862 0.483191 0.521572
v -1.666098 0.220033 -0.590962
v -1.740930 0.488199 -0.597258
v -1.009978 0.224382 -1.445973
v -1.045068 0.476187 -1.484082
vn 0.3090 0.0012 -0.9511
vn 0.8056 0.0923 -0.5853
vn 0.9931 0.1169 -0.0000
vn 0.7946 -0.1882 0.5773
vn 0.3054 0.1532 0.9398
vn -0.3072 0.1095 0.9453
vn -0.8064 0.0801 0.5859
vn -0.9912 -0.1325 -0.0000
vn -0.0083 1.0000 -0.0042
vn -0.8090 0.0021 -0.5878
vn -0.3089 -0.0251 -0.9508
vn -0.0000 -1.0000 -0.0000
vn 0.3204 0.0204 -0.9470
vn 0.7991 -0.1085 -0.5913
vn 0.9635 0.2645 -0.0404
vn 0.7854 0.1924 0.5883
vn 0.2806 -0.0948 0.9551
vn -0.3364 -0.3416 0.8776
vn -0.7059 -0.3132 0.6353
vn -0.9979 0.0307 -0.0573
vn -0.0087 1.0000 0.0010
vn -0.7770 -0.1987 -0.5973
vn -0.3382 0.0243 -0.9408
vn -0.0103 -0.9998 0.0167
vn 0.3118 -0.0147 -0.9500
vn 0.8183 0.0089 -0.5747
vn 0.9930 -0.1102 -0.0428
vn 0.7544 0.1855 0.6296
vn 0.2930 0.2031 0.9343
vn -0.2994 0.0652 0.9519
vn -0.7757 -0.1536 0.6121
vn -0.9790 -0.2034 -0.0121
vn 0.0204 0.9997 -0.0165
vn 0.0136 0.9986 0.0517
vn -0.0048 1.0000 -0.0013
vn -0.0127 0.9968 -0.0792
vn 0.0398 0.9991 0.0117
vn -0.0081 0.9997 0.0220
vn -0.0121 0.9999 0.0012
vn -0.8033 -0.0412 -0.5942
vn -0.3168 0.0160 -0.9483
vn 0.3329 0.0861 -0.9390
vn 0.8144 -0.0235 -0.5799
vn 0.9998 0.0193 0.0032
vn 0.8291 -0.0402 0.5577
vn 0.3117 0.0358 0.9495
vn -0.2979 -0.0581 0.9528
vn -0.7867 0.2432 0.5675
vn -0.9632 -0.2684 0.0152
vn 0.0438 0.9958 -0.0800
vn -0.0294 0.9989 -0.0366
vn 0.0077 1.0000 0.0043
vn -0.0173 0.9988 0.0464
vn 0.1459 0.9882 0.0467
vn -0.0087 0.9999 -0.0067
vn -0.0175 0.9998 0.0129
vn -0.7675 -0.2282 -0.5991
vn -0.2830 -0.1820 -0.9417
vn 0.0158 -0.9951 -0.0971
vn 0.0474 -0.9984 -0.0307
vn -0.0384 -0.9986 -0.0368
vn -0.0336 -0.9988 0.0356
vn 0.0613 -0.9972 0.0419
vn 0.0163 -0.9997 -0.0199
vn -0.0105 -0.9999 0.0019
s 0
usemtl Plinth
f 1//1 4//1 3//1
f 3//2 6//2 5//2
f 6//3 7//3 5//3
f 8//4 9//4 7//4
f 10//5 11//5 9//5
f 12//6 13//6 11//6
f 14//7 15//7 13//7
f 15//8 18//8 17//8
f 18//9 10//9 6//9
f 17//10 20//10 19//10
f 19//11 2//11 1//11
f 7//12 15//12 19//12
f 22//13 23//13 21//13
f 24//14 25//14 23//14
f 25//15 28//15 27//15
f 28//16 29//16 27//16
f 29//17 32//17 31//17
f 31//18 34//18 33//18
f 34//19 35//19 33//19
f 36//20 37//20 35//20
f 38//21 30//21 26//21
f 37//22 40//22 39//22
f 39//23 22//23 21//23
f 27//24 35//24 39//24
f 1//25 2//25 4//25
f 3//26 4//26 6//26
f 6//27 8//27 7//27
f 8//28 10//28 9//28
f 10//29 12//29 11//29
f 12//30 14//30 13//30
f 14//31 16//31 15//31
f 15//32 16//32 18//32
f 6//33 4//33 2//33
f 2//34 20//34 18//34
f 18//35 16//35 14//35
f 14//36 12//36 10//36
f 10//37 8//37 6//37
f 6//38 2//38 18//38
f 18//39 14//39 10//39
f 17//40 18//40 20//40
f 19//41 20//41 2//41
f 19//12 1//12 3//12
f 3//12 5//12 7//12
f 7//12 9//12 11//12
f 11//12 13//12 15//12
f 15//12 17//12 19//12
f 19//12 3//12 7//12
f 7//12 11//12 15//12
f 22//42 24//42 23//42
f 24//43 26//43 25//43
f 25//44 26//44 28//44
f 28//45 30//45 29//45
f 29//46 30//46 32//46
f 31//47 32//47 34//47
f 34//48 36//48 35//48
f 36//49 38//49 37//49
f 26//50 24//50 22//50
f 22//51 40//51 38//51
f 38//52 36//52 34//52
f 34//53 32//53 30//53
f 30//54 28//54 26//54
f 26//55 22//55 38//55
f 38//56 34//56 30//56
f 37//57 38//57 40//57
f 39//58 40//58 22//58
f 39//59 21//59 23//59
f 23//60 25//60 27//60
f 27//61 29//61 31//61
f 31//62 33//62 35//62
f 35//63 37//63 39//63
f 39//64 23//64 27//64
f 27//65 31//65 35//65
o Stem
v 0.000000 0.490000 -1.174800
v -0.001526 3.795991 -0.524248
v 0.690530 0.490000 -0.950433
v 0.281148 3.785491 -0.387134
v 1.117301 0.490000 -0.363033
v 0.476047 3.796861 -0.177703
v 1.117301 0.490000 0.363033
v 0.495691 3.795808 0.155591
v 0.690530 0.490000 0.950433
v 0.281310 3.777842 0.420079
v 0.000000 0.490000 1.174800
v 0.024358 3.801477 0.541271
v -0.690530 0.490000 0.950433
v -0.328115 3.784132 0.405265
v -1.117301 0.490000 0.363033
v -0.495327 3.772670 0.138538
v -1.117301 0.490000 -0.363033
v -0.515957 3.790321 -0.183984
v -0.690530 0.490000 -0.950433
v -0.327133 3.806082 -0.445710
vn 0.3030 0.1970 -0.9324
vn 0.7932 0.1970 -0.5763
vn 0.9828 0.1848 -0.0000
vn 0.7940 0.1919 0.5769
vn 0.3035 0.1884 0.9340
vn -0.3035 0.1880 0.9341
vn -0.7943 0.1900 0.5771
vn -0.9825 0.1862 -0.0000
vn -0.0068 0.9995 0.0296
vn -0.7963 0.1765 -0.5786
vn -0.3038 0.1838 -0.9349
vn -0.0000 -1.0000 -0.0000
vn 0.4350 0.1740 -0.8835
vn 0.7157 0.1767 -0.6757
vn 0.9795 0.1931 -0.0571
vn 0.7578 0.1818 0.6266
vn 0.4331 0.1663 0.8859
vn -0.3619 0.1777 0.9151
vn -0.8372 0.1777 0.5172
vn -0.9819 0.1750 0.0724
vn 0.1135 0.9808 -0.1589
vn 0.0548 0.9935 0.0993
vn -0.1707 0.9832 0.0647
vn 0.0141 0.9866 -0.1625
vn -0.0743 0.9972 0.0075
vn -0.0066 1.0000 0.0066
vn 0.0101 0.9999 0.0073
vn -0.8035 0.1747 -0.5691
vn -0.2260 0.1707 -0.9590
s 0
usemtl Stem
f 41//66 44//66 43//66
f 44//67 45//67 43//67
f 45//68 48//68 47//68
f 47//69 50//69 49//69
f 50//70 51//70 49//70
f 51//71 54//71 53//71
f 53//72 56//72 55//72
f 56//73 57//73 55//73
f 58//74 50//74 46//74
f 58//75 59//75 57//75
f 59//76 42//76 41//76
f 47//77 55//77 59//77
f 41//78 42//78 44//78
f 44//79 46//79 45//79
f 45//80 46//80 48//80
f 47//81 48//81 50//81
f 50//82 52//82 51//82
f 51//83 52//83 54//83
f 53//84 54//84 56//84
f 56//85 58//85 57//85
f 46//86 44//86 42//86
f 42//87 60//87 58//87
f 58//88 56//88 54//88
f 54//89 52//89 50//89
f 50//90 48//90 46//90
f 46//91 42//91 58//91
f 58//92 54//92 50//92
f 58//93 60//93 59//93
f 59//94 60//94 42//94
f 59//77 41//77 43//77
f 43//77 45//77 47//77
f 47//77 49//77 51//77
f 51//77 53//77 55//77
f 55//77 57//77 59//77
f 59//77 43//77 47//77
f 47//77 51//77 55//77
o Cap
v 0.000000 4.276000 0.000000
v 0.318866 4.218453 -0.876078
v 0.589188 4.024604 -1.618781
v 0.769811 3.611584 -2.115039
v 0.833238 3.228380 -2.289302
v 0.648534 4.218453 -0.772893
v 1.198335 3.994092 -1.428120
v 1.565700 3.517926 -1.865929
v 1.694702 3.180000 -2.019667
v 0.790372 4.218453 -0.456321
v 1.460416 4.030723 -0.843172
v 1.908126 3.632692 -1.101657
v 2.065341 3.256213 -1.192425
v 1.001535 4.218453 -0.176598
v 1.850595 3.990274 -0.326310
v 2.417919 3.507045 -0.426345
v 2.617136 3.180000 -0.461472
v 0.903249 4.218453 0.159267
v 1.668986 4.029372 0.294287
v 2.180635 3.627923 0.384505
v 2.360303 3.249909 0.416185
v 0.866378 4.218453 0.500204
v 1.600858 3.998014 0.924256
v 2.091622 3.529250 1.207598
v 2.263955 3.180000 1.307095
v 0.606662 4.218453 0.722992
v 1.120965 4.020703 1.335914
v 1.464612 3.598688 1.745456
v 1.585285 3.211459 1.889268
v 0.330721 4.218453 0.908648
v 0.611093 4.012118 1.678963
v 0.798431 3.571467 2.193671
v 0.864216 3.180000 2.374413
v 0.000000 4.218453 0.980037
v 0.000000 4.006845 1.810871
v 0.000000 3.555375 2.366017
v 0.000000 3.180000 2.560959
v -0.318866 4.218453 0.876078
v -0.589188 4.024604 1.618781
v -0.769811 3.611584 2.115039
v -0.833237 3.228381 2.289301
v -0.648534 4.218453 0.772893
v -1.198335 3.994092 1.428120
v -1.565700 3.517926 1.865929
v -1.694701 3.180000 2.019666
v -0.790372 4.218453 0.456321
v -1.460416 4.030723 0.843172
v -1.908126 3.632692 1.101657
v -2.065340 3.256213 1.192425
v -1.001535 4.218453 0.176598
v -1.850595 3.990274 0.326310
v -2.417919 3.507045 0.426345
v -2.617136 3.180000 0.461472
v -0.903249 4.218453 -0.159267
v -1.668986 4.029372 -0.294287
v -2.180635 3.627923 -0.384504
v -2.360302 3.249910 -0.416185
v -0.866378 4.218453 -0.500203
v -1.600858 3.998014 -0.924255
v -2.091622 3.529250 -1.207598
v -2.263955 3.180000 -1.307094
v -0.606662 4.218453 -0.722992
v -1.120966 4.020703 -1.335914
v -1.464612 3.598689 -1.745456
v -1.585284 3.211459 -1.889268
v -0.330721 4.218453 -0.908648
v -0.611093 4.012118 -1.678963
v -0.798431 3.571467 -2.193671
v -0.864216 3.180000 -2.374412
v -0.000000 4.218453 -0.980037
v -0.000000 4.006845 -1.810871
v -0.000001 3.555375 -2.366017
v -0.000000 3.180000 -2.560958
v 0.000000 4.040000 -0.460000
v 0.230000 4.040000 -0.398372
v 0.398372 4.040000 -0.230000
v 0.460000 4.040000 0.000000
v 0.398372 4.040000 0.230000
v 0.230000 4.040000 0.398372
v 0.000000 4.040000 0.460000
v -0.230000 4.040000 0.398372
v -0.398372 4.040000 0.230000
v -0.460000 4.040000 0.000000
v -0.398372 4.040000 -0.230000
v -0.230000 4.040000 -0.398372
v 0.000000 4.440000 0.000000
vn 0.1474 0.7674 -0.6240
vn 0.0191 0.9981 -0.0586
vn 0.2540 0.4458 -0.8584
vn 0.0512 0.9678 -0.2465
vn 0.2859 0.4851 -0.8264
vn 0.1203 0.9658 -0.2298
vn 0.2746 0.7570 -0.5929
vn 0.0184 0.9981 -0.0589
vn 0.2099 0.9654 -0.1545
vn 0.5494 0.7543 -0.3594
vn 0.0577 0.9980 -0.0259
vn 0.7838 0.4790 -0.3953
vn 0.5864 0.7512 -0.3029
vn 0.0506 0.9980 -0.0382
vn 0.7192 0.4909 -0.4917
vn 0.2406 0.9648 -0.1061
vn 0.0605 0.9980 0.0177
vn 0.8451 0.4924 0.2081
vn 0.2621 0.9649 0.0159
vn 0.6545 0.7519 0.0794
vn 0.8737 0.4685 0.1312
vn 0.2468 0.9662 0.0748
vn 0.6323 0.7582 0.1593
vn 0.0624 0.9980 0.0067
vn 0.4686 0.7614 0.4480
vn 0.0396 0.9981 0.0462
vn 0.5853 0.4758 0.6566
vn 0.1918 0.9666 0.1703
vn 0.3322 0.7728 0.5407
vn 0.0342 0.9981 0.0508
vn 0.4904 0.4319 0.7569
vn 0.1271 0.9687 0.2132
vn 0.1881 0.4527 0.8716
vn 0.0449 0.9681 0.2466
vn 0.1197 0.7703 0.6264
vn 0.0127 0.9982 0.0586
vn -0.2540 0.4458 0.8584
vn -0.0512 0.9678 0.2465
vn -0.1474 0.7674 0.6240
vn -0.0191 0.9981 0.0586
vn -0.2746 0.7570 0.5929
vn -0.0184 0.9981 0.0589
vn -0.2859 0.4851 0.8264
vn -0.1203 0.9658 0.2298
vn -0.5494 0.7543 0.3594
vn -0.0577 0.9980 0.0259
vn -0.7838 0.4790 0.3953
vn -0.2099 0.9654 0.1545
vn -0.7192 0.4909 0.4917
vn -0.2406 0.9648 0.1061
vn -0.5864 0.7512 0.3029
vn -0.0506 0.9980 0.0382
vn -0.2621 0.9649 -0.0159
vn -0.6545 0.7519 -0.0794
vn -0.0605 0.9980 -0.0177
vn -0.8451 0.4924 -0.2081
vn -0.6323 0.7582 -0.1593
vn -0.0624 0.9980 -0.0067
vn -0.8737 0.4685 -0.1312
vn -0.2468 0.9662 -0.0748
vn -0.0396 0.9981 -0.0462
vn -0.5853 0.4758 -0.6566
vn -0.1918 0.9666 -0.1703
vn -0.4686 0.7614 -0.4480
vn -0.4904 0.4319 -0.7569
vn -0.1271 0.9687 -0.2132
vn -0.3322 0.7728 -0.5407
vn -0.0342 0.9981 -0.0508
vn -0.0175 -0.9998 0.0133
vn -0.1197 0.7703 -0.6264
vn -0.0127 0.9982 -0.0586
vn -0.1881 0.4526 -0.8716
vn -0.0449 0.9681 -0.2466
vn 0.1732 0.7432 -0.6463
vn 0.4731 0.7432 -0.4731
vn 0.6463 0.7432 -0.1732
vn 0.6463 0.7432 0.1732
vn 0.4731 0.7432 0.4731
vn 0.1732 0.7432 0.6463
vn -0.1732 0.7432 0.6463
vn -0.4731 0.7432 0.4731
vn -0.6463 0.7432 0.1732
vn -0.6463 0.7432 -0.1732
vn -0.0000 -1.0000 -0.0000
vn -0.4731 0.7432 -0.4731
vn -0.1732 0.7432 -0.6463
vn 0.1697 0.7870 -0.5932
vn 0.2503 0.4348 -0.8650
vn 0.0739 0.9712 -0.2266
vn 0.3152 0.4356 -0.8432
vn 0.0712 0.9712 -0.2276
vn 0.2196 0.7877 -0.5756
vn 0.2163 0.9715 -0.0969
vn 0.5368 0.7922 -0.2901
vn 0.7960 0.4341 -0.4218
vn 0.5154 0.7921 -0.3271
vn 0.7561 0.4339 -0.4900
vn 0.1895 0.9714 -0.1431
vn 0.8799 0.4344 0.1927
vn 0.2281 0.9714 0.0667
vn 0.5986 0.7911 0.1253
vn 0.8883 0.4346 0.1482
vn 0.2354 0.9716 0.0255
vn 0.6024 0.7913 0.1045
vn 0.4248 0.7844 0.4519
vn 0.6133 0.4358 0.6587
vn 0.1562 0.9708 0.1821
vn 0.3384 0.7826 0.5225
vn 0.4908 0.4336 0.7557
vn 0.1346 0.9705 0.2001
vn 0.1813 0.4372 0.8809
vn 0.0520 0.9692 0.2407
vn 0.1267 0.7758 0.6181
vn -0.2503 0.4348 0.8650
vn -0.0739 0.9712 0.2266
vn -0.1697 0.7870 0.5932
vn -0.2196 0.7877 0.5756
vn -0.3152 0.4356 0.8432
vn -0.0712 0.9712 0.2276
vn -0.5368 0.7922 0.2901
vn -0.7960 0.4341 0.4218
vn -0.2163 0.9715 0.0969
vn -0.7561 0.4339 0.4900
vn -0.1895 0.9714 0.1431
vn -0.5154 0.7921 0.3271
vn -0.2281 0.9714 -0.0667
vn -0.5986 0.7911 -0.1253
vn -0.8799 0.4344 -0.1927
vn -0.6024 0.7913 -0.1045
vn -0.8883 0.4346 -0.1482
vn -0.2354 0.9716 -0.0255
vn -0.6133 0.4358 -0.6587
vn -0.1562 0.9708 -0.1821
vn -0.4248 0.7844 -0.4519
vn -0.4908 0.4336 -0.7557
vn -0.1346 0.9705 -0.2001
vn -0.3384 0.7826 -0.5225
vn -0.0975 -0.9861 0.1345
vn -0.1729 -0.9846 0.0278
vn -0.1238 -0.9881 -0.0909
vn -0.0205 -0.9953 -0.0950
vn 0.0975 -0.9861 -0.1345
vn -0.0240 -0.9944 -0.1033
vn 0.0313 -0.9995 -0.0096
vn 0.0782 -0.9950 -0.0626
vn 0.0205 -0.9953 0.0950
vn 0.1238 -0.9881 0.0909
vn 0.1729 -0.9846 -0.0278
vn -0.0094 -0.9998 -0.0148
vn 0.0421 -0.9991 -0.0079
vn -0.0113 -0.9997 0.0201
vn -0.0135 -0.9999 0.0064
vn -0.1267 0.7758 -0.6181
vn -0.1813 0.4372 -0.8809
vn -0.0520 0.9692 -0.2407
s 0
usemtl Cap
f 131//95 64//95 132//95
f 130//96 61//96 62//96
f 132//97 65//97 133//97
f 130//98 63//98 131//98
f 65//99 68//99 69//99
f 63//100 66//100 67//100
f 64//101 67//101 68//101
f 62//102 61//102 66//102
f 66//103 71//103 67//103
f 67//104 72//104 68//104
f 66//105 61//105 70//105
f 68//106 73//106 69//106
f 72//107 75//107 76//107
f 70//108 61//108 74//108
f 73//109 76//109 77//109
f 71//110 74//110 75//110
f 74//111 61//111 78//111
f 76//112 81//112 77//112
f 74//113 79//113 75//113
f 75//114 80//114 76//114
f 81//115 84//115 85//115
f 79//116 82//116 83//116
f 80//117 83//117 84//117
f 78//118 61//118 82//118
f 83//119 88//119 84//119
f 82//120 61//120 86//120
f 84//121 89//121 85//121
f 82//122 87//122 83//122
f 88//123 91//123 92//123
f 86//124 61//124 90//124
f 89//125 92//125 93//125
f 87//126 90//126 91//126
f 93//127 96//127 97//127
f 91//128 94//128 95//128
f 92//129 95//129 96//129
f 90//130 61//130 94//130
f 96//131 101//131 97//131
f 94//132 99//132 95//132
f 95//133 100//133 96//133
f 94//134 61//134 98//134
f 100//135 103//135 104//135
f 98//136 61//136 102//136
f 101//137 104//137 105//137
f 99//138 102//138 103//138
f 103//139 108//139 104//139
f 102//140 61//140 106//140
f 104//141 109//141 105//141
f 102//142 107//142 103//142
f 109//143 112//143 113//143
f 107//144 110//144 111//144
f 108//145 111//145 112//145
f 106//146 61//146 110//146
f 110//147 115//147 111//147
f 111//148 116//148 112//148
f 110//149 61//149 114//149
f 112//150 117//150 113//150
f 116//151 119//151 120//151
f 114//152 61//152 118//152
f 117//153 120//153 121//153
f 115//154 118//154 119//154
f 118//155 61//155 122//155
f 120//156 125//156 121//156
f 118//157 123//157 119//157
f 119//158 124//158 120//158
f 125//159 128//159 129//159
f 123//160 126//160 127//160
f 124//161 127//161 128//161
f 122//162 61//162 126//162
f 89//163 117//163 133//163
f 128//164 131//164 132//164
f 126//165 61//165 130//165
f 129//166 132//166 133//166
f 127//167 130//167 131//167
f 134//168 146//168 135//168
f 135//169 146//169 136//169
f 136//170 146//170 137//170
f 137//171 146//171 138//171
f 138//172 146//172 139//172
f 139//173 146//173 140//173
f 140//174 146//174 141//174
f 141//175 146//175 142//175
f 142//176 146//176 143//176
f 143//177 146//177 144//177
f 137//178 141//178 145//178
f 144//179 146//179 145//179
f 145//180 146//180 134//180
f 131//181 63//181 64//181
f 132//182 64//182 65//182
f 130//183 62//183 63//183
f 65//184 64//184 68//184
f 63//185 62//185 66//185
f 64//186 63//186 67//186
f 66//187 70//187 71//187
f 67//188 71//188 72//188
f 68//189 72//189 73//189
f 72//190 71//190 75//190
f 73//191 72//191 76//191
f 71//192 70//192 74//192
f 76//193 80//193 81//193
f 74//194 78//194 79//194
f 75//195 79//195 80//195
f 81//196 80//196 84//196
f 79//197 78//197 82//197
f 80//198 79//198 83//198
f 83//199 87//199 88//199
f 84//200 88//200 89//200
f 82//201 86//201 87//201
f 88//202 87//202 91//202
f 89//203 88//203 92//203
f 87//204 86//204 90//204
f 93//205 92//205 96//205
f 91//206 90//206 94//206
f 92//207 91//207 95//207
f 96//208 100//208 101//208
f 94//209 98//209 99//209
f 95//210 99//210 100//210
f 100//211 99//211 103//211
f 101//212 100//212 104//212
f 99//213 98//213 102//213
f 103//214 107//214 108//214
f 104//215 108//215 109//215
f 102//216 106//216 107//216
f 109//217 108//217 112//217
f 107//218 106//218 110//218
f 108//219 107//219 111//219
f 110//220 114//220 115//220
f 111//221 115//221 116//221
f 112//222 116//222 117//222
f 116//223 115//223 119//223
f 117//224 116//224 120//224
f 115//225 114//225 118//225
f 120//226 124//226 125//226
f 118//227 122//227 123//227
f 119//228 123//228 124//228
f 125//229 124//229 128//229
f 123//230 122//230 126//230
f 124//231 123//231 127//231
f 65//232 69//232 73//232
f 73//233 77//233 81//233
f 81//234 85//234 89//234
f 89//235 93//235 97//235
f 101//236 105//236 109//236
f 89//237 97//237 101//237
f 73//238 81//238 89//238
f 133//239 65//239 73//239
f 125//240 129//240 133//240
f 117//241 121//241 125//241
f 109//242 113//242 117//242
f 89//243 101//243 109//243
f 133//244 73//244 89//244
f 117//245 125//245 133//245
f 89//246 109//246 117//246
f 128//247 127//247 131//247
f 129//248 128//248 132//248
f 127//249 126//249 130//249
f 145//178 134//178 135//178
f 135//178 136//178 137//178
f 137//178 138//178 139//178
f 139//178 140//178 141//178
f 141//178 142//178 143//178
f 143//178 144//178 145//178
f 145//178 135//178 137//178
f 137//178 139//178 141//178
f 141//178 143//178 145//178
o Spots
v 1.511261 3.989828 -0.638951
v 1.993843 3.893858 -0.599200
v 1.333293 4.056202 -0.585324
v 0.924188 4.149420 -0.647887
v 1.331914 4.044683 -0.700428
v 1.992990 3.886739 -0.670337
v 1.705022 3.994138 -0.583568
v 1.043945 4.152082 -0.613659
v 1.043093 4.144963 -0.684796
v 1.703643 3.982619 -0.698672
v 2.112748 3.889401 -0.636109
v 1.525674 4.048994 -0.645045
v 0.442704 3.989828 -1.579931
v 0.935037 3.981036 -1.545199
v 0.256884 4.033389 -1.529659
v -0.162866 4.048141 -1.589349
v 0.255885 4.004905 -1.641780
v 0.934420 3.963433 -1.614494
v 0.633746 4.033916 -1.533151
v -0.044789 4.075388 -1.560437
v -0.045407 4.057785 -1.629731
v 0.632747 4.005433 -1.645272
v 1.052496 3.990680 -1.585582
v 0.446926 4.048994 -1.594999
v -0.959219 3.989828 -1.331191
v -0.475853 4.087149 -1.307491
v -1.148466 3.990087 -1.275159
v -1.563046 3.915265 -1.325110
v -1.146642 3.966087 -1.388314
v -0.474725 4.072317 -1.377425
v -0.780943 4.072734 -1.286763
v -1.452860 3.966505 -1.297653
v -1.451732 3.951673 -1.367586
v -0.779119 4.048735 -1.399919
v -0.364539 4.123556 -1.349967
v -0.968366 4.048994 -1.343887
v -1.638830 3.989828 -0.080037
v -1.167477 4.132290 -0.045299
v -1.824953 3.958904 -0.022104
v -2.231189 3.850851 -0.079263
v -1.824765 3.957461 -0.137782
v -1.167361 4.131399 -0.116791
v -1.468524 4.081360 -0.023055
v -2.125928 3.907423 -0.044046
v -2.125812 3.906531 -0.115538
v -1.468337 4.079917 -0.138732
v -1.062101 4.187971 -0.081574
v -1.654460 4.048994 -0.080800
v -1.084368 3.989828 1.231387
v -0.601734 4.082469 1.277825
v -1.271486 3.963322 1.288295
v -1.686605 3.903403 1.224605
v -1.273394 3.985521 1.174773
v -0.602913 4.096189 1.207666
v -0.905685 4.053300 1.299744
v -1.576167 3.942632 1.266852
v -1.577345 3.956352 1.196692
v -0.907593 4.075500 1.186223
v -0.492474 4.135418 1.249913
v -1.094711 4.048994 1.243131
v 0.286644 3.989828 1.615551
v 0.778744 3.975201 1.651593
v 0.099318 4.000013 1.676863
v -0.320192 4.033349 1.623287
v 0.099979 4.029139 1.564905
v 0.779153 3.993201 1.582399
v 0.476043 4.009683 1.681605
v -0.203131 4.045620 1.664111
v -0.202722 4.063621 1.594917
v 0.476704 4.038808 1.569646
v 0.896214 4.005472 1.623222
v 0.289378 4.048994 1.630959
v 1.441808 3.989828 0.783172
v 1.924528 3.891261 0.813854
v 1.261685 4.041349 0.845263
v 0.853012 4.142837 0.793717
v 1.263298 4.055468 0.730452
v 1.925525 3.899987 0.742898
v 1.634070 3.983353 0.843362
v 0.971842 4.138834 0.830916
v 0.972839 4.147560 0.759959
v 1.635683 3.997472 0.728551
v 2.044356 3.895984 0.780097
v 1.455559 4.048994 0.790642
vn -0.2103 -0.8903 0.4039
vn -0.2020 -0.9743 0.0999
vn -0.2549 -0.9211 0.2942
vn -0.2596 -0.9606 -0.0998
vn -0.2177 -0.9522 -0.2144
vn -0.0064 -0.9950 0.0997
vn -0.0562 -0.3099 0.9491
vn -0.2352 -0.4561 0.8583
vn -0.2544 -0.6165 -0.7451
vn -0.0780 -0.4917 -0.8673
vn 0.2544 0.6165 0.7451
vn 0.0780 0.4917 0.8673
vn 0.0064 0.9950 -0.0997
vn 0.0562 0.3099 -0.9491
vn 0.2352 0.4561 -0.8583
vn 0.2596 0.9605 0.0998
vn 0.2177 0.9522 0.2144
vn 0.2020 0.9743 -0.0999
vn 0.2103 0.8903 -0.4039
vn 0.2549 0.9211 -0.2942
vn -0.0528 -0.8430 0.5353
vn -0.0347 -0.9686 0.2464
vn -0.0931 -0.8966 0.4329
vn -0.0965 -0.9941 0.0491
vn -0.0582 -0.9961 -0.0671
vn 0.1616 -0.9568 0.2416
vn 0.0094 -0.1711 0.9852
vn -0.1438 -0.3564 0.9232
vn -0.1577 -0.7532 -0.6386
vn -0.0064 -0.6206 -0.7841
vn 0.1577 0.7532 0.6386
vn 0.0064 0.6206 0.7841
vn -0.1616 0.9568 -0.2416
vn -0.0094 0.1711 -0.9852
vn 0.1438 0.3564 -0.9232
vn 0.0965 0.9941 -0.0491
vn 0.0582 0.9961 0.0671
vn 0.0347 0.9686 -0.2464
vn 0.0528 0.8430 -0.5353
vn 0.0931 0.8966 -0.4329
vn 0.1472 -0.8529 0.5010
vn 0.1834 -0.9611 0.2068
vn 0.1164 -0.9103 0.3974
vn 0.1226 -0.9924 0.0100
vn 0.1570 -0.9818 -0.1069
vn 0.3722 -0.9067 0.1983
vn 0.0758 -0.2000 0.9769
vn -0.0354 -0.4119 0.9106
vn -0.0100 -0.7462 -0.6657
vn 0.1046 -0.5787 -0.8088
vn 0.0100 0.7462 0.6657
vn -0.1046 0.5787 0.8088
vn -0.3722 0.9067 -0.1983
vn -0.0758 0.2000 -0.9769
vn 0.0354 0.4119 -0.9106
vn -0.1226 0.9924 -0.0100
vn -0.1570 0.9818 0.1069
vn -0.1834 0.9611 -0.2068
vn -0.1472 0.8529 -0.5010
vn -0.1164 0.9103 -0.3974
vn 0.2520 -0.9124 0.3226
vn 0.2885 -0.9574 0.0124
vn 0.2236 -0.9517 0.2102
vn 0.2242 -0.9567 -0.1857
vn 0.2530 -0.9201 -0.2989
vn 0.4703 -0.8824 0.0118
vn 0.1312 -0.3748 0.9178
vn 0.0400 -0.5807 0.8131
vn 0.0427 -0.6008 -0.7983
vn 0.1342 -0.3976 -0.9077
vn -0.0427 0.6008 0.7983
vn -0.1342 0.3976 0.9077
vn -0.4703 0.8824 -0.0118
vn -0.1312 0.3748 -0.9178
vn -0.0400 0.5807 -0.8131
vn -0.2242 0.9567 0.1857
vn -0.2530 0.9201 0.2989
vn -0.2885 0.9574 -0.0124
vn -0.2520 0.9124 -0.3226
vn -0.2236 0.9517 -0.2102
vn 0.1757 -0.9768 0.1227
vn 0.2027 -0.9604 -0.1912
vn 0.1420 -0.9899 0.0058
vn 0.1355 -0.9139 -0.3828
vn 0.1654 -0.8575 -0.4871
vn 0.3905 -0.9022 -0.1830
vn 0.1131 -0.5639 0.8180
vn 0.0023 -0.7358 0.6772
vn -0.0243 -0.4265 -0.9041
vn 0.0830 -0.2136 -0.9734
vn 0.0243 0.4266 0.9041
vn -0.0830 0.2136 0.9734
vn -0.3905 0.9022 0.1830
vn -0.1131 0.5639 -0.8180
vn -0.0023 0.7358 -0.6772
vn -0.1355 0.9139 0.3828
vn -0.1654 0.8575 0.4871
vn -0.2027 0.9604 0.1912
vn -0.1757 0.9768 -0.1227
vn -0.1420 0.9899 -0.0058
vn -0.0341 -0.9975 0.0614
vn -0.0103 -0.9677 -0.2518
vn -0.0721 -0.9959 -0.0549
vn -0.0699 -0.8962 -0.4381
vn -0.0306 -0.8411 -0.5401
vn 0.1856 -0.9512 -0.2464
vn 0.0062 -0.6249 0.7807
vn -0.1414 -0.7603 0.6340
vn -0.1322 -0.3546 -0.9256
vn 0.0167 -0.1653 -0.9861
vn 0.1322 0.3546 0.9256
vn -0.0167 0.1653 0.9861
vn -0.1856 0.9512 0.2464
vn -0.0062 0.6249 -0.7807
vn 0.1414 0.7603 -0.6340
vn 0.0699 0.8962 0.4381
vn 0.0306 0.8411 0.5401
vn 0.0103 0.9677 0.2518
vn 0.0341 0.9975 -0.0614
vn 0.0721 0.9959 0.0549
vn -0.2080 -0.9590 0.1922
vn -0.1911 -0.9739 -0.1225
vn -0.2495 -0.9653 0.0773
vn -0.2439 -0.9170 -0.3157
vn -0.1994 -0.8832 -0.4245
vn 0.0048 -0.9925 -0.1220
vn -0.0753 -0.5118 0.8558
vn -0.2500 -0.6358 0.7302
vn -0.2275 -0.4392 -0.8691
vn -0.0499 -0.2890 -0.9560
vn 0.2275 0.4392 0.8691
vn 0.0499 0.2890 0.9560
vn -0.0048 0.9925 0.1220
vn 0.0753 0.5119 -0.8558
vn 0.2500 0.6359 -0.7302
vn 0.2439 0.9170 0.3157
vn 0.1994 0.8832 0.4245
vn 0.1911 0.9739 0.1225
vn 0.2080 0.9590 -0.1923
vn 0.2495 0.9653 -0.0773
s 0
usemtl Spots
f 147//250 148//250 149//250
f 148//251 147//251 152//251
f 147//252 149//252 150//252
f 147//253 150//253 151//253
f 147//254 151//254 152//254
f 148//255 152//255 157//255
f 149//256 148//256 153//256
f 150//257 149//257 154//257
f 151//258 150//258 155//258
f 152//259 151//259 156//259
f 148//260 157//260 153//260
f 149//261 153//261 154//261
f 150//262 154//262 155//262
f 151//263 155//263 156//263
f 152//264 156//264 157//264
f 153//265 157//265 158//265
f 154//266 153//266 158//266
f 155//267 154//267 158//267
f 156//268 155//268 158//268
f 157//269 156//269 158//269
f 159//270 160//270 161//270
f 160//271 159//271 164//271
f 159//272 161//272 162//272
f 159//273 162//273 163//273
f 159//274 163//274 164//274
f 160//275 164//275 169//275
f 161//276 160//276 165//276
f 162//277 161//277 166//277
f 163//278 162//278 167//278
f 164//279 163//279 168//279
f 160//280 169//280 165//280
f 161//281 165//281 166//281
f 162//282 166//282 167//282
f 163//283 167//283 168//283
f 164//284 168//284 169//284
f 165//285 169//285 170//285
f 166//286 165//286 170//286
f 167//287 166//287 170//287
f 168//288 167//288 170//288
f 169//289 168//289 170//289
f 171//290 172//290 173//290
f 172//291 171//291 176//291
f 171//292 173//292 174//292
f 171//293 174//293 175//293
f 171//294 175//294 176//294
f 172//295 176//295 181//295
f 173//296 172//296 177//296
f 174//297 173//297 178//297
f 175//298 174//298 179//298
f 176//299 175//299 180//299
f 172//300 181//300 177//300
f 173//301 177//301 178//301
f 174//302 178//302 179//302
f 175//303 179//303 180//303
f 176//304 180//304 181//304
f 177//305 181//305 182//305
f 178//306 177//306 182//306
f 179//307 178//307 182//307
f 180//308 179//308 182//308
f 181//309 180//309 182//309
f 183//310 184//310 185//310
f 184//311 183//311 188//311
f 183//312 185//312 186//312
f 183//313 186//313 187//313
f 183//314 187//314 188//314
f 184//315 188//315 193//315
f 185//316 184//316 189//316
f 186//317 185//317 190//317
f 187//318 186//318 191//318
f 188//319 187//319 192//319
f 184//320 193//320 189//320
f 185//321 189//321 190//321
f 186//322 190//322 191//322
f 187//323 191//323 192//323
f 188//324 192//324 193//324
f 189//325 193//325 194//325
f 190//326 189//326 194//326
f 191//327 190//327 194//327
f 192//328 191//328 194//328
f 193//329 192//329 194//329
f 195//330 196//330 197//330
f 196//331 195//331 200//331
f 195//332 197//332 198//332
f 195//333 198//333 199//333
f 195//334 199//334 200//334
f 196//335 200//335 205//335
f 197//336 196//336 201//336
f 198//337 197//337 202//337
f 199//338 198//338 203//338
f 200//339 199//339 204//339
f 196//340 205//340 201//340
f 197//341 201//341 202//341
f 198//342 202//342 203//342
f 199//343 203//343 204//343
f 200//344 204//344 205//344
f 201//345 205//345 206//345
f 202//346 201//346 206//346
f 203//347 202//347 206//347
f 204//348 203//348 206//348
f 205//349 204//349 206//349
f 207//350 208//350 209//350
f 208//351 207//351 212//351
f 207//352 209//352 210//352
f 207//353 210//353 211//353
f 207//354 211//354 212//354
f 208//355 212//355 217//355
f 209//356 208//356 213//356
f 210//357 209//357 214//357
f 211//358 210//358 215//358
f 212//359 211//359 216//359
f 208//360 217//360 213//360
f 209//361 213//361 214//361
f 210//362 214//362 215//362
f 211//363 215//363 216//363
f 212//364 216//364 217//364
f 213//365 217//365 218//365
f 214//366 213//366 218//366
f 215//367 214//367 218//367
f 216//368 215//368 218//368
f 217//369 216//369 218//369
f 219//370 220//370 221//370
f 220//371 219//371 224//371
f 219//372 221//372 222//372
f 219//373 222//373 223//373
f 219//374 223//374 224//374
f 220//375 224//375 229//375
f 221//376 220//376 225//376
f 222//377 221//377 226//377
f 223//378 222//378 227//378
f 224//379 223//379 228//379
f 220//380 229//380 225//380
f 221//381 225//381 226//381
f 222//382 226//382 227//382
f 223//383 227//383 228//383
f 224//384 228//384 229//384
f 225//385 229//385 230//385
f 226//386 225//386 230//386
f 227//387 226//387 230//387
f 228//388 227//388 230//388
f 229//389 228//389 230//389
o Door
v -0.370000 0.490000 0.950000
v -0.370000 1.360000 0.950000
v -0.370000 0.490000 0.730000
v -0.370000 1.360000 0.730000
v 0.370000 0.490000 0.950000
v 0.370000 1.360000 0.950000
v 0.370000 0.490000 0.730000
v 0.370000 1.360000 0.730000
v 0.000000 1.730000 0.730000
v 0.000000 1.730000 0.950000
v 0.217481 1.659336 0.730000
v 0.217481 1.659336 0.950000
v 0.351891 1.474336 0.730000
v 0.351891 1.474336 0.950000
v 0.351891 1.245664 0.730000
v 0.351891 1.245664 0.950000
v 0.217481 1.060664 0.730000
v 0.217481 1.060664 0.950000
v 0.000000 0.990000 0.730000
v 0.000000 0.990000 0.950000
v -0.217481 1.060664 0.730000
v -0.217481 1.060664 0.950000
v -0.351891 1.245664 0.730000
v -0.351891 1.245664 0.950000
v -0.351891 1.474336 0.730000
v -0.351891 1.474336 0.950000
v -0.217481 1.659336 0.730000
v -0.217481 1.659336 0.950000
vn -1.0000 -0.0000 -0.0000
vn -0.0000 -0.0000 -1.0000
vn 1.0000 -0.0000 -0.0000
vn -0.0000 -0.0000 1.0000
vn -0.0000 -1.0000 -0.0000
vn -0.0000 1.0000 -0.0000
vn 0.3090 0.9511 -0.0000
vn 0.8090 0.5878 -0.0000
vn 0.8090 -0.5878 -0.0000
vn 0.3090 -0.9511 -0.0000
vn -0.3090 -0.9511 -0.0000
vn -0.8090 -0.5878 -0.0000
vn -0.8090 0.5878 -0.0000
vn -0.3090 0.9511 -0.0000
s 0
usemtl Door
f 232//390 233//390 231//390
f 234//391 237//391 233//391
f 238//392 235//392 237//392
f 236//393 231//393 235//393
f 237//394 231//394 233//394
f 234//395 236//395 238//395
f 240//396 241//396 239//396
f 241//397 244//397 243//397
f 244//392 245//392 243//392
f 245//398 248//398 247//398
f 248//399 249//399 247//399
f 250//400 251//400 249//400
f 252//401 253//401 251//401
f 254//390 255//390 253//390
f 256//393 248//393 244//393
f 256//402 257//402 255//402
f 258//403 239//403 257//403
f 245//391 253//391 257//391
f 232//390 234//390 233//390
f 234//391 238//391 237//391
f 238//392 236//392 235//392
f 236//393 232//393 231//393
f 237//394 235//394 231//394
f 234//395 232//395 236//395
f 240//396 242//396 241//396
f 241//397 242//397 244//397
f 244//392 246//392 245//392
f 245//398 246//398 248//398
f 248//399 250//399 249//399
f 250//400 252//400 251//400
f 252//401 254//401 253//401
f 254//390 256//390 255//390
f 244//393 242//393 240//393
f 240//393 258//393 256//393
f 256//393 254//393 252//393
f 252//393 250//393 248//393
f 248//393 246//393 244//393
f 244//393 240//393 256//393
f 256//393 252//393 248//393
f 256//402 258//402 257//402
f 258//403 240//403 239//403
f 257//391 239//391 241//391
f 241//391 243//391 245//391
f 245//391 247//391 249//391
f 249//391 251//391 253//391
f 253//391 255//391 257//391
f 257//391 241//391 245//391
f 245//391 249//391 253//391
o Windows
v -0.450000 1.890000 0.800000
v -0.450000 2.350000 0.800000
v -0.450000 1.890000 0.600000
v -0.450000 2.350000 0.600000
v -0.270000 1.890000 0.800000
v -0.270000 2.350000 0.800000
v -0.270000 1.890000 0.600000
v -0.270000 2.350000 0.600000
v 0.270000 2.150000 0.760000
v 0.270000 2.610000 0.760000
v 0.270000 2.150000 0.560000
v 0.270000 2.610000 0.560000
v 0.450000 2.150000 0.760000
v 0.450000 2.610000 0.760000
v 0.450000 2.150000 0.560000
v 0.450000 2.610000 0.560000
v 0.000000 3.030000 0.480000
v 0.000000 3.030000 0.680000
v 0.088168 3.001353 0.480000
v 0.088168 3.001353 0.680000
v 0.142658 2.926353 0.480000
v 0.142658 2.926353 0.680000
v 0.142658 2.833647 0.480000
v 0.142658 2.833647 0.680000
v 0.088168 2.758648 0.480000
v 0.088168 2.758647 0.680000
v 0.000000 2.730000 0.480000
v 0.000000 2.730000 0.680000
v -0.088168 2.758648 0.480000
v -0.088168 2.758647 0.680000
v -0.142658 2.833647 0.480000
v -0.142658 2.833647 0.680000
v -0.142658 2.926353 0.480000
v -0.142658 2.926353 0.680000
v -0.088168 3.001353 0.480000
v -0.088168 3.001353 0.680000
vn -1.0000 -0.0000 -0.0000
vn -0.0000 -0.0000 -1.0000
vn 1.0000 -0.0000 -0.0000
vn -0.0000 -0.0000 1.0000
vn -0.0000 -1.0000 -0.0000
vn -0.0000 1.0000 -0.0000
vn 0.3090 0.9511 -0.0000
vn 0.8090 0.5878 -0.0000
vn 0.8090 -0.5878 -0.0000
vn 0.3090 -0.9511 -0.0000
vn -0.3090 -0.9511 -0.0000
vn -0.8090 -0.5878 -0.0000
vn -0.8090 0.5878 -0.0000
vn -0.3090 0.9511 -0.0000
s 0
usemtl Windows
f 260//404 261//404 259//404
f 262//405 265//405 261//405
f 266//406 263//406 265//406
f 264//407 259//407 263//407
f 265//408 259//408 261//408
f 262//409 264//409 266//409
f 268//404 269//404 267//404
f 270//405 273//405 269//405
f 274//406 271//406 273//406
f 272//407 267//407 271//407
f 273//408 267//408 269//408
f 270//409 272//409 274//409
f 276//410 277//410 275//410
f 278//411 279//411 277//411
f 280//406 281//406 279//406
f 282//412 283//412 281//412
f 284//413 285//413 283//413
f 285//414 288//414 287//414
f 288//415 289//415 287//415
f 290//404 291//404 289//404
f 292//407 284//407 280//407
f 291//416 294//416 293//416
f 293//417 276//417 275//417
f 281//405 289//405 293//405
f 260//404 262//404 261//404
f 262//405 266//405 265//405
f 266//406 264//406 263//406
f 264//407 260//407 259//407
f 265//408 263//408 259//408
f 262//409 260//409 264//409
f 268//404 270//404 269//404
f 270//405 274//405 273//405
f 274//406 272//406 271//406
f 272//407 268//407 267//407
f 273//408 271//408 267//408
f 270//409 268//409 272//409
f 276//410 278//410 277//410
f 278//411 280//411 279//411
f 280//406 282//406 281//406
f 282//412 284//412 283//412
f 284//413 286//413 285//413
f 285//414 286//414 288//414
f 288//415 290//415 289//415
f 290//404 292//404 291//404
f 280//407 278//407 276//407
f 276//407 294//407 292//407
f 292//407 290//407 288//407
f 288//407 286//407 284//407
f 284//407 282//407 280//407
f 280//407 276//407 292//407
f 292//407 288//407 284//407
f 291//416 292//416 294//416
f 293//417 294//417 276//417
f 293//405 275//405 277//405
f 277//405 279//405 281//405
f 281//405 283//405 285//405
f 285//405 287//405 289//405
f 289//405 291//405 293//405
f 293//405 277//405 281//405
f 281//405 285//405 289//405
o Trim
v -0.850000 1.732023 1.474424
v -0.850000 1.815603 1.507807
v -0.850000 2.084397 0.592193
v -0.850000 2.167977 0.625576
v 0.850000 1.732023 1.474424
v 0.850000 1.815603 1.507807
v 0.850000 2.084397 0.592193
v 0.850000 2.167977 0.625576
v 0.990000 2.550000 0.000000
v 0.900172 2.618001 0.000000
v 0.754828 2.592027 0.000000
v 0.754828 2.507973 0.000000
v 0.900172 2.481999 0.000000
v 0.857365 2.550000 -0.495000
v 0.779572 2.618001 -0.450086
v 0.653700 2.592027 -0.377414
v 0.653700 2.507973 -0.377414
v 0.779572 2.481999 -0.450086
v 0.495000 2.550000 -0.857365
v 0.450086 2.618001 -0.779572
v 0.377414 2.592027 -0.653700
v 0.377414 2.507973 -0.653700
v 0.450086 2.481999 -0.779572
v 0.000000 2.550000 -0.990000
v 0.000000 2.618001 -0.900172
v 0.000000 2.592027 -0.754828
v 0.000000 2.507973 -0.754828
v 0.000000 2.481999 -0.900172
v -0.495000 2.550000 -0.857365
v -0.450086 2.618001 -0.779572
v -0.377414 2.592027 -0.653700
v -0.377414 2.507973 -0.653700
v -0.450086 2.481999 -0.779572
v -0.857365 2.550000 -0.495000
v -0.779572 2.618001 -0.450086
v -0.653700 2.592027 -0.377414
v -0.653700 2.507973 -0.377414
v -0.779572 2.481999 -0.450086
v -0.990000 2.550000 -0.000000
v -0.900172 2.618001 -0.000000
v -0.754828 2.592027 -0.000000
v -0.754828 2.507973 -0.000000
v -0.900172 2.481999 -0.000000
v -0.857365 2.550000 0.495000
v -0.779572 2.618001 0.450086
v -0.653700 2.592027 0.377414
v -0.653700 2.507973 0.377414
v -0.779572 2.481999 0.450086
v -0.495000 2.550000 0.857365
v -0.450086 2.618001 0.779572
v -0.377414 2.592027 0.653700
v -0.377414 2.507973 0.653700
v -0.450086 2.481999 0.779572
v 0.000000 2.550000 0.990000
v 0.000000 2.618001 0.900172
v 0.000000 2.592027 0.754828
v 0.000000 2.507973 0.754828
v 0.000000 2.481999 0.900172
v 0.495000 2.550000 0.857365
v 0.450086 2.618001 0.779572
v 0.377414 2.592027 0.653700
v 0.377414 2.507973 0.653700
v 0.450086 2.481999 0.779572
v 0.857365 2.550000 0.495000
v 0.779572 2.618001 0.450086
v 0.653700 2.592027 0.377414
v 0.653700 2.507973 0.377414
v 0.779572 2.481999 0.450086
v -0.770000 0.490000 1.406116
v -0.770000 1.773813 1.406116
v -0.696388 0.490000 1.448616
v -0.696388 1.773813 1.448616
v -0.696388 0.490000 1.533616
v -0.696388 1.773813 1.533616
v -0.770000 0.490000 1.576116
v -0.770000 1.773813 1.576116
v -0.843612 0.490000 1.533616
v -0.843612 1.773813 1.533616
v -0.843612 0.490000 1.448616
v -0.843612 1.773813 1.448616
v 0.770000 0.490000 1.406116
v 0.770000 1.773813 1.406116
v 0.843612 0.490000 1.448616
v 0.843612 1.773813 1.448616
v 0.843612 0.490000 1.533616
v 0.843612 1.773813 1.533616
v 0.770000 0.490000 1.576116
v 0.770000 1.773813 1.576116
v 0.696388 0.490000 1.533616
v 0.696388 1.773813 1.533616
v 0.696388 0.490000 1.448616
v 0.696388 1.773813 1.448616
vn -1.0000 -0.0000 -0.0000
vn -0.0000 0.3709 -0.9287
vn 1.0000 -0.0000 -0.0000
vn -0.0000 -0.3709 0.9287
vn -0.0000 -0.9287 -0.3709
vn -0.0000 0.9287 0.3709
vn 0.5958 0.7871 -0.1597
vn -0.1757 0.9833 0.0471
vn -0.9659 -0.0000 0.2588
vn -0.1757 -0.9833 0.0471
vn 0.5958 -0.7871 -0.1597
vn 0.4362 0.7871 -0.4362
vn -0.1286 0.9833 0.1286
vn -0.7071 -0.0000 0.7071
vn -0.1286 -0.9833 0.1286
vn 0.4362 -0.7871 -0.4362
vn 0.1597 0.7871 -0.5958
vn -0.0471 0.9833 0.1757
vn -0.2588 -0.0000 0.9659
vn -0.0471 -0.9833 0.1757
vn 0.1597 -0.7871 -0.5958
vn -0.1597 0.7871 -0.5958
vn 0.0471 0.9833 0.1757
vn 0.2588 -0.0000 0.9659
vn 0.0471 -0.9833 0.1757
vn -0.1597 -0.7871 -0.5958
vn -0.4362 0.7871 -0.4362
vn 0.1286 0.9833 0.1286
vn 0.7071 -0.0000 0.7071
vn 0.1286 -0.9833 0.1286
vn -0.4362 -0.7871 -0.4362
vn -0.5958 0.7871 -0.1597
vn 0.1757 0.9833 0.0471
vn 0.9659 -0.0000 0.2588
vn 0.1757 -0.9833 0.0471
vn -0.5958 -0.7871 -0.1597
vn -0.5958 0.7871 0.1597
vn 0.1757 0.9833 -0.0471
vn 0.9659 -0.0000 -0.2588
vn 0.1757 -0.9833 -0.0471
vn -0.5958 -0.7871 0.1597
vn -0.4362 0.7871 0.4362
vn 0.1286 0.9833 -0.1286
vn 0.7071 -0.0000 -0.7071
vn 0.1286 -0.9833 -0.1286
vn -0.4362 -0.7871 0.4362
vn -0.1597 0.7871 0.5958
vn 0.0471 0.9833 -0.1757
vn 0.2588 -0.0000 -0.9659
vn 0.0471 -0.9833 -0.1757
vn -0.1597 -0.7871 0.5958
vn 0.1597 0.7871 0.5958
vn -0.0471 0.9833 -0.1757
vn -0.2588 -0.0000 -0.9659
vn -0.0471 -0.9833 -0.1757
vn 0.1597 -0.7871 0.5958
vn 0.4362 0.7871 0.4362
vn -0.1286 0.9833 -0.1286
vn -0.7071 -0.0000 -0.7071
vn -0.1286 -0.9833 -0.1286
vn 0.4362 -0.7871 0.4362
vn 0.5958 0.7871 0.1597
vn -0.1757 0.9833 -0.0471
vn -0.9659 -0.0000 -0.2588
vn -0.1757 -0.9833 -0.0471
vn 0.5958 -0.7871 0.1597
vn 0.5000 -0.0000 -0.8660
vn 0.5000 -0.0000 0.8660
vn -0.5000 -0.0000 0.8660
vn -0.0000 1.0000 -0.0000
vn -0.5000 -0.0000 -0.8660
vn -0.0000 -1.0000 -0.0000
s 0
usemtl Trim
f 296//418 297//418 295//418
f 298//419 301//419 297//419
f 302//420 299//420 301//420
f 300//421 295//421 299//421
f 301//422 295//422 297//422
f 298//423 300//423 302//423
f 303//424 309//424 304//424
f 304//425 310//425 305//425
f 310//426 306//426 305//426
f 311//427 307//427 306//427
f 312//428 303//428 307//428
f 313//429 309//429 308//429
f 309//430 315//430 310//430
f 315//431 311//431 310//431
f 316//432 312//432 311//432
f 317//433 308//433 312//433
f 318//434 314//434 313//434
f 314//435 320//435 315//435
f 320//436 316//436 315//436
f 321//437 317//437 316//437
f 322//438 313//438 317//438
f 323//439 319//439 318//439
f 324//440 320//440 319//440
f 325//441 321//441 320//441
f 326//442 322//442 321//442
f 327//443 318//443 322//443
f 328//444 324//444 323//444
f 324//445 330//445 325//445
f 330//446 326//446 325//446
f 331//447 327//447 326//447
f 332//448 323//448 327//448
f 328//449 334//449 329//449
f 334//450 330//450 329//450
f 335//451 331//451 330//451
f 336//452 332//452 331//452
f 337//453 328//453 332//453
f 338//454 334//454 333//454
f 339//455 335//455 334//455
f 340//456 336//456 335//456
f 336//457 342//457 337//457
f 342//458 333//458 337//458
f 343//459 339//459 338//459
f 339//460 345//460 340//460
f 345//461 341//461 340//461
f 346//462 342//462 341//462
f 342//463 343//463 338//463
f 348//464 344//464 343//464
f 349//465 345//465 344//465
f 350//466 346//466 345//466
f 351//467 347//467 346//467
f 347//468 348//468 343//468
f 348//469 354//469 349//469
f 354//470 350//470 349//470
f 355//471 351//471 350//471
f 356//472 352//472 351//472
f 357//473 348//473 352//473
f 358//474 354//474 353//474
f 359//475 355//475 354//475
f 360//476 356//476 355//476
f 356//477 362//477 357//477
f 362//478 353//478 357//478
f 303//479 359//479 358//479
f 304//480 360//480 359//480
f 305//481 361//481 360//481
f 361//482 307//482 362//482
f 307//483 358//483 362//483
f 364//484 365//484 363//484
f 366//420 367//420 365//420
f 368//485 369//485 367//485
f 370//486 371//486 369//486
f 364//487 372//487 368//487
f 372//418 373//418 371//418
f 374//488 363//488 373//488
f 365//489 369//489 373//489
f 376//484 377//484 375//484
f 378//420 379//420 377//420
f 380//485 381//485 379//485
f 382//486 383//486 381//486
f 376//487 384//487 380//487
f 384//418 385//418 383//418
f 386//488 375//488 385//488
f 377//489 381//489 385//489
f 296//418 298//418 297//418
f 298//419 302//419 301//419
f 302//420 300//420 299//420
f 300//421 296//421 295//421
f 301//422 299//422 295//422
f 298//423 296//423 300//423
f 303//424 308//424 309//424
f 304//425 309//425 310//425
f 310//426 311//426 306//426
f 311//427 312//427 307//427
f 312//428 308//428 303//428
f 313//429 314//429 309//429
f 309//430 314//430 315//430
f 315//431 316//431 311//431
f 316//432 317//432 312//432
f 317//433 313//433 308//433
f 318//434 319//434 314//434
f 314//435 319//435 320//435
f 320//436 321//436 316//436
f 321//437 322//437 317//437
f 322//438 318//438 313//438
f 323//439 324//439 319//439
f 324//440 325//440 320//440
f 325//441 326//441 321//441
f 326//442 327//442 322//442
f 327//443 323//443 318//443
f 328//444 329//444 324//444
f 324//445 329//445 330//445
f 330//446 331//446 326//446
f 331//447 332//447 327//447
f 332//448 328//448 323//448
f 328//449 333//449 334//449
f 334//450 335//450 330//450
f 335//451 336//451 331//451
f 336//452 337//452 332//452
f 337//453 333//453 328//453
f 338//454 339//454 334//454
f 339//455 340//455 335//455
f 340//456 341//456 336//456
f 336//457 341//457 342//457
f 342//458 338//458 333//458
f 343//459 344//459 339//459
f 339//460 344//460 345//460
f 345//461 346//461 341//461
f 346//462 347//462 342//462
f 342//463 347//463 343//463
f 348//464 349//464 344//464
f 349//465 350//465 345//465
f 350//466 351//466 346//466
f 351//467 352//467 347//467
f 347//468 352//468 348//468
f 348//469 353//469 354//469
f 354//470 355//470 350//470
f 355//471 356//471 351//471
f 356//472 357//472 352//472
f 357//473 353//473 348//473
f 358//474 359//474 354//474
f 359//475 360//475 355//475
f 360//476 361//476 356//476
f 356//477 361//477 362//477
f 362//478 358//478 353//478
f 303//479 304//479 359//479
f 304//480 305//480 360//480
f 305//481 306//481 361//481
f 361//482 306//482 307//482
f 307//483 303//483 358//483
f 364//484 366//484 365//484
f 366//420 368//420 367//420
f 368//485 370//485 369//485
f 370//486 372//486 371//486
f 368//487 366//487 364//487
f 364//487 374//487 372//487
f 372//487 370//487 368//487
f 372//418 374//418 373//418
f 374//488 364//488 363//488
f 373//489 363//489 365//489
f 365//489 367//489 369//489
f 369//489 371//489 373//489
f 376//484 378//484 377//484
f 378//420 380//420 379//420
f 380//485 382//485 381//485
f 382//486 384//486 383//486
f 380//487 378//487 376//487
f 376//487 386//487 384//487
f 384//487 382//487 380//487
f 384//418 386//418 385//418
f 386//488 376//488 375//488
f 385//489 375//489 377//489
f 377//489 379//489 381//489
f 381//489 383//489 385//489
