# Blender 5.2.1 LTS
# www.blender.org
mtllib BaseEmber.mtl
o Plinth
v 0.000000 0.000000 -2.280000
v -0.023796 0.299924 -2.226144
v 1.782576 0.000000 -1.421557
v 1.865342 0.362816 -1.437145
v 2.222836 0.000000 0.507348
v 2.233448 0.367795 0.530639
v 0.989255 0.000000 2.054209
v 1.004541 0.359390 1.997967
v -0.989255 0.000000 2.054209
v -0.921395 0.298606 2.066330
v -2.222836 0.000000 0.507348
v -2.292869 0.300101 0.462714
v -1.782576 0.000000 -1.421557
v -1.751645 0.287140 -1.445711
v 1.511046 0.002123 -1.212916
v 1.585516 0.847877 -1.253600
v 1.849661 -0.027273 -1.204188
v 1.924131 0.818481 -1.244871
v 2.012665 -0.027273 -0.905810
v 2.087136 0.818481 -0.946493
v 1.837055 0.002123 -0.616160
v 1.911526 0.847877 -0.656843
v 1.498441 0.031519 -0.624888
v 1.572911 0.877273 -0.665571
v 1.335436 0.031519 -0.923266
v 1.409907 0.877273 -0.963950
v -1.577833 0.003122 -1.255633
v -1.660979 1.246878 -1.348691
v -1.646267 -0.026273 -1.587375
v -1.729413 1.217482 -1.680433
v -1.392727 -0.026273 -1.813909
v -1.475873 1.217482 -1.906966
v -1.070753 0.003122 -1.708701
v -1.153899 1.246878 -1.801759
v -1.002319 0.032518 -1.376959
v -1.085465 1.276273 -1.470017
v -1.255859 0.032518 -1.150425
v -1.339005 1.276273 -1.243483
v -1.507696 0.001549 1.123141
v -1.563202 0.618451 1.150532
v -1.845654 -0.027847 1.100341
v -1.901161 0.589055 1.127731
v -1.996111 -0.027847 0.795443
v -2.051618 0.589055 0.822833
v -1.808609 0.001549 0.513345
v -1.864116 0.618451 0.540736
v -1.470651 0.030945 0.536146
v -1.526157 0.647847 0.563536
v -1.320194 0.030945 0.841044
v -1.375700 0.647847 0.868434
v 1.059425 0.002498 1.695420
v 1.097160 0.997502 1.787847
v 1.012775 -0.026898 2.030919
v 1.050510 0.968106 2.123346
v 0.697998 -0.026898 2.159431
v 0.735733 0.968106 2.251858
v 0.429871 0.002498 1.952444
v 0.467605 0.997502 2.044872
v 0.476520 0.031894 1.616945
v 0.514255 1.026898 1.709373
v 0.791297 0.031894 1.488433
v 0.829032 1.026898 1.580860
vn 0.4258 0.1925 -0.8841
vn 0.9497 -0.2260 -0.2168
vn 0.7802 0.0642 0.6222
vn -0.0000 -0.0406 0.9992
vn -0.7729 0.1506 0.6164
vn -0.0129 0.9999 -0.0109
vn -0.9434 -0.2522 -0.2153
vn -0.4304 0.1263 -0.8937
vn -0.0000 -1.0000 -0.0000
vn 0.0214 -0.0499 -0.9985
vn 0.8732 -0.0998 -0.4770
vn 0.8518 -0.0499 0.5215
vn -0.0214 0.0499 0.9985
vn 0.0876 0.9950 -0.0479
vn -0.8732 0.0998 0.4770
vn -0.8518 0.0499 -0.5215
vn -0.0876 -0.9950 0.0479
vn -0.9773 -0.0499 0.2060
vn -0.6629 -0.0998 -0.7420
vn 0.3143 -0.0499 -0.9480
vn 0.9773 0.0499 -0.2060
vn -0.0665 0.9950 -0.0744
vn 0.6629 0.0998 0.7420
vn -0.3143 0.0499 0.9480
vn 0.0665 -0.9950 0.0744
vn -0.0629 -0.0499 0.9968
vn -0.8923 -0.0998 0.4403
vn -0.8294 -0.0499 -0.5565
vn 0.0629 0.0499 -0.9968
vn -0.0895 0.9950 0.0442
vn 0.8923 0.0998 -0.4403
vn 0.8294 0.0499 0.5565
vn 0.0895 -0.9950 -0.0442
vn 0.9898 -0.0499 0.1333
vn 0.3761 -0.0998 0.9212
vn -0.6137 -0.0499 0.7879
vn -0.9898 0.0499 -0.1333
vn 0.0377 0.9950 0.0924
vn -0.3761 0.0998 -0.9212
vn 0.6137 0.0499 -0.7879
vn -0.0377 -0.9950 -0.0924
vn 0.3859 -0.1273 -0.9137
vn 0.9828 -0.0167 -0.1838
vn 0.7653 -0.0626 0.6406
vn 0.0302 0.1533 0.9877
vn -0.7575 -0.0804 0.6478
vn -0.0349 0.9994 0.0040
vn -0.0120 0.9999 -0.0102
vn -0.0306 0.9992 0.0271
vn -0.0183 0.9998 -0.0096
vn -0.9588 0.0804 -0.2725
vn -0.4112 -0.0323 -0.9110
s 0
usemtl Plinth
f 2//1 3//1 1//1
f 4//2 5//2 3//2
f 5//3 8//3 7//3
f 7//4 10//4 9//4
f 10//5 11//5 9//5
f 2//6 12//6 8//6
f 12//7 13//7 11//7
f 13//8 2//8 1//8
f 3//9 7//9 11//9
f 16//10 17//10 15//10
f 18//11 19//11 17//11
f 20//12 21//12 19//12
f 22//13 23//13 21//13
f 16//14 24//14 20//14
f 24//15 25//15 23//15
f 26//16 15//16 25//16
f 17//17 21//17 25//17
f 28//18 29//18 27//18
f 30//19 31//19 29//19
f 32//20 33//20 31//20
f 34//21 35//21 33//21
f 28//22 36//22 32//22
f 36//23 37//23 35//23
f 37//24 28//24 27//24
f 29//25 33//25 37//25
f 40//26 41//26 39//26
f 42//27 43//27 41//27
f 44//28 45//28 43//28
f 46//29 47//29 45//29
f 40//30 48//30 44//30
f 48//31 49//31 47//31
f 50//32 39//32 49//32
f 41//33 45//33 49//33
f 52//34 53//34 51//34
f 54//35 55//35 53//35
f 56//36 57//36 55//36
f 58//37 59//37 57//37
f 52//38 60//38 56//38
f 60//39 61//39 59//39
f 62//40 51//40 61//40
f 53//41 57//41 61//41
f 2//42 4//42 3//42
f 4//43 6//43 5//43
f 5//44 6//44 8//44
f 7//45 8//45 10//45
f 10//46 12//46 11//46
f 6//47 4//47 2//47
f 2//48 14//48 12//48
f 12//49 10//49 8//49
f 8//50 6//50 2//50
f 12//51 14//51 13//51
f 13//52 14//52 2//52
f 13//9 1//9 3//9
f 3//9 5//9 7//9
f 7//9 9//9 11//9
f 11//9 13//9 3//9
f 16//10 18//10 17//10
f 18//11 20//11 19//11
f 20//12 22//12 21//12
f 22//13 24//13 23//13
f 20//14 18//14 16//14
f 16//14 26//14 24//14
f 24//14 22//14 20//14
f 24//15 26//15 25//15
f 26//16 16//16 15//16
f 25//17 15//17 17//17
f 17//17 19//17 21//17
f 21//17 23//17 25//17
f 28//18 30//18 29//18
f 30//19 32//19 31//19
f 32//20 34//20 33//20
f 34//21 36//21 35//21
f 32//22 30//22 28//22
f 28//22 38//22 36//22
f 36//22 34//22 32//22
f 36//23 38//23 37//23
f 37//24 38//24 28//24
f 37//25 27//25 29//25
f 29//25 31//25 33//25
f 33//25 35//25 37//25
f 40//26 42//26 41//26
f 42//27 44//27 43//27
f 44//28 46//28 45//28
f 46//29 48//29 47//29
f 44//30 42//30 40//30
f 40//30 50//30 48//30
f 48//30 46//30 44//30
f 48//31 50//31 49//31
f 50//32 40//32 39//32
f 49//33 39//33 41//33
f 41//33 43//33 45//33
f 45//33 47//33 49//33
f 52//34 54//34 53//34
f 54//35 56//35 55//35
f 56//36 58//36 57//36
f 58//37 60//37 59//37
f 56//38 54//38 52//38
f 52//38 62//38 60//38
f 60//38 58//38 56//38
f 60//39 62//39 61//39
f 62//40 52//40 51//40
f 61//41 51//41 53//41
f 53//41 55//41 57//41
f 57//41 59//41 61//41
o Stem
v 0.000000 0.340000 -1.160000
v -0.047008 2.656264 -0.969448
v 1.004589 0.340000 -0.580000
v 0.822752 2.717453 -0.521986
v 1.004589 0.340000 0.580000
v 0.861769 2.652568 0.512191
v 0.000000 0.340000 1.160000
v -0.036326 2.715557 1.006597
v -1.004589 0.340000 0.580000
v -0.866625 2.690649 0.474632
v -1.004589 0.340000 -0.580000
v -0.880016 2.716269 -0.512531
vn 0.4984 0.0811 -0.8632
vn 0.9981 0.0616 -0.0000
vn 0.4992 0.0562 0.8647
vn -0.4988 0.0680 0.8640
vn 0.0223 0.9997 -0.0112
vn -0.9983 0.0586 -0.0000
vn -0.4991 0.0610 -0.8644
vn -0.0000 -1.0000 -0.0000
vn 0.4536 0.0564 -0.8894
vn 0.9965 0.0770 -0.0328
vn 0.4847 0.0637 0.8724
vn -0.5399 0.0460 0.8405
vn -0.1039 0.9924 0.0662
vn 0.0853 0.9960 0.0247
vn 0.0238 0.9962 -0.0837
vn -0.9985 0.0519 0.0149
vn -0.4776 0.0499 -0.8772
s 0
usemtl Stem
f 64//53 65//53 63//53
f 65//54 68//54 67//54
f 68//55 69//55 67//55
f 69//56 72//56 71//56
f 64//57 72//57 68//57
f 72//58 73//58 71//58
f 73//59 64//59 63//59
f 65//60 69//60 73//60
f 64//61 66//61 65//61
f 65//62 66//62 68//62
f 68//63 70//63 69//63
f 69//64 70//64 72//64
f 68//65 66//65 64//65
f 64//66 74//66 72//66
f 72//67 70//67 68//67
f 72//68 74//68 73//68
f 73//69 74//69 64//69
f 73//60 63//60 65//60
f 65//60 67//60 69//60
f 69//60 71//60 73//60
o Cap
v -0.021951 3.949733 -0.010073
v 0.944842 3.560709 -0.956481
v 1.562343 2.654325 -1.536460
v 1.449243 3.656384 -0.117478
v 2.310421 2.731311 0.022789
v 0.980711 3.677698 1.124789
v 1.682479 2.641852 1.747464
v -0.097289 3.572030 1.335810
v 0.030076 2.636803 2.226903
v -1.049831 3.688551 1.027895
v -1.729084 2.667469 1.712343
v -1.554142 3.674124 -0.041692
v -2.354871 2.734518 0.110920
v -0.965551 3.603845 -1.059269
v -1.575031 2.716718 -1.685680
v 0.009727 3.622121 -1.381934
v 0.070574 2.681573 -2.383700
vn 0.1656 0.9601 -0.2254
vn 0.3674 0.6891 -0.6247
vn 0.1758 0.9606 -0.2152
vn 0.7075 0.6026 -0.3692
vn 0.1993 0.9782 0.0584
vn 0.7026 0.6500 0.2895
vn -0.0419 0.9626 0.2678
vn 0.2196 0.6076 0.7633
vn 0.0299 0.9619 0.2716
vn -0.1999 0.6615 0.7228
vn -0.1780 0.9815 0.0707
vn -0.6908 0.6590 0.2975
vn -0.1713 0.9711 -0.1661
vn -0.7445 0.5810 -0.3289
vn -0.0953 0.9677 -0.2333
vn -0.0321 -0.9994 -0.0100
vn -0.2685 0.6941 -0.6680
vn 0.3461 0.6615 -0.6653
vn 0.5915 0.6801 -0.4331
vn 0.6899 0.6799 0.2485
vn 0.0724 0.6932 0.7171
vn -0.1701 0.6243 0.7625
vn -0.6951 0.6442 0.3191
vn -0.6020 0.6933 -0.3961
vn -0.0633 -0.9948 0.0795
vn -0.0134 -0.9983 -0.0567
vn -0.0059 -0.9992 -0.0395
vn -0.0210 -0.9998 0.0008
vn 0.0323 -0.9994 -0.0094
vn -0.2455 0.6660 -0.7044
s 0
usemtl Cap
f 90//70 75//70 76//70
f 90//71 77//71 91//71
f 76//72 75//72 78//72
f 77//73 78//73 79//73
f 78//74 75//74 80//74
f 79//75 80//75 81//75
f 80//76 75//76 82//76
f 80//77 83//77 81//77
f 82//78 75//78 84//78
f 82//79 85//79 83//79
f 84//80 75//80 86//80
f 84//81 87//81 85//81
f 86//82 75//82 88//82
f 86//83 89//83 87//83
f 88//84 75//84 90//84
f 83//85 87//85 91//85
f 89//86 90//86 91//86
f 90//87 76//87 77//87
f 77//88 76//88 78//88
f 79//89 78//89 80//89
f 80//90 82//90 83//90
f 82//91 84//91 85//91
f 84//92 86//92 87//92
f 86//93 88//93 89//93
f 91//94 77//94 79//94
f 79//95 81//95 83//95
f 83//96 85//96 87//96
f 87//97 89//97 91//97
f 91//98 79//98 83//98
f 89//99 88//99 90//99
o Spots
v 0.741521 3.676174 -0.313510
v 0.999062 3.722527 -0.139635
v 0.665538 3.792920 -0.031898
v 0.456875 3.808912 -0.321737
v 0.661446 3.748402 -0.608603
v 0.996533 3.695013 -0.496055
v 0.873586 3.883913 -0.040398
v 0.538498 3.937302 -0.152946
v 0.535969 3.909788 -0.509366
v 0.869493 3.839395 -0.617103
v 1.078157 3.823402 -0.327264
v 0.793510 3.956141 -0.335491
v -1.283143 3.429022 -0.771934
v -1.055447 3.663110 -0.598791
v -1.433551 3.547197 -0.455654
v -1.650027 3.384419 -0.777417
v -1.405703 3.399734 -1.119413
v -1.038236 3.571974 -1.009013
v -1.281608 3.763183 -0.497264
v -1.649075 3.590943 -0.607664
v -1.631865 3.499807 -1.017886
v -1.253760 3.615721 -1.161023
v -1.037284 3.778498 -0.839260
v -1.404169 3.733895 -0.844743
v -0.392139 3.564421 1.214188
v -0.180748 3.602133 1.389518
v -0.477461 3.540197 1.476833
v -0.666171 3.602435 1.231852
v -0.486079 3.702837 0.993133
v -0.186074 3.702649 1.090578
v -0.324133 3.663455 1.515545
v -0.624138 3.663643 1.418100
v -0.629465 3.764159 1.119159
v -0.332751 3.826095 1.031845
v -0.144041 3.763857 1.276826
v -0.418073 3.801872 1.294490
v 1.637302 3.071927 1.332671
v 1.801175 2.940805 1.449610
v 1.578795 3.050507 1.564706
v 1.485121 3.245954 1.398088
v 1.649613 3.257041 1.180015
v 1.844943 3.068449 1.211860
v 1.750275 3.033794 1.587301
v 1.554945 3.222386 1.555457
v 1.598713 3.350029 1.317707
v 1.821093 3.240327 1.202610
v 1.914767 3.044880 1.369229
v 1.762587 3.218907 1.434646
vn -0.0784 -0.9282 0.3636
vn 0.1271 -0.9890 0.0754
vn -0.4151 -0.8746 0.2506
vn -0.4176 -0.9022 -0.1075
vn -0.0826 -0.9730 -0.2157
vn 0.8197 -0.5715 0.0383
vn 0.2074 -0.3903 0.8970
vn -0.7957 -0.2305 0.5601
vn -0.8033 -0.3129 -0.5068
vn 0.1951 -0.5236 -0.8293
vn 0.8033 0.3129 0.5068
vn -0.1951 0.5236 0.8293
vn -0.8197 0.5715 -0.0383
vn -0.2074 0.3903 -0.8970
vn 0.7957 0.2305 -0.5601
vn 0.4176 0.9022 0.1075
vn 0.0826 0.9730 0.2157
vn -0.1271 0.9890 -0.0754
vn 0.0784 0.9282 -0.3636
vn 0.4151 0.8746 -0.2506
vn 0.4191 -0.7670 0.4859
vn 0.6277 -0.7539 0.1938
vn 0.1053 -0.9141 0.3916
vn 0.1200 -0.9919 0.0413
vn 0.4429 -0.8929 -0.0809
vn 0.9975 -0.0477 0.0524
vn 0.3758 -0.0867 0.9226
vn -0.5592 -0.5249 0.6417
vn -0.5154 -0.7568 -0.4021
vn 0.4467 -0.4619 -0.7663
vn 0.5154 0.7568 0.4021
vn -0.4467 0.4619 0.7663
vn -0.9975 0.0477 -0.0524
vn -0.3758 0.0867 -0.9226
vn 0.5592 0.5249 -0.6417
vn -0.1200 0.9919 -0.0413
vn -0.4429 0.8929 0.0809
vn -0.6277 0.7539 -0.1938
vn -0.4191 0.7670 -0.4859
vn -0.1053 0.9141 -0.3916
vn 0.1968 -0.9801 -0.0265
vn 0.4018 -0.8658 -0.2983
vn -0.1448 -0.9799 -0.1374
vn -0.1509 -0.8654 -0.4778
vn 0.1870 -0.7949 -0.5772
vn 0.9479 -0.2964 -0.1165
vn 0.3370 -0.6370 0.6933
vn -0.6808 -0.6363 0.3628
vn -0.6989 -0.2953 -0.6514
vn 0.3078 -0.0852 -0.9476
vn 0.6989 0.2953 0.6514
vn -0.3078 0.0852 0.9476
vn -0.9479 0.2964 0.1165
vn -0.3370 0.6370 -0.6933
vn 0.6808 0.6363 -0.3628
vn 0.1509 0.8654 0.4778
vn -0.1870 0.7949 0.5772
vn -0.4018 0.8658 0.2983
vn -0.1968 0.9801 0.0265
vn 0.1448 0.9799 0.1374
vn -0.5169 -0.8306 -0.2070
vn -0.3008 -0.8161 -0.4935
vn -0.7735 -0.5829 -0.2488
vn -0.7160 -0.4152 -0.5612
vn -0.4239 -0.5593 -0.7124
vn 0.4938 -0.8008 -0.3390
vn -0.1501 -0.8442 0.5146
vn -0.9147 -0.1059 0.3900
vn -0.7434 0.3937 -0.5407
vn 0.1271 -0.0357 -0.9912
vn 0.7434 -0.3937 0.5407
vn -0.1271 0.0357 0.9912
vn -0.4938 0.8008 0.3390
vn 0.1501 0.8442 -0.5146
vn 0.9147 0.1059 -0.3900
vn 0.7160 0.4152 0.5612
vn 0.4239 0.5593 0.7124
vn 0.3008 0.8161 0.4935
vn 0.5169 0.8306 0.2070
vn 0.7735 0.5829 0.2488
s 0
usemtl Spots
f 92//100 93//100 94//100
f 93//101 92//101 97//101
f 92//102 94//102 95//102
f 92//103 95//103 96//103
f 92//104 96//104 97//104
f 93//105 97//105 102//105
f 94//106 93//106 98//106
f 95//107 94//107 99//107
f 96//108 95//108 100//108
f 97//109 96//109 101//109
f 93//110 102//110 98//110
f 94//111 98//111 99//111
f 95//112 99//112 100//112
f 96//113 100//113 101//113
f 97//114 101//114 102//114
f 98//115 102//115 103//115
f 99//116 98//116 103//116
f 100//117 99//117 103//117
f 101//118 100//118 103//118
f 102//119 101//119 103//119
f 104//120 105//120 106//120
f 105//121 104//121 109//121
f 104//122 106//122 107//122
f 104//123 107//123 108//123
f 104//124 108//124 109//124
f 105//125 109//125 114//125
f 106//126 105//126 110//126
f 107//127 106//127 111//127
f 108//128 107//128 112//128
f 109//129 108//129 113//129
f 105//130 114//130 110//130
f 106//131 110//131 111//131
f 107//132 111//132 112//132
f 108//133 112//133 113//133
f 109//134 113//134 114//134
f 110//135 114//135 115//135
f 111//136 110//136 115//136
f 112//137 111//137 115//137
f 113//138 112//138 115//138
f 114//139 113//139 115//139
f 116//140 117//140 118//140
f 117//141 116//141 121//141
f 116//142 118//142 119//142
f 116//143 119//143 120//143
f 116//144 120//144 121//144
f 117//145 121//145 126//145
f 118//146 117//146 122//146
f 119//147 118//147 123//147
f 120//148 119//148 124//148
f 121//149 120//149 125//149
f 117//150 126//150 122//150
f 118//151 122//151 123//151
f 119//152 123//152 124//152
f 120//153 124//153 125//153
f 121//154 125//154 126//154
f 122//155 126//155 127//155
f 123//156 122//156 127//156
f 124//157 123//157 127//157
f 125//158 124//158 127//158
f 126//159 125//159 127//159
f 128//160 129//160 130//160
f 129//161 128//161 133//161
f 128//162 130//162 131//162
f 128//163 131//163 132//163
f 128//164 132//164 133//164
f 129//165 133//165 138//165
f 130//166 129//166 134//166
f 131//167 130//167 135//167
f 132//168 131//168 136//168
f 133//169 132//169 137//169
f 129//170 138//170 134//170
f 130//171 134//171 135//171
f 131//172 135//172 136//172
f 132//173 136//173 137//173
f 133//174 137//174 138//174
f 134//175 138//175 139//175
f 135//176 134//176 139//176
f 136//177 135//177 139//177
f 137//178 136//178 139//178
f 138//179 137//179 139//179
o Door
v -0.370000 0.340000 1.270000
v -0.370000 1.190000 1.270000
v -0.370000 0.340000 1.050000
v -0.370000 1.190000 1.050000
v 0.370000 0.340000 1.270000
v 0.370000 1.190000 1.270000
v 0.370000 0.340000 1.050000
v 0.370000 1.190000 1.050000
v 0.000000 1.560000 1.050000
v 0.000000 1.560000 1.270000
v 0.217481 1.489336 1.050000
v 0.217481 1.489336 1.270000
v 0.351891 1.304336 1.050000
v 0.351891 1.304336 1.270000
v 0.351891 1.075664 1.050000
v 0.351891 1.075664 1.270000
v 0.217481 0.890664 1.050000
v 0.217481 0.890664 1.270000
v 0.000000 0.820000 1.050000
v 0.000000 0.820000 1.270000
v -0.217481 0.890664 1.050000
v -0.217481 0.890664 1.270000
v -0.351891 1.075664 1.050000
v -0.351891 1.075664 1.270000
v -0.351891 1.304336 1.050000
v -0.351891 1.304336 1.270000
v -0.217481 1.489336 1.050000
v -0.217481 1.489336 1.270000
vn -1.0000 -0.0000 -0.0000
vn -0.0000 -0.0000 -1.0000
vn 1.0000 -0.0000 -0.0000
vn -0.0000 -0.0000 1.0000
vn -0.0000 -1.0000 -0.0000
vn -0.0000 1.0000 -0.0000
vn 0.3090 0.9511 -0.0000
vn 0.8090 0.5878 -0.0000
vn 0.8090 -0.5878 -0.0000
vn 0.3090 -0.9511 -0.0000
vn -0.3090 -0.9511 -0.0000
vn -0.8090 -0.5878 -0.0000
vn -0.8090 0.5878 -0.0000
vn -0.3090 0.9511 -0.0000
s 0
usemtl Door
f 141//180 142//180 140//180
f 143//181 146//181 142//181
f 147//182 144//182 146//182
f 145//183 140//183 144//183
f 146//184 140//184 142//184
f 143//185 145//185 147//185
f 149//186 150//186 148//186
f 151//187 152//187 150//187
f 153//182 154//182 152//182
f 155//188 156//188 154//188
f 157//189 158//189 156//189
f 159//190 160//190 158//190
f 161//191 162//191 160//191
f 163//180 164//180 162//180
f 165//183 157//183 153//183
f 165//192 166//192 164//192
f 167//193 148//193 166//193
f 154//181 162//181 166//181
f 141//180 143//180 142//180
f 143//181 147//181 146//181
f 147//182 145//182 144//182
f 145//183 141//183 140//183
f 146//184 144//184 140//184
f 143//185 141//185 145//185
f 149//186 151//186 150//186
f 151//187 153//187 152//187
f 153//182 155//182 154//182
f 155//188 157//188 156//188
f 157//189 159//189 158//189
f 159//190 161//190 160//190
f 161//191 163//191 162//191
f 163//180 165//180 164//180
f 153//183 151//183 149//183
f 149//183 167//183 165//183
f 165//183 163//183 161//183
f 161//183 159//183 157//183
f 157//183 155//183 153//183
f 153//183 149//183 165//183
f 165//183 161//183 157//183
f 165//192 167//192 166//192
f 167//193 149//193 148//193
f 166//181 148//181 150//181
f 150//181 152//181 154//181
f 154//181 156//181 158//181
f 158//181 160//181 162//181
f 162//181 164//181 166//181
f 166//181 150//181 154//181
f 154//181 158//181 162//181
o Windows
v -0.600000 1.750000 1.200000
v -0.600000 1.970000 1.200000
v -0.600000 1.750000 1.000000
v -0.600000 1.970000 1.000000
v -0.320000 1.750000 1.200000
v -0.320000 1.970000 1.200000
v -0.320000 1.750000 1.000000
v -0.320000 1.970000 1.000000
v 0.340000 1.970000 1.180000
v 0.340000 2.190000 1.180000
v 0.340000 1.970000 0.980000
v 0.340000 2.190000 0.980000
v 0.620000 1.970000 1.180000
v 0.620000 2.190000 1.180000
v 0.620000 1.970000 0.980000
v 0.620000 2.190000 0.980000
v -0.230000 0.490000 1.350000
v -0.230000 1.230000 1.350000
v -0.230000 0.490000 1.270000
v -0.230000 1.230000 1.270000
v 0.230000 0.490000 1.350000
v 0.230000 1.230000 1.350000
v 0.230000 0.490000 1.270000
v 0.230000 1.230000 1.270000
vn -1.0000 -0.0000 -0.0000
vn -0.0000 -0.0000 -1.0000
vn 1.0000 -0.0000 -0.0000
vn -0.0000 -0.0000 1.0000
vn -0.0000 -1.0000 -0.0000
vn -0.0000 1.0000 -0.0000
s 0
usemtl Windows
f 169//194 170//194 168//194
f 171//195 174//195 170//195
f 175//196 172//196 174//196
f 173//197 168//197 172//197
f 174//198 168//198 170//198
f 171//199 173//199 175//199
f 177//194 178//194 176//194
f 179//195 182//195 178//195
f 183//196 180//196 182//196
f 181//197 176//197 180//197
f 182//198 176//198 178//198
f 179//199 181//199 183//199
f 185//194 186//194 184//194
f 187//195 190//195 186//195
f 191//196 188//196 190//196
f 189//197 184//197 188//197
f 190//198 184//198 186//198
f 187//199 189//199 191//199
f 169//194 171//194 170//194
f 171//195 175//195 174//195
f 175//196 173//196 172//196
f 173//197 169//197 168//197
f 174//198 172//198 168//198
f 171//199 169//199 173//199
f 177//194 179//194 178//194
f 179//195 183//195 182//195
f 183//196 181//196 180//196
f 181//197 177//197 176//197
f 182//198 180//198 176//198
f 179//199 177//199 181//199
f 185//194 187//194 186//194
f 187//195 191//195 190//195
f 191//196 189//196 188//196
f 189//197 185//197 184//197
f 190//198 188//198 184//198
f 187//199 185//199 189//199
o Glow
v 1.169357 3.621693 -0.361725
v 1.423185 3.561834 -0.331273
v 1.080101 3.671587 -0.318959
v 0.867246 3.734146 -0.367875
v 1.078786 3.663052 -0.410421
v 1.422372 3.556559 -0.387799
v 1.277949 3.637291 -0.318603
v 0.934363 3.743785 -0.341224
v 0.933550 3.738510 -0.397751
v 1.276634 3.628756 -0.410065
v 1.489489 3.566198 -0.361149
v 1.187378 3.678651 -0.367299
v 0.322438 3.289552 -1.869461
v 0.540881 3.297776 -1.848975
v 0.243082 3.337743 -1.844161
v 0.057227 3.329693 -1.887531
v 0.240170 3.284750 -1.919149
v 0.539082 3.265025 -1.895320
v 0.410676 3.343000 -1.854383
v 0.111764 3.362726 -1.878213
v 0.109965 3.329975 -1.924557
v 0.407764 3.290008 -1.929371
v 0.593619 3.298058 -1.886001
v 0.328408 3.338199 -1.904071
v -0.874715 3.662390 -0.653432
v -0.645977 3.735490 -0.632550
v -0.968166 3.665831 -0.609173
v -1.166250 3.613455 -0.650723
v -0.966475 3.650745 -0.699780
v -0.644932 3.726166 -0.688547
v -0.796144 3.731733 -0.616936
v -1.117687 3.656312 -0.628168
v -1.116642 3.646988 -0.684166
v -0.794453 3.716647 -0.707543
v -0.596369 3.769022 -0.665992
v -0.887904 3.720088 -0.663284
v -1.960168 3.221759 0.313129
v -1.817686 3.354396 0.349966
v -2.026964 3.183087 0.357813
v -2.158327 3.082906 0.306206
v -2.030230 3.192303 0.266465
v -1.819704 3.360092 0.293511
v -1.927785 3.297519 0.365811
v -2.138310 3.129730 0.338765
v -2.140329 3.135426 0.282310
v -1.931051 3.306735 0.274464
v -1.799688 3.406916 0.326070
v -1.997847 3.268063 0.319147
v -0.434248 3.552196 1.344572
v -0.176875 3.587547 1.382630
v -0.533984 3.539559 1.391242
v -0.755919 3.530263 1.343576
v -0.535965 3.572506 1.305506
v -0.178099 3.607909 1.329643
v -0.339481 3.587462 1.405156
v -0.697346 3.552059 1.381019
v -0.698571 3.572421 1.328032
v -0.341462 3.620409 1.319421
v -0.119526 3.629706 1.367086
v -0.441198 3.607772 1.366090
v 1.311190 3.322300 1.305400
v 1.513679 3.238569 1.319262
v 1.238073 3.350805 1.361089
v 1.072614 3.442628 1.335020
v 1.245968 3.387139 1.277081
v 1.518559 3.261024 1.267343
v 1.400248 3.307148 1.357450
v 1.127658 3.433262 1.367188
v 1.132537 3.455718 1.315269
v 1.408143 3.343482 1.273441
v 1.573602 3.251659 1.299510
v 1.335026 3.371987 1.329131
v 1.140000 2.480000 0.000000
v 1.050000 2.525000 0.000000
v 0.960000 2.480000 0.000000
v 1.050000 2.435000 0.000000
v 1.027104 2.480000 -0.494627
v 0.946017 2.525000 -0.455578
v 0.864930 2.480000 -0.416528
v 0.946017 2.435000 -0.455578
v 0.710778 2.480000 -0.891288
v 0.654664 2.525000 -0.820923
v 0.598550 2.480000 -0.750558
v 0.654664 2.435000 -0.820923
v 0.253674 2.480000 -1.111418
v 0.233647 2.525000 -1.023674
v 0.213620 2.480000 -0.935931
v 0.233647 2.435000 -1.023674
v -0.253674 2.480000 -1.111418
v -0.233647 2.525000 -1.023674
v -0.213620 2.480000 -0.935931
v -0.233647 2.435000 -1.023674
v -0.710779 2.480000 -0.891288
v -0.654665 2.525000 -0.820923
v -0.598550 2.480000 -0.750558
v -0.654665 2.435000 -0.820923
v -1.027105 2.480000 -0.494628
v -0.946018 2.525000 -0.455578
v -0.864930 2.480000 -0.416528
v -0.946017 2.435000 -0.455578
v -1.140000 2.480000 -0.000000
v -1.050000 2.525000 -0.000000
v -0.960000 2.480000 -0.000000
v -1.050000 2.435000 -0.000000
v -1.027105 2.480000 0.494627
v -0.946018 2.525000 0.455578
v -0.864930 2.480000 0.416528
v -0.946018 2.435000 0.455578
v -0.710779 2.480000 0.891288
v -0.654665 2.525000 0.820923
v -0.598550 2.480000 0.750558
v -0.654665 2.435000 0.820923
v -0.253674 2.480000 1.111418
v -0.233647 2.525000 1.023674
v -0.213620 2.480000 0.935931
v -0.233647 2.435000 1.023674
v 0.253674 2.480000 1.111418
v 0.233647 2.525000 1.023674
v 0.213620 2.480000 0.935931
v 0.233647 2.435000 1.023674
v 0.710778 2.480000 0.891288
v 0.654664 2.525000 0.820923
v 0.598550 2.480000 0.750558
v 0.654664 2.435000 0.820923
v 1.027104 2.480000 0.494628
v 0.946017 2.525000 0.455578
v 0.864930 2.480000 0.416529
v 0.946017 2.435000 0.455578
vn -0.2557 -0.8509 0.4590
vn -0.2391 -0.9665 0.0936
vn -0.3352 -0.8825 0.3300
vn -0.3421 -0.9274 -0.1514
vn -0.2664 -0.9204 -0.2862
vn 0.1061 -0.9902 0.0909
vn -0.0449 -0.2488 0.9675
vn -0.3044 -0.3401 0.8897
vn -0.3288 -0.4981 -0.8024
vn -0.0718 -0.4234 -0.9031
vn 0.3288 0.4981 0.8024
vn 0.0718 0.4234 0.9031
vn -0.1061 0.9902 -0.0909
vn 0.0449 0.2488 -0.9675
vn 0.3044 0.3402 -0.8897
vn 0.3421 0.9274 0.1514
vn 0.2664 0.9204 0.2862
vn 0.2391 0.9665 -0.0936
vn 0.2557 0.8508 -0.4590
vn 0.3352 0.8825 -0.3300
vn -0.0586 -0.5380 0.8409
vn -0.0234 -0.8160 0.5776
vn -0.1482 -0.6399 0.7540
vn -0.1635 -0.9187 0.3596
vn -0.0823 -0.9697 0.2300
vn 0.3732 -0.7644 0.5257
vn 0.0506 0.2610 0.9640
vn -0.2303 0.1075 0.9672
vn -0.2839 -0.8664 -0.4109
vn -0.0089 -0.8223 -0.5690
vn 0.2839 0.8664 0.4109
vn 0.0089 0.8223 0.5690
vn -0.3732 0.7644 -0.5257
vn -0.0506 -0.2610 -0.9640
vn 0.2303 -0.1075 -0.9672
vn 0.1635 0.9187 -0.3596
vn 0.0823 0.9697 -0.2300
vn 0.0234 0.8160 -0.5776
vn 0.0586 0.5380 -0.8409
vn 0.1482 0.6399 -0.7540
vn 0.2163 -0.8257 0.5210
vn 0.2869 -0.9441 0.1625
vn 0.1554 -0.9039 0.3985
vn 0.1643 -0.9833 -0.0783
vn 0.2301 -0.9486 -0.2172
vn 0.6177 -0.7738 0.1404
vn 0.1061 -0.1613 0.9812
vn -0.0928 -0.3793 0.9206
vn -0.0616 -0.6576 -0.7508
vn 0.1406 -0.4697 -0.8715
vn 0.0616 0.6576 0.7508
vn -0.1406 0.4697 0.8715
vn -0.6177 0.7738 -0.1404
vn -0.1061 0.1613 -0.9812
vn 0.0928 0.3793 -0.9206
vn -0.1643 0.9833 0.0783
vn -0.2301 0.9486 0.2172
vn -0.2869 0.9441 -0.1625
vn -0.2163 0.8257 -0.5210
vn -0.1554 0.9039 -0.3985
vn 0.6144 -0.7377 0.2799
vn 0.6915 -0.7159 -0.0969
vn 0.5649 -0.8131 0.1407
vn 0.5477 -0.7647 -0.3396
vn 0.5877 -0.6626 -0.4642
vn 0.9337 -0.3513 -0.0688
vn 0.2939 -0.3177 0.9015
vn 0.1586 -0.6085 0.7776
vn 0.0988 -0.4400 -0.8926
vn 0.2271 -0.1294 -0.9652
vn -0.0988 0.4400 0.8926
vn -0.2271 0.1294 0.9652
vn -0.9337 0.3513 0.0688
vn -0.2939 0.3177 -0.9015
vn -0.1586 0.6085 -0.7776
vn -0.5477 0.7647 0.3396
vn -0.5878 0.6626 0.4642
vn -0.6915 0.7159 0.0970
vn -0.6144 0.7377 -0.2799
vn -0.5648 0.8131 -0.1407
vn 0.1336 -0.9909 0.0171
vn 0.1787 -0.9170 -0.3565
vn 0.0679 -0.9901 -0.1230
vn 0.0575 -0.8167 -0.5742
vn 0.1174 -0.7225 -0.6814
vn 0.5033 -0.8026 -0.3201
vn 0.1051 -0.6461 0.7560
vn -0.0983 -0.7854 0.6111
vn -0.1350 -0.1759 -0.9751
vn 0.0645 0.0277 -0.9975
vn 0.1350 0.1759 0.9751
vn -0.0645 -0.0277 0.9975
vn -0.5033 0.8027 0.3201
vn -0.1051 0.6461 -0.7559
vn 0.0983 0.7854 -0.6111
vn -0.0575 0.8167 0.5742
vn -0.1174 0.7225 0.6814
vn -0.1787 0.9170 0.3565
vn -0.1336 0.9909 -0.0171
vn -0.0679 0.9901 0.1230
vn -0.3805 -0.9244 -0.0264
vn -0.3265 -0.8560 -0.4009
vn -0.4602 -0.8738 -0.1570
vn -0.4187 -0.6827 -0.5989
vn -0.3161 -0.6284 -0.7107
vn 0.0719 -0.9179 -0.3902
vn -0.1654 -0.6743 0.7197
vn -0.4597 -0.6596 0.5946
vn -0.3146 0.0081 -0.9492
vn -0.0040 0.0685 -0.9976
vn 0.3146 -0.0081 0.9492
vn 0.0040 -0.0685 0.9976
vn -0.0719 0.9179 0.3902
vn 0.1654 0.6743 -0.7197
vn 0.4597 0.6596 -0.5946
vn 0.4187 0.6827 0.5989
vn 0.3161 0.6284 0.7107
vn 0.3265 0.8560 0.4009
vn 0.3805 0.9244 0.0264
vn 0.4602 0.8738 0.1570
vn 0.4449 0.8898 -0.1015
vn -0.4449 0.8898 0.1015
vn -0.4449 -0.8898 0.1015
vn 0.4449 -0.8898 -0.1015
vn 0.3568 0.8898 -0.2845
vn -0.3568 0.8898 0.2845
vn -0.3568 -0.8898 0.2845
vn 0.3568 -0.8898 -0.2845
vn 0.1980 0.8898 -0.4111
vn -0.1980 0.8898 0.4112
vn -0.1980 -0.8898 0.4111
vn 0.1980 -0.8898 -0.4111
vn -0.0000 0.8898 -0.4563
vn -0.0000 0.8898 0.4563
vn -0.0000 -0.8898 0.4563
vn -0.0000 -0.8898 -0.4563
vn -0.1980 0.8898 -0.4112
vn 0.1980 0.8898 0.4112
vn 0.1980 -0.8898 0.4112
vn -0.1980 -0.8898 -0.4112
vn -0.3568 0.8898 -0.2845
vn 0.3568 0.8898 0.2845
vn 0.3568 -0.8898 0.2845
vn -0.3568 -0.8898 -0.2845
vn -0.4449 0.8898 -0.1015
vn 0.4449 0.8898 0.1015
vn 0.4449 -0.8898 0.1015
vn -0.4449 -0.8898 -0.1015
vn 0.1980 0.8898 -0.4112
vn -0.1980 0.8898 -0.4111
vn -0.1980 -0.8898 0.4112
vn -0.1980 -0.8898 -0.4111
vn 0.1980 -0.8898 0.4111
s 0
usemtl Glow
f 192//200 193//200 194//200
f 193//201 192//201 197//201
f 192//202 194//202 195//202
f 192//203 195//203 196//203
f 192//204 196//204 197//204
f 193//205 197//205 202//205
f 194//206 193//206 198//206
f 195//207 194//207 199//207
f 196//208 195//208 200//208
f 197//209 196//209 201//209
f 193//210 202//210 198//210
f 194//211 198//211 199//211
f 195//212 199//212 200//212
f 196//213 200//213 201//213
f 197//214 201//214 202//214
f 198//215 202//215 203//215
f 199//216 198//216 203//216
f 200//217 199//217 203//217
f 201//218 200//218 203//218
f 202//219 201//219 203//219
f 204//220 205//220 206//220
f 205//221 204//221 209//221
f 204//222 206//222 207//222
f 204//223 207//223 208//223
f 204//224 208//224 209//224
f 205//225 209//225 214//225
f 206//226 205//226 210//226
f 207//227 206//227 211//227
f 208//228 207//228 212//228
f 209//229 208//229 213//229
f 205//230 214//230 210//230
f 206//231 210//231 211//231
f 207//232 211//232 212//232
f 208//233 212//233 213//233
f 209//234 213//234 214//234
f 210//235 214//235 215//235
f 211//236 210//236 215//236
f 212//237 211//237 215//237
f 213//238 212//238 215//238
f 214//239 213//239 215//239
f 216//240 217//240 218//240
f 217//241 216//241 221//241
f 216//242 218//242 219//242
f 216//243 219//243 220//243
f 216//244 220//244 221//244
f 217//245 221//245 226//245
f 218//246 217//246 222//246
f 219//247 218//247 223//247
f 220//248 219//248 224//248
f 221//249 220//249 225//249
f 217//250 226//250 222//250
f 218//251 222//251 223//251
f 219//252 223//252 224//252
f 220//253 224//253 225//253
f 221//254 225//254 226//254
f 222//255 226//255 227//255
f 223//256 222//256 227//256
f 224//257 223//257 227//257
f 225//258 224//258 227//258
f 226//259 225//259 227//259
f 228//260 229//260 230//260
f 229//261 228//261 233//261
f 228//262 230//262 231//262
f 228//263 231//263 232//263
f 228//264 232//264 233//264
f 229//265 233//265 238//265
f 230//266 229//266 234//266
f 231//267 230//267 235//267
f 232//268 231//268 236//268
f 233//269 232//269 237//269
f 229//270 238//270 234//270
f 230//271 234//271 235//271
f 231//272 235//272 236//272
f 232//273 236//273 237//273
f 233//274 237//274 238//274
f 234//275 238//275 239//275
f 235//276 234//276 239//276
f 236//277 235//277 239//277
f 237//278 236//278 239//278
f 238//279 237//279 239//279
f 240//280 241//280 242//280
f 241//281 240//281 245//281
f 240//282 242//282 243//282
f 240//283 243//283 244//283
f 240//284 244//284 245//284
f 241//285 245//285 250//285
f 242//286 241//286 246//286
f 243//287 242//287 247//287
f 244//288 243//288 248//288
f 245//289 244//289 249//289
f 241//290 250//290 246//290
f 242//291 246//291 247//291
f 243//292 247//292 248//292
f 244//293 248//293 249//293
f 245//294 249//294 250//294
f 246//295 250//295 251//295
f 247//296 246//296 251//296
f 248//297 247//297 251//297
f 249//298 248//298 251//298
f 250//299 249//299 251//299
f 252//300 253//300 254//300
f 253//301 252//301 257//301
f 252//302 254//302 255//302
f 252//303 255//303 256//303
f 252//304 256//304 257//304
f 253//305 257//305 262//305
f 254//306 253//306 258//306
f 255//307 254//307 259//307
f 256//308 255//308 260//308
f 257//309 256//309 261//309
f 253//310 262//310 258//310
f 254//311 258//311 259//311
f 255//312 259//312 260//312
f 256//313 260//313 261//313
f 257//314 261//314 262//314
f 258//315 262//315 263//315
f 259//316 258//316 263//316
f 260//317 259//317 263//317
f 261//318 260//318 263//318
f 262//319 261//319 263//319
f 264//320 269//320 265//320
f 269//321 266//321 265//321
f 270//322 267//322 266//322
f 271//323 264//323 267//323
f 272//324 269//324 268//324
f 273//325 270//325 269//325
f 270//326 275//326 271//326
f 275//327 268//327 271//327
f 276//328 273//328 272//328
f 277//329 274//329 273//329
f 274//330 279//330 275//330
f 279//331 272//331 275//331
f 276//332 281//332 277//332
f 281//333 278//333 277//333
f 282//334 279//334 278//334
f 283//335 276//335 279//335
f 284//336 281//336 280//336
f 281//337 286//337 282//337
f 286//338 283//338 282//338
f 287//339 280//339 283//339
f 288//340 285//340 284//340
f 285//341 290//341 286//341
f 290//342 287//342 286//342
f 291//343 284//343 287//343
f 292//344 289//344 288//344
f 289//345 294//345 290//345
f 294//346 291//346 290//346
f 295//347 288//347 291//347
f 296//321 293//321 292//321
f 297//320 294//320 293//320
f 298//323 295//323 294//323
f 299//322 292//322 295//322
f 300//325 297//325 296//325
f 301//324 298//324 297//324
f 302//327 299//327 298//327
f 299//326 300//326 296//326
f 304//329 301//329 300//329
f 301//348 306//348 302//348
f 306//331 303//331 302//331
f 303//330 304//330 300//330
f 308//333 305//333 304//333
f 305//332 310//332 306//332
f 310//335 307//335 306//335
f 307//334 308//334 304//334
f 312//337 309//337 308//337
f 313//349 310//349 309//349
f 314//339 311//339 310//339
f 315//338 308//338 311//338
f 312//341 317//341 313//341
f 317//340 314//340 313//340
f 318//343 315//343 314//343
f 315//342 316//342 312//342
f 316//345 265//345 317//345
f 317//344 266//344 318//344
f 266//347 319//347 318//347
f 319//346 264//346 316//346
f 264//320 268//320 269//320
f 269//321 270//321 266//321
f 270//322 271//322 267//322
f 271//323 268//323 264//323
f 272//324 273//324 269//324
f 273//325 274//325 270//325
f 270//326 274//326 275//326
f 275//327 272//327 268//327
f 276//348 277//348 273//348
f 277//329 278//329 274//329
f 274//350 278//350 279//350
f 279//331 276//331 272//331
f 276//332 280//332 281//332
f 281//333 282//333 278//333
f 282//334 283//334 279//334
f 283//335 280//335 276//335
f 284//336 285//336 281//336
f 281//337 285//337 286//337
f 286//338 287//338 283//338
f 287//351 284//351 280//351
f 288//340 289//340 285//340
f 285//341 289//341 290//341
f 290//342 291//342 287//342
f 291//343 288//343 284//343
f 292//344 293//344 289//344
f 289//345 293//345 294//345
f 294//346 295//346 291//346
f 295//347 292//347 288//347
f 296//321 297//321 293//321
f 297//320 298//320 294//320
f 298//323 299//323 295//323
f 299//322 296//322 292//322
f 300//325 301//325 297//325
f 301//324 302//324 298//324
f 302//327 303//327 299//327
f 299//326 303//326 300//326
f 304//329 305//329 301//329
f 301//348 305//348 306//348
f 306//331 307//331 303//331
f 303//350 307//350 304//350
f 308//333 309//333 305//333
f 305//332 309//332 310//332
f 310//335 311//335 307//335
f 307//334 311//334 308//334
f 312//337 313//337 309//337
f 313//336 314//336 310//336
f 314//339 315//339 311//339
f 315//352 312//352 308//352
f 312//341 316//341 317//341
f 317//340 318//340 314//340
f 318//343 319//343 315//343
f 315//342 319//342 316//342
f 316//345 264//345 265//345
f 317//344 265//344 266//344
f 266//347 267//347 319//347
f 319//346 267//346 264//346
o Trim
v -0.830000 0.075000 1.390000
v -0.830000 1.725000 1.390000
v -0.830000 0.075000 0.970000
v -0.830000 1.725000 0.970000
v -0.570000 0.075000 1.390000
v -0.570000 1.725000 1.390000
v -0.570000 0.075000 0.970000
v -0.570000 1.725000 0.970000
v 0.570000 0.075000 1.390000
v 0.570000 1.725000 1.390000
v 0.570000 0.075000 0.970000
v 0.570000 1.725000 0.970000
v 0.830000 0.075000 1.390000
v 0.830000 1.725000 1.390000
v 0.830000 0.075000 0.970000
v 0.830000 1.725000 0.970000
v -0.900000 1.690000 1.430000
v -0.900000 1.950000 1.430000
v -0.900000 1.690000 0.930000
v -0.900000 1.950000 0.930000
v 0.900000 1.690000 1.430000
v 0.900000 1.950000 1.430000
v 0.900000 1.690000 0.930000
v 0.900000 1.950000 0.930000
vn -1.0000 -0.0000 -0.0000
vn -0.0000 -0.0000 -1.0000
vn 1.0000 -0.0000 -0.0000
vn -0.0000 -0.0000 1.0000
vn -0.0000 -1.0000 -0.0000
vn -0.0000 1.0000 -0.0000
s 0
usemtl Trim
f 321//353 322//353 320//353
f 323//354 326//354 322//354
f 327//355 324//355 326//355
f 325//356 320//356 324//356
f 326//357 320//357 322//357
f 323//358 325//358 327//358
f 329//353 330//353 328//353
f 331//354 334//354 330//354
f 335//355 332//355 334//355
f 333//356 328//356 332//356
f 334//357 328//357 330//357
f 331//358 333//358 335//358
f 337//353 338//353 336//353
f 339//354 342//354 338//354
f 343//355 340//355 342//355
f 341//356 336//356 340//356
f 342//357 336//357 338//357
f 339//358 341//358 343//358
f 321//353 323//353 322//353
f 323//354 327//354 326//354
f 327//355 325//355 324//355
f 325//356 321//356 320//356
f 326//357 324//357 320//357
f 323//358 321//358 325//358
f 329//353 331//353 330//353
f 331//354 335//354 334//354
f 335//355 333//355 332//355
f 333//356 329//356 328//356
f 334//357 332//357 328//357
f 331//358 329//358 333//358
f 337//353 339//353 338//353
f 339//354 343//354 342//354
f 343//355 341//355 340//355
f 341//356 337//356 336//356
f 342//357 340//357 336//357
f 339//358 337//358 341//358
