# Blender 5.2.1 LTS
# www.blender.org
mtllib BaseTundra.mtl
o Plinth
v 0.000000 0.000000 -2.450000
v -0.068281 0.290998 -2.395736
v 1.732412 0.000000 -1.732412
v 1.758153 0.267445 -1.681828
v 2.450000 0.000000 0.000000
v 2.412452 0.270382 -0.036063
v 1.732412 0.000000 1.732412
v 1.766103 0.269473 1.709708
v 0.000000 0.000000 2.450000
v 0.004993 0.292656 2.457315
v -1.732412 0.000000 1.732412
v -1.662923 0.259711 1.789376
v -2.450000 0.000000 0.000000
v -2.388428 0.274674 0.013588
v -1.732412 0.000000 -1.732412
v -1.756168 0.338229 -1.713497
v -0.068281 0.290998 -1.845736
v 0.025741 0.487445 -1.849417
v 1.447932 0.270382 -1.220694
v 1.519171 0.489473 -1.207334
v 1.857356 0.292656 0.430105
v 1.921851 0.479711 0.479754
v 0.885951 0.274674 1.725428
v 0.800622 0.558229 1.730755
v -0.864933 0.307132 1.751471
v -0.817746 0.548449 1.648317
v -1.872592 0.328259 0.464250
v -1.783906 0.539744 0.488538
v -1.433910 0.276342 -1.205792
v -1.443956 0.494280 -1.216805
v 1.187033 1.669020 -0.633223
v 1.157729 3.773449 -0.635186
v 1.447157 1.659104 -0.494925
v 1.417986 3.777972 -0.526614
v 1.502827 1.676614 -0.294525
v 1.513562 3.738555 -0.280129
v 1.405884 1.656455 -0.028986
v 1.429860 3.770795 -0.066340
v 1.222798 1.660881 0.014439
v 1.141726 3.778801 0.064398
v 0.932170 1.673800 -0.045062
v 0.978708 3.739300 -0.036044
v 0.834268 1.620382 -0.277271
v 0.862468 3.743653 -0.280434
v 0.922269 1.621975 -0.487283
v 0.991001 3.753579 -0.551011
v 1.180000 3.730000 -0.720000
v 1.180000 3.950000 -0.720000
v 1.476985 3.730000 -0.596985
v 1.476985 3.950000 -0.596985
v 1.600000 3.730000 -0.300000
v 1.600000 3.950000 -0.300000
v 1.476985 3.730000 -0.003015
v 1.476985 3.950000 -0.003015
v 1.180000 3.730000 0.120000
v 1.180000 3.950000 0.120000
v 0.883015 3.730000 -0.003015
v 0.883015 3.950000 -0.003015
v 0.760000 3.730000 -0.300000
v 0.760000 3.950000 -0.300000
v 0.883015 3.730000 -0.596985
v 0.883015 3.950000 -0.596985
vn 0.3702 0.2535 -0.8937
vn 0.9238 -0.0165 -0.3826
vn 0.9207 -0.0830 0.3814
vn 0.3825 -0.0296 0.9235
vn -0.3808 -0.0998 0.9193
vn -0.9079 0.1849 0.3761
vn 0.0008 1.0000 -0.0082
vn -0.9230 -0.0434 -0.3823
vn -0.3814 0.0822 -0.9208
vn -0.0000 -1.0000 -0.0000
vn 0.3716 -0.1948 -0.9077
vn 0.9302 -0.2886 -0.2268
vn 0.7363 -0.3989 0.5466
vn 0.0146 -0.0144 0.9998
vn -0.7604 0.2500 0.5994
vn 0.0026 0.9998 -0.0203
vn -0.9660 -0.0573 -0.2520
vn -0.4229 -0.0652 -0.9039
vn -0.0185 -0.9998 -0.0021
vn 0.4692 -0.0067 -0.8831
vn 0.9636 -0.0031 -0.2674
vn 0.9395 -0.0073 0.3424
vn 0.2311 0.0146 0.9728
vn -0.2006 0.0002 0.9797
vn -0.9224 0.0128 0.3860
vn 0.0078 0.9942 -0.1077
vn -0.9223 0.0117 -0.3864
vn -0.4812 -0.0107 -0.8765
vn -0.0403 -0.9923 0.1172
vn 0.3827 -0.0000 -0.9239
vn 0.9239 -0.0000 -0.3827
vn 0.9239 -0.0000 0.3827
vn 0.3827 -0.0000 0.9239
vn -0.3827 -0.0000 0.9239
vn -0.9239 -0.0000 0.3827
vn -0.0000 1.0000 -0.0000
vn -0.9239 -0.0000 -0.3827
vn -0.3827 -0.0000 -0.9239
vn 0.3621 0.1395 -0.9217
vn 0.9263 0.0795 -0.3684
vn 0.9235 0.1739 0.3420
vn 0.3909 0.0286 0.9200
vn -0.3714 -0.0169 0.9283
vn -0.9130 0.1622 0.3744
vn 0.0161 0.9998 -0.0082
vn 0.0502 0.9972 0.0551
vn -0.0276 0.9994 0.0197
vn 0.0159 0.9999 0.0064
vn 0.0010 1.0000 0.0077
vn -0.9182 0.2221 -0.3280
vn -0.3740 0.0256 -0.9271
vn 0.3940 -0.0723 -0.9163
vn 0.9379 -0.2636 -0.2254
vn 0.7347 0.2090 0.6454
vn -0.0490 0.4007 0.9149
vn -0.7090 0.3898 0.5877
vn -0.0043 1.0000 0.0068
vn -0.0075 0.9996 -0.0281
vn -0.0059 1.0000 -0.0026
vn 0.0386 0.9989 -0.0281
vn -0.8975 0.3981 -0.1895
vn -0.3890 0.1692 -0.9056
vn -0.0022 -0.9996 -0.0276
vn 0.0274 -0.9996 0.0067
vn -0.0186 -0.9998 -0.0019
vn -0.0019 -0.9995 0.0306
vn 0.3849 0.0045 -0.9229
vn 0.9327 0.0075 -0.3605
vn 0.9310 -0.0041 0.3651
vn 0.4131 -0.0057 0.9107
vn -0.5171 -0.0400 0.8550
vn -0.9028 0.0185 0.4297
vn -0.0979 0.9761 0.1941
vn -0.1312 0.9910 -0.0260
vn -0.3321 0.9270 0.1745
vn -0.0487 0.9847 -0.1675
vn 0.0078 0.9959 0.0901
vn -0.9034 0.0163 -0.4285
vn -0.4500 -0.0071 -0.8930
vn 0.0664 -0.9786 -0.1950
vn 0.2462 -0.9691 0.0163
vn -0.0350 -0.9983 -0.0458
vn 0.2705 -0.9569 0.1061
vn 0.0706 -0.9975 0.0006
s 0
usemtl Plinth
f 2//1 3//1 1//1
f 4//2 5//2 3//2
f 5//3 8//3 7//3
f 7//4 10//4 9//4
f 9//5 12//5 11//5
f 11//6 14//6 13//6
f 14//7 10//7 6//7
f 13//8 16//8 15//8
f 15//9 2//9 1//9
f 7//10 11//10 15//10
f 18//11 19//11 17//11
f 20//12 21//12 19//12
f 22//13 23//13 21//13
f 24//14 25//14 23//14
f 25//15 28//15 27//15
f 18//16 28//16 24//16
f 27//17 30//17 29//17
f 30//18 17//18 29//18
f 19//19 23//19 27//19
f 31//20 34//20 33//20
f 33//21 36//21 35//21
f 36//22 37//22 35//22
f 38//23 39//23 37//23
f 39//24 42//24 41//24
f 41//25 44//25 43//25
f 44//26 40//26 36//26
f 44//27 45//27 43//27
f 46//28 31//28 45//28
f 37//29 41//29 45//29
f 48//30 49//30 47//30
f 50//31 51//31 49//31
f 52//32 53//32 51//32
f 54//33 55//33 53//33
f 56//34 57//34 55//34
f 58//35 59//35 57//35
f 60//36 56//36 52//36
f 60//37 61//37 59//37
f 62//38 47//38 61//38
f 53//10 57//10 61//10
f 2//39 4//39 3//39
f 4//40 6//40 5//40
f 5//41 6//41 8//41
f 7//42 8//42 10//42
f 9//43 10//43 12//43
f 11//44 12//44 14//44
f 6//45 4//45 2//45
f 2//46 16//46 14//46
f 14//47 12//47 10//47
f 10//48 8//48 6//48
f 6//49 2//49 14//49
f 13//50 14//50 16//50
f 15//51 16//51 2//51
f 15//10 1//10 3//10
f 3//10 5//10 7//10
f 7//10 9//10 11//10
f 11//10 13//10 15//10
f 15//10 3//10 7//10
f 18//52 20//52 19//52
f 20//53 22//53 21//53
f 22//54 24//54 23//54
f 24//55 26//55 25//55
f 25//56 26//56 28//56
f 22//57 20//57 18//57
f 18//58 30//58 28//58
f 28//59 26//59 24//59
f 24//60 22//60 18//60
f 27//61 28//61 30//61
f 30//62 18//62 17//62
f 29//63 17//63 19//63
f 19//64 21//64 23//64
f 23//65 25//65 27//65
f 27//66 29//66 19//66
f 31//67 32//67 34//67
f 33//68 34//68 36//68
f 36//69 38//69 37//69
f 38//70 40//70 39//70
f 39//71 40//71 42//71
f 41//72 42//72 44//72
f 36//73 34//73 32//73
f 32//74 46//74 44//74
f 44//75 42//75 40//75
f 40//76 38//76 36//76
f 36//77 32//77 44//77
f 44//78 46//78 45//78
f 46//79 32//79 31//79
f 45//80 31//80 33//80
f 33//81 35//81 37//81
f 37//82 39//82 41//82
f 41//83 43//83 45//83
f 45//84 33//84 37//84
f 48//30 50//30 49//30
f 50//31 52//31 51//31
f 52//32 54//32 53//32
f 54//33 56//33 55//33
f 56//34 58//34 57//34
f 58//35 60//35 59//35
f 52//36 50//36 48//36
f 48//36 62//36 60//36
f 60//36 58//36 56//36
f 56//36 54//36 52//36
f 52//36 48//36 60//36
f 60//37 62//37 61//37
f 62//38 48//38 47//38
f 61//10 47//10 49//10
f 49//10 51//10 53//10
f 53//10 55//10 57//10
f 57//10 59//10 61//10
f 61//10 49//10 53//10
o Stem
v 0.000000 0.460000 -1.260000
v -0.025355 2.072913 -1.116817
v 0.630000 0.460000 -1.091192
v 0.591013 2.087929 -0.981848
v 1.091192 0.460000 -0.630000
v 0.958087 2.092351 -0.567536
v 1.260000 0.460000 0.000000
v 1.135368 2.093745 -0.026682
v 1.091192 0.460000 0.630000
v 0.974330 2.089190 0.596955
v 0.630000 0.460000 1.091192
v 0.544585 2.088305 1.011508
v 0.000000 0.460000 1.260000
v 0.020571 2.096324 1.113805
v -0.630000 0.460000 1.091192
v -0.584900 2.066347 1.007183
v -1.091192 0.460000 0.630000
v -0.953408 2.067744 0.590284
v -1.260000 0.460000 0.000000
v -1.162794 2.063378 0.027040
v -1.091192 0.460000 -0.630000
v -0.990891 2.073148 -0.546796
v -0.630000 0.460000 -1.091192
v -0.541271 2.091317 -0.962122
vn 0.2578 0.0895 -0.9621
vn 0.7056 0.0643 -0.7056
vn 0.9636 0.0693 -0.2582
vn 0.9633 0.0743 0.2581
vn 0.7056 0.0649 0.7056
vn 0.2583 0.0607 0.9641
vn -0.2584 0.0577 0.9643
vn -0.7050 0.0778 0.7050
vn -0.9645 0.0541 0.2584
vn -0.9633 0.0732 -0.2581
vn -0.0099 0.9999 -0.0079
vn -0.7048 0.0802 -0.7048
vn -0.2580 0.0814 -0.9627
vn -0.0000 -1.0000 -0.0000
vn 0.2117 0.0705 -0.9748
vn 0.7453 0.0861 -0.6612
vn 0.9464 0.0891 -0.3104
vn 0.9652 0.0777 0.2498
vn 0.6924 0.0715 0.7179
vn 0.1922 0.0849 0.9777
vn -0.1770 0.0898 0.9801
vn -0.7480 0.0556 0.6614
vn -0.9339 0.0886 0.3465
vn -0.9563 0.0628 -0.2854
vn -0.0273 0.9995 0.0135
vn 0.0715 0.9901 0.1207
vn -0.0369 0.9993 0.0060
vn -0.0591 0.9967 0.0556
vn 0.0197 0.9996 0.0226
vn -0.0169 0.9999 0.0029
vn -0.0100 0.9998 -0.0174
vn -0.0325 0.9995 0.0058
vn 0.0089 1.0000 0.0026
vn -0.6776 0.0946 -0.7294
vn -0.2830 0.0909 -0.9548
s 0
usemtl Stem
f 64//85 65//85 63//85
f 66//86 67//86 65//86
f 67//87 70//87 69//87
f 69//88 72//88 71//88
f 72//89 73//89 71//89
f 74//90 75//90 73//90
f 75//91 78//91 77//91
f 77//92 80//92 79//92
f 79//93 82//93 81//93
f 81//94 84//94 83//94
f 84//95 76//95 68//95
f 84//96 85//96 83//96
f 85//97 64//97 63//97
f 69//98 77//98 85//98
f 64//99 66//99 65//99
f 66//100 68//100 67//100
f 67//101 68//101 70//101
f 69//102 70//102 72//102
f 72//103 74//103 73//103
f 74//104 76//104 75//104
f 75//105 76//105 78//105
f 77//106 78//106 80//106
f 79//107 80//107 82//107
f 81//108 82//108 84//108
f 68//109 66//109 64//109
f 64//110 86//110 84//110
f 84//111 82//111 80//111
f 80//112 78//112 76//112
f 76//113 74//113 72//113
f 72//114 70//114 68//114
f 68//115 64//115 84//115
f 84//116 80//116 76//116
f 76//117 72//117 68//117
f 84//118 86//118 85//118
f 85//119 86//119 64//119
f 85//98 63//98 65//98
f 65//98 67//98 69//98
f 69//98 71//98 73//98
f 73//98 75//98 77//98
f 77//98 79//98 81//98
f 81//98 83//98 85//98
f 85//98 65//98 69//98
f 69//98 73//98 77//98
f 77//98 81//98 85//98
o Cap
v 0.000000 3.236200 0.000000
v 0.306820 3.148190 -0.842980
v 0.566929 2.866136 -1.557623
v 0.740728 2.371979 -2.035133
v 0.801758 1.866658 -2.202812
v 0.633494 3.148190 -0.754969
v 1.170544 2.837522 -1.395000
v 1.529390 2.295453 -1.822656
v 1.655400 1.820000 -1.972828
v 0.795094 3.148190 -0.459048
v 1.469141 2.860170 -0.848209
v 1.919526 2.355220 -1.108239
v 2.077680 1.845110 -1.199549
v 0.918794 3.148190 -0.162008
v 1.697710 2.855635 -0.299352
v 2.218165 2.342824 -0.391122
v 2.400924 1.829233 -0.423348
v 0.962776 3.148190 0.169763
v 1.778977 2.840456 0.313682
v 2.324346 2.302938 0.409845
v 2.515854 1.820000 0.443613
v 0.774514 3.148190 0.447166
v 1.431116 2.866878 0.826255
v 1.869843 2.374106 1.079554
v 2.023903 1.869399 1.168501
v 0.628189 3.148190 0.748647
v 1.160742 2.840580 1.383319
v 1.516583 2.303256 1.807393
v 1.641538 1.820000 1.956308
v 0.319272 3.148190 0.877191
v 0.589937 2.855472 1.620838
v 0.770790 2.342382 2.117727
v 0.834297 1.828669 2.292212
v 0.000000 3.148190 0.917638
v 0.000000 2.860306 1.695574
v 0.000000 2.355593 2.215374
v 0.000001 1.845589 2.397904
v -0.337137 3.148190 0.926276
v -0.622947 2.837454 1.711535
v -0.813920 2.295281 2.236227
v -0.880980 1.820000 2.420476
v -0.576748 3.148190 0.687342
v -1.065691 2.866087 1.270042
v -1.392393 2.371839 1.659389
v -1.507115 1.866477 1.796111
v -0.835461 3.148190 0.482354
v -1.543731 2.845088 0.891273
v -2.016981 2.314888 1.164505
v -2.183165 1.820000 1.260452
v -0.935404 3.148190 0.164937
v -1.728402 2.850177 0.304764
v -2.258265 2.328230 0.398193
v -2.444330 1.820000 0.431002
v -0.891423 3.148190 -0.157182
v -1.647135 2.863900 -0.290434
v -2.152084 2.365629 -0.379470
v -2.329400 1.858481 -0.410735
v -0.856041 3.148190 -0.494235
v -1.581757 2.836418 -0.913227
v -2.066664 2.292652 -1.193189
v -2.236943 1.820000 -1.291498
v -0.582053 3.148190 -0.693663
v -1.075494 2.863804 -1.281723
v -1.405200 2.365360 -1.674652
v -1.520979 1.858135 -1.812630
v -0.324685 3.148190 -0.892064
v -0.599940 2.850350 -1.648319
v -0.783859 2.328688 -2.153633
v -0.848443 1.820000 -2.331076
v -0.000000 3.148190 -0.965164
v -0.000000 2.844928 -1.783391
v -0.000000 2.314471 -2.330112
v -0.000001 1.820000 -2.522096
vn 0.2163 0.7007 -0.6799
vn 0.0361 0.9952 -0.0908
vn 0.3305 0.3416 -0.8798
vn 0.1028 0.9327 -0.3457
vn 0.2490 0.6961 -0.6734
vn 0.0255 0.9952 -0.0946
vn 0.2613 0.3530 -0.8984
vn 0.1353 0.9312 -0.3384
vn 0.8139 0.3598 -0.4562
vn 0.2989 0.9327 -0.2019
vn 0.5994 0.7013 -0.3860
vn 0.0838 0.9954 -0.0457
vn 0.3286 0.9356 -0.1291
vn 0.6540 0.7103 -0.2601
vn 0.0888 0.9954 -0.0370
vn 0.8729 0.3330 -0.3567
vn 0.7060 0.7058 -0.0584
vn 0.0932 0.9956 -0.0124
vn 0.9258 0.3588 -0.1189
vn 0.3564 0.9340 -0.0241
vn 0.0812 0.9952 0.0551
vn 0.7867 0.3476 0.5102
vn 0.3213 0.9316 0.1700
vn 0.6254 0.6972 0.3503
vn 0.8348 0.3474 0.4270
vn 0.3077 0.9316 0.1933
vn 0.6158 0.6973 0.3668
vn 0.0883 0.9952 0.0429
vn 0.3033 0.7060 0.6400
vn 0.0361 0.9956 0.0867
vn 0.3619 0.3587 0.8604
vn 0.1577 0.9341 0.3204
vn 0.1004 0.7102 0.6968
vn 0.0121 0.9954 0.0955
vn 0.1252 0.3329 0.9346
vn 0.0519 0.9355 0.3494
vn 0.0135 0.3598 0.9329
vn -0.0250 0.9326 0.3600
vn -0.0337 0.7011 0.7122
vn 0.0024 0.9954 0.0955
vn -0.6473 0.3532 0.6755
vn -0.2254 0.9312 0.2864
vn -0.4587 0.6961 0.5523
vn -0.0692 0.9952 0.0694
vn -0.4812 0.7008 0.5266
vn -0.0606 0.9952 0.0765
vn -0.5980 0.3414 0.7251
vn -0.2482 0.9327 0.2615
vn -0.6675 0.7105 0.2226
vn -0.0888 0.9957 0.0279
vn -0.8921 0.3540 0.2809
vn -0.3348 0.9354 0.1135
vn -0.9354 0.3352 -0.1124
vn -0.3558 0.9342 -0.0270
vn -0.7060 0.7055 -0.0625
vn -0.0960 0.9953 -0.0131
vn -0.3550 0.9316 -0.0784
vn -0.7034 0.6975 -0.1364
vn -0.0965 0.9953 -0.0101
vn -0.9271 0.3575 -0.1129
vn -0.4702 0.6976 -0.5406
vn -0.0571 0.9953 -0.0784
vn -0.5620 0.3576 -0.7459
vn -0.2455 0.9316 -0.2680
vn -0.0591 0.9953 -0.0767
vn -0.5633 0.3350 -0.7553
vn -0.2008 0.9342 -0.2948
vn -0.4060 0.7056 -0.5807
vn -0.2054 0.3542 -0.9123
vn -0.0696 0.9354 -0.3467
vn 0.0060 -0.9999 -0.0095
vn -0.1423 0.7104 -0.6893
vn -0.0204 0.9957 -0.0908
vn 0.2346 0.7169 -0.6565
vn 0.3264 0.3330 -0.8846
vn 0.1287 0.9375 -0.3232
vn 0.2129 0.7166 -0.6641
vn 0.2753 0.3326 -0.9020
vn 0.0908 0.9372 -0.3369
vn 0.8142 0.3371 -0.4728
vn 0.3047 0.9378 -0.1664
vn 0.5985 0.7174 -0.3565
vn 0.3227 0.9369 -0.1344
vn 0.6482 0.7142 -0.2641
vn 0.8721 0.3343 -0.3574
vn 0.6933 0.7169 -0.0742
vn 0.9346 0.3393 -0.1070
vn 0.3442 0.9378 -0.0456
vn 0.7965 0.3322 0.5052
vn 0.2885 0.9372 0.1958
vn 0.5937 0.7167 0.3660
vn 0.8354 0.3322 0.4378
vn 0.3137 0.9373 0.1522
vn 0.6135 0.7167 0.3316
vn 0.2837 0.7168 0.6369
vn 0.3765 0.3393 0.8620
vn 0.1334 0.9378 0.3206
vn 0.0937 0.7143 0.6936
vn 0.1241 0.3344 0.9342
vn 0.0439 0.9369 0.3467
vn -0.0008 0.3370 0.9415
vn 0.0089 0.9378 0.3470
vn -0.0085 0.7174 0.6966
vn -0.6435 0.3326 0.6894
vn -0.2463 0.9372 0.2470
vn -0.4687 0.7167 0.5165
vn -0.4520 0.7169 0.5308
vn -0.6040 0.3330 0.7240
vn -0.2160 0.9376 0.2726
vn -0.6657 0.7144 0.2158
vn -0.8933 0.3456 0.2873
vn -0.3336 0.9369 0.1050
vn -0.9359 0.3341 -0.1117
vn -0.3444 0.9376 -0.0470
vn -0.6932 0.7165 -0.0781
vn -0.3462 0.9374 -0.0363
vn -0.6892 0.7170 -0.1040
vn -0.9337 0.3343 -0.1280
vn -0.4351 0.7171 -0.5445
vn -0.5784 0.3344 -0.7441
vn -0.2049 0.9375 -0.2815
vn -0.5630 0.3341 -0.7559
vn -0.2123 0.9376 -0.2753
vn -0.4131 0.7164 -0.5622
vn -0.2002 0.3453 -0.9169
vn -0.0768 0.9369 -0.3410
vn -0.0739 -0.9946 0.0727
vn -0.0345 -0.9994 -0.0061
vn -0.0459 -0.9953 -0.0847
vn -0.0879 -0.9961 0.0082
vn 0.1316 -0.9733 -0.1883
vn 0.0233 -0.9944 0.1033
vn 0.0916 -0.9944 0.0531
vn 0.1007 -0.9944 -0.0317
vn 0.0263 -0.9946 -0.1004
vn 0.0930 -0.9952 -0.0311
vn -0.0341 -0.9992 -0.0194
vn 0.0055 -0.9999 0.0104
vn -0.0287 -0.9974 -0.0665
vn -0.0180 -0.9998 0.0103
vn -0.0029 -0.9999 0.0150
vn -0.1475 0.7145 -0.6839
s 0
usemtl Cap
f 157//120 90//120 158//120
f 156//121 87//121 88//121
f 158//122 91//122 159//122
f 156//123 89//123 157//123
f 90//124 93//124 94//124
f 88//125 87//125 92//125
f 91//126 94//126 95//126
f 89//127 92//127 93//127
f 94//128 99//128 95//128
f 92//129 97//129 93//129
f 93//130 98//130 94//130
f 92//131 87//131 96//131
f 97//132 100//132 101//132
f 98//133 101//133 102//133
f 96//134 87//134 100//134
f 99//135 102//135 103//135
f 102//136 105//136 106//136
f 100//137 87//137 104//137
f 103//138 106//138 107//138
f 101//139 104//139 105//139
f 104//140 87//140 108//140
f 106//141 111//141 107//141
f 104//142 109//142 105//142
f 105//143 110//143 106//143
f 111//144 114//144 115//144
f 109//145 112//145 113//145
f 110//146 113//146 114//146
f 108//147 87//147 112//147
f 113//148 118//148 114//148
f 112//149 87//149 116//149
f 114//150 119//150 115//150
f 112//151 117//151 113//151
f 117//152 122//152 118//152
f 116//153 87//153 120//153
f 118//154 123//154 119//154
f 116//155 121//155 117//155
f 123//156 126//156 127//156
f 121//157 124//157 125//157
f 122//158 125//158 126//158
f 120//159 87//159 124//159
f 126//160 131//160 127//160
f 124//161 129//161 125//161
f 125//162 130//162 126//162
f 124//163 87//163 128//163
f 130//164 133//164 134//164
f 128//165 87//165 132//165
f 131//166 134//166 135//166
f 129//167 132//167 133//167
f 133//168 138//168 134//168
f 132//169 87//169 136//169
f 134//170 139//170 135//170
f 132//171 137//171 133//171
f 138//172 143//172 139//172
f 136//173 141//173 137//173
f 137//174 142//174 138//174
f 136//175 87//175 140//175
f 141//176 144//176 145//176
f 142//177 145//177 146//177
f 140//178 87//178 144//178
f 143//179 146//179 147//179
f 145//180 150//180 146//180
f 144//181 87//181 148//181
f 146//182 151//182 147//182
f 144//183 149//183 145//183
f 148//184 87//184 152//184
f 151//185 154//185 155//185
f 149//186 152//186 153//186
f 150//187 153//187 154//187
f 155//188 158//188 159//188
f 153//189 156//189 157//189
f 111//190 123//190 143//190
f 154//191 157//191 158//191
f 152//192 87//192 156//192
f 157//193 89//193 90//193
f 158//194 90//194 91//194
f 156//195 88//195 89//195
f 90//196 89//196 93//196
f 91//197 90//197 94//197
f 89//198 88//198 92//198
f 94//199 98//199 99//199
f 92//200 96//200 97//200
f 93//201 97//201 98//201
f 97//202 96//202 100//202
f 98//203 97//203 101//203
f 99//204 98//204 102//204
f 102//205 101//205 105//205
f 103//206 102//206 106//206
f 101//207 100//207 104//207
f 106//208 110//208 111//208
f 104//209 108//209 109//209
f 105//210 109//210 110//210
f 111//211 110//211 114//211
f 109//212 108//212 112//212
f 110//213 109//213 113//213
f 113//214 117//214 118//214
f 114//215 118//215 119//215
f 112//216 116//216 117//216
f 117//217 121//217 122//217
f 118//218 122//218 123//218
f 116//219 120//219 121//219
f 123//220 122//220 126//220
f 121//221 120//221 124//221
f 122//222 121//222 125//222
f 126//223 130//223 131//223
f 124//224 128//224 129//224
f 125//225 129//225 130//225
f 130//226 129//226 133//226
f 131//227 130//227 134//227
f 129//228 128//228 132//228
f 133//229 137//229 138//229
f 134//230 138//230 139//230
f 132//231 136//231 137//231
f 138//232 142//232 143//232
f 136//233 140//233 141//233
f 137//234 141//234 142//234
f 141//235 140//235 144//235
f 142//236 141//236 145//236
f 143//237 142//237 146//237
f 145//238 149//238 150//238
f 146//239 150//239 151//239
f 144//240 148//240 149//240
f 151//241 150//241 154//241
f 149//242 148//242 152//242
f 150//243 149//243 153//243
f 155//244 154//244 158//244
f 153//245 152//245 156//245
f 91//246 95//246 99//246
f 99//247 103//247 107//247
f 111//248 115//248 119//248
f 99//249 107//249 111//249
f 159//250 91//250 99//250
f 151//251 155//251 159//251
f 143//252 147//252 151//252
f 135//253 139//253 143//253
f 123//254 127//254 131//254
f 131//255 135//255 143//255
f 143//256 151//256 159//256
f 159//257 99//257 111//257
f 111//258 119//258 123//258
f 123//259 131//259 143//259
f 143//260 159//260 111//260
f 154//261 153//261 157//261
o Spots
v 0.000000 2.997000 0.000000
v 0.665712 3.129226 0.483662
v -0.254274 3.129226 0.782589
v -0.822871 3.129226 0.000000
v -0.254274 3.129226 -0.782589
v 0.665712 3.129226 -0.483662
v 0.254274 3.343174 0.782589
v -0.665712 3.343174 0.483662
v -0.665712 3.343174 -0.483662
v 0.254274 3.343174 -0.782589
v 0.822871 3.343174 0.000000
v 0.000000 3.475400 0.000000
v 0.842368 2.919878 -0.867335
v 1.305623 2.984644 -0.556444
v 0.700302 3.139023 -0.370098
v 0.314283 3.109199 -0.894577
v 0.681046 2.936385 -1.405066
v 1.293722 2.859408 -1.196084
v 1.063845 3.213994 -0.391541
v 0.451169 3.290972 -0.600523
v 0.439268 3.165736 -1.240163
v 1.044589 3.011357 -1.426508
v 1.430608 3.041180 -0.902029
v 0.902522 3.230502 -0.929272
v -1.358274 2.877597 -0.334686
v -1.002478 3.103670 -0.052460
v -1.536412 2.942030 0.135916
v -1.859070 2.796605 -0.334666
v -1.524537 2.868371 -0.813875
v -0.995139 3.058147 -0.639458
v -1.283380 3.162399 0.121989
v -1.812778 2.972624 -0.052428
v -1.805439 2.927101 -0.639426
v -1.271506 3.088741 -0.827802
v -0.948847 3.234166 -0.357220
v -1.449643 3.153173 -0.357200
v -0.332438 2.827180 1.541627
v 0.026464 2.824402 1.817924
v -0.469286 2.723264 1.960712
v -0.783936 2.857482 1.561498
v -0.482637 3.041572 1.171985
v 0.018213 3.021125 1.330468
v -0.203219 2.852985 2.008560
v -0.704069 2.873432 1.850077
v -0.712321 3.070155 1.362621
v -0.216570 3.171293 1.219833
v 0.098079 3.037075 1.619047
v -0.353418 3.067377 1.638918
v -0.676164 2.561907 -1.979198
v -0.434227 2.784030 -1.876109
v -0.813755 2.780126 -1.751275
v -1.018997 2.532017 -1.987836
v -0.766306 2.382585 -2.258873
v -0.404902 2.538339 -2.189819
v -0.627534 2.891422 -1.821033
v -0.988938 2.735669 -1.890087
v -0.959613 2.489977 -2.203796
v -0.580085 2.493882 -2.328630
v -0.374843 2.741990 -2.092069
v -0.717676 2.712101 -2.100707
v 1.373097 2.509740 1.671802
v 1.586413 2.336354 1.810723
v 1.270628 2.428522 1.950672
v 1.126739 2.680714 1.742110
v 1.353603 2.744405 1.473262
v 1.637693 2.531579 1.515669
v 1.471891 2.400167 1.966891
v 1.187800 2.612993 1.924484
v 1.239081 2.808218 1.629431
v 1.554865 2.716051 1.489481
v 1.698755 2.463859 1.698043
v 1.452396 2.634832 1.768352
vn 0.0602 -0.9808 0.1853
vn 0.1948 -0.9808 -0.0000
vn -0.1576 -0.9808 0.1145
vn -0.1576 -0.9808 -0.1145
vn 0.0602 -0.9808 -0.1853
vn 0.8059 -0.5920 -0.0000
vn 0.2491 -0.5920 0.7665
vn -0.6520 -0.5920 0.4737
vn -0.6520 -0.5920 -0.4737
vn 0.2491 -0.5920 -0.7665
vn 0.6520 0.5920 0.4737
vn -0.2491 0.5920 0.7665
vn -0.8059 0.5920 -0.0000
vn -0.2491 0.5920 -0.7665
vn 0.6520 0.5920 -0.4737
vn 0.1576 0.9808 0.1145
vn -0.0602 0.9808 0.1853
vn -0.1948 0.9808 -0.0000
vn -0.0602 0.9808 -0.1853
vn 0.1576 0.9808 -0.1145
vn -0.1205 -0.9207 0.3713
vn 0.0084 -0.9814 0.1920
vn -0.3357 -0.8936 0.2979
vn -0.3399 -0.9376 0.0732
vn -0.1273 -0.9918 0.0077
vn 0.6812 -0.7208 0.1284
vn 0.1482 -0.4696 0.8704
vn -0.7423 -0.3577 0.5667
vn -0.7596 -0.5397 -0.3630
vn 0.1202 -0.7641 -0.6338
vn 0.7596 0.5397 0.3630
vn -0.1202 0.7641 0.6338
vn -0.6812 0.7208 -0.1284
vn -0.1482 0.4696 -0.8704
vn 0.7423 0.3577 -0.5666
vn 0.3399 0.9376 -0.0732
vn 0.1273 0.9918 -0.0077
vn -0.0084 0.9814 -0.1920
vn 0.1205 0.9207 -0.3713
vn 0.3357 0.8936 -0.2979
vn 0.3626 -0.8950 0.2598
vn 0.4927 -0.8671 0.0734
vn 0.1567 -0.9688 0.1920
vn 0.1595 -0.9865 -0.0364
vn 0.3672 -0.9236 -0.1096
vn 0.9509 -0.3074 0.0357
vn 0.4127 -0.4228 0.8068
vn -0.4392 -0.7282 0.5262
vn -0.4274 -0.8014 -0.4184
vn 0.4318 -0.5413 -0.7215
vn 0.4274 0.8014 0.4184
vn -0.4318 0.5413 0.7215
vn -0.9509 0.3074 -0.0357
vn -0.4127 0.4228 -0.8068
vn 0.4392 0.7282 -0.5262
vn -0.1595 0.9865 0.0364
vn -0.3672 0.9236 0.1096
vn -0.4927 0.8671 -0.0734
vn -0.3626 0.8950 -0.2598
vn -0.1567 0.9688 -0.1920
vn 0.1421 -0.9706 -0.1943
vn 0.2733 -0.8904 -0.3640
vn -0.0761 -0.9617 -0.2633
vn -0.0797 -0.8760 -0.4757
vn 0.1362 -0.8319 -0.5379
vn 0.8510 -0.4819 -0.2089
vn 0.3080 -0.8136 0.4931
vn -0.5946 -0.7768 0.2075
vn -0.6095 -0.4222 -0.6710
vn 0.2839 -0.2400 -0.9283
vn 0.6095 0.4222 0.6710
vn -0.2840 0.2400 0.9283
vn -0.8510 0.4819 0.2089
vn -0.3080 0.8136 -0.4931
vn 0.5946 0.7768 -0.2075
vn 0.0797 0.8760 0.4757
vn -0.1362 0.8319 0.5379
vn -0.2733 0.8904 0.3640
vn -0.1421 0.9706 0.1943
vn 0.0761 0.9617 0.2633
vn 0.2511 -0.6189 0.7442
vn 0.3960 -0.7046 0.5888
vn 0.0440 -0.7082 0.7046
vn 0.0608 -0.8491 0.5248
vn 0.2783 -0.8468 0.4532
vn 0.9101 -0.2807 0.3049
vn 0.3109 0.0737 0.9476
vn -0.5461 -0.2956 0.7838
vn -0.4765 -0.8782 0.0399
vn 0.4234 -0.8690 -0.2561
vn 0.4765 0.8783 -0.0399
vn -0.4234 0.8690 0.2561
vn -0.9101 0.2807 -0.3049
vn -0.3109 -0.0737 -0.9476
vn 0.5461 0.2956 -0.7838
vn -0.0608 0.8491 -0.5248
vn -0.2783 0.8468 -0.4532
vn -0.3960 0.7046 -0.5888
vn -0.2511 0.6189 -0.7442
vn -0.0440 0.7082 -0.7046
vn -0.4134 -0.8222 -0.3913
vn -0.2681 -0.7814 -0.5636
vn -0.5954 -0.6858 -0.4185
vn -0.5625 -0.5607 -0.6075
vn -0.3602 -0.6198 -0.6972
vn 0.4454 -0.7803 -0.4389
vn -0.1558 -0.9491 0.2736
vn -0.9087 -0.3851 0.1612
vn -0.7728 0.1323 -0.6207
vn 0.0641 -0.1120 -0.9916
vn 0.7728 -0.1323 0.6207
vn -0.0641 0.1120 0.9916
vn -0.4454 0.7803 0.4389
vn 0.1558 0.9491 -0.2736
vn 0.9087 0.3851 -0.1612
vn 0.5625 0.5607 0.6075
vn 0.3602 0.6198 0.6972
vn 0.2681 0.7814 0.5636
vn 0.4134 0.8222 0.3913
vn 0.5954 0.6858 0.4185
s 0
usemtl Spots
f 160//262 161//262 162//262
f 161//263 160//263 165//263
f 160//264 162//264 163//264
f 160//265 163//265 164//265
f 160//266 164//266 165//266
f 161//267 165//267 170//267
f 162//268 161//268 166//268
f 163//269 162//269 167//269
f 164//270 163//270 168//270
f 165//271 164//271 169//271
f 161//272 170//272 166//272
f 162//273 166//273 167//273
f 163//274 167//274 168//274
f 164//275 168//275 169//275
f 165//276 169//276 170//276
f 166//277 170//277 171//277
f 167//278 166//278 171//278
f 168//279 167//279 171//279
f 169//280 168//280 171//280
f 170//281 169//281 171//281
f 172//282 173//282 174//282
f 173//283 172//283 177//283
f 172//284 174//284 175//284
f 172//285 175//285 176//285
f 172//286 176//286 177//286
f 173//287 177//287 182//287
f 174//288 173//288 178//288
f 175//289 174//289 179//289
f 176//290 175//290 180//290
f 177//291 176//291 181//291
f 173//292 182//292 178//292
f 174//293 178//293 179//293
f 175//294 179//294 180//294
f 176//295 180//295 181//295
f 177//296 181//296 182//296
f 178//297 182//297 183//297
f 179//298 178//298 183//298
f 180//299 179//299 183//299
f 181//300 180//300 183//300
f 182//301 181//301 183//301
f 184//302 185//302 186//302
f 185//303 184//303 189//303
f 184//304 186//304 187//304
f 184//305 187//305 188//305
f 184//306 188//306 189//306
f 185//307 189//307 194//307
f 186//308 185//308 190//308
f 187//309 186//309 191//309
f 188//310 187//310 192//310
f 189//311 188//311 193//311
f 185//312 194//312 190//312
f 186//313 190//313 191//313
f 187//314 191//314 192//314
f 188//315 192//315 193//315
f 189//316 193//316 194//316
f 190//317 194//317 195//317
f 191//318 190//318 195//318
f 192//319 191//319 195//319
f 193//320 192//320 195//320
f 194//321 193//321 195//321
f 196//322 197//322 198//322
f 197//323 196//323 201//323
f 196//324 198//324 199//324
f 196//325 199//325 200//325
f 196//326 200//326 201//326
f 197//327 201//327 206//327
f 198//328 197//328 202//328
f 199//329 198//329 203//329
f 200//330 199//330 204//330
f 201//331 200//331 205//331
f 197//332 206//332 202//332
f 198//333 202//333 203//333
f 199//334 203//334 204//334
f 200//335 204//335 205//335
f 201//336 205//336 206//336
f 202//337 206//337 207//337
f 203//338 202//338 207//338
f 204//339 203//339 207//339
f 205//340 204//340 207//340
f 206//341 205//341 207//341
f 208//342 209//342 210//342
f 209//343 208//343 213//343
f 208//344 210//344 211//344
f 208//345 211//345 212//345
f 208//346 212//346 213//346
f 209//347 213//347 218//347
f 210//348 209//348 214//348
f 211//349 210//349 215//349
f 212//350 211//350 216//350
f 213//351 212//351 217//351
f 209//352 218//352 214//352
f 210//353 214//353 215//353
f 211//354 215//354 216//354
f 212//355 216//355 217//355
f 213//356 217//356 218//356
f 214//357 218//357 219//357
f 215//358 214//358 219//358
f 216//359 215//359 219//359
f 217//360 216//360 219//360
f 218//361 217//361 219//361
f 220//362 221//362 222//362
f 221//363 220//363 225//363
f 220//364 222//364 223//364
f 220//365 223//365 224//365
f 220//366 224//366 225//366
f 221//367 225//367 230//367
f 222//368 221//368 226//368
f 223//369 222//369 227//369
f 224//370 223//370 228//370
f 225//371 224//371 229//371
f 221//372 230//372 226//372
f 222//373 226//373 227//373
f 223//374 227//374 228//374
f 224//375 228//375 229//375
f 225//376 229//376 230//376
f 226//377 230//377 231//377
f 227//378 226//378 231//378
f 228//379 227//379 231//379
f 229//380 228//380 231//380
f 230//381 229//381 231//381
o Door
v -0.420000 0.460000 1.390000
v -0.420000 1.140000 1.390000
v -0.420000 0.460000 1.170000
v -0.420000 1.140000 1.170000
v 0.420000 0.460000 1.390000
v 0.420000 1.140000 1.390000
v 0.420000 0.460000 1.170000
v 0.420000 1.140000 1.170000
v 0.000000 1.560000 1.170000
v 0.000000 1.560000 1.390000
v 0.246870 1.479787 1.170000
v 0.246870 1.479787 1.390000
v 0.399444 1.269787 1.170000
v 0.399444 1.269787 1.390000
v 0.399444 1.010213 1.170000
v 0.399444 1.010213 1.390000
v 0.246870 0.800213 1.170000
v 0.246870 0.800213 1.390000
v 0.000000 0.720000 1.170000
v 0.000000 0.720000 1.390000
v -0.246870 0.800213 1.170000
v -0.246870 0.800213 1.390000
v -0.399444 1.010213 1.170000
v -0.399444 1.010213 1.390000
v -0.399444 1.269787 1.170000
v -0.399444 1.269787 1.390000
v -0.246870 1.479787 1.170000
v -0.246870 1.479787 1.390000
vn -1.0000 -0.0000 -0.0000
vn -0.0000 -0.0000 -1.0000
vn 1.0000 -0.0000 -0.0000
vn -0.0000 -0.0000 1.0000
vn -0.0000 -1.0000 -0.0000
vn -0.0000 1.0000 -0.0000
vn 0.3090 0.9511 -0.0000
vn 0.8090 0.5878 -0.0000
vn 0.8090 -0.5878 -0.0000
vn 0.3090 -0.9511 -0.0000
vn -0.3090 -0.9511 -0.0000
vn -0.8090 -0.5878 -0.0000
vn -0.8090 0.5878 -0.0000
vn -0.3090 0.9511 -0.0000
s 0
usemtl Door
f 233//382 234//382 232//382
f 235//383 238//383 234//383
f 239//384 236//384 238//384
f 237//385 232//385 236//385
f 238//386 232//386 234//386
f 235//387 237//387 239//387
f 241//388 242//388 240//388
f 243//389 244//389 242//389
f 245//384 246//384 244//384
f 247//390 248//390 246//390
f 249//391 250//391 248//391
f 251//392 252//392 250//392
f 253//393 254//393 252//393
f 255//382 256//382 254//382
f 257//385 249//385 245//385
f 257//394 258//394 256//394
f 259//395 240//395 258//395
f 246//383 254//383 258//383
f 233//382 235//382 234//382
f 235//383 239//383 238//383
f 239//384 237//384 236//384
f 237//385 233//385 232//385
f 238//386 236//386 232//386
f 235//387 233//387 237//387
f 241//388 243//388 242//388
f 243//389 245//389 244//389
f 245//384 247//384 246//384
f 247//390 249//390 248//390
f 249//391 251//391 250//391
f 251//392 253//392 252//392
f 253//393 255//393 254//393
f 255//382 257//382 256//382
f 245//385 243//385 241//385
f 241//385 259//385 257//385
f 257//385 255//385 253//385
f 253//385 251//385 249//385
f 249//385 247//385 245//385
f 245//385 241//385 257//385
f 257//385 253//385 249//385
f 257//394 259//394 258//394
f 259//395 241//395 240//395
f 258//383 240//383 242//383
f 242//383 244//383 246//383
f 246//383 248//383 250//383
f 250//383 252//383 254//383
f 254//383 256//383 258//383
f 258//383 242//383 246//383
f 246//383 250//383 254//383
o Windows
v -0.620000 1.240000 1.200000
v -0.620000 1.240000 1.400000
v -0.508321 1.203713 1.200000
v -0.508321 1.203713 1.400000
v -0.439299 1.108713 1.200000
v -0.439299 1.108713 1.400000
v -0.439299 0.991287 1.200000
v -0.439299 0.991287 1.400000
v -0.508321 0.896287 1.200000
v -0.508321 0.896287 1.400000
v -0.620000 0.860000 1.200000
v -0.620000 0.860000 1.400000
v -0.731679 0.896287 1.200000
v -0.731679 0.896287 1.400000
v -0.800701 0.991287 1.200000
v -0.800701 0.991287 1.400000
v -0.800701 1.108713 1.200000
v -0.800701 1.108713 1.400000
v -0.731679 1.203713 1.200000
v -0.731679 1.203713 1.400000
v 0.620000 1.210000 1.180000
v 0.620000 1.210000 1.380000
v 0.731679 1.173713 1.180000
v 0.731679 1.173713 1.380000
v 0.800701 1.078713 1.180000
v 0.800701 1.078713 1.380000
v 0.800701 0.961287 1.180000
v 0.800701 0.961287 1.380000
v 0.731679 0.866287 1.180000
v 0.731679 0.866287 1.380000
v 0.620000 0.830000 1.180000
v 0.620000 0.830000 1.380000
v 0.508321 0.866287 1.180000
v 0.508321 0.866287 1.380000
v 0.439299 0.961287 1.180000
v 0.439299 0.961287 1.380000
v 0.439299 1.078713 1.180000
v 0.439299 1.078713 1.380000
v 0.508321 1.173713 1.180000
v 0.508321 1.173713 1.380000
vn 0.3090 0.9511 -0.0000
vn 0.8090 0.5878 -0.0000
vn 1.0000 -0.0000 -0.0000
vn 0.8090 -0.5878 -0.0000
vn 0.3090 -0.9511 -0.0000
vn -0.3090 -0.9511 -0.0000
vn -0.8090 -0.5878 -0.0000
vn -1.0000 -0.0000 -0.0000
vn -0.0000 -0.0000 1.0000
vn -0.8090 0.5878 -0.0000
vn -0.3090 0.9511 -0.0000
vn -0.0000 -0.0000 -1.0000
s 0
usemtl Windows
f 261//396 262//396 260//396
f 263//397 264//397 262//397
f 265//398 266//398 264//398
f 267//399 268//399 266//399
f 269//400 270//400 268//400
f 271//401 272//401 270//401
f 273//402 274//402 272//402
f 275//403 276//403 274//403
f 277//404 269//404 265//404
f 277//405 278//405 276//405
f 279//406 260//406 278//406
f 266//407 274//407 278//407
f 281//396 282//396 280//396
f 283//397 284//397 282//397
f 285//398 286//398 284//398
f 287//399 288//399 286//399
f 289//400 290//400 288//400
f 291//401 292//401 290//401
f 293//402 294//402 292//402
f 295//403 296//403 294//403
f 297//404 289//404 285//404
f 297//405 298//405 296//405
f 299//406 280//406 298//406
f 286//407 294//407 298//407
f 261//396 263//396 262//396
f 263//397 265//397 264//397
f 265//398 267//398 266//398
f 267//399 269//399 268//399
f 269//400 271//400 270//400
f 271//401 273//401 272//401
f 273//402 275//402 274//402
f 275//403 277//403 276//403
f 265//404 263//404 261//404
f 261//404 279//404 277//404
f 277//404 275//404 273//404
f 273//404 271//404 269//404
f 269//404 267//404 265//404
f 265//404 261//404 277//404
f 277//404 273//404 269//404
f 277//405 279//405 278//405
f 279//406 261//406 260//406
f 278//407 260//407 262//407
f 262//407 264//407 266//407
f 266//407 268//407 270//407
f 270//407 272//407 274//407
f 274//407 276//407 278//407
f 278//407 262//407 266//407
f 266//407 270//407 274//407
f 281//396 283//396 282//396
f 283//397 285//397 284//397
f 285//398 287//398 286//398
f 287//399 289//399 288//399
f 289//400 291//400 290//400
f 291//401 293//401 292//401
f 293//402 295//402 294//402
f 295//403 297//403 296//403
f 285//404 283//404 281//404
f 281//404 299//404 297//404
f 297//404 295//404 293//404
f 293//404 291//404 289//404
f 289//404 287//404 285//404
f 285//404 281//404 297//404
f 297//404 293//404 289//404
f 297//405 299//405 298//405
f 299//406 281//406 280//406
f 298//407 280//407 282//407
f 282//407 284//407 286//407
f 286//407 288//407 290//407
f 290//407 292//407 294//407
f 294//407 296//407 298//407
f 298//407 282//407 286//407
f 286//407 290//407 294//407
o Trim
v 2.220000 2.020000 0.100000
v 2.315106 2.020000 0.030902
v 2.278779 2.020000 -0.080902
v 2.161222 2.020000 -0.080902
v 2.124894 2.020000 0.030902
v 2.220000 1.620000 -0.000000
v 1.921647 2.020000 -1.116097
v 1.964298 2.020000 -1.225644
v 1.873292 2.020000 -1.300060
v 1.774396 2.020000 -1.236503
v 1.804281 2.020000 -1.122808
v 1.867583 1.243868 -1.200223
v 1.013185 2.020000 -1.977841
v 0.989839 2.020000 -2.093057
v 0.873048 2.020000 -2.106457
v 0.824213 2.020000 -1.999524
v 0.910822 2.020000 -1.920035
v 0.922221 1.512942 -2.019383
v -0.216957 2.020000 -2.211635
v -0.298887 2.020000 -2.295939
v -0.404382 2.020000 -2.244070
v -0.387652 2.020000 -2.127710
v -0.271817 2.020000 -2.107664
v -0.315939 1.274340 -2.197404
v -1.378216 2.020000 -1.743250
v -1.492718 2.020000 -1.769876
v -1.553424 2.020000 -1.669207
v -1.476441 2.020000 -1.580363
v -1.368156 2.020000 -1.626124
v -1.453791 1.414557 -1.677764
v -2.101901 2.020000 -0.721396
v -2.212622 2.020000 -0.681891
v -2.209265 2.020000 -0.564381
v -2.096470 2.020000 -0.531262
v -2.030115 2.020000 -0.628302
v -2.130075 1.332815 -0.625446
v -2.158248 2.020000 0.529497
v -2.230034 2.020000 0.622591
v -2.163680 2.020000 0.719631
v -2.050884 2.020000 0.686511
v -2.047528 2.020000 0.569002
v -2.130075 1.332815 0.625446
v -1.529366 2.020000 1.612278
v -1.539426 2.020000 1.729404
v -1.431141 2.020000 1.775165
v -1.354158 2.020000 1.686322
v -1.414864 2.020000 1.585652
v -1.453791 1.414557 1.677764
v -0.414921 2.020000 2.183172
v -0.360061 2.020000 2.287143
v -0.244226 2.020000 2.267097
v -0.227496 2.020000 2.150737
v -0.332991 2.020000 2.098868
v -0.315939 1.274340 2.197404
v 0.831258 2.020000 2.060925
v 0.933620 2.020000 2.118731
v 1.020230 2.020000 2.039242
v 0.971395 2.020000 1.932308
v 0.854604 2.020000 1.945709
v 0.922221 1.512942 2.019383
v 1.813519 2.020000 1.284348
v 1.930884 2.020000 1.277637
v 1.960769 2.020000 1.163942
v 1.861874 2.020000 1.100386
v 1.770868 2.020000 1.174801
v 1.867583 1.243868 1.200222
vn 0.5761 -0.1982 0.7930
vn 0.9322 -0.1982 -0.3029
vn -0.0000 -0.1982 -0.9802
vn -0.0000 1.0000 -0.0000
vn -0.9322 -0.1982 -0.3029
vn -0.5761 -0.1982 0.7930
vn 0.9268 -0.1037 0.3609
vn 0.6296 -0.1037 -0.7700
vn -0.5377 -0.1037 -0.8367
vn -0.9619 -0.1037 0.2528
vn -0.0568 -0.1037 0.9930
vn 0.9678 -0.1576 -0.1961
vn 0.1126 -0.1576 -0.9811
vn -0.8983 -0.1576 -0.4102
vn -0.6677 -0.1576 0.7275
vn 0.4856 -0.1576 0.8599
vn 0.7129 -0.1079 -0.6929
vn -0.4386 -0.1079 -0.8922
vn -0.9840 -0.1079 0.1415
vn -0.1695 -0.1079 0.9796
vn 0.8793 -0.1079 0.4639
vn 0.2245 -0.1324 -0.9654
vn -0.8488 -0.1324 -0.5118
vn -0.7491 -0.1324 0.6491
vn 0.3858 -0.1324 0.9130
vn 0.9876 -0.1324 -0.0848
vn -0.3337 -0.1169 -0.9354
vn -0.9927 -0.1169 0.0284
vn -0.2798 -0.1169 0.9529
vn 0.8198 -0.1169 0.5606
vn 0.7865 -0.1169 -0.6065
vn -0.7865 -0.1169 -0.6065
vn -0.8198 -0.1169 0.5606
vn 0.2798 -0.1169 0.9529
vn 0.9927 -0.1169 0.0284
vn 0.3337 -0.1169 -0.9354
vn -0.9876 -0.1324 -0.0848
vn -0.3858 -0.1324 0.9130
vn 0.7491 -0.1324 0.6491
vn 0.8488 -0.1324 -0.5118
vn -0.2245 -0.1324 -0.9654
vn -0.8793 -0.1079 0.4639
vn 0.1695 -0.1079 0.9796
vn 0.9840 -0.1079 0.1415
vn 0.4386 -0.1079 -0.8922
vn -0.7129 -0.1079 -0.6929
vn -0.4856 -0.1576 0.8599
vn 0.6677 -0.1576 0.7275
vn 0.8983 -0.1576 -0.4102
vn -0.1126 -0.1576 -0.9811
vn -0.9678 -0.1576 -0.1961
vn 0.0568 -0.1037 0.9930
vn 0.9619 -0.1037 0.2528
vn 0.5377 -0.1037 -0.8367
vn -0.6296 -0.1037 -0.7700
vn -0.9268 -0.1037 0.3609
s 0
usemtl Trim
f 300//408 305//408 301//408
f 301//409 305//409 302//409
f 302//410 305//410 303//410
f 301//411 303//411 304//411
f 303//412 305//412 304//412
f 304//413 305//413 300//413
f 306//414 311//414 307//414
f 307//415 311//415 308//415
f 308//416 311//416 309//416
f 307//411 309//411 310//411
f 309//417 311//417 310//417
f 310//418 311//418 306//418
f 312//419 317//419 313//419
f 313//420 317//420 314//420
f 314//421 317//421 315//421
f 313//411 315//411 316//411
f 315//422 317//422 316//422
f 316//423 317//423 312//423
f 318//424 323//424 319//424
f 319//425 323//425 320//425
f 320//426 323//426 321//426
f 319//411 321//411 322//411
f 321//427 323//427 322//427
f 322//428 323//428 318//428
f 324//429 329//429 325//429
f 325//430 329//430 326//430
f 326//431 329//431 327//431
f 325//411 327//411 328//411
f 327//432 329//432 328//432
f 328//433 329//433 324//433
f 330//434 335//434 331//434
f 331//435 335//435 332//435
f 332//436 335//436 333//436
f 331//411 333//411 334//411
f 333//437 335//437 334//437
f 334//438 335//438 330//438
f 336//439 341//439 337//439
f 337//440 341//440 338//440
f 338//441 341//441 339//441
f 337//411 339//411 340//411
f 339//442 341//442 340//442
f 340//443 341//443 336//443
f 342//444 347//444 343//444
f 343//445 347//445 344//445
f 344//446 347//446 345//446
f 343//411 345//411 346//411
f 345//447 347//447 346//447
f 346//448 347//448 342//448
f 348//449 353//449 349//449
f 349//450 353//450 350//450
f 350//451 353//451 351//451
f 349//411 351//411 352//411
f 351//452 353//452 352//452
f 352//453 353//453 348//453
f 354//454 359//454 355//454
f 355//455 359//455 356//455
f 356//456 359//456 357//456
f 355//411 357//411 358//411
f 357//457 359//457 358//457
f 358//458 359//458 354//458
f 360//459 365//459 361//459
f 361//460 365//460 362//460
f 362//461 365//461 363//461
f 361//411 363//411 364//411
f 363//462 365//462 364//462
f 364//463 365//463 360//463
f 304//411 300//411 301//411
f 301//411 302//411 303//411
f 310//411 306//411 307//411
f 307//411 308//411 309//411
f 316//411 312//411 313//411
f 313//411 314//411 315//411
f 322//411 318//411 319//411
f 319//411 320//411 321//411
f 328//411 324//411 325//411
f 325//411 326//411 327//411
f 334//411 330//411 331//411
f 331//411 332//411 333//411
f 340//411 336//411 337//411
f 337//411 338//411 339//411
f 346//411 342//411 343//411
f 343//411 344//411 345//411
f 352//411 348//411 349//411
f 349//411 350//411 351//411
f 358//411 354//411 355//411
f 355//411 356//411 357//411
f 364//411 360//411 361//411
f 361//411 362//411 363//411
