# Blender 5.2.1 LTS
# www.blender.org
mtllib BaseMarsh.mtl
o Plinth
v 0.000000 0.000000 -2.100000
v -0.053608 0.312960 -2.130363
v 1.349854 0.000000 -1.608693
v 1.346510 0.328093 -1.563256
v 2.068096 0.000000 -0.364661
v 2.117353 0.300488 -0.366654
v 1.818653 0.000000 1.050000
v 1.776422 0.287620 1.129491
v 0.718242 0.000000 1.973354
v 0.731900 0.328200 2.042272
v -0.718242 0.000000 1.973354
v -0.761082 0.256064 2.016123
v -1.818653 0.000000 1.050000
v -1.739043 0.336004 1.011810
v -2.068096 0.000000 -0.364661
v -2.049554 0.283577 -0.290112
v -1.349854 0.000000 -1.608693
v -1.350246 0.343389 -1.547223
v -0.053608 0.282960 -1.580363
v -0.003344 0.558093 -1.504562
v 1.145272 0.270488 -1.098008
v 1.053784 0.517620 -1.016524
v 1.563658 0.298200 0.068918
v 1.507160 0.486064 0.042769
v 1.175625 0.306004 1.057825
v 1.114558 0.513577 1.170564
v -0.000392 0.313389 1.611470
v -0.021049 0.560481 1.605230
v -1.156035 0.265500 1.027544
v -1.087695 0.528531 1.121148
v -1.600095 0.305125 0.074058
v -1.592421 0.502022 -0.044841
v -1.021012 0.294460 -1.159050
v -1.053969 0.552057 -1.108938
vn 0.3390 0.1324 -0.9314
vn 0.8634 0.0778 -0.4985
vn 0.9724 -0.1583 0.1715
vn 0.6384 -0.1165 0.7608
vn -0.0000 -0.2055 0.9787
vn -0.6251 0.2328 0.7450
vn -0.9846 0.0187 0.1736
vn -0.0081 0.9999 0.0123
vn -0.8627 0.0882 -0.4981
vn -0.3382 -0.1481 -0.9293
vn -0.0000 -1.0000 -0.0000
vn 0.3685 0.1837 -0.9113
vn 0.9146 0.2287 -0.3334
vn 0.8847 0.3140 0.3446
vn 0.3981 -0.3446 0.8502
vn -0.4353 -0.1993 0.8779
vn -0.9020 0.0836 0.4236
vn 0.0063 0.9991 -0.0414
vn -0.8847 -0.2153 -0.4136
vn -0.3766 0.3094 -0.8732
vn 0.0175 -0.9998 -0.0122
vn 0.3755 -0.0256 -0.9265
vn 0.8309 -0.1398 -0.5385
vn 0.9716 0.0813 0.2221
vn 0.6429 -0.1829 0.7438
vn -0.0092 -0.1662 0.9860
vn -0.7063 -0.2300 0.6695
vn -0.9445 0.2482 0.2153
vn -0.0272 0.9988 0.0406
vn 0.0595 0.9950 0.0805
vn 0.1604 0.9840 -0.0779
vn -0.0463 0.9942 -0.0972
vn -0.0010 1.0000 0.0084
vn -0.0025 0.9999 0.0133
vn -0.8632 0.1804 -0.4716
vn -0.4017 0.1609 -0.9015
vn 0.3942 0.4161 -0.8194
vn 0.8372 0.4239 -0.3457
vn 0.9404 0.1002 0.3249
vn 0.3589 0.0535 0.9318
vn -0.4130 -0.0115 0.9107
vn -0.8876 0.2630 0.3782
vn 0.0306 0.9994 0.0167
vn 0.0148 0.9984 0.0544
vn -0.0244 0.9996 -0.0122
vn 0.0369 0.9993 -0.0115
vn 0.0039 0.9991 0.0427
vn -0.8915 -0.0261 -0.4523
vn -0.3498 0.1356 -0.9270
vn -0.0111 -0.9999 0.0018
vn 0.0211 -0.9996 0.0162
vn 0.0167 -0.9987 0.0488
vn -0.0536 -0.9984 -0.0165
vn -0.0115 -0.9998 0.0166
s 0
usemtl Plinth
f 1//1 4//1 3//1
f 4//2 5//2 3//2
f 6//3 7//3 5//3
f 8//4 9//4 7//4
f 10//5 11//5 9//5
f 11//6 14//6 13//6
f 13//7 16//7 15//7
f 2//8 12//8 8//8
f 15//9 18//9 17//9
f 17//10 2//10 1//10
f 3//11 11//11 15//11
f 20//12 21//12 19//12
f 21//13 24//13 23//13
f 24//14 25//14 23//14
f 26//15 27//15 25//15
f 27//16 30//16 29//16
f 30//17 31//17 29//17
f 32//18 28//18 24//18
f 32//19 33//19 31//19
f 33//20 20//20 19//20
f 25//21 29//21 33//21
f 1//22 2//22 4//22
f 4//23 6//23 5//23
f 6//24 8//24 7//24
f 8//25 10//25 9//25
f 10//26 12//26 11//26
f 11//27 12//27 14//27
f 13//28 14//28 16//28
f 6//29 4//29 2//29
f 2//30 18//30 16//30
f 16//31 14//31 12//31
f 12//32 10//32 8//32
f 8//33 6//33 2//33
f 2//34 16//34 12//34
f 15//35 16//35 18//35
f 17//36 18//36 2//36
f 17//11 1//11 3//11
f 3//11 5//11 7//11
f 7//11 9//11 11//11
f 11//11 13//11 15//11
f 15//11 17//11 3//11
f 3//11 7//11 11//11
f 20//37 22//37 21//37
f 21//38 22//38 24//38
f 24//39 26//39 25//39
f 26//40 28//40 27//40
f 27//41 28//41 30//41
f 30//42 32//42 31//42
f 24//43 22//43 20//43
f 20//44 34//44 32//44
f 32//45 30//45 28//45
f 28//46 26//46 24//46
f 24//47 20//47 32//47
f 32//48 34//48 33//48
f 33//49 34//49 20//49
f 33//50 19//50 21//50
f 21//51 23//51 25//51
f 25//52 27//52 29//52
f 29//53 31//53 33//53
f 33//54 21//54 25//54
o Stem
v 0.000000 0.440000 -0.920000
v 0.027493 2.972850 -0.994664
v 0.497390 0.440000 -0.773953
v 0.397986 2.976341 -0.890148
v 0.836861 0.440000 -0.382182
v 0.628363 3.004024 -0.617303
v 0.910636 0.440000 0.130930
v 0.657775 2.983500 -0.268950
v 0.695290 0.440000 0.602472
v 0.520583 2.996669 0.078123
v 0.259194 0.440000 0.882734
v 0.217234 2.973744 0.305057
v -0.259194 0.440000 0.882734
v -0.168922 2.983185 0.309665
v -0.695290 0.440000 0.602472
v -0.533106 2.992982 0.084045
v -0.910636 0.440000 0.130930
v -0.647591 3.006603 -0.263991
v -0.836861 0.440000 -0.382182
v -0.615299 2.994044 -0.635797
v -0.497390 0.440000 -0.773953
v -0.382564 2.983249 -0.938331
vn 0.2816 -0.0329 -0.9590
vn 0.7557 0.0014 -0.6549
vn 0.9870 0.0758 -0.1419
vn 0.8999 0.1458 0.4110
vn 0.5301 0.1968 0.8248
vn -0.0000 0.2223 0.9750
vn -0.5292 0.2043 0.8235
vn -0.9006 0.1407 0.4113
vn -0.9867 0.0793 -0.1419
vn 0.0029 0.9998 -0.0172
vn -0.7557 0.0005 -0.6549
vn -0.2814 -0.0492 -0.9583
vn -0.0000 -1.0000 -0.0000
vn 0.2716 -0.0313 -0.9619
vn 0.7640 0.0004 -0.6452
vn 0.9941 0.0735 -0.0796
vn 0.9216 0.1480 0.3587
vn 0.5769 0.2018 0.7915
vn 0.0170 0.2192 0.9755
vn -0.5118 0.2021 0.8350
vn -0.9383 0.1445 0.3143
vn -0.9930 0.0773 -0.0889
vn 0.0250 0.9922 -0.1218
vn 0.0229 0.9996 -0.0181
vn 0.1727 0.9848 -0.0183
vn 0.0245 0.9997 0.0039
vn -0.1454 0.9848 -0.0948
vn -0.0932 0.9934 0.0664
vn 0.0318 0.9995 -0.0022
vn 0.0168 0.9994 0.0299
vn -0.7927 -0.0036 -0.6097
vn -0.1367 -0.0277 -0.9902
s 0
usemtl Stem
f 35//55 38//55 37//55
f 37//56 40//56 39//56
f 39//57 42//57 41//57
f 41//58 44//58 43//58
f 43//59 46//59 45//59
f 46//60 47//60 45//60
f 48//61 49//61 47//61
f 50//62 51//62 49//62
f 52//63 53//63 51//63
f 36//64 50//64 42//64
f 54//65 55//65 53//65
f 56//66 35//66 55//66
f 37//67 45//67 53//67
f 35//68 36//68 38//68
f 37//69 38//69 40//69
f 39//70 40//70 42//70
f 41//71 42//71 44//71
f 43//72 44//72 46//72
f 46//73 48//73 47//73
f 48//74 50//74 49//74
f 50//75 52//75 51//75
f 52//76 54//76 53//76
f 40//77 38//77 36//77
f 36//78 56//78 54//78
f 54//79 52//79 50//79
f 50//80 48//80 46//80
f 46//81 44//81 42//81
f 42//82 40//82 36//82
f 36//83 54//83 50//83
f 50//84 46//84 42//84
f 54//85 56//85 55//85
f 56//86 36//86 35//86
f 55//67 35//67 37//67
f 37//67 39//67 41//67
f 41//67 43//67 45//67
f 45//67 47//67 49//67
f 49//67 51//67 53//67
f 53//67 55//67 37//67
f 37//67 41//67 45//67
f 45//67 49//67 53//67
o Cap
v 0.000000 4.640000 -0.340000
v 0.000000 4.218880 -1.192030
v 0.000000 3.564792 -1.808544
v 0.000000 2.841157 -2.009967
v 0.128853 4.531446 -0.629408
v 0.391477 4.214231 -1.219271
v 0.674742 3.437071 -1.855495
v 0.767288 2.732567 -2.063358
v 0.211061 4.531446 -0.530040
v 0.641238 4.218880 -0.917374
v 1.105227 3.553794 -1.335151
v 1.256818 2.824521 -1.471644
v 0.285988 4.531446 -0.432923
v 0.868878 4.217701 -0.622316
v 1.497583 3.497891 -0.826594
v 1.702989 2.740935 -0.893335
v 0.304800 4.531446 -0.307964
v 0.926033 4.216719 -0.242670
v 1.596094 3.476852 -0.172244
v 1.815011 2.732567 -0.149235
v 0.242870 4.531446 -0.199779
v 0.737880 4.218880 0.086015
v 1.271796 3.564792 0.394272
v 1.446233 2.841157 0.494983
v 0.186208 4.531446 -0.083706
v 0.565732 4.214231 0.438664
v 0.975086 3.437072 1.002091
v 1.108827 2.732567 1.186170
v 0.059049 4.531446 -0.062196
v 0.179401 4.218880 0.504015
v 0.309212 3.553794 1.114730
v 0.351623 2.824521 1.314258
v -0.062520 4.531446 -0.045866
v -0.189947 4.217701 0.553628
v -0.327389 3.497891 1.200242
v -0.372293 2.740935 1.411498
v -0.180144 4.531446 -0.092053
v -0.547307 4.216719 0.413303
v -0.943328 3.476852 0.958380
v -1.072713 2.732567 1.136463
v -0.242870 4.531446 -0.199779
v -0.737880 4.218880 0.086015
v -1.271796 3.564792 0.394272
v -1.446233 2.841158 0.494983
v -0.315061 4.531446 -0.306886
v -0.957209 4.214231 -0.239393
v -1.649828 3.437072 -0.166596
v -1.876115 2.732567 -0.142813
v -0.270110 4.531446 -0.427764
v -0.820639 4.218880 -0.606642
v -1.414439 3.553794 -0.799579
v -1.608441 2.824521 -0.862614
v -0.223467 4.531446 -0.541211
v -0.678932 4.217701 -0.951313
v -1.170194 3.497891 -1.393648
v -1.330696 2.740936 -1.538164
v -0.124656 4.531446 -0.619982
v -0.378726 4.216719 -1.190633
v -0.652765 3.476852 -1.806136
v -0.742297 2.732567 -2.007228
v 0.000000 4.531446 -0.620442
vn -0.0251 0.9323 -0.3609
vn -0.0231 0.8762 -0.4815
vn 0.0696 0.6470 -0.7593
vn -0.0272 0.2796 -0.9597
vn 0.5084 0.6488 -0.5662
vn 0.7172 0.2822 -0.6372
vn 0.2753 0.9340 -0.2278
vn 0.3608 0.8789 -0.3120
vn 0.7820 0.2621 -0.5655
vn 0.2834 0.9338 -0.2186
vn 0.3792 0.8790 -0.2891
vn 0.6261 0.6632 -0.4101
vn 0.4565 0.8873 -0.0664
vn 0.7424 0.6638 -0.0904
vn 0.9511 0.2754 -0.1401
vn 0.3398 0.9391 -0.0512
vn 0.6940 0.6566 0.2953
vn 0.8554 0.2653 0.4449
vn 0.3133 0.9326 0.1793
vn 0.4196 0.8769 0.2344
vn 0.3251 0.9323 0.1587
vn 0.4285 0.8762 0.2207
vn 0.6228 0.6470 0.4400
vn 0.8448 0.2796 0.4563
vn 0.2361 0.6488 0.7234
vn 0.1932 0.2822 0.9397
vn 0.0596 0.9340 0.3523
vn 0.0898 0.8789 0.4685
vn 0.0987 0.2621 0.9600
vn 0.0477 0.9338 0.3547
vn 0.0607 0.8790 0.4729
vn 0.0421 0.6632 0.7472
vn -0.1707 0.8873 0.4285
vn -0.2929 0.6638 0.6882
vn -0.3542 0.2754 0.8937
vn -0.1256 0.9391 0.3199
vn -0.8130 0.2653 0.5183
vn -0.3119 0.9326 0.1816
vn -0.4128 0.8769 0.2462
vn -0.6028 0.6566 0.4533
vn -0.4054 0.8762 0.2607
vn -0.6924 0.6470 0.3194
vn -0.8175 0.2796 0.5034
vn -0.3000 0.9323 0.2022
vn -0.7445 0.6488 -0.1572
vn -0.9104 0.2822 -0.3025
vn -0.3349 0.9340 -0.1245
vn -0.4506 0.8789 -0.1564
vn -0.8807 0.2621 -0.3945
vn -0.3310 0.9338 -0.1361
vn -0.4399 0.8790 -0.1839
vn -0.6682 0.6632 -0.3371
vn -0.2858 0.8873 -0.3621
vn -0.4495 0.6638 -0.5978
vn -0.5968 0.2754 -0.7536
vn -0.2142 0.9391 -0.2687
vn -0.0000 -0.9991 0.0434
vn -0.0424 0.2653 -0.9632
vn -0.0013 0.9326 -0.3610
vn -0.0068 0.8769 -0.4806
vn -0.0912 0.6566 -0.7487
vn -0.0334 0.8769 -0.4795
vn -0.0425 0.6853 -0.7270
vn -0.0163 0.2681 -0.9632
vn 0.5567 0.6843 -0.4711
vn 0.7115 0.2694 -0.6490
vn 0.3663 0.8797 -0.3031
vn 0.7768 0.2681 -0.5698
vn 0.3770 0.8793 -0.2909
vn 0.5794 0.6833 -0.4443
vn 0.4555 0.8876 -0.0686
vn 0.7332 0.6713 -0.1086
vn 0.9532 0.2705 -0.1348
vn 0.6335 0.6859 0.3581
vn 0.8535 0.2679 0.4470
vn 0.4164 0.8774 0.2384
vn 0.4320 0.8769 0.2109
vn 0.6509 0.6853 0.3268
vn 0.8423 0.2681 0.4675
vn 0.1296 0.6843 0.7176
vn 0.2063 0.2694 0.9407
vn 0.0793 0.8797 0.4688
vn 0.1051 0.2681 0.9576
vn 0.0634 0.8793 0.4720
vn 0.0951 0.6833 0.7239
vn -0.1684 0.8876 0.4287
vn -0.2725 0.6713 0.6893
vn -0.3599 0.2705 0.8929
vn -0.8138 0.2679 0.5156
vn -0.4146 0.8774 0.2414
vn -0.6269 0.6859 0.3696
vn -0.3986 0.8769 0.2687
vn -0.6084 0.6853 0.4003
vn -0.8261 0.2681 0.4957
vn -0.6863 0.6843 -0.2466
vn -0.9178 0.2694 -0.2916
vn -0.4456 0.8797 -0.1657
vn -0.8819 0.2681 -0.3878
vn -0.4404 0.8793 -0.1811
vn -0.6745 0.6833 -0.2796
vn -0.2871 0.8876 -0.3602
vn -0.4607 0.6713 -0.5807
vn -0.5934 0.2705 -0.7581
vn -0.1188 -0.9615 0.2477
vn -0.2098 -0.9775 0.0206
vn -0.1551 -0.9615 -0.2268
vn -0.2327 -0.9721 0.0306
vn 0.1347 -0.9295 -0.3432
vn 0.1227 -0.9775 0.1714
vn 0.2740 -0.9615 -0.0210
vn 0.0986 -0.9701 -0.2217
vn 0.1344 -0.9780 0.1597
vn 0.0448 -0.9990 0.0041
vn -0.0775 -0.9968 0.0215
vn -0.0000 -0.9941 -0.1087
vn -0.0396 0.2679 -0.9626
vn -0.0018 0.8774 -0.4798
vn -0.0066 0.6859 -0.7277
s 0
usemtl Cap
f 117//87 57//87 61//87
f 58//88 61//88 62//88
f 59//89 62//89 63//89
f 60//90 63//90 64//90
f 62//91 67//91 63//91
f 63//92 68//92 64//92
f 61//93 57//93 65//93
f 61//94 66//94 62//94
f 68//95 71//95 72//95
f 65//96 57//96 69//96
f 66//97 69//97 70//97
f 67//98 70//98 71//98
f 70//99 73//99 74//99
f 71//100 74//100 75//100
f 72//101 75//101 76//101
f 69//102 57//102 73//102
f 74//103 79//103 75//103
f 75//104 80//104 76//104
f 73//105 57//105 77//105
f 73//106 78//106 74//106
f 77//107 57//107 81//107
f 78//108 81//108 82//108
f 79//109 82//109 83//109
f 80//110 83//110 84//110
f 82//111 87//111 83//111
f 83//112 88//112 84//112
f 81//113 57//113 85//113
f 81//114 86//114 82//114
f 88//115 91//115 92//115
f 85//116 57//116 89//116
f 86//117 89//117 90//117
f 87//118 90//118 91//118
f 90//119 93//119 94//119
f 91//120 94//120 95//120
f 92//121 95//121 96//121
f 89//122 57//122 93//122
f 95//123 100//123 96//123
f 93//124 57//124 97//124
f 93//125 98//125 94//125
f 94//126 99//126 95//126
f 98//127 101//127 102//127
f 99//128 102//128 103//128
f 100//129 103//129 104//129
f 97//130 57//130 101//130
f 102//131 107//131 103//131
f 103//132 108//132 104//132
f 101//133 57//133 105//133
f 101//134 106//134 102//134
f 108//135 111//135 112//135
f 105//136 57//136 109//136
f 106//137 109//137 110//137
f 107//138 110//138 111//138
f 110//139 113//139 114//139
f 111//140 114//140 115//140
f 112//141 115//141 116//141
f 109//142 57//142 113//142
f 80//143 100//143 116//143
f 115//144 60//144 116//144
f 113//145 57//145 117//145
f 113//146 58//146 114//146
f 114//147 59//147 115//147
f 58//148 117//148 61//148
f 59//149 58//149 62//149
f 60//150 59//150 63//150
f 62//151 66//151 67//151
f 63//152 67//152 68//152
f 61//153 65//153 66//153
f 68//154 67//154 71//154
f 66//155 65//155 69//155
f 67//156 66//156 70//156
f 70//157 69//157 73//157
f 71//158 70//158 74//158
f 72//159 71//159 75//159
f 74//160 78//160 79//160
f 75//161 79//161 80//161
f 73//162 77//162 78//162
f 78//163 77//163 81//163
f 79//164 78//164 82//164
f 80//165 79//165 83//165
f 82//166 86//166 87//166
f 83//167 87//167 88//167
f 81//168 85//168 86//168
f 88//169 87//169 91//169
f 86//170 85//170 89//170
f 87//171 86//171 90//171
f 90//172 89//172 93//172
f 91//173 90//173 94//173
f 92//174 91//174 95//174
f 95//175 99//175 100//175
f 93//176 97//176 98//176
f 94//177 98//177 99//177
f 98//178 97//178 101//178
f 99//179 98//179 102//179
f 100//180 99//180 103//180
f 102//181 106//181 107//181
f 103//182 107//182 108//182
f 101//183 105//183 106//183
f 108//184 107//184 111//184
f 106//185 105//185 109//185
f 107//186 106//186 110//186
f 110//187 109//187 113//187
f 111//188 110//188 114//188
f 112//189 111//189 115//189
f 60//190 64//190 68//190
f 68//191 72//191 76//191
f 80//192 84//192 88//192
f 68//193 76//193 80//193
f 116//194 60//194 68//194
f 108//195 112//195 116//195
f 100//196 104//196 108//196
f 92//197 96//197 100//197
f 80//198 88//198 92//198
f 116//199 68//199 80//199
f 100//200 108//200 116//200
f 80//201 92//201 100//201
f 115//202 59//202 60//202
f 113//203 117//203 58//203
f 114//204 58//204 59//204
o Spots
v 0.575000 2.680000 -0.295000
v 0.575000 2.840000 -0.295000
v 0.575000 2.680000 -0.385000
v 0.575000 2.840000 -0.385000
v 1.625000 2.680000 -0.295000
v 1.625000 2.840000 -0.295000
v 1.625000 2.680000 -0.385000
v 1.625000 2.840000 -0.385000
v 0.491635 2.680000 -0.641571
v 0.491635 2.840000 -0.641571
v 0.438734 2.680000 -0.714382
v 0.438734 2.840000 -0.714382
v 1.341103 2.680000 -1.258745
v 1.341103 2.840000 -1.258745
v 1.288202 2.680000 -1.331557
v 1.288202 2.840000 -1.331557
v 0.220482 2.680000 -0.872952
v 0.220482 2.840000 -0.872952
v 0.134887 2.680000 -0.900763
v 0.134887 2.840000 -0.900763
v 0.544950 2.680000 -1.871561
v 0.544950 2.840000 -1.871561
v 0.459355 2.680000 -1.899373
v 0.459355 2.840000 -1.899373
v -0.134887 2.680000 -0.900763
v -0.134887 2.840000 -0.900763
v -0.220482 2.680000 -0.872952
v -0.220482 2.840000 -0.872952
v -0.459355 2.680000 -1.899373
v -0.459355 2.840000 -1.899373
v -0.544950 2.680000 -1.871561
v -0.544950 2.840000 -1.871561
v -0.438734 2.680000 -0.714382
v -0.438734 2.840000 -0.714382
v -0.491635 2.680000 -0.641571
v -0.491635 2.840000 -0.641571
v -1.288202 2.680000 -1.331557
v -1.288202 2.840000 -1.331557
v -1.341103 2.680000 -1.258745
v -1.341103 2.840000 -1.258745
v -0.575000 2.680000 -0.385000
v -0.575000 2.840000 -0.385000
v -0.575000 2.680000 -0.295000
v -0.575000 2.840000 -0.295000
v -1.625000 2.680000 -0.385000
v -1.625000 2.840000 -0.385000
v -1.625000 2.680000 -0.295000
v -1.625000 2.840000 -0.295000
v -0.491635 2.680000 -0.038429
v -0.491635 2.840000 -0.038429
v -0.438734 2.680000 0.034382
v -0.438734 2.840000 0.034382
v -1.341103 2.680000 0.578745
v -1.341103 2.840000 0.578745
v -1.288202 2.680000 0.651557
v -1.288202 2.840000 0.651557
v -0.220482 2.680000 0.192952
v -0.220482 2.840000 0.192952
v -0.134887 2.680000 0.220763
v -0.134887 2.840000 0.220763
v -0.544950 2.680000 1.191561
v -0.544950 2.840000 1.191561
v -0.459355 2.680000 1.219373
v -0.459355 2.840000 1.219373
v 0.134887 2.680000 0.220763
v 0.134887 2.840000 0.220763
v 0.220482 2.680000 0.192952
v 0.220482 2.840000 0.192952
v 0.459355 2.680000 1.219373
v 0.459355 2.840000 1.219373
v 0.544950 2.680000 1.191561
v 0.544950 2.840000 1.191561
v 0.438734 2.680000 0.034382
v 0.438734 2.840000 0.034382
v 0.491635 2.680000 -0.038429
v 0.491635 2.840000 -0.038429
v 1.288202 2.680000 0.651557
v 1.288202 2.840000 0.651557
v 1.341103 2.680000 0.578745
v 1.341103 2.840000 0.578745
vn -1.0000 -0.0000 -0.0000
vn -0.0000 -0.0000 -1.0000
vn 1.0000 -0.0000 -0.0000
vn -0.0000 -0.0000 1.0000
vn -0.0000 -1.0000 -0.0000
vn -0.0000 1.0000 -0.0000
vn -0.8090 -0.0000 0.5878
vn -0.5878 -0.0000 -0.8090
vn 0.8090 -0.0000 -0.5878
vn 0.5878 -0.0000 0.8090
vn -0.3090 -0.0000 0.9511
vn -0.9511 -0.0000 -0.3090
vn 0.3090 -0.0000 -0.9511
vn 0.9511 -0.0000 0.3090
vn 0.3090 -0.0000 0.9511
vn -0.9511 -0.0000 0.3090
vn -0.3090 -0.0000 -0.9511
vn 0.9511 -0.0000 -0.3090
vn 0.8090 -0.0000 0.5878
vn -0.5878 -0.0000 0.8090
vn -0.8090 -0.0000 -0.5878
vn 0.5878 -0.0000 -0.8090
s 0
usemtl Spots
f 119//205 120//205 118//205
f 121//206 124//206 120//206
f 125//207 122//207 124//207
f 123//208 118//208 122//208
f 124//209 118//209 120//209
f 121//210 123//210 125//210
f 127//211 128//211 126//211
f 129//212 132//212 128//212
f 133//213 130//213 132//213
f 131//214 126//214 130//214
f 128//209 130//209 126//209
f 129//210 131//210 133//210
f 135//215 136//215 134//215
f 137//216 140//216 136//216
f 141//217 138//217 140//217
f 139//218 134//218 138//218
f 140//209 134//209 136//209
f 137//210 139//210 141//210
f 143//219 144//219 142//219
f 145//220 148//220 144//220
f 149//221 146//221 148//221
f 147//222 142//222 146//222
f 148//209 142//209 144//209
f 145//210 147//210 149//210
f 151//223 152//223 150//223
f 153//224 156//224 152//224
f 157//225 154//225 156//225
f 155//226 150//226 154//226
f 156//209 150//209 152//209
f 153//210 155//210 157//210
f 159//207 160//207 158//207
f 161//208 164//208 160//208
f 165//205 162//205 164//205
f 163//206 158//206 162//206
f 164//209 158//209 160//209
f 161//210 163//210 165//210
f 167//213 168//213 166//213
f 169//214 172//214 168//214
f 173//211 170//211 172//211
f 171//212 166//212 170//212
f 168//209 170//209 166//209
f 169//210 171//210 173//210
f 175//217 176//217 174//217
f 177//218 180//218 176//218
f 181//215 178//215 180//215
f 179//216 174//216 178//216
f 180//209 174//209 176//209
f 177//210 179//210 181//210
f 183//221 184//221 182//221
f 185//222 188//222 184//222
f 189//219 186//219 188//219
f 187//220 182//220 186//220
f 184//209 186//209 182//209
f 189//210 183//210 187//210
f 191//225 192//225 190//225
f 193//226 196//226 192//226
f 197//223 194//223 196//223
f 195//224 190//224 194//224
f 196//209 190//209 192//209
f 193//210 195//210 197//210
f 119//205 121//205 120//205
f 121//206 125//206 124//206
f 125//207 123//207 122//207
f 123//208 119//208 118//208
f 124//209 122//209 118//209
f 121//210 119//210 123//210
f 127//211 129//211 128//211
f 129//212 133//212 132//212
f 133//213 131//213 130//213
f 131//214 127//214 126//214
f 128//209 132//209 130//209
f 129//210 127//210 131//210
f 135//215 137//215 136//215
f 137//216 141//216 140//216
f 141//217 139//217 138//217
f 139//218 135//218 134//218
f 140//209 138//209 134//209
f 137//210 135//210 139//210
f 143//219 145//219 144//219
f 145//220 149//220 148//220
f 149//221 147//221 146//221
f 147//222 143//222 142//222
f 148//209 146//209 142//209
f 145//210 143//210 147//210
f 151//223 153//223 152//223
f 153//224 157//224 156//224
f 157//225 155//225 154//225
f 155//226 151//226 150//226
f 156//209 154//209 150//209
f 153//210 151//210 155//210
f 159//207 161//207 160//207
f 161//208 165//208 164//208
f 165//205 163//205 162//205
f 163//206 159//206 158//206
f 164//209 162//209 158//209
f 161//210 159//210 163//210
f 167//213 169//213 168//213
f 169//214 173//214 172//214
f 173//211 171//211 170//211
f 171//212 167//212 166//212
f 168//209 172//209 170//209
f 169//210 167//210 171//210
f 175//217 177//217 176//217
f 177//218 181//218 180//218
f 181//215 179//215 178//215
f 179//216 175//216 174//216
f 180//209 178//209 174//209
f 177//210 175//210 179//210
f 183//221 185//221 184//221
f 185//222 189//222 188//222
f 189//219 187//219 186//219
f 187//220 183//220 182//220
f 184//209 188//209 186//209
f 189//210 185//210 183//210
f 191//225 193//225 192//225
f 193//226 197//226 196//226
f 197//223 195//223 194//223
f 195//224 191//224 190//224
f 196//209 194//209 190//209
f 193//210 191//210 195//210
o Door
v -0.350000 0.440000 1.010000
v -0.350000 1.270000 1.010000
v -0.350000 0.440000 0.790000
v -0.350000 1.270000 0.790000
v 0.350000 0.440000 1.010000
v 0.350000 1.270000 1.010000
v 0.350000 0.440000 0.790000
v 0.350000 1.270000 0.790000
v 0.000000 1.620000 0.790000
v 0.000000 1.620000 1.010000
v 0.205725 1.553156 0.790000
v 0.205725 1.553156 1.010000
v 0.332870 1.378156 0.790000
v 0.332870 1.378156 1.010000
v 0.332870 1.161844 0.790000
v 0.332870 1.161844 1.010000
v 0.205725 0.986844 0.790000
v 0.205725 0.986844 1.010000
v 0.000000 0.920000 0.790000
v 0.000000 0.920000 1.010000
v -0.205725 0.986844 0.790000
v -0.205725 0.986844 1.010000
v -0.332870 1.161844 0.790000
v -0.332870 1.161844 1.010000
v -0.332870 1.378156 0.790000
v -0.332870 1.378156 1.010000
v -0.205725 1.553156 0.790000
v -0.205725 1.553156 1.010000
vn -1.0000 -0.0000 -0.0000
vn -0.0000 -0.0000 -1.0000
vn 1.0000 -0.0000 -0.0000
vn -0.0000 -0.0000 1.0000
vn -0.0000 -1.0000 -0.0000
vn -0.0000 1.0000 -0.0000
vn 0.3090 0.9511 -0.0000
vn 0.8090 0.5878 -0.0000
vn 0.8090 -0.5878 -0.0000
vn 0.3090 -0.9511 -0.0000
vn -0.3090 -0.9511 -0.0000
vn -0.8090 -0.5878 -0.0000
vn -0.8090 0.5878 -0.0000
vn -0.3090 0.9511 -0.0000
s 0
usemtl Door
f 199//227 200//227 198//227
f 201//228 204//228 200//228
f 205//229 202//229 204//229
f 203//230 198//230 202//230
f 204//231 198//231 200//231
f 201//232 203//232 205//232
f 207//233 208//233 206//233
f 209//234 210//234 208//234
f 211//229 212//229 210//229
f 213//235 214//235 212//235
f 215//236 216//236 214//236
f 217//237 218//237 216//237
f 219//238 220//238 218//238
f 221//227 222//227 220//227
f 223//230 215//230 211//230
f 223//239 224//239 222//239
f 225//240 206//240 224//240
f 212//228 220//228 224//228
f 199//227 201//227 200//227
f 201//228 205//228 204//228
f 205//229 203//229 202//229
f 203//230 199//230 198//230
f 204//231 202//231 198//231
f 201//232 199//232 203//232
f 207//233 209//233 208//233
f 209//234 211//234 210//234
f 211//229 213//229 212//229
f 213//235 215//235 214//235
f 215//236 217//236 216//236
f 217//237 219//237 218//237
f 219//238 221//238 220//238
f 221//227 223//227 222//227
f 211//230 209//230 207//230
f 207//230 225//230 223//230
f 223//230 221//230 219//230
f 219//230 217//230 215//230
f 215//230 213//230 211//230
f 211//230 207//230 223//230
f 223//230 219//230 215//230
f 223//239 225//239 224//239
f 225//240 207//240 206//240
f 224//228 206//228 208//228
f 208//228 210//228 212//228
f 212//228 214//228 216//228
f 216//228 218//228 220//228
f 220//228 222//228 224//228
f 224//228 208//228 212//228
f 212//228 216//228 220//228
o Windows
v -0.420000 2.150000 0.740000
v -0.420000 2.150000 0.940000
v -0.308321 2.113713 0.740000
v -0.308321 2.113713 0.940000
v -0.239299 2.018713 0.740000
v -0.239299 2.018713 0.940000
v -0.239299 1.901287 0.740000
v -0.239299 1.901287 0.940000
v -0.308321 1.806287 0.740000
v -0.308321 1.806287 0.940000
v -0.420000 1.770000 0.740000
v -0.420000 1.770000 0.940000
v -0.531679 1.806287 0.740000
v -0.531679 1.806287 0.940000
v -0.600701 1.901287 0.740000
v -0.600701 1.901287 0.940000
v -0.600701 2.018713 0.740000
v -0.600701 2.018713 0.940000
v -0.531679 2.113713 0.740000
v -0.531679 2.113713 0.940000
v 0.460000 2.400000 0.700000
v 0.460000 2.400000 0.900000
v 0.554046 2.369443 0.700000
v 0.554046 2.369443 0.900000
v 0.612169 2.289443 0.700000
v 0.612169 2.289443 0.900000
v 0.612169 2.190557 0.700000
v 0.612169 2.190557 0.900000
v 0.554046 2.110557 0.700000
v 0.554046 2.110557 0.900000
v 0.460000 2.080000 0.700000
v 0.460000 2.080000 0.900000
v 0.365954 2.110557 0.700000
v 0.365954 2.110557 0.900000
v 0.307831 2.190557 0.700000
v 0.307831 2.190557 0.900000
v 0.307831 2.289443 0.700000
v 0.307831 2.289443 0.900000
v 0.365954 2.369443 0.700000
v 0.365954 2.369443 0.900000
vn 0.3090 0.9511 -0.0000
vn 0.8090 0.5878 -0.0000
vn 1.0000 -0.0000 -0.0000
vn 0.8090 -0.5878 -0.0000
vn 0.3090 -0.9511 -0.0000
vn -0.3090 -0.9511 -0.0000
vn -0.8090 -0.5878 -0.0000
vn -1.0000 -0.0000 -0.0000
vn -0.0000 -0.0000 1.0000
vn -0.8090 0.5878 -0.0000
vn -0.3090 0.9511 -0.0000
vn -0.0000 -0.0000 -1.0000
s 0
usemtl Windows
f 227//241 228//241 226//241
f 228//242 231//242 230//242
f 231//243 232//243 230//243
f 232//244 235//244 234//244
f 235//245 236//245 234//245
f 237//246 238//246 236//246
f 239//247 240//247 238//247
f 241//248 242//248 240//248
f 243//249 235//249 231//249
f 243//250 244//250 242//250
f 245//251 226//251 244//251
f 232//252 240//252 244//252
f 247//241 248//241 246//241
f 249//242 250//242 248//242
f 251//243 252//243 250//243
f 253//244 254//244 252//244
f 254//245 257//245 256//245
f 256//246 259//246 258//246
f 259//247 260//247 258//247
f 261//248 262//248 260//248
f 263//249 255//249 251//249
f 263//250 264//250 262//250
f 265//251 246//251 264//251
f 252//252 260//252 264//252
f 227//241 229//241 228//241
f 228//242 229//242 231//242
f 231//243 233//243 232//243
f 232//244 233//244 235//244
f 235//245 237//245 236//245
f 237//246 239//246 238//246
f 239//247 241//247 240//247
f 241//248 243//248 242//248
f 231//249 229//249 227//249
f 227//249 245//249 243//249
f 243//249 241//249 239//249
f 239//249 237//249 235//249
f 235//249 233//249 231//249
f 231//249 227//249 243//249
f 243//249 239//249 235//249
f 243//250 245//250 244//250
f 245//251 227//251 226//251
f 244//252 226//252 228//252
f 228//252 230//252 232//252
f 232//252 234//252 236//252
f 236//252 238//252 240//252
f 240//252 242//252 244//252
f 244//252 228//252 232//252
f 232//252 236//252 240//252
f 247//241 249//241 248//241
f 249//242 251//242 250//242
f 251//243 253//243 252//243
f 253//244 255//244 254//244
f 254//245 255//245 257//245
f 256//246 257//246 259//246
f 259//247 261//247 260//247
f 261//248 263//248 262//248
f 251//249 249//249 247//249
f 247//249 265//249 263//249
f 263//249 261//249 259//249
f 259//249 257//249 255//249
f 255//249 253//249 251//249
f 251//249 247//249 263//249
f 263//249 259//249 255//249
f 263//250 265//250 264//250
f 265//251 247//251 246//251
f 264//252 246//252 248//252
f 248//252 250//252 252//252
f 252//252 254//252 256//252
f 256//252 258//252 260//252
f 260//252 262//252 264//252
f 264//252 248//252 252//252
f 252//252 256//252 260//252
o Glow
v 1.548505 2.124328 -0.653898
v 1.685989 2.229357 -0.554011
v 1.495992 2.229357 -0.492276
v 1.378564 2.229357 -0.653898
v 1.495992 2.229357 -0.815519
v 1.685989 2.229357 -0.753784
v 1.601018 2.399299 -0.492276
v 1.411021 2.399299 -0.554011
v 1.411021 2.399299 -0.753784
v 1.601018 2.399299 -0.815519
v 1.718446 2.399299 -0.653898
v 1.548505 2.504328 -0.653898
v 1.548505 2.314328 -0.688898
v 1.548505 2.860000 -0.688898
v 1.581792 2.314328 -0.664713
v 1.581792 2.860000 -0.664713
v 1.569078 2.314328 -0.625582
v 1.569078 2.860000 -0.625582
v 1.527933 2.314328 -0.625582
v 1.527933 2.860000 -0.625582
v 1.515218 2.314328 -0.664713
v 1.515218 2.860000 -0.664713
v 0.720062 2.031511 -1.746382
v 0.857546 2.136540 -1.646495
v 0.667549 2.136540 -1.584760
v 0.550121 2.136540 -1.746382
v 0.667549 2.136540 -1.908004
v 0.857546 2.136540 -1.846269
v 0.772575 2.306482 -1.584760
v 0.582578 2.306482 -1.646495
v 0.582578 2.306482 -1.846269
v 0.772575 2.306482 -1.908004
v 0.890003 2.306482 -1.746382
v 0.720062 2.411511 -1.746382
v 0.720062 2.221511 -1.781382
v 0.720062 2.860000 -1.781382
v 0.753349 2.221511 -1.757198
v 0.753349 2.860000 -1.757198
v 0.740635 2.221511 -1.718066
v 0.740635 2.860000 -1.718066
v 0.699490 2.221511 -1.718066
v 0.699490 2.860000 -1.718066
v 0.686775 2.221511 -1.757198
v 0.686775 2.860000 -1.757198
v -0.650602 2.375107 -1.779832
v -0.513118 2.480136 -1.679945
v -0.703115 2.480136 -1.618211
v -0.820543 2.480136 -1.779832
v -0.703115 2.480136 -1.941454
v -0.513118 2.480136 -1.879719
v -0.598089 2.650078 -1.618211
v -0.788086 2.650078 -1.679945
v -0.788086 2.650078 -1.879719
v -0.598089 2.650078 -1.941454
v -0.480662 2.650078 -1.779832
v -0.650602 2.755107 -1.779832
v -0.650602 2.565107 -1.814832
v -0.650602 2.860000 -1.814832
v -0.617315 2.565107 -1.790648
v -0.617315 2.860000 -1.790648
v -0.630030 2.565107 -1.751517
v -0.630030 2.860000 -1.751517
v -0.671175 2.565107 -1.751517
v -0.671175 2.860000 -1.751517
v -0.683889 2.565107 -1.790648
v -0.683889 2.860000 -1.790648
v -1.531350 2.315010 -0.729059
v -1.393866 2.420039 -0.629173
v -1.583863 2.420039 -0.567438
v -1.701291 2.420039 -0.729059
v -1.583863 2.420039 -0.890681
v -1.393866 2.420039 -0.828946
v -1.478837 2.589981 -0.567438
v -1.668834 2.589981 -0.629173
v -1.668834 2.589981 -0.828946
v -1.478837 2.589981 -0.890681
v -1.361409 2.589981 -0.729059
v -1.531350 2.695010 -0.729059
v -1.531350 2.505009 -0.764059
v -1.531350 2.860000 -0.764059
v -1.498063 2.505009 -0.739875
v -1.498063 2.860000 -0.739875
v -1.510778 2.505009 -0.700744
v -1.510778 2.860000 -0.700744
v -1.551922 2.505009 -0.700744
v -1.551922 2.860000 -0.700744
v -1.564637 2.505009 -0.739875
v -1.564637 2.860000 -0.739875
v -1.258960 1.998159 0.614683
v -1.121476 2.103188 0.714570
v -1.311473 2.103188 0.776305
v -1.428901 2.103188 0.614683
v -1.311473 2.103188 0.453062
v -1.121476 2.103188 0.514796
v -1.206447 2.273130 0.776305
v -1.396444 2.273130 0.714570
v -1.396444 2.273130 0.514796
v -1.206447 2.273130 0.453062
v -1.089019 2.273130 0.614683
v -1.258960 2.378159 0.614683
v -1.258960 2.188159 0.579683
v -1.258960 2.860000 0.579683
v -1.225673 2.188159 0.603868
v -1.225673 2.860000 0.603868
v -1.238387 2.188159 0.642999
v -1.238387 2.860000 0.642999
v -1.279532 2.188159 0.642999
v -1.279532 2.860000 0.642999
v -1.292247 2.188159 0.603868
v -1.292247 2.860000 0.603868
v -0.038547 2.199268 1.239530
v 0.098937 2.304297 1.339417
v -0.091061 2.304297 1.401151
v -0.208488 2.304297 1.239530
v -0.091061 2.304297 1.077908
v 0.098937 2.304297 1.139643
v 0.013966 2.474239 1.401151
v -0.176031 2.474239 1.339417
v -0.176031 2.474239 1.139643
v 0.013966 2.474239 1.077908
v 0.131393 2.474239 1.239530
v -0.038547 2.579268 1.239530
v -0.038547 2.389268 1.204530
v -0.038547 2.860000 1.204530
v -0.005260 2.389268 1.228714
v -0.005260 2.860000 1.228714
v -0.017975 2.389268 1.267845
v -0.017975 2.860000 1.267845
v -0.059120 2.389268 1.267845
v -0.059120 2.860000 1.267845
v -0.071834 2.389268 1.228714
v -0.071834 2.860000 1.228714
v 1.210892 2.426617 0.674958
v 1.348376 2.531646 0.774845
v 1.158379 2.531646 0.836580
v 1.040951 2.531646 0.674958
v 1.158379 2.531646 0.513337
v 1.348376 2.531646 0.575071
v 1.263405 2.701588 0.836580
v 1.073408 2.701588 0.774845
v 1.073408 2.701588 0.575071
v 1.263405 2.701588 0.513337
v 1.380833 2.701588 0.674958
v 1.210892 2.806617 0.674958
v 1.210892 2.616617 0.639958
v 1.210892 2.860000 0.639958
v 1.244179 2.616617 0.664143
v 1.244179 2.860000 0.664143
v 1.231465 2.616617 0.703274
v 1.231465 2.860000 0.703274
v 1.190320 2.616617 0.703274
v 1.190320 2.860000 0.703274
v 1.177605 2.616617 0.664143
v 1.177605 2.860000 0.664143
vn 0.1876 -0.7947 0.5774
vn 0.6071 -0.7947 -0.0000
vn -0.4911 -0.7947 0.3568
vn -0.4911 -0.7947 -0.3568
vn 0.1876 -0.7947 -0.5774
vn 0.9822 -0.1876 -0.0000
vn 0.3035 -0.1876 0.9342
vn -0.7946 -0.1876 0.5774
vn -0.7946 -0.1876 -0.5774
vn 0.3035 -0.1876 -0.9342
vn 0.7946 0.1876 0.5774
vn -0.3035 0.1876 0.9342
vn -0.9822 0.1876 -0.0000
vn -0.3035 0.1876 -0.9342
vn 0.7946 0.1876 -0.5774
vn 0.4911 0.7947 0.3568
vn -0.1876 0.7947 0.5774
vn -0.6071 0.7947 -0.0000
vn -0.1876 0.7947 -0.5774
vn 0.4911 0.7947 -0.3568
vn 0.5878 -0.0000 -0.8090
vn 0.9511 -0.0000 0.3090
vn -0.0000 -0.0000 1.0000
vn -0.0000 1.0000 -0.0000
vn -0.9511 -0.0000 0.3090
vn -0.5878 -0.0000 -0.8090
vn -0.0000 -1.0000 -0.0000
vn 0.7947 0.1876 0.5774
vn 0.7947 0.1876 -0.5774
s 0
usemtl Glow
f 266//253 267//253 268//253
f 267//254 266//254 271//254
f 266//255 268//255 269//255
f 266//256 269//256 270//256
f 266//257 270//257 271//257
f 267//258 271//258 276//258
f 268//259 267//259 272//259
f 269//260 268//260 273//260
f 270//261 269//261 274//261
f 271//262 270//262 275//262
f 267//263 276//263 272//263
f 268//264 272//264 273//264
f 269//265 273//265 274//265
f 270//266 274//266 275//266
f 271//267 275//267 276//267
f 272//268 276//268 277//268
f 273//269 272//269 277//269
f 274//270 273//270 277//270
f 275//271 274//271 277//271
f 276//272 275//272 277//272
f 279//273 280//273 278//273
f 281//274 282//274 280//274
f 283//275 284//275 282//275
f 279//276 285//276 283//276
f 285//277 286//277 284//277
f 287//278 278//278 286//278
f 280//279 284//279 286//279
f 288//253 289//253 290//253
f 289//254 288//254 293//254
f 288//255 290//255 291//255
f 288//256 291//256 292//256
f 288//257 292//257 293//257
f 289//258 293//258 298//258
f 290//259 289//259 294//259
f 291//260 290//260 295//260
f 292//261 291//261 296//261
f 293//262 292//262 297//262
f 289//263 298//263 294//263
f 290//264 294//264 295//264
f 291//265 295//265 296//265
f 292//266 296//266 297//266
f 293//267 297//267 298//267
f 294//268 298//268 299//268
f 295//269 294//269 299//269
f 296//270 295//270 299//270
f 297//271 296//271 299//271
f 298//272 297//272 299//272
f 301//273 302//273 300//273
f 303//274 304//274 302//274
f 305//275 306//275 304//275
f 301//276 307//276 305//276
f 307//277 308//277 306//277
f 309//278 300//278 308//278
f 302//279 306//279 308//279
f 310//253 311//253 312//253
f 311//254 310//254 315//254
f 310//255 312//255 313//255
f 310//256 313//256 314//256
f 310//257 314//257 315//257
f 311//258 315//258 320//258
f 312//259 311//259 316//259
f 313//260 312//260 317//260
f 314//261 313//261 318//261
f 315//262 314//262 319//262
f 311//263 320//263 316//263
f 312//264 316//264 317//264
f 313//265 317//265 318//265
f 314//266 318//266 319//266
f 315//267 319//267 320//267
f 316//268 320//268 321//268
f 317//269 316//269 321//269
f 318//270 317//270 321//270
f 319//271 318//271 321//271
f 320//272 319//272 321//272
f 323//273 324//273 322//273
f 325//274 326//274 324//274
f 327//275 328//275 326//275
f 323//276 329//276 327//276
f 329//277 330//277 328//277
f 331//278 322//278 330//278
f 324//279 328//279 330//279
f 332//253 333//253 334//253
f 333//254 332//254 337//254
f 332//255 334//255 335//255
f 332//256 335//256 336//256
f 332//257 336//257 337//257
f 333//258 337//258 342//258
f 334//259 333//259 338//259
f 335//260 334//260 339//260
f 336//261 335//261 340//261
f 337//262 336//262 341//262
f 333//263 342//263 338//263
f 334//264 338//264 339//264
f 335//265 339//265 340//265
f 336//266 340//266 341//266
f 337//267 341//267 342//267
f 338//268 342//268 343//268
f 339//269 338//269 343//269
f 340//270 339//270 343//270
f 341//271 340//271 343//271
f 342//272 341//272 343//272
f 345//273 346//273 344//273
f 347//274 348//274 346//274
f 349//275 350//275 348//275
f 345//276 351//276 349//276
f 351//277 352//277 350//277
f 353//278 344//278 352//278
f 346//279 350//279 352//279
f 354//253 355//253 356//253
f 355//254 354//254 359//254
f 354//255 356//255 357//255
f 354//256 357//256 358//256
f 354//257 358//257 359//257
f 355//258 359//258 364//258
f 356//259 355//259 360//259
f 357//260 356//260 361//260
f 358//261 357//261 362//261
f 359//262 358//262 363//262
f 355//263 364//263 360//263
f 356//264 360//264 361//264
f 357//265 361//265 362//265
f 358//266 362//266 363//266
f 359//267 363//267 364//267
f 360//268 364//268 365//268
f 361//269 360//269 365//269
f 362//270 361//270 365//270
f 363//271 362//271 365//271
f 364//272 363//272 365//272
f 367//273 368//273 366//273
f 369//274 370//274 368//274
f 371//275 372//275 370//275
f 367//276 373//276 371//276
f 373//277 374//277 372//277
f 375//278 366//278 374//278
f 368//279 372//279 374//279
f 376//253 377//253 378//253
f 377//254 376//254 381//254
f 376//255 378//255 379//255
f 376//256 379//256 380//256
f 376//257 380//257 381//257
f 377//258 381//258 386//258
f 378//259 377//259 382//259
f 379//260 378//260 383//260
f 380//261 379//261 384//261
f 381//262 380//262 385//262
f 377//280 386//280 382//280
f 378//264 382//264 383//264
f 379//265 383//265 384//265
f 380//266 384//266 385//266
f 381//267 385//267 386//267
f 382//268 386//268 387//268
f 383//269 382//269 387//269
f 384//270 383//270 387//270
f 385//271 384//271 387//271
f 386//272 385//272 387//272
f 389//273 390//273 388//273
f 391//274 392//274 390//274
f 393//275 394//275 392//275
f 389//276 395//276 393//276
f 395//277 396//277 394//277
f 397//278 388//278 396//278
f 390//279 394//279 396//279
f 398//253 399//253 400//253
f 399//254 398//254 403//254
f 398//255 400//255 401//255
f 398//256 401//256 402//256
f 398//257 402//257 403//257
f 399//258 403//258 408//258
f 400//259 399//259 404//259
f 401//260 400//260 405//260
f 402//261 401//261 406//261
f 403//262 402//262 407//262
f 399//280 408//280 404//280
f 400//264 404//264 405//264
f 401//265 405//265 406//265
f 402//266 406//266 407//266
f 403//281 407//281 408//281
f 404//268 408//268 409//268
f 405//269 404//269 409//269
f 406//270 405//270 409//270
f 407//271 406//271 409//271
f 408//272 407//272 409//272
f 411//273 412//273 410//273
f 413//274 414//274 412//274
f 415//275 416//275 414//275
f 411//276 417//276 415//276
f 417//277 418//277 416//277
f 419//278 410//278 418//278
f 412//279 416//279 418//279
f 279//273 281//273 280//273
f 281//274 283//274 282//274
f 283//275 285//275 284//275
f 283//276 281//276 279//276
f 279//276 287//276 285//276
f 285//277 287//277 286//277
f 287//278 279//278 278//278
f 286//279 278//279 280//279
f 280//279 282//279 284//279
f 301//273 303//273 302//273
f 303//274 305//274 304//274
f 305//275 307//275 306//275
f 305//276 303//276 301//276
f 301//276 309//276 307//276
f 307//277 309//277 308//277
f 309//278 301//278 300//278
f 308//279 300//279 302//279
f 302//279 304//279 306//279
f 323//273 325//273 324//273
f 325//274 327//274 326//274
f 327//275 329//275 328//275
f 327//276 325//276 323//276
f 323//276 331//276 329//276
f 329//277 331//277 330//277
f 331//278 323//278 322//278
f 330//279 322//279 324//279
f 324//279 326//279 328//279
f 345//273 347//273 346//273
f 347//274 349//274 348//274
f 349//275 351//275 350//275
f 349//276 347//276 345//276
f 345//276 353//276 351//276
f 351//277 353//277 352//277
f 353//278 345//278 344//278
f 352//279 344//279 346//279
f 346//279 348//279 350//279
f 367//273 369//273 368//273
f 369//274 371//274 370//274
f 371//275 373//275 372//275
f 371//276 369//276 367//276
f 367//276 375//276 373//276
f 373//277 375//277 374//277
f 375//278 367//278 366//278
f 374//279 366//279 368//279
f 368//279 370//279 372//279
f 389//273 391//273 390//273
f 391//274 393//274 392//274
f 393//275 395//275 394//275
f 393//276 391//276 389//276
f 389//276 397//276 395//276
f 395//277 397//277 396//277
f 397//278 389//278 388//278
f 396//279 388//279 390//279
f 390//279 392//279 394//279
f 411//273 413//273 412//273
f 413//274 415//274 414//274
f 415//275 417//275 416//275
f 415//276 413//276 411//276
f 411//276 419//276 417//276
f 417//277 419//277 418//277
f 419//278 411//278 410//278
f 418//279 410//279 412//279
f 412//279 414//279 416//279
o Trim
v 1.002586 0.300000 -1.400159
v 1.096600 0.276110 -1.424145
v 1.152705 0.285235 -1.341965
v 1.093366 0.314765 -1.267188
v 1.000587 0.323890 -1.303154
v 1.289531 1.446005 -1.625012
v -1.021814 0.300000 -1.386189
v -1.015575 0.276110 -1.483014
v -0.920079 0.285235 -1.510978
v -0.867299 0.314765 -1.431436
v -0.930175 0.323890 -1.354312
v -1.133168 1.365176 -1.707739
v -1.634102 0.300000 0.543447
v -1.724260 0.276110 0.507592
v -1.721345 0.285235 0.408129
v -1.629386 0.314765 0.382512
v -1.575467 0.323890 0.466143
v -1.883315 1.059765 0.524634
v 0.011883 0.300000 1.722059
v -0.050077 0.276110 1.796723
v -0.143771 0.285235 1.763216
v -0.139718 0.314765 1.667841
v -0.043518 0.323890 1.642405
v -0.090573 1.634760 2.130966
v 1.641447 0.300000 0.520843
v 1.693311 0.276110 0.602844
v 1.632490 0.285235 0.681598
v 1.543036 0.314765 0.648270
v 1.548572 0.323890 0.548919
v 1.817525 1.009810 0.677152
vn -0.2737 -0.1187 -0.9545
vn 0.8160 -0.2259 -0.5320
vn 0.7926 0.0547 0.6073
vn -0.1837 -0.9553 0.2315
vn -0.3117 0.3353 0.8891
vn -0.9707 0.2281 -0.0762
vn -0.9928 -0.1146 -0.0357
vn -0.2545 -0.2217 -0.9413
vn 0.8216 0.0588 -0.5670
vn 0.1634 -0.9553 0.2462
vn 0.7483 0.3393 0.5699
vn -0.3730 0.2322 0.8983
vn -0.3472 -0.0908 0.9334
vn -0.9791 -0.1977 -0.0468
vn -0.2919 0.0823 -0.9529
vn 0.2847 -0.9553 -0.0793
vn 0.7649 0.3623 -0.5327
vn 0.7307 0.2554 0.6331
vn 0.7829 -0.1265 0.6092
vn -0.3475 -0.2338 0.9081
vn -0.9985 0.0470 -0.0279
vn 0.0125 -0.9553 -0.2953
vn -0.2704 0.3277 -0.9053
vn 0.8305 0.2205 -0.5115
vn 0.8307 -0.0849 -0.5502
vn 0.7659 -0.1918 0.6137
vn -0.3221 0.0880 0.9426
vn -0.2769 -0.9553 -0.1032
vn -0.9297 0.3679 -0.0180
vn -0.2172 0.2610 -0.9406
vn 0.0126 -0.9553 -0.2953
s 0
usemtl Trim
f 420//282 425//282 421//282
f 421//283 425//283 422//283
f 422//284 425//284 423//284
f 421//285 423//285 424//285
f 423//286 425//286 424//286
f 424//287 425//287 420//287
f 426//288 431//288 427//288
f 427//289 431//289 428//289
f 428//290 431//290 429//290
f 427//291 429//291 430//291
f 429//292 431//292 430//292
f 430//293 431//293 426//293
f 432//294 437//294 433//294
f 433//295 437//295 434//295
f 434//296 437//296 435//296
f 433//297 435//297 436//297
f 435//298 437//298 436//298
f 436//299 437//299 432//299
f 438//300 443//300 439//300
f 439//301 443//301 440//301
f 440//302 443//302 441//302
f 439//303 441//303 442//303
f 441//304 443//304 442//304
f 442//305 443//305 438//305
f 444//306 449//306 445//306
f 445//307 449//307 446//307
f 446//308 449//308 447//308
f 445//309 447//309 448//309
f 447//310 449//310 448//310
f 448//311 449//311 444//311
f 424//285 420//285 421//285
f 421//285 422//285 423//285
f 430//291 426//291 427//291
f 427//291 428//291 429//291
f 436//297 432//297 433//297
f 433//297 434//297 435//297
f 442//312 438//312 439//312
f 439//303 440//303 441//303
f 448//309 444//309 445//309
f 445//309 446//309 447//309
