# Blender 5.2.1 LTS
# www.blender.org
mtllib NestTundra.mtl
o Rim
v 1.518243 0.088654 0.488487
v 1.478507 0.253911 0.485170
v 1.578226 0.088654 -0.229966
v 1.538490 0.253911 -0.233284
v 2.251065 0.266089 0.549670
v 2.211329 0.431346 0.546352
v 2.311049 0.266089 -0.168783
v 2.271312 0.431346 -0.172101
v 1.408745 -0.039672 -0.895080
v 1.353357 0.111926 -0.841693
v 0.946306 -0.039672 -1.374858
v 0.890918 0.111926 -1.321472
v 2.044034 0.408074 -1.507409
v 1.988646 0.559672 -1.454023
v 1.581595 0.408074 -1.987188
v 1.526207 0.559672 -1.933801
v 0.566468 -0.054287 -1.458049
v 0.554471 0.096619 -1.380697
v -0.098193 -0.054287 -1.561138
v -0.110190 0.096619 -1.483785
v 0.707607 0.423381 -2.368034
v 0.695610 0.574287 -2.290681
v 0.042946 0.423381 -2.471123
v 0.030948 0.574287 -2.393770
v -0.626908 -0.023124 -1.494467
v -0.590763 0.133326 -1.438636
v -1.106946 -0.023124 -1.183688
v -1.070801 0.133326 -1.127857
v -1.150776 0.386674 -2.303646
v -1.114630 0.543124 -2.247815
v -1.630814 0.386674 -1.992867
v -1.594668 0.543124 -1.937036
v -1.297449 -0.035299 -0.825132
v -1.229946 0.118882 -0.801226
v -1.527568 -0.035299 -0.175366
v -1.460065 0.118882 -0.151459
v -2.183168 0.401118 -1.138815
v -2.115665 0.555299 -1.114909
v -2.413287 0.401118 -0.489049
v -2.345784 0.555299 -0.465142
v -1.669935 -0.004651 0.281848
v -1.607773 0.151432 0.255883
v -1.374264 -0.004651 0.989706
v -1.312103 0.151432 0.963741
v -2.467843 0.368568 0.615132
v -2.405681 0.524651 0.589167
v -2.172173 0.368568 1.322990
v -2.110011 0.524651 1.297025
v -1.059239 0.040261 1.095662
v -1.034736 0.203794 1.056212
v -0.512647 0.040261 1.435151
v -0.488144 0.203794 1.395700
v -1.571916 0.316206 1.921096
v -1.547413 0.479739 1.881645
v -1.025323 0.316206 2.260585
v -1.000820 0.479739 2.221134
v -0.100056 -0.072852 1.546489
v -0.110130 0.073788 1.461076
v 0.457126 -0.072852 1.480768
v 0.447051 0.073788 1.395356
v 0.003615 0.446212 2.425412
v -0.006460 0.592852 2.340000
v 0.560796 0.446212 2.359691
v 0.550722 0.592852 2.274279
v 0.903762 -0.021444 1.191082
v 0.853265 0.134725 1.146797
v 1.298862 -0.021444 0.740553
v 1.248365 0.134725 0.696269
v 1.614770 0.385275 1.814615
v 1.564273 0.541444 1.770330
v 2.009871 0.385275 1.364086
v 1.959373 0.541444 1.319802
vn -0.9687 -0.2346 -0.0809
vn 0.0832 -0.0000 -0.9965
vn 0.9687 0.2346 0.0809
vn -0.0832 -0.0000 0.9965
vn 0.2337 -0.9721 0.0195
vn -0.2337 0.9721 -0.0195
vn -0.6421 -0.4525 0.6189
vn -0.6940 -0.0000 -0.7200
vn 0.6421 0.4525 -0.6189
vn 0.6940 -0.0000 0.7200
vn 0.3258 -0.8918 -0.3140
vn -0.3258 0.8918 0.3140
vn -0.1361 -0.4605 0.8772
vn -0.9882 -0.0000 -0.1533
vn 0.1361 0.4605 -0.8772
vn 0.9882 -0.0000 0.1533
vn 0.0706 -0.8877 -0.4550
vn -0.0706 0.8877 0.4550
vn 0.5001 -0.3912 0.7725
vn -0.8394 -0.0000 0.5435
vn -0.5001 0.3912 -0.7725
vn 0.8394 -0.0000 -0.5435
vn -0.2126 -0.9203 -0.3284
vn 0.2126 0.9203 0.3284
vn 0.8549 -0.4212 0.3028
vn -0.3338 -0.0000 0.9426
vn -0.8549 0.4212 -0.3028
vn 0.3338 -0.0000 -0.9426
vn -0.3971 -0.9069 -0.1406
vn 0.3971 0.9069 0.1406
vn 0.8472 -0.3963 -0.3539
vn 0.3854 -0.0000 0.9227
vn -0.8472 0.3963 0.3539
vn -0.3854 -0.0000 -0.9227
vn -0.3657 -0.9181 0.1527
vn 0.3657 0.9181 -0.1527
vn 0.5075 -0.2732 -0.8172
vn 0.8495 -0.0000 0.5276
vn -0.5075 0.2732 0.8172
vn -0.8495 -0.0000 -0.5276
vn -0.1441 -0.9620 0.2321
vn 0.1441 0.9620 -0.2321
vn -0.1010 -0.5059 -0.8566
vn 0.9931 -0.0000 -0.1171
vn 0.1010 0.5059 0.8566
vn -0.9931 -0.0000 0.1171
vn 0.0593 -0.8626 0.5024
vn -0.0593 0.8626 -0.5024
vn -0.6907 -0.3951 -0.6057
vn 0.6593 -0.0000 -0.7518
vn 0.6907 0.3951 0.6057
vn -0.6593 -0.0000 0.7518
vn 0.2970 -0.9186 0.2605
vn -0.2970 0.9186 -0.2605
vn 0.1010 0.5059 0.8567
s 0
usemtl Rim
f 2//1 3//1 1//1
f 4//2 7//2 3//2
f 8//3 5//3 7//3
f 5//4 2//4 1//4
f 3//5 5//5 1//5
f 8//6 2//6 6//6
f 10//7 11//7 9//7
f 12//8 15//8 11//8
f 15//9 14//9 13//9
f 13//10 10//10 9//10
f 15//11 9//11 11//11
f 16//12 10//12 14//12
f 18//13 19//13 17//13
f 20//14 23//14 19//14
f 24//15 21//15 23//15
f 22//16 17//16 21//16
f 23//17 17//17 19//17
f 20//18 22//18 24//18
f 25//19 28//19 27//19
f 28//20 31//20 27//20
f 32//21 29//21 31//21
f 29//22 26//22 25//22
f 31//23 25//23 27//23
f 32//24 26//24 30//24
f 33//25 36//25 35//25
f 36//26 39//26 35//26
f 40//27 37//27 39//27
f 37//28 34//28 33//28
f 35//29 37//29 33//29
f 36//30 38//30 40//30
f 42//31 43//31 41//31
f 44//32 47//32 43//32
f 48//33 45//33 47//33
f 45//34 42//34 41//34
f 47//35 41//35 43//35
f 44//36 46//36 48//36
f 50//37 51//37 49//37
f 52//38 55//38 51//38
f 56//39 53//39 55//39
f 54//40 49//40 53//40
f 55//41 49//41 51//41
f 52//42 54//42 56//42
f 58//43 59//43 57//43
f 60//44 63//44 59//44
f 63//45 62//45 61//45
f 62//46 57//46 61//46
f 59//47 61//47 57//47
f 60//48 62//48 64//48
f 66//49 67//49 65//49
f 67//50 72//50 71//50
f 72//51 69//51 71//51
f 70//52 65//52 69//52
f 67//53 69//53 65//53
f 68//54 70//54 72//54
f 2//1 4//1 3//1
f 4//2 8//2 7//2
f 8//3 6//3 5//3
f 5//4 6//4 2//4
f 3//5 7//5 5//5
f 8//6 4//6 2//6
f 10//7 12//7 11//7
f 12//8 16//8 15//8
f 15//9 16//9 14//9
f 13//10 14//10 10//10
f 15//11 13//11 9//11
f 16//12 12//12 10//12
f 18//13 20//13 19//13
f 20//14 24//14 23//14
f 24//15 22//15 21//15
f 22//16 18//16 17//16
f 23//17 21//17 17//17
f 20//18 18//18 22//18
f 25//19 26//19 28//19
f 28//20 32//20 31//20
f 32//21 30//21 29//21
f 29//22 30//22 26//22
f 31//23 29//23 25//23
f 32//24 28//24 26//24
f 33//25 34//25 36//25
f 36//26 40//26 39//26
f 40//27 38//27 37//27
f 37//28 38//28 34//28
f 35//29 39//29 37//29
f 36//30 34//30 38//30
f 42//31 44//31 43//31
f 44//32 48//32 47//32
f 48//33 46//33 45//33
f 45//34 46//34 42//34
f 47//35 45//35 41//35
f 44//36 42//36 46//36
f 50//37 52//37 51//37
f 52//38 56//38 55//38
f 56//39 54//39 53//39
f 54//40 50//40 49//40
f 55//41 53//41 49//41
f 52//42 50//42 54//42
f 58//43 60//43 59//43
f 60//44 64//44 63//44
f 63//55 64//55 62//55
f 62//46 58//46 57//46
f 59//47 63//47 61//47
f 60//48 58//48 62//48
f 66//49 68//49 67//49
f 67//50 68//50 72//50
f 72//51 70//51 69//51
f 70//52 66//52 65//52
f 67//53 71//53 69//53
f 68//54 66//54 70//54
o Pool
v 0.000000 0.040000 -1.420000
v 0.000000 0.160000 -1.420000
v 0.616115 0.040000 -1.279376
v 0.616115 0.160000 -1.279376
v 1.110201 0.040000 -0.885356
v 1.110201 0.160000 -0.885356
v 1.384398 0.040000 -0.315980
v 1.384398 0.160000 -0.315980
v 1.384398 0.040000 0.315980
v 1.384398 0.160000 0.315980
v 1.110201 0.040000 0.885356
v 1.110201 0.160000 0.885356
v 0.616115 0.040000 1.279376
v 0.616115 0.160000 1.279376
v 0.000000 0.040000 1.420000
v 0.000000 0.160000 1.420000
v -0.616115 0.040000 1.279376
v -0.616115 0.160000 1.279376
v -1.110201 0.040000 0.885356
v -1.110201 0.160000 0.885356
v -1.384398 0.040000 0.315980
v -1.384398 0.160000 0.315980
v -1.384398 0.040000 -0.315980
v -1.384398 0.160000 -0.315980
v -1.110201 0.040000 -0.885356
v -1.110201 0.160000 -0.885356
v -0.616115 0.040000 -1.279376
v -0.616115 0.160000 -1.279376
vn 0.2225 -0.0000 -0.9749
vn 0.6235 -0.0000 -0.7818
vn 0.9010 -0.0000 -0.4339
vn 1.0000 -0.0000 -0.0000
vn 0.9010 -0.0000 0.4339
vn 0.6235 -0.0000 0.7818
vn 0.2225 -0.0000 0.9749
vn -0.2225 -0.0000 0.9749
vn -0.6235 -0.0000 0.7818
vn -0.9010 -0.0000 0.4339
vn -1.0000 -0.0000 -0.0000
vn -0.9010 -0.0000 -0.4339
vn -0.0000 1.0000 -0.0000
vn -0.6235 -0.0000 -0.7818
vn -0.2225 -0.0000 -0.9749
vn -0.0000 -1.0000 -0.0000
s 0
usemtl Pool
f 74//56 75//56 73//56
f 76//57 77//57 75//57
f 78//58 79//58 77//58
f 80//59 81//59 79//59
f 82//60 83//60 81//60
f 84//61 85//61 83//61
f 86//62 87//62 85//62
f 88//63 89//63 87//63
f 90//64 91//64 89//64
f 92//65 93//65 91//65
f 94//66 95//66 93//66
f 96//67 97//67 95//67
f 98//68 90//68 82//68
f 98//69 99//69 97//69
f 100//70 73//70 99//70
f 79//71 87//71 95//71
f 74//56 76//56 75//56
f 76//57 78//57 77//57
f 78//58 80//58 79//58
f 80//59 82//59 81//59
f 82//60 84//60 83//60
f 84//61 86//61 85//61
f 86//62 88//62 87//62
f 88//63 90//63 89//63
f 90//64 92//64 91//64
f 92//65 94//65 93//65
f 94//66 96//66 95//66
f 96//67 98//67 97//67
f 78//68 76//68 74//68
f 74//68 100//68 98//68
f 98//68 96//68 94//68
f 94//68 92//68 90//68
f 90//68 88//68 86//68
f 86//68 84//68 82//68
f 82//68 80//68 78//68
f 78//68 74//68 98//68
f 98//68 94//68 90//68
f 90//68 86//68 82//68
f 82//68 78//68 98//68
f 98//69 100//69 99//69
f 100//70 74//70 73//70
f 99//71 73//71 75//71
f 75//71 77//71 79//71
f 79//71 81//71 83//71
f 83//71 85//71 87//71
f 87//71 89//71 91//71
f 91//71 93//71 95//71
f 95//71 97//71 99//71
f 99//71 75//71 79//71
f 79//71 83//71 87//71
f 87//71 91//71 95//71
f 95//71 99//71 79//71
o Crust
v 1.888175 0.409790 -0.798308
v 2.154002 0.470712 -0.605175
v 1.786640 0.470712 -0.485810
v 1.559593 0.470712 -0.798308
v 1.786640 0.470712 -1.110805
v 2.154002 0.470712 -0.991440
v 1.989710 0.569288 -0.485810
v 1.622348 0.569288 -0.605175
v 1.622348 0.569288 -0.991440
v 1.989710 0.569288 -1.110805
v 2.216757 0.569288 -0.798308
v 1.888175 0.630210 -0.798308
v 0.553116 0.402884 -1.973971
v 0.835600 0.467624 -1.768737
v 0.445219 0.467624 -1.641893
v 0.203945 0.467624 -1.973971
v 0.445219 0.467624 -2.306050
v 0.835600 0.467624 -2.179205
v 0.661013 0.572376 -1.641893
v 0.270633 0.572376 -1.768737
v 0.270633 0.572376 -2.179205
v 0.661013 0.572376 -2.306050
v 0.902287 0.572376 -1.973971
v 0.553116 0.637116 -1.973971
v -1.198451 0.403209 -1.663194
v -0.916751 0.467769 -1.458530
v -1.306048 0.467769 -1.332038
v -1.546652 0.467769 -1.663194
v -1.306048 0.467769 -1.994351
v -0.916751 0.467769 -1.867858
v -1.090853 0.572231 -1.332038
v -1.480150 0.572231 -1.458530
v -1.480150 0.572231 -1.867858
v -1.090853 0.572231 -1.994351
v -0.850249 0.572231 -1.663194
v -1.198451 0.636791 -1.663194
v -2.047559 0.401735 -0.099998
v -1.762304 0.467110 0.107249
v -2.156515 0.467110 0.235338
v -2.400156 0.467110 -0.099998
v -2.156515 0.467110 -0.435334
v -1.762304 0.467110 -0.307245
v -1.938604 0.572890 0.235338
v -2.332814 0.572890 0.107249
v -2.332814 0.572890 -0.307245
v -1.938604 0.572890 -0.435334
v -1.694963 0.572890 -0.099998
v -2.047559 0.638265 -0.099998
v -1.354814 0.391562 1.538499
v -1.045023 0.462561 1.763572
v -1.473141 0.462561 1.902679
v -1.737740 0.462561 1.538499
v -1.473141 0.462561 1.174318
v -1.045023 0.462561 1.313425
v -1.236487 0.577439 1.902679
v -1.664605 0.577439 1.763572
v -1.664605 0.577439 1.313425
v -1.236487 0.577439 1.174318
v -0.971888 0.577439 1.538499
v -1.354814 0.648438 1.538499
v 0.358134 0.383590 2.018474
v 0.687155 0.458995 2.257519
v 0.232462 0.458995 2.405261
v -0.048561 0.458995 2.018474
v 0.232462 0.458995 1.631688
v 0.687155 0.458995 1.779429
v 0.483806 0.581005 2.405261
v 0.029113 0.581005 2.257519
v 0.029113 0.581005 1.779429
v 0.483806 0.581005 1.631688
v 0.764829 0.581005 2.018474
v 0.358134 0.656410 2.018474
v 1.801400 0.397715 0.978498
v 2.096352 0.465312 1.192791
v 1.688741 0.465312 1.325234
v 1.436817 0.465312 0.978498
v 1.688741 0.465312 0.631762
v 2.096352 0.465312 0.764205
v 1.914060 0.574688 1.325234
v 1.506448 0.574688 1.192791
v 1.506448 0.574688 0.764205
v 1.914060 0.574688 0.631762
v 2.165983 0.574688 0.978498
v 1.801400 0.642285 0.978498
vn 0.0690 -0.9747 0.2125
vn 0.2234 -0.9747 -0.0000
vn -0.1807 -0.9747 0.1313
vn -0.1807 -0.9747 -0.1313
vn 0.0690 -0.9747 -0.2125
vn 0.8436 -0.5370 -0.0000
vn 0.2607 -0.5370 0.8023
vn -0.6825 -0.5370 0.4958
vn -0.6825 -0.5370 -0.4958
vn 0.2607 -0.5370 -0.8023
vn 0.6825 0.5370 0.4958
vn -0.2607 0.5370 0.8023
vn -0.8436 0.5370 -0.0000
vn -0.2607 0.5370 -0.8023
vn 0.6825 0.5370 -0.4958
vn 0.1807 0.9747 0.1313
vn -0.0690 0.9747 0.2125
vn -0.2234 0.9747 -0.0000
vn -0.0690 0.9747 -0.2125
vn 0.1807 0.9747 -0.1313
s 0
usemtl Crust
f 101//72 102//72 103//72
f 102//73 101//73 106//73
f 101//74 103//74 104//74
f 101//75 104//75 105//75
f 101//76 105//76 106//76
f 102//77 106//77 111//77
f 103//78 102//78 107//78
f 104//79 103//79 108//79
f 105//80 104//80 109//80
f 106//81 105//81 110//81
f 102//82 111//82 107//82
f 103//83 107//83 108//83
f 104//84 108//84 109//84
f 105//85 109//85 110//85
f 106//86 110//86 111//86
f 107//87 111//87 112//87
f 108//88 107//88 112//88
f 109//89 108//89 112//89
f 110//90 109//90 112//90
f 111//91 110//91 112//91
f 113//72 114//72 115//72
f 114//73 113//73 118//73
f 113//74 115//74 116//74
f 113//75 116//75 117//75
f 113//76 117//76 118//76
f 114//77 118//77 123//77
f 115//78 114//78 119//78
f 116//79 115//79 120//79
f 117//80 116//80 121//80
f 118//81 117//81 122//81
f 114//82 123//82 119//82
f 115//83 119//83 120//83
f 116//84 120//84 121//84
f 117//85 121//85 122//85
f 118//86 122//86 123//86
f 119//87 123//87 124//87
f 120//88 119//88 124//88
f 121//89 120//89 124//89
f 122//90 121//90 124//90
f 123//91 122//91 124//91
f 125//72 126//72 127//72
f 126//73 125//73 130//73
f 125//74 127//74 128//74
f 125//75 128//75 129//75
f 125//76 129//76 130//76
f 126//77 130//77 135//77
f 127//78 126//78 131//78
f 128//79 127//79 132//79
f 129//80 128//80 133//80
f 130//81 129//81 134//81
f 126//82 135//82 131//82
f 127//83 131//83 132//83
f 128//84 132//84 133//84
f 129//85 133//85 134//85
f 130//86 134//86 135//86
f 131//87 135//87 136//87
f 132//88 131//88 136//88
f 133//89 132//89 136//89
f 134//90 133//90 136//90
f 135//91 134//91 136//91
f 137//72 138//72 139//72
f 138//73 137//73 142//73
f 137//74 139//74 140//74
f 137//75 140//75 141//75
f 137//76 141//76 142//76
f 138//77 142//77 147//77
f 139//78 138//78 143//78
f 140//79 139//79 144//79
f 141//80 140//80 145//80
f 142//81 141//81 146//81
f 138//82 147//82 143//82
f 139//83 143//83 144//83
f 140//84 144//84 145//84
f 141//85 145//85 146//85
f 142//86 146//86 147//86
f 143//87 147//87 148//87
f 144//88 143//88 148//88
f 145//89 144//89 148//89
f 146//90 145//90 148//90
f 147//91 146//91 148//91
f 149//72 150//72 151//72
f 150//73 149//73 154//73
f 149//74 151//74 152//74
f 149//75 152//75 153//75
f 149//76 153//76 154//76
f 150//77 154//77 159//77
f 151//78 150//78 155//78
f 152//79 151//79 156//79
f 153//80 152//80 157//80
f 154//81 153//81 158//81
f 150//82 159//82 155//82
f 151//83 155//83 156//83
f 152//84 156//84 157//84
f 153//85 157//85 158//85
f 154//86 158//86 159//86
f 155//87 159//87 160//87
f 156//88 155//88 160//88
f 157//89 156//89 160//89
f 158//90 157//90 160//90
f 159//91 158//91 160//91
f 161//72 162//72 163//72
f 162//73 161//73 166//73
f 161//74 163//74 164//74
f 161//75 164//75 165//75
f 161//76 165//76 166//76
f 162//77 166//77 171//77
f 163//78 162//78 167//78
f 164//79 163//79 168//79
f 165//80 164//80 169//80
f 166//81 165//81 170//81
f 162//82 171//82 167//82
f 163//83 167//83 168//83
f 164//84 168//84 169//84
f 165//85 169//85 170//85
f 166//86 170//86 171//86
f 167//87 171//87 172//87
f 168//88 167//88 172//88
f 169//89 168//89 172//89
f 170//90 169//90 172//90
f 171//91 170//91 172//91
f 173//72 174//72 175//72
f 174//73 173//73 178//73
f 173//74 175//74 176//74
f 173//75 176//75 177//75
f 173//76 177//76 178//76
f 174//77 178//77 183//77
f 175//78 174//78 179//78
f 176//79 175//79 180//79
f 177//80 176//80 181//80
f 178//81 177//81 182//81
f 174//82 183//82 179//82
f 175//83 179//83 180//83
f 176//84 180//84 181//84
f 177//85 181//85 182//85
f 178//86 182//86 183//86
f 179//87 183//87 184//87
f 180//88 179//88 184//88
f 181//89 180//89 184//89
f 182//90 181//90 184//90
f 183//91 182//91 184//91
o Spikes
v 1.515209 0.220000 -0.613955
v 1.777246 0.170111 -0.453805
v 1.624067 0.220000 -0.187634
v 1.362031 0.269889 -0.347783
v 1.929676 1.815952 -0.492727
v 0.464708 0.220000 -1.567433
v 0.753889 0.176783 -1.673767
v 0.865891 0.220000 -1.386734
v 0.576711 0.263217 -1.280400
v 0.777924 1.588861 -1.727131
v -0.935728 0.220000 -1.340602
v -0.838553 0.176684 -1.632973
v -0.544318 0.220000 -1.541596
v -0.641493 0.263316 -1.249225
v -0.837116 1.278401 -1.630174
v -1.631542 0.220000 -0.104270
v -1.801440 0.187816 -0.362918
v -1.544645 0.220000 -0.535604
v -1.374747 0.252184 -0.276956
v -1.748852 1.328930 -0.352324
v -1.098771 0.220000 1.210579
v -1.407370 0.192080 1.182525
v -1.381822 0.220000 0.873708
v -1.073223 0.247920 0.901762
v -1.348417 1.323755 1.132990
v 0.261396 0.220000 1.613838
v 0.047040 0.187951 1.837051
v -0.178460 0.220000 1.625101
v 0.035897 0.252049 1.401887
v 0.046642 1.592586 1.821515
v 1.424727 0.220000 0.801844
v 1.463935 0.176092 1.107351
v 1.159287 0.220000 1.152759
v 1.120079 0.263908 0.847252
v 1.520450 1.626322 1.150100
vn 0.5109 -0.0676 -0.8570
vn 0.8592 -0.0676 0.5071
vn -0.2197 -0.9739 0.0561
vn -0.4694 0.2517 0.8464
vn -0.8177 0.2517 -0.5177
vn -0.3488 -0.0295 -0.9367
vn 0.9327 -0.0295 -0.3595
vn -0.0807 -0.9805 0.1791
vn 0.3667 0.2466 0.8970
vn -0.9148 0.2466 0.3198
vn -0.9489 0.0020 -0.3157
vn 0.2963 0.0020 -0.9551
vn 0.0899 -0.9804 0.1751
vn 0.9232 0.2776 0.2657
vn -0.3220 0.2776 0.9051
vn -0.8372 0.0335 0.5458
vn -0.5606 0.0335 -0.8274
vn 0.1434 -0.9892 0.0289
vn 0.7978 0.2384 -0.5537
vn 0.5212 0.2384 0.8195
vn -0.0948 0.0485 0.9943
vn -0.9958 0.0485 -0.0780
vn 0.0972 -0.9919 -0.0816
vn 0.0679 0.2262 -0.9717
vn 0.9689 0.2262 0.1006
vn 0.7207 0.0079 0.6932
vn -0.6843 0.0079 0.7292
vn -0.0037 -0.9893 -0.1456
vn -0.7199 0.2126 -0.6608
vn 0.6851 0.2126 -0.6967
vn 0.9906 -0.0347 -0.1321
vn 0.1424 -0.0347 0.9892
vn -0.1592 -0.9799 -0.1204
vn -0.9563 0.2459 0.1581
vn -0.1081 0.2459 -0.9632
s 0
usemtl Spikes
f 185//92 189//92 186//92
f 186//93 189//93 187//93
f 186//94 188//94 185//94
f 187//95 189//95 188//95
f 188//96 189//96 185//96
f 190//97 194//97 191//97
f 191//98 194//98 192//98
f 190//99 192//99 193//99
f 192//100 194//100 193//100
f 193//101 194//101 190//101
f 195//102 199//102 196//102
f 196//103 199//103 197//103
f 196//104 198//104 195//104
f 197//105 199//105 198//105
f 198//106 199//106 195//106
f 200//107 204//107 201//107
f 201//108 204//108 202//108
f 201//109 203//109 200//109
f 202//110 204//110 203//110
f 203//111 204//111 200//111
f 205//112 209//112 206//112
f 206//113 209//113 207//113
f 205//114 207//114 208//114
f 207//115 209//115 208//115
f 208//116 209//116 205//116
f 210//117 214//117 211//117
f 211//118 214//118 212//118
f 211//119 213//119 210//119
f 212//120 214//120 213//120
f 213//121 214//121 210//121
f 215//122 219//122 216//122
f 216//123 219//123 217//123
f 216//124 218//124 215//124
f 217//125 219//125 218//125
f 218//126 219//126 215//126
f 186//94 187//94 188//94
f 190//99 191//99 192//99
f 196//104 197//104 198//104
f 201//109 202//109 203//109
f 205//114 206//114 207//114
f 211//119 212//119 213//119
f 216//124 217//124 218//124
o Bubbles
v 0.420000 -0.060000 -0.280000
v 0.593664 0.072668 -0.153827
v 0.353668 0.072668 -0.075846
v 0.205338 0.072668 -0.280000
v 0.353668 0.072668 -0.484154
v 0.593664 0.072668 -0.406173
v 0.486332 0.287332 -0.075846
v 0.246336 0.287332 -0.153827
v 0.246336 0.287332 -0.406173
v 0.486332 0.287332 -0.484154
v 0.634662 0.287332 -0.280000
v 0.420000 0.420000 -0.280000
v -0.500000 -0.010000 0.160000
v -0.362516 0.095029 0.259887
v -0.552513 0.095029 0.321622
v -0.669941 0.095029 0.160000
v -0.552513 0.095029 -0.001622
v -0.362516 0.095029 0.060113
v -0.447487 0.264971 0.321622
v -0.637484 0.264971 0.259887
v -0.637484 0.264971 0.060113
v -0.447487 0.264971 -0.001622
v -0.330059 0.264971 0.160000
v -0.500000 0.370000 0.160000
v 0.060000 0.030000 0.580000
v 0.168540 0.112918 0.658858
v 0.018542 0.112918 0.707596
v -0.074164 0.112918 0.580000
v 0.018542 0.112918 0.452404
v 0.168540 0.112918 0.501142
v 0.101458 0.247082 0.707596
v -0.048540 0.247082 0.658858
v -0.048540 0.247082 0.501142
v 0.101458 0.247082 0.452404
v 0.194164 0.247082 0.580000
v 0.060000 0.330000 0.580000
v -0.180000 0.050000 -0.620000
v -0.085932 0.121862 -0.551656
v -0.215930 0.121862 -0.509417
v -0.296275 0.121862 -0.620000
v -0.215930 0.121862 -0.730583
v -0.085932 0.121862 -0.688344
v -0.144070 0.238138 -0.509417
v -0.274068 0.238138 -0.551656
v -0.274068 0.238138 -0.688344
v -0.144070 0.238138 -0.730583
v -0.063725 0.238138 -0.620000
v -0.180000 0.310000 -0.620000
vn 0.1876 -0.7947 0.5774
vn 0.6071 -0.7947 -0.0000
vn -0.4911 -0.7947 0.3568
vn -0.4911 -0.7947 -0.3568
vn 0.1876 -0.7947 -0.5774
vn 0.9822 -0.1876 -0.0000
vn 0.3035 -0.1876 0.9342
vn -0.7946 -0.1876 0.5774
vn -0.7946 -0.1876 -0.5774
vn 0.3035 -0.1876 -0.9342
vn 0.7946 0.1876 0.5774
vn -0.3035 0.1876 0.9342
vn -0.9822 0.1876 -0.0000
vn -0.3035 0.1876 -0.9342
vn 0.7946 0.1876 -0.5774
vn 0.4911 0.7947 0.3568
vn -0.1876 0.7947 0.5774
vn -0.6071 0.7947 -0.0000
vn -0.1876 0.7947 -0.5774
vn 0.4911 0.7947 -0.3568
s 0
usemtl Bubbles
f 220//127 221//127 222//127
f 221//128 220//128 225//128
f 220//129 222//129 223//129
f 220//130 223//130 224//130
f 220//131 224//131 225//131
f 221//132 225//132 230//132
f 222//133 221//133 226//133
f 223//134 222//134 227//134
f 224//135 223//135 228//135
f 225//136 224//136 229//136
f 221//137 230//137 226//137
f 222//138 226//138 227//138
f 223//139 227//139 228//139
f 224//140 228//140 229//140
f 225//141 229//141 230//141
f 226//142 230//142 231//142
f 227//143 226//143 231//143
f 228//144 227//144 231//144
f 229//145 228//145 231//145
f 230//146 229//146 231//146
f 232//127 233//127 234//127
f 233//128 232//128 237//128
f 232//129 234//129 235//129
f 232//130 235//130 236//130
f 232//131 236//131 237//131
f 233//132 237//132 242//132
f 234//133 233//133 238//133
f 235//134 234//134 239//134
f 236//135 235//135 240//135
f 237//136 236//136 241//136
f 233//137 242//137 238//137
f 234//138 238//138 239//138
f 235//139 239//139 240//139
f 236//140 240//140 241//140
f 237//141 241//141 242//141
f 238//142 242//142 243//142
f 239//143 238//143 243//143
f 240//144 239//144 243//144
f 241//145 240//145 243//145
f 242//146 241//146 243//146
f 244//127 245//127 246//127
f 245//128 244//128 249//128
f 244//129 246//129 247//129
f 244//130 247//130 248//130
f 244//131 248//131 249//131
f 245//132 249//132 254//132
f 246//133 245//133 250//133
f 247//134 246//134 251//134
f 248//135 247//135 252//135
f 249//136 248//136 253//136
f 245//137 254//137 250//137
f 246//138 250//138 251//138
f 247//139 251//139 252//139
f 248//140 252//140 253//140
f 249//141 253//141 254//141
f 250//142 254//142 255//142
f 251//143 250//143 255//143
f 252//144 251//144 255//144
f 253//145 252//145 255//145
f 254//146 253//146 255//146
f 256//127 257//127 258//127
f 257//128 256//128 261//128
f 256//129 258//129 259//129
f 256//130 259//130 260//130
f 256//131 260//131 261//131
f 257//132 261//132 266//132
f 258//133 257//133 262//133
f 259//134 258//134 263//134
f 260//135 259//135 264//135
f 261//136 260//136 265//136
f 257//137 266//137 262//137
f 258//138 262//138 263//138
f 259//139 263//139 264//139
f 260//140 264//140 265//140
f 261//141 265//141 266//141
f 262//142 266//142 267//142
f 263//143 262//143 267//143
f 264//144 263//144 267//144
f 265//145 264//145 267//145
f 266//146 265//146 267//146
