# Blender 5.2.1 LTS
# www.blender.org
mtllib NestBlossom.mtl
o Rim
v 2.372065 0.160000 0.000000
v 2.170110 0.383088 0.000000
v 1.682773 0.383088 0.000000
v 1.468484 0.160000 0.000000
v 1.694078 0.110000 0.000000
v 2.166011 0.110000 0.000000
v 2.073804 0.160000 -1.197312
v 1.830420 0.383088 -1.056794
v 1.452980 0.383088 -0.838879
v 1.231413 0.160000 -0.710957
v 1.445185 0.110000 -0.834378
v 1.869978 0.110000 -1.079632
v 1.130035 0.160000 -1.957278
v 1.011249 0.383088 -1.751534
v 0.793916 0.383088 -1.375103
v 0.664393 0.160000 -1.150762
v 0.784085 0.110000 -1.358075
v 1.019772 0.110000 -1.766297
v 0.000000 0.160000 -2.296689
v 0.000000 0.383088 -2.048810
v 0.000000 0.383088 -1.586308
v 0.000000 0.160000 -1.367749
v 0.000000 0.110000 -1.596761
v 0.000000 0.110000 -2.026361
v -1.217569 0.160000 -2.108893
v -1.087199 0.383088 -1.883085
v -0.844829 0.383088 -1.463287
v -0.717832 0.160000 -1.243322
v -0.839423 0.110000 -1.453923
v -1.079327 0.110000 -1.869450
v -2.022839 0.160000 -1.167887
v -1.833243 0.383088 -1.058424
v -1.431187 0.383088 -0.826297
v -1.243610 0.160000 -0.717999
v -1.455626 0.110000 -0.840406
v -1.814386 0.110000 -1.047537
v -2.210323 0.160000 -0.000000
v -2.039246 0.383088 -0.000000
v -1.546333 0.383088 -0.000000
v -1.339258 0.160000 -0.000000
v -1.575203 0.110000 -0.000000
v -2.017672 0.110000 -0.000000
v -1.954541 0.160000 1.128455
v -1.791831 0.383088 1.034514
v -1.395609 0.383088 0.805755
v -1.171250 0.160000 0.676221
v -1.395586 0.110000 0.805741
v -1.770014 0.110000 1.021918
v -1.201075 0.160000 2.080324
v -1.084825 0.383088 1.878973
v -0.847993 0.383088 1.468768
v -0.731725 0.160000 1.267385
v -0.835728 0.110000 1.447525
v -1.071909 0.110000 1.856602
v 0.000000 0.160000 2.340218
v 0.000000 0.383088 2.106664
v 0.000000 0.383088 1.674653
v 0.000000 0.160000 1.441503
v 0.000000 0.110000 1.652421
v 0.000000 0.110000 2.140455
v 1.129476 0.160000 1.956309
v 1.019841 0.383088 1.766416
v 0.792991 0.383088 1.373501
v 0.676883 0.160000 1.172396
v 0.793741 0.110000 1.374801
v 1.001897 0.110000 1.735336
v 1.978791 0.160000 1.142456
v 1.763891 0.383088 1.018383
v 1.381703 0.383088 0.797727
v 1.185758 0.160000 0.684598
v 1.385889 0.110000 0.800144
v 1.748286 0.110000 1.009373
vn 0.7212 0.6528 -0.2318
vn -0.0000 1.0000 -0.0000
vn -0.7075 0.6796 0.1938
vn -0.2159 -0.9743 0.0644
vn -0.0000 -1.0000 -0.0000
vn 0.2353 -0.9698 -0.0645
vn 0.4065 0.7615 -0.5048
vn -0.4306 0.7311 0.5292
vn -0.1322 -0.9771 0.1669
vn 0.1393 -0.9750 -0.1730
vn 0.1960 0.7192 -0.6666
vn -0.2051 0.7507 0.6280
vn -0.0648 -0.9780 0.1984
vn 0.0566 -0.9734 -0.2221
vn -0.1014 0.7395 -0.6655
vn 0.1229 0.6945 0.7089
vn 0.0369 -0.9763 0.2132
vn -0.0264 -0.9830 -0.1818
vn -0.5105 0.7406 -0.4369
vn 0.4982 0.7358 0.4586
vn 0.1471 -0.9781 0.1473
vn -0.1431 -0.9821 -0.1225
vn -0.7278 0.6758 -0.1168
vn 0.7363 0.6689 0.1026
vn 0.2128 -0.9766 0.0303
vn -0.2143 -0.9762 -0.0344
vn -0.7796 0.5979 0.1865
vn 0.7211 0.6693 -0.1791
vn 0.2070 -0.9770 -0.0514
vn -0.2507 -0.9661 0.0608
vn -0.5901 0.6385 0.4941
vn 0.5257 0.7556 -0.3908
vn 0.1531 -0.9816 -0.1138
vn -0.1778 -0.9728 0.1487
vn -0.1501 0.7044 0.6938
vn 0.1668 0.7072 -0.6871
vn 0.0578 -0.9701 -0.2359
vn -0.0421 -0.9800 0.1947
vn 0.2286 0.7040 0.6724
vn -0.2539 0.6988 -0.6687
vn -0.0804 -0.9699 -0.2299
vn 0.0823 -0.9668 0.2420
vn 0.5143 0.6883 0.5116
vn -0.4867 0.7109 -0.5077
vn -0.1489 -0.9766 -0.1553
vn 0.1381 -0.9802 0.1420
vn 0.6246 0.7402 0.2491
vn -0.6518 0.7090 -0.2692
vn -0.1971 -0.9770 -0.0814
vn 0.1720 -0.9825 0.0712
vn 0.6179 0.7711 -0.1539
vn -0.6307 0.7470 0.2103
vn -0.1921 -0.9793 0.0640
vn 0.2094 -0.9764 -0.0522
vn 0.4466 0.7234 -0.5266
vn -0.4021 0.7547 0.5184
vn -0.1264 -0.9785 0.1630
vn 0.1406 -0.9747 -0.1740
vn 0.1970 0.7287 -0.6559
vn -0.1867 0.6875 0.7018
vn -0.0648 -0.9749 0.2129
vn 0.0545 -0.9819 -0.1816
vn -0.1031 0.7367 -0.6683
vn 0.0990 0.7267 0.6798
vn 0.0359 -0.9768 0.2112
vn -0.0290 -0.9817 -0.1882
vn -0.5351 0.6923 -0.4841
vn 0.5156 0.6840 0.5160
vn 0.1460 -0.9783 0.1467
vn -0.1547 -0.9782 -0.1384
vn -0.7842 0.6014 -0.1526
vn 0.7295 0.6771 0.0972
vn 0.2072 -0.9779 0.0276
vn -0.2509 -0.9668 -0.0487
vn -0.7599 0.6268 0.1722
vn 0.6627 0.7385 -0.1240
vn 0.1935 -0.9801 -0.0431
vn -0.2327 -0.9711 0.0527
vn -0.5632 0.6958 0.4458
vn 0.5516 0.6987 -0.4556
vn 0.1856 -0.9692 -0.1619
vn -0.1598 -0.9790 0.1265
vn -0.1435 0.7156 0.6836
vn 0.1623 0.7129 -0.6822
vn 0.0548 -0.9716 -0.2303
vn -0.0642 -0.9681 0.2423
vn 0.2280 0.6936 0.6833
vn -0.2574 0.7175 -0.6473
vn -0.0781 -0.9774 -0.1964
vn 0.0728 -0.9810 0.1800
vn 0.4729 0.7300 0.4935
vn -0.5002 0.6987 -0.5115
vn -0.1528 -0.9756 -0.1575
vn 0.1328 -0.9814 0.1386
vn 0.7183 0.6503 0.2473
vn -0.6959 0.6684 -0.2626
vn -0.2156 -0.9729 -0.0831
vn 0.2350 -0.9686 0.0809
s 0
usemtl Rim
f 1//1 8//1 2//1
f 8//2 3//2 2//2
f 9//3 4//3 3//3
f 4//4 11//4 5//4
f 5//5 12//5 6//5
f 12//6 1//6 6//6
f 13//7 8//7 7//7
f 14//2 9//2 8//2
f 15//8 10//8 9//8
f 10//9 17//9 11//9
f 11//5 18//5 12//5
f 12//10 13//10 7//10
f 13//11 20//11 14//11
f 14//2 21//2 15//2
f 15//12 22//12 16//12
f 22//13 17//13 16//13
f 23//5 18//5 17//5
f 24//14 13//14 18//14
f 19//15 26//15 20//15
f 20//2 27//2 21//2
f 21//16 28//16 22//16
f 28//17 23//17 22//17
f 29//5 24//5 23//5
f 30//18 19//18 24//18
f 31//19 26//19 25//19
f 32//2 27//2 26//2
f 33//20 28//20 27//20
f 34//21 29//21 28//21
f 29//5 36//5 30//5
f 30//22 31//22 25//22
f 37//23 32//23 31//23
f 38//2 33//2 32//2
f 39//24 34//24 33//24
f 34//25 41//25 35//25
f 35//5 42//5 36//5
f 36//26 37//26 31//26
f 37//27 44//27 38//27
f 38//2 45//2 39//2
f 39//28 46//28 40//28
f 46//29 41//29 40//29
f 47//5 42//5 41//5
f 48//30 37//30 42//30
f 43//31 50//31 44//31
f 44//2 51//2 45//2
f 45//32 52//32 46//32
f 52//33 47//33 46//33
f 53//5 48//5 47//5
f 54//34 43//34 48//34
f 55//35 50//35 49//35
f 56//2 51//2 50//2
f 57//36 52//36 51//36
f 52//37 59//37 53//37
f 53//5 60//5 54//5
f 54//38 55//38 49//38
f 61//39 56//39 55//39
f 62//2 57//2 56//2
f 63//40 58//40 57//40
f 58//41 65//41 59//41
f 59//5 66//5 60//5
f 60//42 61//42 55//42
f 61//43 68//43 62//43
f 62//2 69//2 63//2
f 63//44 70//44 64//44
f 70//45 65//45 64//45
f 71//5 66//5 65//5
f 72//46 61//46 66//46
f 67//47 2//47 68//47
f 68//2 3//2 69//2
f 69//48 4//48 70//48
f 4//49 71//49 70//49
f 5//5 72//5 71//5
f 6//50 67//50 72//50
f 1//51 7//51 8//51
f 8//2 9//2 3//2
f 9//52 10//52 4//52
f 4//53 10//53 11//53
f 5//5 11//5 12//5
f 12//54 7//54 1//54
f 13//55 14//55 8//55
f 14//2 15//2 9//2
f 15//56 16//56 10//56
f 10//57 16//57 17//57
f 11//5 17//5 18//5
f 12//58 18//58 13//58
f 13//59 19//59 20//59
f 14//2 20//2 21//2
f 15//60 21//60 22//60
f 22//61 23//61 17//61
f 23//5 24//5 18//5
f 24//62 19//62 13//62
f 19//63 25//63 26//63
f 20//2 26//2 27//2
f 21//64 27//64 28//64
f 28//65 29//65 23//65
f 29//5 30//5 24//5
f 30//66 25//66 19//66
f 31//67 32//67 26//67
f 32//2 33//2 27//2
f 33//68 34//68 28//68
f 34//69 35//69 29//69
f 29//5 35//5 36//5
f 30//70 36//70 31//70
f 37//71 38//71 32//71
f 38//2 39//2 33//2
f 39//72 40//72 34//72
f 34//73 40//73 41//73
f 35//5 41//5 42//5
f 36//74 42//74 37//74
f 37//75 43//75 44//75
f 38//2 44//2 45//2
f 39//76 45//76 46//76
f 46//77 47//77 41//77
f 47//5 48//5 42//5
f 48//78 43//78 37//78
f 43//79 49//79 50//79
f 44//2 50//2 51//2
f 45//80 51//80 52//80
f 52//81 53//81 47//81
f 53//5 54//5 48//5
f 54//82 49//82 43//82
f 55//83 56//83 50//83
f 56//2 57//2 51//2
f 57//84 58//84 52//84
f 52//85 58//85 59//85
f 53//5 59//5 60//5
f 54//86 60//86 55//86
f 61//87 62//87 56//87
f 62//2 63//2 57//2
f 63//88 64//88 58//88
f 58//89 64//89 65//89
f 59//5 65//5 66//5
f 60//90 66//90 61//90
f 61//91 67//91 68//91
f 62//2 68//2 69//2
f 63//92 69//92 70//92
f 70//93 71//93 65//93
f 71//5 72//5 66//5
f 72//94 67//94 61//94
f 67//95 1//95 2//95
f 68//2 2//2 3//2
f 69//96 3//96 4//96
f 4//97 5//97 71//97
f 5//5 6//5 72//5
f 6//98 1//98 67//98
o Pool
v 0.000000 0.080000 -1.280000
v 0.000000 0.200000 -1.280000
v 0.555371 0.080000 -1.153240
v 0.555371 0.200000 -1.153240
v 1.000744 0.080000 -0.798067
v 1.000744 0.200000 -0.798067
v 1.247908 0.080000 -0.284827
v 1.247908 0.200000 -0.284827
v 1.247908 0.080000 0.284827
v 1.247908 0.200000 0.284827
v 1.000744 0.080000 0.798067
v 1.000744 0.200000 0.798067
v 0.555371 0.080000 1.153240
v 0.555371 0.200000 1.153240
v 0.000000 0.080000 1.280000
v 0.000000 0.200000 1.280000
v -0.555371 0.080000 1.153240
v -0.555371 0.200000 1.153240
v -1.000744 0.080000 0.798067
v -1.000744 0.200000 0.798067
v -1.247908 0.080000 0.284827
v -1.247908 0.200000 0.284827
v -1.247908 0.080000 -0.284827
v -1.247908 0.200000 -0.284827
v -1.000744 0.080000 -0.798067
v -1.000744 0.200000 -0.798067
v -0.555371 0.080000 -1.153240
v -0.555371 0.200000 -1.153240
vn 0.2225 -0.0000 -0.9749
vn 0.6235 -0.0000 -0.7818
vn 0.9010 -0.0000 -0.4339
vn 1.0000 -0.0000 -0.0000
vn 0.9010 -0.0000 0.4339
vn 0.6235 -0.0000 0.7818
vn 0.2225 -0.0000 0.9749
vn -0.2225 -0.0000 0.9749
vn -0.6235 -0.0000 0.7818
vn -0.9010 -0.0000 0.4339
vn -1.0000 -0.0000 -0.0000
vn -0.9010 -0.0000 -0.4339
vn -0.0000 1.0000 -0.0000
vn -0.6235 -0.0000 -0.7818
vn -0.2225 -0.0000 -0.9749
vn -0.0000 -1.0000 -0.0000
s 0
usemtl Pool
f 74//99 75//99 73//99
f 76//100 77//100 75//100
f 78//101 79//101 77//101
f 80//102 81//102 79//102
f 82//103 83//103 81//103
f 84//104 85//104 83//104
f 86//105 87//105 85//105
f 88//106 89//106 87//106
f 90//107 91//107 89//107
f 92//108 93//108 91//108
f 94//109 95//109 93//109
f 96//110 97//110 95//110
f 98//111 90//111 82//111
f 98//112 99//112 97//112
f 100//113 73//113 99//113
f 79//114 87//114 95//114
f 74//99 76//99 75//99
f 76//100 78//100 77//100
f 78//101 80//101 79//101
f 80//102 82//102 81//102
f 82//103 84//103 83//103
f 84//104 86//104 85//104
f 86//105 88//105 87//105
f 88//106 90//106 89//106
f 90//107 92//107 91//107
f 92//108 94//108 93//108
f 94//109 96//109 95//109
f 96//110 98//110 97//110
f 78//111 76//111 74//111
f 74//111 100//111 98//111
f 98//111 96//111 94//111
f 94//111 92//111 90//111
f 90//111 88//111 86//111
f 86//111 84//111 82//111
f 82//111 80//111 78//111
f 78//111 74//111 98//111
f 98//111 94//111 90//111
f 90//111 86//111 82//111
f 82//111 78//111 98//111
f 98//112 100//112 99//112
f 100//113 74//113 73//113
f 99//114 73//114 75//114
f 75//114 77//114 79//114
f 79//114 81//114 83//114
f 83//114 85//114 87//114
f 87//114 89//114 91//114
f 91//114 93//114 95//114
f 95//114 97//114 99//114
f 99//114 75//114 79//114
f 79//114 83//114 87//114
f 87//114 91//114 95//114
f 95//114 99//114 79//114
o Crust
v 1.569239 0.155747 0.320000
v 1.519551 0.242529 0.320000
v 1.569239 0.155747 -0.320000
v 1.519551 0.242529 -0.320000
v 2.480449 0.677471 0.320000
v 2.430761 0.764253 0.320000
v 2.480449 0.677471 -0.320000
v 2.430761 0.764253 -0.320000
v 1.228591 0.155747 -1.027364
v 1.197611 0.242529 -0.988516
v 0.728218 0.155747 -1.426397
v 0.697238 0.242529 -1.387550
v 1.796721 0.677471 -1.739776
v 1.765741 0.764253 -1.700929
v 1.296349 0.677471 -2.138810
v 1.265369 0.764253 -2.099962
v -0.037212 0.155747 -1.601102
v -0.026155 0.242529 -1.552659
v -0.661165 0.155747 -1.458688
v -0.650109 0.242529 -1.410246
v -0.239975 0.677471 -2.489466
v -0.228918 0.764253 -2.441023
v -0.863929 0.677471 -2.347052
v -0.852872 0.764253 -2.298610
v -1.274993 0.155747 -0.969177
v -1.230225 0.242529 -0.947618
v -1.552678 0.155747 -0.392557
v -1.507911 0.242529 -0.370998
v -2.095964 0.677471 -1.364537
v -2.051197 0.764253 -1.342978
v -2.373650 0.677471 -0.787916
v -2.328883 0.764253 -0.766358
v -1.552678 0.155747 0.392557
v -1.507911 0.242529 0.370998
v -1.274993 0.155747 0.969177
v -1.230225 0.242529 0.947618
v -2.373650 0.677471 0.787916
v -2.328883 0.764253 0.766358
v -2.095964 0.677471 1.364537
v -2.051197 0.764253 1.342978
v -0.661165 0.155747 1.458688
v -0.650109 0.242529 1.410246
v -0.037212 0.155747 1.601102
v -0.026155 0.242529 1.552659
v -0.863929 0.677471 2.347052
v -0.852872 0.764253 2.298610
v -0.239975 0.677471 2.489466
v -0.228918 0.764253 2.441023
v 0.728218 0.155747 1.426397
v 0.697238 0.242529 1.387549
v 1.228591 0.155747 1.027364
v 1.197611 0.242529 0.988516
v 1.296348 0.677471 2.138810
v 1.265369 0.764253 2.099962
v 1.796721 0.677471 1.739777
v 1.765741 0.764253 1.700929
v 1.422297 0.267895 -0.418562
v 1.370059 0.336731 -0.393406
v 1.214033 0.267895 -0.851027
v 1.161795 0.336731 -0.825871
v 1.973576 0.783269 -0.684044
v 1.921339 0.852105 -0.658888
v 1.765312 0.783269 -1.116509
v 1.713074 0.852105 -1.091353
v 0.559543 0.267895 -1.372966
v 0.546641 0.336731 -1.316440
v 0.091577 0.267895 -1.479776
v 0.078676 0.336731 -1.423250
v 0.695697 0.783269 -1.969499
v 0.682796 0.852105 -1.912973
v 0.227732 0.783269 -2.076309
v 0.214830 0.852105 -2.019783
v -0.724559 0.267895 -1.293498
v -0.688409 0.336731 -1.248168
v -1.099838 0.267895 -0.994223
v -1.063688 0.336731 -0.948893
v -1.106056 0.783269 -1.771881
v -1.069906 0.852105 -1.726550
v -1.481335 0.783269 -1.472605
v -1.445185 0.852105 -1.427275
v -1.463053 0.267895 -0.240000
v -1.405073 0.336731 -0.240000
v -1.463053 0.267895 0.240000
v -1.405073 0.336731 0.240000
v -2.074927 0.783269 -0.240000
v -2.016947 0.852105 -0.240000
v -2.074927 0.783269 0.240000
v -2.016947 0.852105 0.240000
v -1.099838 0.267895 0.994223
v -1.063689 0.336731 0.948893
v -0.724559 0.267895 1.293498
v -0.688409 0.336731 1.248168
v -1.481335 0.783269 1.472605
v -1.445185 0.852105 1.427275
v -1.106056 0.783269 1.771881
v -1.069906 0.852105 1.726550
v 0.091577 0.267895 1.479776
v 0.078676 0.336731 1.423250
v 0.559543 0.267895 1.372966
v 0.546641 0.336731 1.316440
v 0.227732 0.783269 2.076309
v 0.214830 0.852105 2.019783
v 0.695697 0.783269 1.969499
v 0.682796 0.852105 1.912973
v 1.214033 0.267895 0.851027
v 1.161795 0.336731 0.825871
v 1.422297 0.267895 0.418562
v 1.370059 0.336731 0.393406
v 1.765312 0.783269 1.116509
v 1.713074 0.852105 1.091353
v 1.973576 0.783269 0.684044
v 1.921339 0.852105 0.658888
vn -0.8678 -0.4969 -0.0000
vn -0.0000 -0.0000 -1.0000
vn 0.8678 0.4969 -0.0000
vn -0.0000 -0.0000 1.0000
vn 0.4969 -0.8678 -0.0000
vn -0.4969 0.8678 -0.0000
vn -0.5411 -0.4969 0.6785
vn -0.7818 -0.0000 -0.6235
vn 0.5411 0.4969 -0.6785
vn 0.7818 -0.0000 0.6235
vn 0.3098 -0.8678 -0.3885
vn -0.3098 0.8678 0.3885
vn 0.1931 -0.4969 0.8461
vn -0.9749 -0.0000 0.2225
vn -0.1931 0.4969 -0.8461
vn 0.9749 -0.0000 -0.2225
vn -0.1106 -0.8678 -0.4844
vn 0.1106 0.8678 0.4844
vn 0.7819 -0.4969 0.3765
vn -0.4339 -0.0000 0.9010
vn -0.7819 0.4969 -0.3765
vn 0.4339 -0.0000 -0.9010
vn -0.4477 -0.8678 -0.2156
vn 0.4477 0.8678 0.2156
vn 0.7819 -0.4969 -0.3765
vn 0.4339 -0.0000 0.9010
vn -0.7819 0.4969 0.3765
vn -0.4339 -0.0000 -0.9010
vn -0.4477 -0.8678 0.2156
vn 0.4477 0.8678 -0.2156
vn 0.1931 -0.4969 -0.8461
vn 0.9749 -0.0000 0.2225
vn -0.1931 0.4969 0.8461
vn -0.9749 -0.0000 -0.2225
vn -0.1106 -0.8678 0.4844
vn 0.1106 0.8678 -0.4844
vn -0.5411 -0.4969 -0.6785
vn 0.7818 -0.0000 -0.6235
vn 0.5411 0.4969 0.6785
vn -0.7818 -0.0000 0.6235
vn 0.3098 -0.8678 0.3885
vn -0.3098 0.8678 -0.3885
vn -0.6891 -0.6442 0.3319
vn 0.6891 0.6442 -0.3319
vn 0.5804 -0.7648 -0.2795
vn -0.5804 0.7648 0.2795
vn -0.1702 -0.6442 0.7457
vn 0.1702 0.6442 -0.7457
vn 0.1434 -0.7648 -0.6281
vn -0.1434 0.7648 0.6281
vn 0.4769 -0.6442 0.5980
vn -0.4769 0.6442 -0.5980
vn -0.4017 -0.7648 -0.5037
vn 0.4017 0.7648 0.5037
vn 0.7648 -0.6442 -0.0000
vn -0.7648 0.6442 -0.0000
vn -0.6442 -0.7648 -0.0000
vn 0.6442 0.7648 -0.0000
vn 0.4769 -0.6442 -0.5980
vn -0.4769 0.6442 0.5980
vn -0.4017 -0.7648 0.5037
vn 0.4017 0.7648 -0.5037
vn -0.1702 -0.6442 -0.7457
vn 0.1702 0.6442 0.7457
vn 0.1434 -0.7648 0.6281
vn -0.1434 0.7648 -0.6281
vn -0.6891 -0.6442 -0.3319
vn 0.6891 0.6442 0.3319
vn 0.5804 -0.7648 0.2795
vn -0.5804 0.7648 -0.2795
s 0
usemtl Crust
f 102//115 103//115 101//115
f 103//116 108//116 107//116
f 108//117 105//117 107//117
f 106//118 101//118 105//118
f 107//119 101//119 103//119
f 104//120 106//120 108//120
f 110//121 111//121 109//121
f 112//122 115//122 111//122
f 116//123 113//123 115//123
f 114//124 109//124 113//124
f 115//125 109//125 111//125
f 116//126 110//126 114//126
f 118//127 119//127 117//127
f 120//128 123//128 119//128
f 124//129 121//129 123//129
f 122//130 117//130 121//130
f 123//131 117//131 119//131
f 120//132 122//132 124//132
f 126//133 127//133 125//133
f 128//134 131//134 127//134
f 132//135 129//135 131//135
f 130//136 125//136 129//136
f 131//137 125//137 127//137
f 132//138 126//138 130//138
f 134//139 135//139 133//139
f 135//140 140//140 139//140
f 140//141 137//141 139//141
f 138//142 133//142 137//142
f 139//143 133//143 135//143
f 136//144 138//144 140//144
f 142//145 143//145 141//145
f 144//146 147//146 143//146
f 148//147 145//147 147//147
f 145//148 142//148 141//148
f 147//149 141//149 143//149
f 144//150 146//150 148//150
f 150//151 151//151 149//151
f 152//152 155//152 151//152
f 155//153 154//153 153//153
f 153//154 150//154 149//154
f 151//155 153//155 149//155
f 152//156 154//156 156//156
f 157//157 160//157 159//157
f 159//142 164//142 163//142
f 163//158 162//158 161//158
f 162//140 157//140 161//140
f 163//159 157//159 159//159
f 160//160 162//160 164//160
f 166//161 167//161 165//161
f 167//148 172//148 171//148
f 172//162 169//162 171//162
f 170//146 165//146 169//146
f 167//163 169//163 165//163
f 168//164 170//164 172//164
f 174//165 175//165 173//165
f 176//154 179//154 175//154
f 180//166 177//166 179//166
f 178//152 173//152 177//152
f 179//167 173//167 175//167
f 176//168 178//168 180//168
f 182//169 183//169 181//169
f 184//118 187//118 183//118
f 188//170 185//170 187//170
f 186//116 181//116 185//116
f 187//171 181//171 183//171
f 184//172 186//172 188//172
f 190//173 191//173 189//173
f 192//124 195//124 191//124
f 196//174 193//174 195//174
f 194//122 189//122 193//122
f 191//175 193//175 189//175
f 192//176 194//176 196//176
f 198//177 199//177 197//177
f 200//130 203//130 199//130
f 204//178 201//178 203//178
f 202//128 197//128 201//128
f 203//179 197//179 199//179
f 200//180 202//180 204//180
f 206//181 207//181 205//181
f 207//136 212//136 211//136
f 212//182 209//182 211//182
f 209//134 206//134 205//134
f 207//183 209//183 205//183
f 212//184 206//184 210//184
f 102//115 104//115 103//115
f 103//116 104//116 108//116
f 108//117 106//117 105//117
f 106//118 102//118 101//118
f 107//119 105//119 101//119
f 104//120 102//120 106//120
f 110//121 112//121 111//121
f 112//122 116//122 115//122
f 116//123 114//123 113//123
f 114//124 110//124 109//124
f 115//125 113//125 109//125
f 116//126 112//126 110//126
f 118//127 120//127 119//127
f 120//128 124//128 123//128
f 124//129 122//129 121//129
f 122//130 118//130 117//130
f 123//131 121//131 117//131
f 120//132 118//132 122//132
f 126//133 128//133 127//133
f 128//134 132//134 131//134
f 132//135 130//135 129//135
f 130//136 126//136 125//136
f 131//137 129//137 125//137
f 132//138 128//138 126//138
f 134//139 136//139 135//139
f 135//140 136//140 140//140
f 140//141 138//141 137//141
f 138//142 134//142 133//142
f 139//143 137//143 133//143
f 136//144 134//144 138//144
f 142//145 144//145 143//145
f 144//146 148//146 147//146
f 148//147 146//147 145//147
f 145//148 146//148 142//148
f 147//149 145//149 141//149
f 144//150 142//150 146//150
f 150//151 152//151 151//151
f 152//152 156//152 155//152
f 155//153 156//153 154//153
f 153//154 154//154 150//154
f 151//155 155//155 153//155
f 152//156 150//156 154//156
f 157//157 158//157 160//157
f 159//142 160//142 164//142
f 163//158 164//158 162//158
f 162//140 158//140 157//140
f 163//159 161//159 157//159
f 160//160 158//160 162//160
f 166//161 168//161 167//161
f 167//148 168//148 172//148
f 172//162 170//162 169//162
f 170//146 166//146 165//146
f 167//163 171//163 169//163
f 168//164 166//164 170//164
f 174//165 176//165 175//165
f 176//154 180//154 179//154
f 180//166 178//166 177//166
f 178//152 174//152 173//152
f 179//167 177//167 173//167
f 176//168 174//168 178//168
f 182//169 184//169 183//169
f 184//118 188//118 187//118
f 188//170 186//170 185//170
f 186//116 182//116 181//116
f 187//171 185//171 181//171
f 184//172 182//172 186//172
f 190//173 192//173 191//173
f 192//124 196//124 195//124
f 196//174 194//174 193//174
f 194//122 190//122 189//122
f 191//175 195//175 193//175
f 192//176 190//176 194//176
f 198//177 200//177 199//177
f 200//130 204//130 203//130
f 204//178 202//178 201//178
f 202//128 198//128 197//128
f 203//179 201//179 197//179
f 200//180 198//180 202//180
f 206//181 208//181 207//181
f 207//136 208//136 212//136
f 212//182 210//182 209//182
f 209//134 210//134 206//134
f 207//183 211//183 209//183
f 212//184 208//184 206//184
o Spikes
v 1.254220 0.220000 -0.356277
v 1.360446 0.208277 -0.307306
v 1.347327 0.212755 -0.190570
v 1.232992 0.227245 -0.167393
v 1.175448 0.231723 -0.269805
v 1.431864 1.516051 -0.290253
v 0.731778 0.220000 -1.079121
v 0.844225 0.203891 -1.109381
v 0.909367 0.210044 -1.011716
v 0.837178 0.229956 -0.921096
v 0.727422 0.236109 -0.962754
v 0.934675 1.384308 -1.173330
v -0.133071 0.220000 -1.297032
v -0.066391 0.206113 -1.392847
v 0.046291 0.211417 -1.359768
v 0.049253 0.228583 -1.243509
v -0.061599 0.233887 -1.204736
v -0.038450 1.642432 -1.509461
v -0.935654 0.220000 -0.908047
v -0.946064 0.205132 -1.024195
v -0.838519 0.210811 -1.071329
v -0.761644 0.229189 -0.984312
v -0.821676 0.234868 -0.883398
v -0.992667 1.479186 -1.123619
v -1.300435 0.220000 -0.094178
v -1.383513 0.208335 -0.176528
v -1.331256 0.212791 -0.281737
v -1.215880 0.227209 -0.264410
v -1.196832 0.231665 -0.148492
v -1.460276 1.649440 -0.219304
v -1.056727 0.220000 0.763759
v -1.173485 0.210220 0.754189
v -1.201011 0.213955 0.639961
v -1.101265 0.226045 0.578934
v -1.012092 0.229780 0.655446
v -1.202217 1.277966 0.735542
v -0.318565 0.220000 1.264325
v -0.414108 0.208791 1.331894
v -0.508637 0.213073 1.262141
v -0.471517 0.226928 1.151462
v -0.354046 0.231209 1.152812
v -0.472671 1.791193 1.409324
v 0.568657 0.220000 1.173298
v 0.538858 0.207863 1.286366
v 0.421624 0.212499 1.293736
v 0.378968 0.227501 1.185222
v 0.469840 0.232137 1.110788
v 0.532878 1.437040 1.355621
v 1.189798 0.220000 0.533273
v 1.240023 0.211830 0.639246
v 1.154811 0.214950 0.720170
v 1.051921 0.225050 0.664211
v 1.073545 0.228170 0.548702
v 1.223924 1.301268 0.665666
vn 0.4176 -0.0110 -0.9086
vn 0.9920 -0.0557 0.1136
vn 0.2058 0.0614 0.9767
vn -0.1208 -0.9924 0.0245
vn -0.8545 0.1784 0.4879
vn -0.7235 0.1337 -0.6772
vn -0.2640 -0.0320 -0.9640
vn 0.8310 -0.0934 -0.5484
vn 0.7875 0.0673 0.6126
vn -0.1055 -0.9856 0.1325
vn -0.3343 0.2281 0.9145
vn -0.9842 0.1667 -0.0599
vn -0.8225 -0.0301 -0.5680
vn 0.2843 -0.0831 -0.9551
vn 0.9979 0.0556 -0.0336
vn 0.0037 -0.9893 0.1460
vn 0.3321 0.1942 0.9230
vn -0.7929 0.1413 0.5927
vn -0.9952 -0.0292 0.0929
vn -0.3961 -0.0858 -0.9142
vn 0.7414 0.0626 -0.6682
vn 0.1035 -0.9877 0.1172
vn 0.8453 0.2109 0.4910
vn -0.2280 0.1543 0.9614
vn -0.7027 -0.0163 0.7113
vn -0.8929 -0.0608 -0.4461
vn 0.1415 0.0557 -0.9884
vn 0.1213 -0.9925 0.0182
vn 0.9710 0.1721 -0.1662
vn 0.4492 0.1276 0.8843
vn -0.0829 0.0152 0.9964
vn -0.9721 -0.0221 0.2335
vn -0.5270 0.0754 -0.8465
vn 0.0877 -0.9947 -0.0537
vn 0.6372 0.1730 -0.7511
vn 0.9116 0.1357 0.3879
vn 0.5788 -0.0185 0.8153
vn -0.5944 -0.0612 0.8018
vn -0.9488 0.0507 -0.3119
vn 0.0375 -0.9930 -0.1117
vn 0.0054 0.1627 -0.9867
vn 0.9495 0.1199 -0.2900
vn 0.9672 -0.0096 0.2539
vn 0.0604 -0.0559 0.9966
vn -0.9256 0.0652 0.3729
vn -0.0467 -0.9918 -0.1188
vn -0.6282 0.1864 -0.7554
vn 0.5416 0.1401 -0.8289
vn 0.9041 0.0237 -0.4267
vn 0.6885 -0.0074 0.7252
vn -0.4709 0.0741 0.8791
vn -0.0755 -0.9963 -0.0410
vn -0.9717 0.1555 -0.1777
vn -0.1219 0.1244 -0.9847
s 0
usemtl Spikes
f 213//185 218//185 214//185
f 214//186 218//186 215//186
f 215//187 218//187 216//187
f 214//188 216//188 217//188
f 216//189 218//189 217//189
f 217//190 218//190 213//190
f 219//191 224//191 220//191
f 220//192 224//192 221//192
f 221//193 224//193 222//193
f 220//194 222//194 223//194
f 222//195 224//195 223//195
f 223//196 224//196 219//196
f 225//197 230//197 226//197
f 226//198 230//198 227//198
f 227//199 230//199 228//199
f 226//200 228//200 229//200
f 228//201 230//201 229//201
f 229//202 230//202 225//202
f 231//203 236//203 232//203
f 232//204 236//204 233//204
f 233//205 236//205 234//205
f 232//206 234//206 235//206
f 234//207 236//207 235//207
f 235//208 236//208 231//208
f 237//209 242//209 238//209
f 238//210 242//210 239//210
f 239//211 242//211 240//211
f 238//212 240//212 241//212
f 240//213 242//213 241//213
f 241//214 242//214 237//214
f 243//215 248//215 244//215
f 244//216 248//216 245//216
f 245//217 248//217 246//217
f 244//218 246//218 247//218
f 246//219 248//219 247//219
f 247//220 248//220 243//220
f 249//221 254//221 250//221
f 250//222 254//222 251//222
f 251//223 254//223 252//223
f 250//224 252//224 253//224
f 252//225 254//225 253//225
f 253//226 254//226 249//226
f 255//227 260//227 256//227
f 256//228 260//228 257//228
f 257//229 260//229 258//229
f 256//230 258//230 259//230
f 258//231 260//231 259//231
f 259//232 260//232 255//232
f 261//233 266//233 262//233
f 262//234 266//234 263//234
f 263//235 266//235 264//235
f 262//236 264//236 265//236
f 264//237 266//237 265//237
f 265//238 266//238 261//238
f 217//188 213//188 214//188
f 214//188 215//188 216//188
f 223//194 219//194 220//194
f 220//194 221//194 222//194
f 229//200 225//200 226//200
f 226//200 227//200 228//200
f 235//206 231//206 232//206
f 232//206 233//206 234//206
f 241//212 237//212 238//212
f 238//212 239//212 240//212
f 247//218 243//218 244//218
f 244//218 245//218 246//218
f 253//224 249//224 250//224
f 250//224 251//224 252//224
f 259//230 255//230 256//230
f 256//230 257//230 258//230
f 265//236 261//236 262//236
f 262//236 263//236 264//236
o Bubbles
v 0.380000 -0.020000 -0.240000
v 0.553664 0.112668 -0.113827
v 0.313668 0.112668 -0.035846
v 0.165338 0.112668 -0.240000
v 0.313668 0.112668 -0.444154
v 0.553664 0.112668 -0.366173
v 0.446332 0.327332 -0.035846
v 0.206336 0.327332 -0.113827
v 0.206336 0.327332 -0.366173
v 0.446332 0.327332 -0.444154
v 0.594662 0.327332 -0.240000
v 0.380000 0.460000 -0.240000
v -0.440000 0.030000 0.160000
v -0.302516 0.135029 0.259887
v -0.492513 0.135029 0.321622
v -0.609941 0.135029 0.160000
v -0.492513 0.135029 -0.001622
v -0.302516 0.135029 0.060113
v -0.387487 0.304971 0.321622
v -0.577484 0.304971 0.259887
v -0.577484 0.304971 0.060113
v -0.387487 0.304971 -0.001622
v -0.270059 0.304971 0.160000
v -0.440000 0.410000 0.160000
v 0.060000 0.070000 0.520000
v 0.168540 0.152918 0.598858
v 0.018542 0.152918 0.647596
v -0.074164 0.152918 0.520000
v 0.018542 0.152918 0.392404
v 0.168540 0.152918 0.441142
v 0.101458 0.287082 0.647596
v -0.048540 0.287082 0.598858
v -0.048540 0.287082 0.441142
v 0.101458 0.287082 0.392404
v 0.194164 0.287082 0.520000
v 0.060000 0.370000 0.520000
v -0.160000 0.090000 -0.560000
v -0.065932 0.161862 -0.491656
v -0.195930 0.161862 -0.449417
v -0.276275 0.161862 -0.560000
v -0.195930 0.161862 -0.670583
v -0.065932 0.161862 -0.628344
v -0.124070 0.278138 -0.449417
v -0.254068 0.278138 -0.491656
v -0.254068 0.278138 -0.628344
v -0.124070 0.278138 -0.670583
v -0.043725 0.278138 -0.560000
v -0.160000 0.350000 -0.560000
vn 0.1876 -0.7947 0.5774
vn 0.6071 -0.7947 -0.0000
vn -0.4911 -0.7947 0.3568
vn -0.4911 -0.7947 -0.3568
vn 0.1876 -0.7947 -0.5774
vn 0.9822 -0.1876 -0.0000
vn 0.3035 -0.1876 0.9342
vn -0.7946 -0.1876 0.5774
vn -0.7946 -0.1876 -0.5774
vn 0.3035 -0.1876 -0.9342
vn 0.7946 0.1876 0.5774
vn -0.3035 0.1876 0.9342
vn -0.9822 0.1876 -0.0000
vn -0.3035 0.1876 -0.9342
vn 0.7946 0.1876 -0.5774
vn 0.4911 0.7947 0.3568
vn -0.1876 0.7947 0.5774
vn -0.6071 0.7947 -0.0000
vn -0.1876 0.7947 -0.5774
vn 0.4911 0.7947 -0.3568
s 0
usemtl Bubbles
f 267//239 268//239 269//239
f 268//240 267//240 272//240
f 267//241 269//241 270//241
f 267//242 270//242 271//242
f 267//243 271//243 272//243
f 268//244 272//244 277//244
f 269//245 268//245 273//245
f 270//246 269//246 274//246
f 271//247 270//247 275//247
f 272//248 271//248 276//248
f 268//249 277//249 273//249
f 269//250 273//250 274//250
f 270//251 274//251 275//251
f 271//252 275//252 276//252
f 272//253 276//253 277//253
f 273//254 277//254 278//254
f 274//255 273//255 278//255
f 275//256 274//256 278//256
f 276//257 275//257 278//257
f 277//258 276//258 278//258
f 279//239 280//239 281//239
f 280//240 279//240 284//240
f 279//241 281//241 282//241
f 279//242 282//242 283//242
f 279//243 283//243 284//243
f 280//244 284//244 289//244
f 281//245 280//245 285//245
f 282//246 281//246 286//246
f 283//247 282//247 287//247
f 284//248 283//248 288//248
f 280//249 289//249 285//249
f 281//250 285//250 286//250
f 282//251 286//251 287//251
f 283//252 287//252 288//252
f 284//253 288//253 289//253
f 285//254 289//254 290//254
f 286//255 285//255 290//255
f 287//256 286//256 290//256
f 288//257 287//257 290//257
f 289//258 288//258 290//258
f 291//239 292//239 293//239
f 292//240 291//240 296//240
f 291//241 293//241 294//241
f 291//242 294//242 295//242
f 291//243 295//243 296//243
f 292//244 296//244 301//244
f 293//245 292//245 297//245
f 294//246 293//246 298//246
f 295//247 294//247 299//247
f 296//248 295//248 300//248
f 292//249 301//249 297//249
f 293//250 297//250 298//250
f 294//251 298//251 299//251
f 295//252 299//252 300//252
f 296//253 300//253 301//253
f 297//254 301//254 302//254
f 298//255 297//255 302//255
f 299//256 298//256 302//256
f 300//257 299//257 302//257
f 301//258 300//258 302//258
f 303//239 304//239 305//239
f 304//240 303//240 308//240
f 303//241 305//241 306//241
f 303//242 306//242 307//242
f 303//243 307//243 308//243
f 304//244 308//244 313//244
f 305//245 304//245 309//245
f 306//246 305//246 310//246
f 307//247 306//247 311//247
f 308//248 307//248 312//248
f 304//249 313//249 309//249
f 305//250 309//250 310//250
f 306//251 310//251 311//251
f 307//252 311//252 312//252
f 308//253 312//253 313//253
f 309//254 313//254 314//254
f 310//255 309//255 314//255
f 311//256 310//256 314//256
f 312//257 311//257 314//257
f 313//258 312//258 314//258
