# Blender 5.2.1 LTS
# www.blender.org
mtllib NestEmber.mtl
o Rim
v 1.829172 0.000765 -0.435135
v 1.768730 1.193214 -0.435135
v 2.205526 0.019842 -0.217568
v 2.145085 1.212290 -0.217568
v 2.205526 0.019842 0.217568
v 2.145085 1.212290 0.217568
v 1.829172 0.000765 0.435135
v 1.768730 1.193214 0.435135
v 1.452817 -0.018311 0.217568
v 1.392375 1.174138 0.217568
v 1.452817 -0.018311 -0.217568
v 1.392375 1.174138 -0.217568
v 1.482292 0.006075 -1.344922
v 1.345320 1.090993 -1.256896
v 1.809289 0.048494 -1.358915
v 1.672317 1.133412 -1.270889
v 1.987718 0.048494 -1.081273
v 1.850746 1.133412 -0.993247
v 1.839151 0.006075 -0.789639
v 1.702179 1.090993 -0.701613
v 1.512154 -0.036344 -0.775647
v 1.375183 1.048574 -0.687621
v 1.333725 -0.036344 -1.053288
v 1.196753 1.048574 -0.965262
v 0.497368 0.000458 -1.882828
v 0.480079 0.944786 -1.844969
v 0.765846 0.013032 -2.073839
v 0.748556 0.957359 -2.035981
v 1.065781 0.013032 -1.936864
v 1.048491 0.957359 -1.899005
v 1.097239 0.000458 -1.608876
v 1.079950 0.944786 -1.571017
v 0.828762 -0.012115 -1.417864
v 0.811472 0.932212 -1.380005
v 0.528826 -0.012115 -1.554840
v 0.511537 0.932212 -1.516981
v -0.569137 0.000990 -1.763016
v -0.561335 0.758812 -1.708753
v -0.452914 0.020513 -2.052378
v -0.445112 0.778335 -1.998115
v -0.143654 0.020513 -2.096843
v -0.135852 0.778335 -2.042580
v 0.049384 0.000990 -1.851946
v 0.057186 0.758812 -1.797683
v -0.066839 -0.018533 -1.562584
v -0.059037 0.739289 -1.508321
v -0.376100 -0.018533 -1.518119
v -0.368298 0.739289 -1.463856
v -1.505572 0.002082 -1.209710
v -1.445533 1.009456 -1.140421
v -1.570178 0.029212 -1.548176
v -1.510140 1.036587 -1.478888
v -1.308958 0.029212 -1.774525
v -1.248919 1.036587 -1.705237
v -0.983131 0.002082 -1.662407
v -0.923092 1.009456 -1.593119
v -0.918524 -0.025049 -1.323940
v -0.858486 0.982325 -1.254652
v -1.179745 -0.025049 -1.097592
v -1.119706 0.982325 -1.028303
v -1.898716 0.004916 -0.182084
v -1.761605 1.038394 -0.141825
v -2.144476 0.047645 -0.441960
v -2.007365 1.081122 -0.401701
v -2.042990 0.047645 -0.787591
v -1.905879 1.081122 -0.747331
v -1.695743 0.004916 -0.873344
v -1.558632 1.038394 -0.833085
v -1.449983 -0.037812 -0.613468
v -1.312872 0.995665 -0.573208
v -1.551469 -0.037812 -0.267838
v -1.414358 0.995665 -0.227578
v -1.768448 0.001499 0.931169
v -1.702290 0.792680 0.911743
v -2.151288 0.031215 0.837628
v -2.085130 0.822396 0.818202
v -2.262634 0.031215 0.458416
v -2.196476 0.822396 0.438991
v -1.991141 0.001499 0.172746
v -1.924983 0.792680 0.153320
v -1.608301 -0.028217 0.266287
v -1.542143 0.762964 0.246861
v -1.496954 -0.028217 0.645498
v -1.430797 0.762964 0.626073
v -0.994597 0.005282 1.687023
v -0.880179 1.444797 1.554977
v -1.326817 0.042128 1.800827
v -1.212398 1.481642 1.668781
v -1.593671 0.042128 1.569596
v -1.479253 1.481642 1.437550
v -1.528306 0.005282 1.224562
v -1.413887 1.444797 1.092516
v -1.196086 -0.031563 1.110758
v -1.081667 1.407952 0.978712
v -0.929231 -0.031563 1.341989
v -0.814813 1.407952 1.209943
v 0.019811 0.003449 1.976629
v 0.036861 1.040422 1.858042
v -0.165956 0.033358 2.211458
v -0.148906 1.070332 2.092870
v -0.463806 0.033358 2.168633
v -0.446756 1.070332 2.050046
v -0.575889 0.003449 1.890980
v -0.558839 1.040422 1.772393
v -0.390122 -0.026460 1.656152
v -0.373072 1.010513 1.537564
v -0.092272 -0.026460 1.698976
v -0.075222 1.010513 1.580389
v 1.055004 0.001910 1.580598
v 1.016018 1.152911 1.495230
v 1.025836 0.023239 1.881498
v 0.986850 1.174240 1.796130
v 0.750161 0.023239 2.007394
v 0.711175 1.174240 1.922026
v 0.503656 0.001910 1.832391
v 0.464669 1.152911 1.747023
v 0.532824 -0.019419 1.531491
v 0.493838 1.131582 1.446123
v 0.808498 -0.019419 1.405595
v 0.769512 1.131582 1.320227
v 1.801268 0.005417 0.775471
v 1.697471 0.702610 0.708764
v 1.944991 0.053932 1.058903
v 1.841194 0.751126 0.992197
v 1.771190 0.053932 1.329342
v 1.667393 0.751126 1.262635
v 1.453667 0.005417 1.316349
v 1.349870 0.702610 1.249642
v 1.309944 -0.043099 1.032917
v 1.206146 0.654095 0.966210
v 1.483744 -0.043099 0.762478
v 1.379947 0.654095 0.695771
v 2.653657 0.150000 0.000000
v 2.435789 0.384173 0.000000
v 1.846959 0.384173 0.000000
v 1.616783 0.150000 0.000000
v 1.884394 0.100000 0.000000
v 2.410218 0.100000 0.000000
v 2.289866 0.150000 -1.322056
v 2.052402 0.384173 -1.184955
v 1.549680 0.384173 -0.894709
v 1.354087 0.150000 -0.781783
v 1.592333 0.100000 -0.919334
v 2.047943 0.100000 -1.182381
v 1.234869 0.150000 -2.138857
v 1.101496 0.384173 -1.907847
v 0.837160 0.384173 -1.450004
v 0.709396 0.150000 -1.228710
v 0.826520 0.100000 -1.431574
v 1.105630 0.100000 -1.915007
v 0.000000 0.150000 -2.513649
v 0.000000 0.384173 -2.249472
v 0.000000 0.384173 -1.726577
v 0.000000 0.150000 -1.478708
v 0.000000 0.100000 -1.707806
v 0.000000 0.100000 -2.240761
v -1.326655 0.150000 -2.297834
v -1.218178 0.384173 -2.109946
v -0.943151 0.384173 -1.633586
v -0.806851 0.150000 -1.397508
v -0.926758 0.100000 -1.605193
v -1.188972 0.100000 -2.059360
v -2.259589 0.150000 -1.304575
v -2.064007 0.384173 -1.191656
v -1.584212 0.384173 -0.914646
v -1.367829 0.150000 -0.789717
v -1.578377 0.100000 -0.911277
v -2.036358 0.100000 -1.175692
v -2.473193 0.150000 -0.000000
v -2.140251 0.384173 -0.000000
v -1.659816 0.384173 -0.000000
v -1.445202 0.150000 -0.000000
v -1.696046 0.100000 -0.000000
v -2.169599 0.100000 -0.000000
v -2.162866 0.150000 1.248731
v -1.931968 0.384173 1.115422
v -1.512053 0.384173 0.872984
v -1.305101 0.150000 0.753500
v -1.523623 0.100000 0.879664
v -1.950961 0.100000 1.126387
v -1.346609 0.150000 2.332397
v -1.236198 0.384173 2.141158
v -0.935332 0.384173 1.620043
v -0.805225 0.150000 1.394692
v -0.953332 0.100000 1.651219
v -1.221616 0.100000 2.115903
v 0.000000 0.150000 2.616246
v 0.000000 0.384173 2.389425
v 0.000000 0.384173 1.837013
v 0.000000 0.150000 1.591646
v 0.000000 0.100000 1.838960
v 0.000000 0.100000 2.366313
v 1.240679 0.150000 2.148918
v 1.090033 0.384173 1.887992
v 0.838071 0.384173 1.451581
v 0.735328 0.150000 1.273626
v 0.861380 0.100000 1.491954
v 1.070402 0.100000 1.853991
v 2.111185 0.150000 1.218894
v 1.971882 0.384173 1.138467
v 1.527891 0.384173 0.882128
v 1.273233 0.150000 0.735102
v 1.481422 0.100000 0.855300
v 1.955287 0.100000 1.128886
vn 0.4994 0.0253 -0.8660
vn 0.9987 0.0506 -0.0000
vn 0.4994 0.0253 0.8660
vn -0.4994 -0.0253 0.8660
vn -0.0506 0.9987 -0.0000
vn -0.9987 -0.0506 -0.0000
vn -0.4994 -0.0253 -0.8660
vn 0.0506 -0.9987 -0.0000
vn -0.0522 0.0742 -0.9959
vn 0.8319 0.1484 -0.5347
vn 0.8842 0.0742 0.4612
vn 0.0522 -0.0742 0.9959
vn -0.1249 0.9889 0.0802
vn -0.8319 -0.1484 0.5347
vn -0.8842 -0.0742 -0.4612
vn 0.1249 -0.9889 -0.0802
vn -0.5803 0.0220 -0.8141
vn 0.4150 0.0440 -0.9087
vn 0.9953 0.0220 -0.0946
vn 0.5803 -0.0220 0.8141
vn -0.0183 0.9990 0.0401
vn -0.4150 -0.0440 0.9087
vn -0.9953 -0.0220 0.0946
vn 0.0183 -0.9990 -0.0401
vn -0.9282 0.0361 -0.3704
vn -0.1419 0.0722 -0.9872
vn 0.7862 0.0361 -0.6169
vn 0.9282 -0.0361 0.3704
vn 0.0103 0.9974 0.0714
vn 0.1419 -0.0722 0.9872
vn -0.7862 -0.0361 0.6169
vn -0.0103 -0.9974 -0.0714
vn -0.9806 0.0453 0.1908
vn -0.6522 0.0906 -0.7526
vn 0.3284 0.0453 -0.9434
vn 0.9806 -0.0453 -0.1908
vn 0.0594 0.9959 0.0685
vn 0.6522 -0.0906 0.7526
vn -0.3284 -0.0453 0.9434
vn -0.0594 -0.9959 -0.0685
vn -0.7192 0.0685 0.6914
vn -0.9505 0.1370 -0.2791
vn -0.2312 0.0685 -0.9705
vn 0.7192 -0.0685 -0.6914
vn 0.1314 0.9906 0.0386
vn 0.9505 -0.1370 0.2791
vn 0.2312 -0.0685 0.9705
vn -0.1314 -0.9906 -0.0386
vn -0.2339 0.0434 0.9713
vn -0.9559 0.0868 0.2807
vn -0.7219 0.0434 -0.6906
vn 0.2339 -0.0434 -0.9713
vn 0.0833 0.9962 -0.0245
vn 0.9559 -0.0868 -0.2807
vn 0.7219 -0.0434 0.6906
vn -0.0833 -0.9962 0.0245
vn 0.3295 0.0602 0.9422
vn -0.6501 0.1205 0.7502
vn -0.9795 0.0602 -0.1920
vn -0.3295 -0.0602 -0.9422
vn 0.0789 0.9927 -0.0911
vn 0.6501 -0.1205 -0.7502
vn 0.9795 -0.0602 0.1920
vn -0.0789 -0.9927 0.0911
vn 0.7865 0.0574 0.6149
vn -0.1414 0.1148 0.9833
vn -0.9279 0.0574 0.3684
vn -0.7865 -0.0574 -0.6149
vn 0.0163 0.9934 -0.1136
vn 0.1414 -0.1148 -0.9833
vn 0.9279 -0.0574 -0.3684
vn -0.0163 -0.9934 0.1136
vn 0.9948 0.0406 0.0936
vn 0.4140 0.0813 0.9066
vn -0.5807 0.0406 0.8131
vn -0.9948 -0.0406 -0.0936
vn -0.0338 0.9967 -0.0739
vn -0.4140 -0.0813 -0.9066
vn 0.5807 -0.0406 -0.8131
vn 0.0338 -0.9967 0.0739
vn 0.8824 0.0871 -0.4624
vn 0.8284 0.1743 0.5324
vn -0.0540 0.0871 0.9947
vn -0.8824 -0.0871 0.4624
vn -0.1466 0.9847 -0.0942
vn -0.8284 -0.1743 -0.5324
vn 0.0540 -0.0871 -0.9947
vn 0.1466 -0.9847 0.0942
vn 0.7177 0.6677 -0.1975
vn -0.0000 1.0000 -0.0000
vn -0.6940 0.6821 0.2306
vn -0.1833 -0.9813 0.0582
vn -0.0000 -1.0000 -0.0000
vn 0.2009 -0.9781 -0.0553
vn 0.4152 0.7349 -0.5362
vn -0.4583 0.6664 0.5881
vn -0.1104 -0.9801 0.1650
vn 0.1162 -0.9818 -0.1501
vn 0.1982 0.7432 -0.6390
vn -0.2267 0.7314 0.6431
vn -0.0705 -0.9772 0.2001
vn 0.0552 -0.9808 -0.1872
vn -0.0758 0.7462 -0.6614
vn 0.0689 0.7252 0.6851
vn 0.0215 -0.9768 0.2132
vn -0.0275 -0.9833 -0.1802
vn -0.5453 0.6636 -0.5122
vn 0.5007 0.7416 0.4465
vn 0.1551 -0.9771 0.1457
vn -0.1358 -0.9825 -0.1276
vn -0.7327 0.6698 -0.1200
vn 0.7172 0.6943 0.0593
vn 0.2157 -0.9761 0.0279
vn -0.2004 -0.9792 -0.0328
vn -0.5720 0.8133 0.1068
vn 0.7304 0.6694 -0.1358
vn 0.1954 -0.9801 -0.0363
vn -0.1624 -0.9862 0.0315
vn -0.5469 0.7505 0.3710
vn 0.5547 0.7109 -0.4324
vn 0.1547 -0.9806 -0.1206
vn -0.1621 -0.9795 0.1195
vn -0.1536 0.6675 0.7286
vn 0.1548 0.7284 -0.6675
vn 0.0339 -0.9845 -0.1723
vn -0.0425 -0.9786 0.2015
vn 0.2612 0.6716 0.6934
vn -0.3026 0.6895 -0.6580
vn -0.0796 -0.9771 -0.1975
vn 0.0737 -0.9779 0.1956
vn 0.4603 0.7762 0.4309
vn -0.5398 0.6465 -0.5391
vn -0.1446 -0.9794 -0.1408
vn 0.0933 -0.9891 0.1138
vn 0.7656 0.5626 0.3120
vn -0.5657 0.7811 -0.2644
vn -0.1851 -0.9789 -0.0865
vn 0.2505 -0.9628 0.1010
vn 0.6259 0.7532 -0.2025
vn -0.6888 0.6870 0.2315
vn -0.1728 -0.9832 0.0581
vn 0.1727 -0.9835 -0.0529
vn 0.4011 0.7489 -0.5276
vn -0.3856 0.7361 0.5563
vn -0.1193 -0.9778 0.1721
vn 0.1176 -0.9815 -0.1513
vn 0.1974 0.7336 -0.6503
vn -0.2213 0.7089 0.6697
vn -0.0711 -0.9745 0.2127
vn 0.0546 -0.9822 -0.1800
vn -0.1214 0.6548 -0.7460
vn 0.0673 0.7275 0.6828
vn 0.0244 -0.9750 0.2206
vn -0.0306 -0.9817 -0.1882
vn -0.5357 0.6853 -0.4934
vn 0.5091 0.7211 0.4699
vn 0.1516 -0.9785 0.1399
vn -0.1414 -0.9806 -0.1356
vn -0.5749 0.8174 -0.0368
vn 0.7353 0.6739 0.0720
vn 0.1954 -0.9805 0.0191
vn -0.1625 -0.9865 -0.0184
vn -0.6547 0.7382 0.1627
vn 0.7125 0.6912 -0.1206
vn 0.2012 -0.9788 -0.0394
vn -0.2018 -0.9781 0.0502
vn -0.6032 0.6555 0.4544
vn 0.5520 0.7168 -0.4261
vn 0.1456 -0.9835 -0.1076
vn -0.1696 -0.9772 0.1278
vn -0.1428 0.6886 0.7109
vn 0.1665 0.7133 -0.6808
vn 0.0484 -0.9790 -0.1979
vn -0.0402 -0.9798 0.1960
vn 0.2571 0.7883 0.5590
vn -0.2992 0.6571 -0.6919
vn -0.0777 -0.9806 -0.1797
vn 0.0629 -0.9893 0.1314
vn 0.5438 0.5432 0.6398
vn -0.4123 0.7619 -0.4994
vn -0.1489 -0.9776 -0.1487
vn 0.2002 -0.9617 0.1874
vn 0.6961 0.6476 0.3098
vn -0.6906 0.6788 -0.2498
vn -0.1830 -0.9793 -0.0862
vn 0.2004 -0.9756 0.0892
s 0
usemtl Rim
f 2//1 3//1 1//1
f 4//2 5//2 3//2
f 6//3 7//3 5//3
f 8//4 9//4 7//4
f 2//5 10//5 6//5
f 10//6 11//6 9//6
f 12//7 1//7 11//7
f 3//8 7//8 11//8
f 13//9 16//9 15//9
f 16//10 17//10 15//10
f 18//11 19//11 17//11
f 19//12 22//12 21//12
f 14//13 22//13 18//13
f 22//14 23//14 21//14
f 24//15 13//15 23//15
f 15//16 19//16 23//16
f 26//17 27//17 25//17
f 28//18 29//18 27//18
f 30//19 31//19 29//19
f 31//20 34//20 33//20
f 26//21 34//21 30//21
f 34//22 35//22 33//22
f 36//23 25//23 35//23
f 27//24 31//24 35//24
f 38//25 39//25 37//25
f 40//26 41//26 39//26
f 42//27 43//27 41//27
f 44//28 45//28 43//28
f 38//29 46//29 42//29
f 46//30 47//30 45//30
f 48//31 37//31 47//31
f 39//32 43//32 47//32
f 50//33 51//33 49//33
f 52//34 53//34 51//34
f 54//35 55//35 53//35
f 56//36 57//36 55//36
f 50//37 58//37 54//37
f 58//38 59//38 57//38
f 59//39 50//39 49//39
f 51//40 55//40 59//40
f 62//41 63//41 61//41
f 64//42 65//42 63//42
f 66//43 67//43 65//43
f 68//44 69//44 67//44
f 62//45 70//45 66//45
f 70//46 71//46 69//46
f 72//47 61//47 71//47
f 63//48 67//48 71//48
f 74//49 75//49 73//49
f 76//50 77//50 75//50
f 78//51 79//51 77//51
f 80//52 81//52 79//52
f 74//53 82//53 78//53
f 81//54 84//54 83//54
f 84//55 73//55 83//55
f 75//56 79//56 83//56
f 86//57 87//57 85//57
f 88//58 89//58 87//58
f 90//59 91//59 89//59
f 92//60 93//60 91//60
f 86//61 94//61 90//61
f 94//62 95//62 93//62
f 96//63 85//63 95//63
f 87//64 91//64 95//64
f 98//65 99//65 97//65
f 100//66 101//66 99//66
f 102//67 103//67 101//67
f 103//68 106//68 105//68
f 98//69 106//69 102//69
f 106//70 107//70 105//70
f 108//71 97//71 107//71
f 99//72 103//72 107//72
f 110//73 111//73 109//73
f 112//74 113//74 111//74
f 114//75 115//75 113//75
f 116//76 117//76 115//76
f 110//77 118//77 114//77
f 117//78 120//78 119//78
f 120//79 109//79 119//79
f 111//80 115//80 119//80
f 122//81 123//81 121//81
f 124//82 125//82 123//82
f 126//83 127//83 125//83
f 128//84 129//84 127//84
f 122//85 130//85 126//85
f 130//86 131//86 129//86
f 131//87 122//87 121//87
f 123//88 127//88 131//88
f 139//89 134//89 133//89
f 140//90 135//90 134//90
f 141//91 136//91 135//91
f 136//92 143//92 137//92
f 137//93 144//93 138//93
f 138//94 139//94 133//94
f 145//95 140//95 139//95
f 146//90 141//90 140//90
f 147//96 142//96 141//96
f 142//97 149//97 143//97
f 143//93 150//93 144//93
f 144//98 145//98 139//98
f 145//99 152//99 146//99
f 146//90 153//90 147//90
f 147//100 154//100 148//100
f 154//101 149//101 148//101
f 155//93 150//93 149//93
f 156//102 145//102 150//102
f 151//103 158//103 152//103
f 152//90 159//90 153//90
f 153//104 160//104 154//104
f 160//105 155//105 154//105
f 161//93 156//93 155//93
f 162//106 151//106 156//106
f 163//107 158//107 157//107
f 164//90 159//90 158//90
f 165//108 160//108 159//108
f 160//109 167//109 161//109
f 161//93 168//93 162//93
f 162//110 163//110 157//110
f 169//111 164//111 163//111
f 170//90 165//90 164//90
f 171//112 166//112 165//112
f 166//113 173//113 167//113
f 167//93 174//93 168//93
f 168//114 169//114 163//114
f 169//115 176//115 170//115
f 170//90 177//90 171//90
f 171//116 178//116 172//116
f 178//117 173//117 172//117
f 179//93 174//93 173//93
f 180//118 169//118 174//118
f 175//119 182//119 176//119
f 176//90 183//90 177//90
f 177//120 184//120 178//120
f 184//121 179//121 178//121
f 185//93 180//93 179//93
f 186//122 175//122 180//122
f 187//123 182//123 181//123
f 188//90 183//90 182//90
f 189//124 184//124 183//124
f 184//125 191//125 185//125
f 185//93 192//93 186//93
f 186//126 187//126 181//126
f 193//127 188//127 187//127
f 194//90 189//90 188//90
f 195//128 190//128 189//128
f 190//129 197//129 191//129
f 191//93 198//93 192//93
f 192//130 193//130 187//130
f 199//131 194//131 193//131
f 194//90 201//90 195//90
f 195//132 202//132 196//132
f 196//133 203//133 197//133
f 203//93 198//93 197//93
f 204//134 193//134 198//134
f 199//135 134//135 200//135
f 200//90 135//90 201//90
f 201//136 136//136 202//136
f 136//137 203//137 202//137
f 137//93 204//93 203//93
f 138//138 199//138 204//138
f 2//1 4//1 3//1
f 4//2 6//2 5//2
f 6//3 8//3 7//3
f 8//4 10//4 9//4
f 6//5 4//5 2//5
f 2//5 12//5 10//5
f 10//5 8//5 6//5
f 10//6 12//6 11//6
f 12//7 2//7 1//7
f 11//8 1//8 3//8
f 3//8 5//8 7//8
f 7//8 9//8 11//8
f 13//9 14//9 16//9
f 16//10 18//10 17//10
f 18//11 20//11 19//11
f 19//12 20//12 22//12
f 18//13 16//13 14//13
f 14//13 24//13 22//13
f 22//13 20//13 18//13
f 22//14 24//14 23//14
f 24//15 14//15 13//15
f 23//16 13//16 15//16
f 15//16 17//16 19//16
f 19//16 21//16 23//16
f 26//17 28//17 27//17
f 28//18 30//18 29//18
f 30//19 32//19 31//19
f 31//20 32//20 34//20
f 30//21 28//21 26//21
f 26//21 36//21 34//21
f 34//21 32//21 30//21
f 34//22 36//22 35//22
f 36//23 26//23 25//23
f 35//24 25//24 27//24
f 27//24 29//24 31//24
f 31//24 33//24 35//24
f 38//25 40//25 39//25
f 40//26 42//26 41//26
f 42//27 44//27 43//27
f 44//28 46//28 45//28
f 42//29 40//29 38//29
f 38//29 48//29 46//29
f 46//29 44//29 42//29
f 46//30 48//30 47//30
f 48//31 38//31 37//31
f 47//32 37//32 39//32
f 39//32 41//32 43//32
f 43//32 45//32 47//32
f 50//33 52//33 51//33
f 52//34 54//34 53//34
f 54//35 56//35 55//35
f 56//36 58//36 57//36
f 54//37 52//37 50//37
f 50//37 60//37 58//37
f 58//37 56//37 54//37
f 58//38 60//38 59//38
f 59//39 60//39 50//39
f 59//40 49//40 51//40
f 51//40 53//40 55//40
f 55//40 57//40 59//40
f 62//41 64//41 63//41
f 64//42 66//42 65//42
f 66//43 68//43 67//43
f 68//44 70//44 69//44
f 66//45 64//45 62//45
f 62//45 72//45 70//45
f 70//45 68//45 66//45
f 70//46 72//46 71//46
f 72//47 62//47 61//47
f 71//48 61//48 63//48
f 63//48 65//48 67//48
f 67//48 69//48 71//48
f 74//49 76//49 75//49
f 76//50 78//50 77//50
f 78//51 80//51 79//51
f 80//52 82//52 81//52
f 78//53 76//53 74//53
f 74//53 84//53 82//53
f 82//53 80//53 78//53
f 81//54 82//54 84//54
f 84//55 74//55 73//55
f 83//56 73//56 75//56
f 75//56 77//56 79//56
f 79//56 81//56 83//56
f 86//57 88//57 87//57
f 88//58 90//58 89//58
f 90//59 92//59 91//59
f 92//60 94//60 93//60
f 90//61 88//61 86//61
f 86//61 96//61 94//61
f 94//61 92//61 90//61
f 94//62 96//62 95//62
f 96//63 86//63 85//63
f 95//64 85//64 87//64
f 87//64 89//64 91//64
f 91//64 93//64 95//64
f 98//65 100//65 99//65
f 100//66 102//66 101//66
f 102//67 104//67 103//67
f 103//68 104//68 106//68
f 102//69 100//69 98//69
f 98//69 108//69 106//69
f 106//69 104//69 102//69
f 106//70 108//70 107//70
f 108//71 98//71 97//71
f 107//72 97//72 99//72
f 99//72 101//72 103//72
f 103//72 105//72 107//72
f 110//73 112//73 111//73
f 112//74 114//74 113//74
f 114//75 116//75 115//75
f 116//76 118//76 117//76
f 114//77 112//77 110//77
f 110//77 120//77 118//77
f 118//77 116//77 114//77
f 117//78 118//78 120//78
f 120//79 110//79 109//79
f 119//80 109//80 111//80
f 111//80 113//80 115//80
f 115//80 117//80 119//80
f 122//81 124//81 123//81
f 124//82 126//82 125//82
f 126//83 128//83 127//83
f 128//84 130//84 129//84
f 126//85 124//85 122//85
f 122//85 132//85 130//85
f 130//85 128//85 126//85
f 130//86 132//86 131//86
f 131//87 132//87 122//87
f 131//88 121//88 123//88
f 123//88 125//88 127//88
f 127//88 129//88 131//88
f 139//139 140//139 134//139
f 140//90 141//90 135//90
f 141//140 142//140 136//140
f 136//141 142//141 143//141
f 137//93 143//93 144//93
f 138//142 144//142 139//142
f 145//143 146//143 140//143
f 146//90 147//90 141//90
f 147//144 148//144 142//144
f 142//145 148//145 149//145
f 143//93 149//93 150//93
f 144//146 150//146 145//146
f 145//147 151//147 152//147
f 146//90 152//90 153//90
f 147//148 153//148 154//148
f 154//149 155//149 149//149
f 155//93 156//93 150//93
f 156//150 151//150 145//150
f 151//151 157//151 158//151
f 152//90 158//90 159//90
f 153//152 159//152 160//152
f 160//153 161//153 155//153
f 161//93 162//93 156//93
f 162//154 157//154 151//154
f 163//155 164//155 158//155
f 164//90 165//90 159//90
f 165//156 166//156 160//156
f 160//157 166//157 167//157
f 161//93 167//93 168//93
f 162//158 168//158 163//158
f 169//159 170//159 164//159
f 170//90 171//90 165//90
f 171//160 172//160 166//160
f 166//161 172//161 173//161
f 167//93 173//93 174//93
f 168//162 174//162 169//162
f 169//163 175//163 176//163
f 170//90 176//90 177//90
f 171//164 177//164 178//164
f 178//165 179//165 173//165
f 179//93 180//93 174//93
f 180//166 175//166 169//166
f 175//167 181//167 182//167
f 176//90 182//90 183//90
f 177//168 183//168 184//168
f 184//169 185//169 179//169
f 185//93 186//93 180//93
f 186//170 181//170 175//170
f 187//171 188//171 182//171
f 188//90 189//90 183//90
f 189//172 190//172 184//172
f 184//173 190//173 191//173
f 185//93 191//93 192//93
f 186//174 192//174 187//174
f 193//175 194//175 188//175
f 194//90 195//90 189//90
f 195//176 196//176 190//176
f 190//177 196//177 197//177
f 191//93 197//93 198//93
f 192//178 198//178 193//178
f 199//179 200//179 194//179
f 194//90 200//90 201//90
f 195//180 201//180 202//180
f 196//181 202//181 203//181
f 203//93 204//93 198//93
f 204//182 199//182 193//182
f 199//183 133//183 134//183
f 200//90 134//90 135//90
f 201//184 135//184 136//184
f 136//185 137//185 203//185
f 137//93 138//93 204//93
f 138//186 133//186 199//186
o Pool
v 0.000000 0.080000 -1.740000
v 0.000000 0.200000 -1.740000
v 0.754958 0.080000 -1.567686
v 0.754958 0.200000 -1.567686
v 1.360387 0.080000 -1.084872
v 1.360387 0.200000 -1.084872
v 1.696375 0.080000 -0.387186
v 1.696375 0.200000 -0.387186
v 1.696375 0.080000 0.387186
v 1.696375 0.200000 0.387186
v 1.360387 0.080000 1.084872
v 1.360387 0.200000 1.084872
v 0.754958 0.080000 1.567686
v 0.754958 0.200000 1.567686
v 0.000000 0.080000 1.740000
v 0.000000 0.200000 1.740000
v -0.754958 0.080000 1.567686
v -0.754958 0.200000 1.567686
v -1.360387 0.080000 1.084872
v -1.360387 0.200000 1.084872
v -1.696375 0.080000 0.387186
v -1.696375 0.200000 0.387186
v -1.696375 0.080000 -0.387186
v -1.696375 0.200000 -0.387186
v -1.360387 0.080000 -1.084872
v -1.360387 0.200000 -1.084872
v -0.754958 0.080000 -1.567686
v -0.754958 0.200000 -1.567686
vn 0.2225 -0.0000 -0.9749
vn 0.6235 -0.0000 -0.7818
vn 0.9010 -0.0000 -0.4339
vn 1.0000 -0.0000 -0.0000
vn 0.9010 -0.0000 0.4339
vn 0.6235 -0.0000 0.7818
vn 0.2225 -0.0000 0.9749
vn -0.2225 -0.0000 0.9749
vn -0.6235 -0.0000 0.7818
vn -0.9010 -0.0000 0.4339
vn -1.0000 -0.0000 -0.0000
vn -0.9010 -0.0000 -0.4339
vn -0.0000 1.0000 -0.0000
vn -0.6235 -0.0000 -0.7818
vn -0.2225 -0.0000 -0.9749
vn -0.0000 -1.0000 -0.0000
s 0
usemtl Pool
f 206//187 207//187 205//187
f 208//188 209//188 207//188
f 210//189 211//189 209//189
f 212//190 213//190 211//190
f 214//191 215//191 213//191
f 216//192 217//192 215//192
f 218//193 219//193 217//193
f 220//194 221//194 219//194
f 222//195 223//195 221//195
f 224//196 225//196 223//196
f 226//197 227//197 225//197
f 228//198 229//198 227//198
f 230//199 222//199 214//199
f 230//200 231//200 229//200
f 232//201 205//201 231//201
f 211//202 219//202 227//202
f 206//187 208//187 207//187
f 208//188 210//188 209//188
f 210//189 212//189 211//189
f 212//190 214//190 213//190
f 214//191 216//191 215//191
f 216//192 218//192 217//192
f 218//193 220//193 219//193
f 220//194 222//194 221//194
f 222//195 224//195 223//195
f 224//196 226//196 225//196
f 226//197 228//197 227//197
f 228//198 230//198 229//198
f 210//199 208//199 206//199
f 206//199 232//199 230//199
f 230//199 228//199 226//199
f 226//199 224//199 222//199
f 222//199 220//199 218//199
f 218//199 216//199 214//199
f 214//199 212//199 210//199
f 210//199 206//199 230//199
f 230//199 226//199 222//199
f 222//199 218//199 214//199
f 214//199 210//199 230//199
f 230//200 232//200 231//200
f 232//201 206//201 205//201
f 231//202 205//202 207//202
f 207//202 209//202 211//202
f 211//202 213//202 215//202
f 215//202 217//202 219//202
f 219//202 221//202 223//202
f 223//202 225//202 227//202
f 227//202 229//202 231//202
f 231//202 207//202 211//202
f 211//202 215//202 219//202
f 219//202 223//202 227//202
f 227//202 231//202 211//202
o Crust
v 1.228940 0.190602 -0.477659
v 1.206275 0.318010 -0.465277
v 1.065935 0.190602 -0.776037
v 1.043270 0.318010 -0.763655
v 1.624581 0.281990 -0.693799
v 1.601916 0.409398 -0.681417
v 1.461576 0.281990 -0.992177
v 1.438911 0.409398 -0.979795
v 0.200805 0.190602 -1.303123
v 0.200196 0.318010 -1.277303
v -0.139100 0.190602 -1.311146
v -0.139710 0.318010 -1.285326
v 0.211443 0.281990 -1.753828
v 0.210834 0.409398 -1.728008
v -0.128462 0.281990 -1.761851
v -0.129072 0.409398 -1.736031
v -1.028135 0.190602 -0.825464
v -1.006079 0.318010 -0.812026
v -1.205035 0.190602 -0.535109
v -1.182979 0.318010 -0.521671
v -1.413138 0.281990 -1.060029
v -1.391082 0.409398 -1.046592
v -1.590038 0.281990 -0.769674
v -1.567982 0.409398 -0.756236
v -1.228940 0.190602 0.477659
v -1.206275 0.318010 0.465277
v -1.065935 0.190602 0.776037
v -1.043270 0.318010 0.763655
v -1.624581 0.281990 0.693799
v -1.601916 0.409398 0.681417
v -1.461576 0.281990 0.992177
v -1.438911 0.409398 0.979795
v -0.200805 0.190602 1.303123
v -0.200196 0.318010 1.277303
v 0.139100 0.190602 1.311146
v 0.139710 0.318010 1.285326
v -0.211443 0.281990 1.753828
v -0.210834 0.409398 1.728008
v 0.128462 0.281990 1.761851
v 0.129072 0.409398 1.736031
v 1.028135 0.190602 0.825464
v 1.006079 0.318010 0.812026
v 1.205035 0.190602 0.535109
v 1.182979 0.318010 0.521671
v 1.413138 0.281990 1.060029
v 1.391082 0.409398 1.046592
v 1.590038 0.281990 0.769674
v 1.567982 0.409398 0.756236
vn -0.8601 -0.1987 0.4699
vn -0.4794 -0.0000 -0.8776
vn 0.8601 0.1987 -0.4699
vn 0.4794 -0.0000 0.8776
vn 0.1743 -0.9801 -0.0952
vn -0.1743 0.9801 0.0952
vn -0.0231 -0.1987 0.9798
vn -0.9997 -0.0000 -0.0236
vn 0.0231 0.1987 -0.9798
vn 0.9997 -0.0000 0.0236
vn 0.0047 -0.9801 -0.1986
vn -0.0047 0.9801 0.1986
vn 0.8370 -0.1987 0.5099
vn -0.5203 -0.0000 0.8540
vn -0.8370 0.1987 -0.5099
vn 0.5203 -0.0000 -0.8540
vn -0.1697 -0.9801 -0.1034
vn 0.1697 0.9801 0.1034
vn 0.8601 -0.1987 -0.4699
vn -0.8601 0.1987 0.4699
vn -0.1743 -0.9801 0.0952
vn 0.1743 0.9801 -0.0952
vn 0.0231 -0.1987 -0.9798
vn -0.0231 0.1987 0.9798
vn -0.0047 -0.9801 0.1986
vn 0.0047 0.9801 -0.1986
vn -0.8370 -0.1987 -0.5099
vn 0.8370 0.1987 0.5099
vn 0.1697 -0.9801 0.1034
vn -0.1697 0.9801 -0.1034
s 0
usemtl Crust
f 233//203 236//203 235//203
f 235//204 240//204 239//204
f 240//205 237//205 239//205
f 237//206 234//206 233//206
f 235//207 237//207 233//207
f 236//208 238//208 240//208
f 241//209 244//209 243//209
f 244//210 247//210 243//210
f 248//211 245//211 247//211
f 246//212 241//212 245//212
f 247//213 241//213 243//213
f 248//214 242//214 246//214
f 249//215 252//215 251//215
f 251//216 256//216 255//216
f 256//217 253//217 255//217
f 254//218 249//218 253//218
f 255//219 249//219 251//219
f 256//220 250//220 254//220
f 257//221 260//221 259//221
f 259//206 264//206 263//206
f 263//222 262//222 261//222
f 262//204 257//204 261//204
f 263//223 257//223 259//223
f 264//224 258//224 262//224
f 265//225 268//225 267//225
f 268//212 271//212 267//212
f 272//226 269//226 271//226
f 269//210 266//210 265//210
f 271//227 265//227 267//227
f 268//228 270//228 272//228
f 273//229 276//229 275//229
f 275//218 280//218 279//218
f 280//230 277//230 279//230
f 278//216 273//216 277//216
f 279//231 273//231 275//231
f 276//232 278//232 280//232
f 233//203 234//203 236//203
f 235//204 236//204 240//204
f 240//205 238//205 237//205
f 237//206 238//206 234//206
f 235//207 239//207 237//207
f 236//208 234//208 238//208
f 241//209 242//209 244//209
f 244//210 248//210 247//210
f 248//211 246//211 245//211
f 246//212 242//212 241//212
f 247//213 245//213 241//213
f 248//214 244//214 242//214
f 249//215 250//215 252//215
f 251//216 252//216 256//216
f 256//217 254//217 253//217
f 254//218 250//218 249//218
f 255//219 253//219 249//219
f 256//220 252//220 250//220
f 257//221 258//221 260//221
f 259//206 260//206 264//206
f 263//222 264//222 262//222
f 262//204 258//204 257//204
f 263//223 261//223 257//223
f 264//224 260//224 258//224
f 265//225 266//225 268//225
f 268//212 272//212 271//212
f 272//226 270//226 269//226
f 269//210 270//210 266//210
f 271//227 269//227 265//227
f 268//228 266//228 270//228
f 273//229 274//229 276//229
f 275//218 276//218 280//218
f 280//230 278//230 277//230
f 278//216 274//216 273//216
f 279//231 277//231 273//231
f 276//232 274//232 278//232
o Spikes
v 2.016828 0.180000 -0.949108
v 2.253412 0.090481 -0.822559
v 2.153987 0.180000 -0.573359
v 1.917403 0.269519 -0.699907
v 2.627600 1.333140 -0.959149
v 0.186463 0.180000 -2.221178
v 0.413198 0.078252 -2.356228
v 0.580450 0.180000 -2.152087
v 0.353716 0.281748 -2.017036
v 0.485339 1.178170 -2.767613
v -1.830365 0.180000 -1.272070
v -1.844931 0.107768 -1.545146
v -1.573536 0.180000 -1.578728
v -1.558971 0.252232 -1.305652
v -1.953206 1.026202 -1.635828
v -2.016828 0.180000 0.949108
v -2.259846 0.105727 0.824908
v -2.153987 0.180000 0.573358
v -1.910968 0.254273 0.697558
v -2.469622 1.202609 0.901482
v -0.186462 0.180000 2.221178
v -0.412495 0.071665 2.352223
v -0.580450 0.180000 2.152087
v -0.354418 0.288335 2.021041
v -0.476187 1.013119 2.715422
v 1.830365 0.180000 1.272070
v 1.844361 0.105877 1.544669
v 1.573537 0.180000 1.578728
v 1.559541 0.254123 1.306130
v 2.053158 1.328049 1.719538
vn 0.3953 -0.2171 -0.8925
vn 0.8773 -0.2171 0.4280
vn -0.4205 -0.8942 0.1535
vn -0.3036 0.4121 0.8591
vn -0.7856 0.4121 -0.4615
vn -0.5763 -0.2528 -0.7771
vn 0.8064 -0.2528 -0.5346
vn -0.0879 -0.8609 0.5011
vn 0.5976 0.4613 0.6558
vn -0.7851 0.4613 0.4133
vn -0.9907 -0.1087 0.0816
vn -0.0935 -0.1087 -0.9897
vn 0.2769 -0.9325 0.2319
vn 0.9054 0.3959 -0.1530
vn 0.0082 0.3959 0.9182
vn -0.4157 -0.1422 0.8983
vn -0.8966 -0.1422 -0.4193
vn 0.3489 -0.9285 -0.1273
vn 0.3268 0.3787 -0.8659
vn 0.8078 0.3787 0.4518
vn 0.5746 -0.2604 0.7759
vn -0.8043 -0.2604 0.5340
vn 0.0936 -0.8406 -0.5335
vn -0.6011 0.4979 -0.6251
vn 0.7779 0.4979 -0.3833
vn 0.9836 -0.1548 -0.0926
vn 0.0815 -0.1548 0.9846
vn -0.2841 -0.9288 -0.2380
vn -0.9190 0.3659 0.1467
vn -0.0169 0.3659 -0.9305
s 0
usemtl Spikes
f 281//233 285//233 282//233
f 282//234 285//234 283//234
f 281//235 283//235 284//235
f 283//236 285//236 284//236
f 284//237 285//237 281//237
f 286//238 290//238 287//238
f 287//239 290//239 288//239
f 287//240 289//240 286//240
f 288//241 290//241 289//241
f 289//242 290//242 286//242
f 291//243 295//243 292//243
f 292//244 295//244 293//244
f 291//245 293//245 294//245
f 293//246 295//246 294//246
f 294//247 295//247 291//247
f 296//248 300//248 297//248
f 297//249 300//249 298//249
f 296//250 298//250 299//250
f 298//251 300//251 299//251
f 299//252 300//252 296//252
f 301//253 305//253 302//253
f 302//254 305//254 303//254
f 302//255 304//255 301//255
f 303//256 305//256 304//256
f 304//257 305//257 301//257
f 306//258 310//258 307//258
f 307//259 310//259 308//259
f 307//260 309//260 306//260
f 308//261 310//261 309//261
f 309//262 310//262 306//262
f 281//235 282//235 283//235
f 287//240 288//240 289//240
f 291//245 292//245 293//245
f 296//250 297//250 298//250
f 302//255 303//255 304//255
f 307//260 308//260 309//260
o Bubbles
v 0.440000 -0.040000 -0.280000
v 0.628136 0.103724 -0.143313
v 0.368140 0.103724 -0.058834
v 0.207450 0.103724 -0.280000
v 0.368140 0.103724 -0.501166
v 0.628136 0.103724 -0.416687
v 0.511860 0.336276 -0.058834
v 0.251864 0.336276 -0.143313
v 0.251864 0.336276 -0.416687
v 0.511860 0.336276 -0.501166
v 0.672550 0.336276 -0.280000
v 0.440000 0.480000 -0.280000
v -0.520000 0.020000 0.180000
v -0.375280 0.130557 0.285144
v -0.575277 0.130557 0.350128
v -0.698885 0.130557 0.180000
v -0.575277 0.130557 0.009872
v -0.375280 0.130557 0.074856
v -0.464723 0.309443 0.350128
v -0.664720 0.309443 0.285144
v -0.664720 0.309443 0.074856
v -0.464723 0.309443 0.009872
v -0.341115 0.309443 0.180000
v -0.520000 0.420000 0.180000
v 0.080000 0.060000 0.600000
v 0.195776 0.148446 0.684115
v 0.035778 0.148446 0.736102
v -0.063108 0.148446 0.600000
v 0.035778 0.148446 0.463898
v 0.195776 0.148446 0.515885
v 0.124222 0.291554 0.736102
v -0.035776 0.291554 0.684115
v -0.035776 0.291554 0.515885
v 0.124222 0.291554 0.463898
v 0.223108 0.291554 0.600000
v 0.080000 0.380000 0.600000
v -0.180000 0.080000 -0.640000
v -0.078696 0.157390 -0.566399
v -0.218694 0.157390 -0.520910
v -0.305219 0.157390 -0.640000
v -0.218694 0.157390 -0.759090
v -0.078696 0.157390 -0.713601
v -0.141306 0.282610 -0.520910
v -0.281304 0.282610 -0.566399
v -0.281304 0.282610 -0.713601
v -0.141306 0.282610 -0.759090
v -0.054781 0.282610 -0.640000
v -0.180000 0.360000 -0.640000
vn 0.1876 -0.7947 0.5774
vn 0.6071 -0.7947 -0.0000
vn -0.4911 -0.7947 0.3568
vn -0.4911 -0.7947 -0.3568
vn 0.1876 -0.7947 -0.5774
vn 0.9822 -0.1876 -0.0000
vn 0.3035 -0.1876 0.9342
vn -0.7946 -0.1876 0.5774
vn -0.7946 -0.1876 -0.5774
vn 0.3035 -0.1876 -0.9342
vn 0.7946 0.1876 0.5774
vn -0.3035 0.1876 0.9342
vn -0.9822 0.1876 -0.0000
vn -0.3035 0.1876 -0.9342
vn 0.7946 0.1876 -0.5774
vn 0.4911 0.7947 0.3568
vn -0.1876 0.7947 0.5774
vn -0.6071 0.7947 -0.0000
vn -0.1876 0.7947 -0.5774
vn 0.4911 0.7947 -0.3568
s 0
usemtl Bubbles
f 311//263 312//263 313//263
f 312//264 311//264 316//264
f 311//265 313//265 314//265
f 311//266 314//266 315//266
f 311//267 315//267 316//267
f 312//268 316//268 321//268
f 313//269 312//269 317//269
f 314//270 313//270 318//270
f 315//271 314//271 319//271
f 316//272 315//272 320//272
f 312//273 321//273 317//273
f 313//274 317//274 318//274
f 314//275 318//275 319//275
f 315//276 319//276 320//276
f 316//277 320//277 321//277
f 317//278 321//278 322//278
f 318//279 317//279 322//279
f 319//280 318//280 322//280
f 320//281 319//281 322//281
f 321//282 320//282 322//282
f 323//263 324//263 325//263
f 324//264 323//264 328//264
f 323//265 325//265 326//265
f 323//266 326//266 327//266
f 323//267 327//267 328//267
f 324//268 328//268 333//268
f 325//269 324//269 329//269
f 326//270 325//270 330//270
f 327//271 326//271 331//271
f 328//272 327//272 332//272
f 324//273 333//273 329//273
f 325//274 329//274 330//274
f 326//275 330//275 331//275
f 327//276 331//276 332//276
f 328//277 332//277 333//277
f 329//278 333//278 334//278
f 330//279 329//279 334//279
f 331//280 330//280 334//280
f 332//281 331//281 334//281
f 333//282 332//282 334//282
f 335//263 336//263 337//263
f 336//264 335//264 340//264
f 335//265 337//265 338//265
f 335//266 338//266 339//266
f 335//267 339//267 340//267
f 336//268 340//268 345//268
f 337//269 336//269 341//269
f 338//270 337//270 342//270
f 339//271 338//271 343//271
f 340//272 339//272 344//272
f 336//273 345//273 341//273
f 337//274 341//274 342//274
f 338//275 342//275 343//275
f 339//276 343//276 344//276
f 340//277 344//277 345//277
f 341//278 345//278 346//278
f 342//279 341//279 346//279
f 343//280 342//280 346//280
f 344//281 343//281 346//281
f 345//282 344//282 346//282
f 347//263 348//263 349//263
f 348//264 347//264 352//264
f 347//265 349//265 350//265
f 347//266 350//266 351//266
f 347//267 351//267 352//267
f 348//268 352//268 357//268
f 349//269 348//269 353//269
f 350//270 349//270 354//270
f 351//271 350//271 355//271
f 352//272 351//272 356//272
f 348//273 357//273 353//273
f 349//274 353//274 354//274
f 350//275 354//275 355//275
f 351//276 355//276 356//276
f 352//277 356//277 357//277
f 353//278 357//278 358//278
f 354//279 353//279 358//279
f 355//280 354//280 358//280
f 356//281 355//281 358//281
f 357//282 356//282 358//282
o Glow
v 1.501567 0.110000 -0.352311
v 1.501567 0.330000 -0.352311
v 1.453672 0.110000 -0.515425
v 1.453672 0.330000 -0.515425
v 2.000503 0.110000 -0.498812
v 2.000503 0.330000 -0.498812
v 1.952608 0.110000 -0.661926
v 1.952608 0.330000 -0.661926
v 1.072724 0.110000 -1.108191
v 1.072724 0.330000 -1.108191
v 0.944247 0.110000 -1.219517
v 0.944247 0.330000 -1.219517
v 1.413252 0.110000 -1.501181
v 1.413252 0.330000 -1.501181
v 1.284774 0.110000 -1.612507
v 1.284774 0.330000 -1.612507
v 0.303300 0.110000 -1.512228
v 0.303300 0.330000 -1.512228
v 0.135030 0.110000 -1.536422
v 0.135030 0.330000 -1.536422
v 0.377303 0.110000 -2.026935
v 0.377303 0.330000 -2.026935
v 0.209034 0.110000 -2.051129
v 0.209034 0.330000 -2.051129
v -0.562420 0.110000 -1.436144
v -0.562420 0.330000 -1.436144
v -0.717058 0.110000 -1.365523
v -0.717058 0.330000 -1.365523
v -0.778436 0.110000 -1.909152
v -0.778436 0.330000 -1.909152
v -0.933074 0.110000 -1.838532
v -0.933074 0.330000 -1.838532
v -1.249576 0.110000 -0.904093
v -1.249576 0.330000 -0.904093
v -1.341485 0.110000 -0.761080
v -1.341485 0.330000 -0.761080
v -1.687028 0.110000 -1.185227
v -1.687028 0.330000 -1.185227
v -1.778937 0.110000 -1.042214
v -1.778937 0.330000 -1.042214
v -1.540000 0.110000 -0.085000
v -1.540000 0.330000 -0.085000
v -1.540000 0.110000 0.085000
v -1.540000 0.330000 0.085000
v -2.060000 0.110000 -0.085000
v -2.060000 0.330000 -0.085000
v -2.060000 0.110000 0.085000
v -2.060000 0.330000 0.085000
v -1.341485 0.110000 0.761080
v -1.341485 0.330000 0.761080
v -1.249576 0.110000 0.904093
v -1.249576 0.330000 0.904093
v -1.778937 0.110000 1.042213
v -1.778937 0.330000 1.042213
v -1.687028 0.110000 1.185227
v -1.687028 0.330000 1.185227
v -0.717058 0.110000 1.365523
v -0.717058 0.330000 1.365523
v -0.562420 0.110000 1.436144
v -0.562420 0.330000 1.436144
v -0.933074 0.110000 1.838532
v -0.933074 0.330000 1.838532
v -0.778436 0.110000 1.909152
v -0.778436 0.330000 1.909152
v 0.135030 0.110000 1.536422
v 0.135030 0.330000 1.536422
v 0.303300 0.110000 1.512228
v 0.303300 0.330000 1.512228
v 0.209034 0.110000 2.051129
v 0.209034 0.330000 2.051129
v 0.377303 0.110000 2.026935
v 0.377303 0.330000 2.026935
v 0.944247 0.110000 1.219517
v 0.944247 0.330000 1.219517
v 1.072724 0.110000 1.108191
v 1.072724 0.330000 1.108191
v 1.284774 0.110000 1.612507
v 1.284774 0.330000 1.612507
v 1.413252 0.110000 1.501181
v 1.413252 0.330000 1.501181
v 1.453672 0.110000 0.515425
v 1.453672 0.330000 0.515425
v 1.501567 0.110000 0.352311
v 1.501567 0.330000 0.352311
v 1.952608 0.110000 0.661926
v 1.952608 0.330000 0.661926
v 2.000503 0.110000 0.498812
v 2.000503 0.330000 0.498812
vn -0.9595 -0.0000 0.2817
vn -0.2817 -0.0000 -0.9595
vn 0.9595 -0.0000 -0.2817
vn 0.2817 -0.0000 0.9595
vn -0.0000 -1.0000 -0.0000
vn -0.0000 1.0000 -0.0000
vn -0.6549 -0.0000 0.7557
vn -0.7557 -0.0000 -0.6549
vn 0.6549 -0.0000 -0.7557
vn 0.7557 -0.0000 0.6549
vn -0.1423 -0.0000 0.9898
vn -0.9898 -0.0000 -0.1423
vn 0.1423 -0.0000 -0.9898
vn 0.9898 -0.0000 0.1423
vn 0.4154 -0.0000 0.9096
vn -0.9096 -0.0000 0.4154
vn -0.4154 -0.0000 -0.9096
vn 0.9096 -0.0000 -0.4154
vn 0.8413 -0.0000 0.5406
vn -0.5406 -0.0000 0.8413
vn -0.8413 -0.0000 -0.5406
vn 0.5406 -0.0000 -0.8413
vn 1.0000 -0.0000 -0.0000
vn -0.0000 -0.0000 1.0000
vn -1.0000 -0.0000 -0.0000
vn -0.0000 -0.0000 -1.0000
vn 0.8413 -0.0000 -0.5406
vn 0.5406 -0.0000 0.8413
vn -0.8413 -0.0000 0.5406
vn -0.5406 -0.0000 -0.8413
vn 0.4154 -0.0000 -0.9096
vn 0.9096 -0.0000 0.4154
vn -0.4154 -0.0000 0.9096
vn -0.9096 -0.0000 -0.4154
vn -0.1423 -0.0000 -0.9898
vn 0.9898 -0.0000 -0.1423
vn 0.1423 -0.0000 0.9898
vn -0.9898 -0.0000 0.1423
vn -0.6549 -0.0000 -0.7557
vn 0.7557 -0.0000 -0.6549
vn 0.6549 -0.0000 0.7557
vn -0.7557 -0.0000 0.6549
vn -0.9595 -0.0000 -0.2817
vn 0.2817 -0.0000 -0.9595
vn 0.9595 -0.0000 0.2817
vn -0.2817 -0.0000 0.9595
s 0
usemtl Glow
f 360//283 361//283 359//283
f 362//284 365//284 361//284
f 366//285 363//285 365//285
f 364//286 359//286 363//286
f 365//287 359//287 361//287
f 366//288 360//288 364//288
f 368//289 369//289 367//289
f 370//290 373//290 369//290
f 374//291 371//291 373//291
f 372//292 367//292 371//292
f 373//287 367//287 369//287
f 370//288 372//288 374//288
f 376//293 377//293 375//293
f 378//294 381//294 377//294
f 382//295 379//295 381//295
f 380//296 375//296 379//296
f 381//287 375//287 377//287
f 378//288 380//288 382//288
f 384//297 385//297 383//297
f 386//298 389//298 385//298
f 390//299 387//299 389//299
f 388//300 383//300 387//300
f 389//287 383//287 385//287
f 386//288 388//288 390//288
f 392//301 393//301 391//301
f 394//302 397//302 393//302
f 398//303 395//303 397//303
f 396//304 391//304 395//304
f 397//287 391//287 393//287
f 394//288 396//288 398//288
f 400//305 401//305 399//305
f 402//306 405//306 401//306
f 406//307 403//307 405//307
f 404//308 399//308 403//308
f 405//287 399//287 401//287
f 402//288 404//288 406//288
f 408//309 409//309 407//309
f 410//310 413//310 409//310
f 414//311 411//311 413//311
f 412//312 407//312 411//312
f 413//287 407//287 409//287
f 414//288 408//288 412//288
f 416//313 417//313 415//313
f 418//314 421//314 417//314
f 422//315 419//315 421//315
f 420//316 415//316 419//316
f 421//287 415//287 417//287
f 418//288 420//288 422//288
f 424//317 425//317 423//317
f 426//318 429//318 425//318
f 430//319 427//319 429//319
f 428//320 423//320 427//320
f 425//287 427//287 423//287
f 426//288 428//288 430//288
f 432//321 433//321 431//321
f 434//322 437//322 433//322
f 438//323 435//323 437//323
f 436//324 431//324 435//324
f 437//287 431//287 433//287
f 434//288 436//288 438//288
f 440//325 441//325 439//325
f 442//326 445//326 441//326
f 446//327 443//327 445//327
f 444//328 439//328 443//328
f 445//287 439//287 441//287
f 442//288 444//288 446//288
f 360//283 362//283 361//283
f 362//284 366//284 365//284
f 366//285 364//285 363//285
f 364//286 360//286 359//286
f 365//287 363//287 359//287
f 366//288 362//288 360//288
f 368//289 370//289 369//289
f 370//290 374//290 373//290
f 374//291 372//291 371//291
f 372//292 368//292 367//292
f 373//287 371//287 367//287
f 370//288 368//288 372//288
f 376//293 378//293 377//293
f 378//294 382//294 381//294
f 382//295 380//295 379//295
f 380//296 376//296 375//296
f 381//287 379//287 375//287
f 378//288 376//288 380//288
f 384//297 386//297 385//297
f 386//298 390//298 389//298
f 390//299 388//299 387//299
f 388//300 384//300 383//300
f 389//287 387//287 383//287
f 386//288 384//288 388//288
f 392//301 394//301 393//301
f 394//302 398//302 397//302
f 398//303 396//303 395//303
f 396//304 392//304 391//304
f 397//287 395//287 391//287
f 394//288 392//288 396//288
f 400//305 402//305 401//305
f 402//306 406//306 405//306
f 406//307 404//307 403//307
f 404//308 400//308 399//308
f 405//287 403//287 399//287
f 402//288 400//288 404//288
f 408//309 410//309 409//309
f 410//310 414//310 413//310
f 414//311 412//311 411//311
f 412//312 408//312 407//312
f 413//287 411//287 407//287
f 414//288 410//288 408//288
f 416//313 418//313 417//313
f 418//314 422//314 421//314
f 422//315 420//315 419//315
f 420//316 416//316 415//316
f 421//287 419//287 415//287
f 418//288 416//288 420//288
f 424//317 426//317 425//317
f 426//318 430//318 429//318
f 430//319 428//319 427//319
f 428//320 424//320 423//320
f 425//287 429//287 427//287
f 426//288 424//288 428//288
f 432//321 434//321 433//321
f 434//322 438//322 437//322
f 438//323 436//323 435//323
f 436//324 432//324 431//324
f 437//287 435//287 431//287
f 434//288 432//288 436//288
f 440//325 442//325 441//325
f 442//326 446//326 445//326
f 446//327 444//327 443//327
f 444//328 440//328 439//328
f 445//287 443//287 439//287
f 442//288 440//288 444//288
