# Blender 5.2.1 LTS
# www.blender.org
mtllib NestDunes.mtl
o Rim
v 2.718277 0.200000 0.000000
v 2.486987 0.468468 0.000000
v 1.916562 0.468468 0.000000
v 1.723477 0.200000 0.000000
v 1.977425 0.150000 0.000000
v 2.522915 0.150000 0.000000
v 2.362626 0.200000 -1.240002
v 2.131824 0.468468 -1.118868
v 1.672485 0.468468 -0.877788
v 1.456870 0.200000 -0.764624
v 1.670462 0.150000 -0.876726
v 2.173144 0.150000 -1.140554
v 1.424017 0.200000 -2.063046
v 1.312365 0.468468 -1.901290
v 1.033163 0.468468 -1.496795
v 0.879897 0.200000 -1.274752
v 1.007928 0.150000 -1.460237
v 1.287168 0.150000 -1.864786
v 0.298186 0.200000 -2.455779
v 0.276795 0.468468 -2.279611
v 0.214265 0.468468 -1.764632
v 0.185300 0.200000 -1.526077
v 0.220564 0.150000 -1.816507
v 0.274381 0.150000 -2.259727
v -0.972507 0.200000 -2.564289
v -0.880861 0.468468 -2.322638
v -0.686635 0.468468 -1.810508
v -0.585320 0.200000 -1.543363
v -0.672942 0.150000 -1.774401
v -0.856197 0.150000 -2.257605
v -2.065906 0.200000 -1.830233
v -1.852825 0.468468 -1.641459
v -1.449957 0.468468 -1.284549
v -1.242509 0.200000 -1.100766
v -1.452934 0.150000 -1.287187
v -1.844376 0.150000 -1.633974
v -2.453455 0.200000 -0.604722
v -2.235930 0.468468 -0.551107
v -1.767553 0.468468 -0.435663
v -1.538832 0.200000 -0.379288
v -1.781966 0.150000 -0.439215
v -2.265029 0.150000 -0.558280
v -2.456329 0.200000 0.605430
v -2.170897 0.468468 0.535077
v -1.698373 0.468468 0.418611
v -1.484422 0.200000 0.365876
v -1.707170 0.150000 0.420779
v -2.196734 0.150000 0.541445
v -1.972273 0.200000 1.747280
v -1.773067 0.468468 1.570799
v -1.386333 0.468468 1.228183
v -1.232825 0.200000 1.092187
v -1.415962 0.150000 1.254433
v -1.794508 0.150000 1.589795
v -0.983056 0.200000 2.592106
v -0.894362 0.468468 2.358238
v -0.683932 0.468468 1.803381
v -0.596029 0.200000 1.571599
v -0.695514 0.150000 1.833918
v -0.889186 0.150000 2.344591
v 0.317566 0.200000 2.615390
v 0.287274 0.468468 2.365914
v 0.224884 0.468468 1.852087
v 0.194324 0.200000 1.600398
v 0.229994 0.150000 1.894167
v 0.292733 0.150000 2.410872
v 1.415840 0.200000 2.051201
v 1.279002 0.468468 1.852957
v 0.994766 0.468468 1.441169
v 0.879179 0.200000 1.273713
v 0.998306 0.150000 1.446298
v 1.287517 0.150000 1.865293
v 2.259569 0.200000 1.185914
v 2.059808 0.468468 1.081071
v 1.651607 0.468468 0.866831
v 1.399046 0.200000 0.734277
v 1.629729 0.150000 0.855348
v 2.047330 0.150000 1.074523
v 2.003116 0.500000 0.000000
v 1.859215 0.676669 0.000000
v 1.524400 0.676669 0.000000
v 1.319239 0.500000 0.000000
v 1.503731 0.450000 0.000000
v 1.846613 0.450000 0.000000
v 1.741222 0.500000 -1.005295
v 1.587512 0.676669 -0.916551
v 1.282488 0.676669 -0.740445
v 1.145513 0.500000 -0.661362
v 1.286674 0.450000 -0.742862
v 1.570515 0.450000 -0.906738
v 0.941300 0.500000 -1.630379
v 0.866922 0.676669 -1.501553
v 0.703610 0.676669 -1.218688
v 0.611492 0.500000 -1.059134
v 0.706324 0.450000 -1.223390
v 0.861577 0.450000 -1.492296
v 0.000000 0.500000 -1.941523
v 0.000000 0.676669 -1.734099
v 0.000000 0.676669 -1.415228
v 0.000000 0.500000 -1.237025
v 0.000000 0.450000 -1.419837
v 0.000000 0.450000 -1.743433
v -1.010134 0.500000 -1.749604
v -0.918904 0.676669 -1.591589
v -0.759003 0.676669 -1.314633
v -0.665584 0.500000 -1.152825
v -0.747360 0.450000 -1.294466
v -0.926832 0.450000 -1.605321
v -1.711084 0.500000 -0.987896
v -1.600252 0.676669 -0.923906
v -1.294813 0.676669 -0.747561
v -1.131156 0.500000 -0.653074
v -1.264593 0.450000 -0.730113
v -1.600789 0.450000 -0.924217
v -1.872358 0.500000 -0.000000
v -1.700697 0.676669 -0.000000
v -1.394528 0.676669 -0.000000
v -1.229348 0.500000 -0.000000
v -1.414559 0.450000 -0.000000
v -1.705943 0.450000 -0.000000
v -1.642764 0.500000 0.948450
v -1.519158 0.676669 0.877086
v -1.214524 0.676669 0.701205
v -1.094181 0.500000 0.631725
v -1.232470 0.450000 0.711566
v -1.540621 0.450000 0.889477
v -1.028588 0.500000 1.781567
v -0.919294 0.676669 1.592265
v -0.757501 0.676669 1.312031
v -0.662803 0.500000 1.148008
v -0.761295 0.450000 1.318603
v -0.914860 0.450000 1.584584
v 0.000000 0.500000 1.992832
v 0.000000 0.676669 1.849989
v 0.000000 0.676669 1.455700
v 0.000000 0.500000 1.295215
v 0.000000 0.450000 1.467477
v 0.000000 0.450000 1.814564
v 0.960513 0.500000 1.663657
v 0.854244 0.676669 1.479594
v 0.706665 0.676669 1.223980
v 0.612409 0.500000 1.060724
v 0.707843 0.450000 1.226021
v 0.852978 0.450000 1.477401
v 1.644911 0.500000 0.949690
v 1.546170 0.676669 0.892682
v 1.213393 0.676669 0.700553
v 1.093441 0.500000 0.631298
v 1.221049 0.450000 0.704973
v 1.525959 0.450000 0.881013
vn 0.7403 0.6378 -0.2123
vn -0.0000 1.0000 -0.0000
vn -0.7919 0.5696 0.2202
vn -0.1927 -0.9789 0.0675
vn -0.0000 -1.0000 -0.0000
vn 0.2473 -0.9663 -0.0709
vn 0.4886 0.6714 -0.5572
vn -0.5270 0.6527 0.5443
vn -0.1432 -0.9762 0.1626
vn 0.1601 -0.9701 -0.1826
vn 0.2691 0.5767 -0.7714
vn -0.2239 0.6939 0.6844
vn -0.0761 -0.9747 0.2102
vn 0.0693 -0.9776 -0.1987
vn 0.0310 0.5501 -0.8345
vn -0.0167 0.6651 0.7465
vn -0.0038 -0.9856 0.1692
vn -0.0005 -0.9690 -0.2472
vn -0.4196 0.6822 -0.5988
vn 0.3879 0.7195 0.5760
vn 0.1137 -0.9791 0.1688
vn -0.0820 -0.9881 -0.1300
vn -0.6848 0.6958 -0.2166
vn 0.6744 0.6939 0.2523
vn 0.1737 -0.9825 0.0674
vn -0.1734 -0.9833 -0.0548
vn -0.7768 0.6298 -0.0018
vn 0.7661 0.6397 -0.0620
vn 0.2056 -0.9785 -0.0179
vn -0.2563 -0.9666 -0.0006
vn -0.6322 0.7358 0.2428
vn 0.7316 0.6328 -0.2534
vn 0.2020 -0.9769 -0.0700
vn -0.1729 -0.9827 0.0663
vn -0.4755 0.7017 0.5306
vn 0.4815 0.5993 -0.6396
vn 0.1228 -0.9789 -0.1631
vn -0.1334 -0.9781 0.1600
vn -0.0135 0.6593 0.7518
vn 0.0402 0.6605 -0.7498
vn 0.0119 -0.9831 -0.1829
vn -0.0035 -0.9805 0.1967
vn 0.3433 0.6598 0.6684
vn -0.3534 0.6609 -0.6621
vn -0.0911 -0.9835 -0.1563
vn 0.1144 -0.9681 0.2228
vn 0.5269 0.6621 0.5330
vn -0.5780 0.5963 -0.5570
vn -0.1702 -0.9717 -0.1640
vn 0.1589 -0.9754 0.1527
vn 0.7137 0.6412 0.2820
vn -0.6277 0.7274 -0.2773
vn -0.1728 -0.9820 -0.0763
vn 0.1871 -0.9788 0.0828
vn 0.7556 0.6155 -0.2240
vn -0.6382 0.7411 0.2085
vn -0.2608 -0.9624 0.0762
vn 0.3034 -0.9496 -0.0790
vn 0.4505 0.6816 -0.5766
vn -0.4880 0.6427 0.5906
vn -0.1983 -0.9504 0.2395
vn 0.1625 -0.9646 -0.2079
vn 0.2010 0.6310 -0.7493
vn -0.1963 0.7116 0.6746
vn -0.0732 -0.9651 0.2515
vn 0.0860 -0.9516 -0.2950
vn -0.1001 0.7575 -0.6452
vn 0.0887 0.7074 0.7013
vn 0.0334 -0.9640 0.2637
vn -0.0364 -0.9689 -0.2446
vn -0.5241 0.7020 -0.4823
vn 0.5105 0.7118 0.4824
vn 0.2250 -0.9523 0.2062
vn -0.2207 -0.9539 -0.2031
vn -0.8171 0.5609 -0.1334
vn 0.7048 0.7032 0.0940
vn 0.3170 -0.9462 0.0651
vn -0.3820 -0.9221 -0.0624
vn -0.7094 0.6893 0.1468
vn 0.7217 0.6748 -0.1544
vn 0.2602 -0.9639 -0.0557
vn -0.2873 -0.9563 0.0534
vn -0.5996 0.6226 0.5029
vn 0.6066 0.6125 -0.5068
vn 0.2324 -0.9530 -0.1942
vn -0.2955 -0.9175 0.2661
vn -0.1305 0.7613 0.6352
vn 0.1310 0.7113 -0.6906
vn 0.0497 -0.9658 -0.2544
vn -0.0454 -0.9742 0.2211
vn 0.2575 0.6075 0.7514
vn -0.2359 0.6534 -0.7193
vn -0.0947 -0.9561 -0.2775
vn 0.0922 -0.9587 0.2689
vn 0.4725 0.7561 0.4529
vn -0.5015 0.7161 -0.4855
vn -0.1721 -0.9660 -0.1928
vn 0.1531 -0.9730 0.1728
vn 0.7969 0.5356 0.2795
vn -0.7456 0.6108 -0.2667
vn -0.3070 -0.9453 -0.1098
vn 0.3258 -0.9380 0.1186
vn 0.6890 0.6910 -0.2187
vn -0.7029 0.6678 0.2451
vn -0.1937 -0.9787 0.0675
vn 0.2211 -0.9729 -0.0678
vn 0.5596 0.5859 -0.5861
vn -0.4689 0.7063 0.5303
vn -0.1444 -0.9759 0.1634
vn 0.1290 -0.9790 -0.1578
vn 0.2885 0.5413 -0.7898
vn -0.2564 0.6573 0.7086
vn -0.0727 -0.9843 0.1606
vn 0.0919 -0.9675 -0.2356
vn 0.0643 0.6554 -0.7525
vn -0.0364 0.6980 0.7152
vn 0.0098 -0.9781 0.2080
vn 0.0142 -0.9860 -0.1661
vn -0.3890 0.7162 -0.5794
vn 0.4008 0.7079 0.5816
vn 0.0966 -0.9832 0.1547
vn -0.0959 -0.9851 -0.1428
vn -0.7257 0.6390 -0.2550
vn 0.6986 0.6554 0.2869
vn 0.1831 -0.9802 0.0752
vn -0.2342 -0.9679 -0.0916
vn -0.6792 0.7328 0.0407
vn 0.7753 0.6290 -0.0566
vn 0.2153 -0.9764 -0.0157
vn -0.1864 -0.9824 0.0116
vn -0.6709 0.6848 0.2844
vn 0.7588 0.5820 -0.2925
vn 0.2036 -0.9765 -0.0711
vn -0.1996 -0.9762 0.0846
vn -0.4883 0.6593 0.5717
vn 0.4767 0.6587 -0.5821
vn 0.1155 -0.9829 -0.1436
vn -0.1278 -0.9805 0.1496
vn -0.0048 0.6804 0.7328
vn 0.0266 0.6821 -0.7308
vn 0.0061 -0.9857 -0.1685
vn -0.0134 -0.9709 0.2390
vn 0.3432 0.6648 0.6635
vn -0.3447 0.5991 -0.7226
vn -0.1011 -0.9721 -0.2119
vn 0.1044 -0.9761 0.1904
vn 0.5576 0.6272 0.5437
vn -0.4676 0.7039 -0.5347
vn -0.1361 -0.9800 -0.1454
vn 0.1523 -0.9771 0.1485
vn 0.7270 0.6264 0.2812
vn -0.7879 0.5667 -0.2408
vn -0.1926 -0.9782 -0.0783
vn 0.2468 -0.9643 0.0955
vn 0.6951 0.6957 -0.1811
vn -0.7320 0.6536 0.1923
vn -0.2931 -0.9530 0.0770
vn 0.2411 -0.9677 -0.0734
vn 0.4846 0.6393 -0.5970
vn -0.4149 0.7194 0.5570
vn -0.1532 -0.9665 0.2057
vn 0.1930 -0.9530 -0.2337
vn 0.2096 0.7444 -0.6340
vn -0.1930 0.6968 0.6908
vn -0.0732 -0.9620 0.2631
vn 0.0806 -0.9664 -0.2439
vn -0.1336 0.6981 -0.7034
vn 0.0940 0.6990 0.7089
vn 0.0513 -0.9507 0.3060
vn -0.0565 -0.9530 -0.2976
vn -0.5740 0.5722 -0.5857
vn 0.5065 0.7216 0.4719
vn 0.2312 -0.9488 0.2154
vn -0.2673 -0.9266 -0.2645
vn -0.7150 0.6948 -0.0777
vn 0.7261 0.6789 0.1092
vn 0.2604 -0.9647 0.0392
vn -0.2876 -0.9572 -0.0327
vn -0.7682 0.6126 0.1860
vn 0.7721 0.6039 -0.1982
vn 0.2996 -0.9510 -0.0767
vn -0.3928 -0.9147 0.0951
vn -0.5324 0.7500 0.3925
vn 0.5703 0.7019 -0.4267
vn 0.2088 -0.9644 -0.1621
vn -0.1878 -0.9724 0.1384
vn -0.2130 0.6143 0.7598
vn 0.1622 0.6635 -0.7304
vn 0.0618 -0.9585 -0.2782
vn -0.0677 -0.9606 0.2694
vn 0.2553 0.7669 0.5888
vn -0.2461 0.7254 -0.6428
vn -0.0917 -0.9666 -0.2394
vn 0.0841 -0.9735 0.2128
vn 0.5528 0.5193 0.6517
vn -0.5341 0.5972 -0.5983
vn -0.2357 -0.9437 -0.2322
vn 0.2534 -0.9364 0.2429
vn 0.7442 0.6061 0.2807
vn -0.6268 0.7278 -0.2782
vn -0.2602 -0.9599 -0.1043
vn 0.3023 -0.9464 0.1140
s 0
usemtl Rim
f 7//1 2//1 1//1
f 8//2 3//2 2//2
f 9//3 4//3 3//3
f 4//4 11//4 5//4
f 5//5 12//5 6//5
f 6//6 7//6 1//6
f 13//7 8//7 7//7
f 14//2 9//2 8//2
f 15//8 10//8 9//8
f 10//9 17//9 11//9
f 11//5 18//5 12//5
f 12//10 13//10 7//10
f 19//11 14//11 13//11
f 20//2 15//2 14//2
f 21//12 16//12 15//12
f 22//13 17//13 16//13
f 23//5 18//5 17//5
f 18//14 19//14 13//14
f 19//15 26//15 20//15
f 20//2 27//2 21//2
f 21//16 28//16 22//16
f 28//17 23//17 22//17
f 29//5 24//5 23//5
f 30//18 19//18 24//18
f 25//19 32//19 26//19
f 32//2 27//2 26//2
f 27//20 34//20 28//20
f 34//21 29//21 28//21
f 35//5 30//5 29//5
f 36//22 25//22 30//22
f 37//23 32//23 31//23
f 38//2 33//2 32//2
f 39//24 34//24 33//24
f 34//25 41//25 35//25
f 35//5 42//5 36//5
f 36//26 37//26 31//26
f 43//27 38//27 37//27
f 44//2 39//2 38//2
f 45//28 40//28 39//28
f 40//29 47//29 41//29
f 41//5 48//5 42//5
f 42//30 43//30 37//30
f 43//31 50//31 44//31
f 44//2 51//2 45//2
f 45//32 52//32 46//32
f 52//33 47//33 46//33
f 53//5 48//5 47//5
f 54//34 43//34 48//34
f 49//35 56//35 50//35
f 50//2 57//2 51//2
f 51//36 58//36 52//36
f 58//37 53//37 52//37
f 59//5 54//5 53//5
f 60//38 49//38 54//38
f 61//39 56//39 55//39
f 62//2 57//2 56//2
f 63//40 58//40 57//40
f 58//41 65//41 59//41
f 59//5 66//5 60//5
f 60//42 61//42 55//42
f 67//43 62//43 61//43
f 68//2 63//2 62//2
f 69//44 64//44 63//44
f 64//45 71//45 65//45
f 65//5 72//5 66//5
f 66//46 67//46 61//46
f 67//47 74//47 68//47
f 68//2 75//2 69//2
f 69//48 76//48 70//48
f 76//49 71//49 70//49
f 77//5 72//5 71//5
f 78//50 67//50 72//50
f 73//51 2//51 74//51
f 74//2 3//2 75//2
f 75//52 4//52 76//52
f 4//53 77//53 76//53
f 5//5 78//5 77//5
f 6//54 73//54 78//54
f 79//55 86//55 80//55
f 86//2 81//2 80//2
f 87//56 82//56 81//56
f 82//57 89//57 83//57
f 83//5 90//5 84//5
f 84//58 85//58 79//58
f 91//59 86//59 85//59
f 92//2 87//2 86//2
f 93//60 88//60 87//60
f 88//61 95//61 89//61
f 89//5 96//5 90//5
f 90//62 91//62 85//62
f 91//63 98//63 92//63
f 92//2 99//2 93//2
f 93//64 100//64 94//64
f 100//65 95//65 94//65
f 101//5 96//5 95//5
f 102//66 91//66 96//66
f 97//67 104//67 98//67
f 98//2 105//2 99//2
f 99//68 106//68 100//68
f 106//69 101//69 100//69
f 107//5 102//5 101//5
f 108//70 97//70 102//70
f 109//71 104//71 103//71
f 110//2 105//2 104//2
f 111//72 106//72 105//72
f 106//73 113//73 107//73
f 107//5 114//5 108//5
f 108//74 109//74 103//74
f 115//75 110//75 109//75
f 116//2 111//2 110//2
f 117//76 112//76 111//76
f 112//77 119//77 113//77
f 113//5 120//5 114//5
f 114//78 115//78 109//78
f 115//79 122//79 116//79
f 116//2 123//2 117//2
f 117//80 124//80 118//80
f 124//81 119//81 118//81
f 125//5 120//5 119//5
f 126//82 115//82 120//82
f 121//83 128//83 122//83
f 122//2 129//2 123//2
f 123//84 130//84 124//84
f 130//85 125//85 124//85
f 131//5 126//5 125//5
f 132//86 121//86 126//86
f 133//87 128//87 127//87
f 134//2 129//2 128//2
f 135//88 130//88 129//88
f 130//89 137//89 131//89
f 131//5 138//5 132//5
f 132//90 133//90 127//90
f 139//91 134//91 133//91
f 140//2 135//2 134//2
f 141//92 136//92 135//92
f 136//93 143//93 137//93
f 137//5 144//5 138//5
f 138//94 139//94 133//94
f 145//95 140//95 139//95
f 140//2 147//2 141//2
f 147//96 142//96 141//96
f 148//97 143//97 142//97
f 149//5 144//5 143//5
f 150//98 139//98 144//98
f 145//99 80//99 146//99
f 146//2 81//2 147//2
f 147//100 82//100 148//100
f 82//101 149//101 148//101
f 83//5 150//5 149//5
f 84//102 145//102 150//102
f 7//103 8//103 2//103
f 8//2 9//2 3//2
f 9//104 10//104 4//104
f 4//105 10//105 11//105
f 5//5 11//5 12//5
f 6//106 12//106 7//106
f 13//107 14//107 8//107
f 14//2 15//2 9//2
f 15//108 16//108 10//108
f 10//109 16//109 17//109
f 11//5 17//5 18//5
f 12//110 18//110 13//110
f 19//111 20//111 14//111
f 20//2 21//2 15//2
f 21//112 22//112 16//112
f 22//113 23//113 17//113
f 23//5 24//5 18//5
f 18//114 24//114 19//114
f 19//115 25//115 26//115
f 20//2 26//2 27//2
f 21//116 27//116 28//116
f 28//117 29//117 23//117
f 29//5 30//5 24//5
f 30//118 25//118 19//118
f 25//119 31//119 32//119
f 32//2 33//2 27//2
f 27//120 33//120 34//120
f 34//121 35//121 29//121
f 35//5 36//5 30//5
f 36//122 31//122 25//122
f 37//123 38//123 32//123
f 38//2 39//2 33//2
f 39//124 40//124 34//124
f 34//125 40//125 41//125
f 35//5 41//5 42//5
f 36//126 42//126 37//126
f 43//127 44//127 38//127
f 44//2 45//2 39//2
f 45//128 46//128 40//128
f 40//129 46//129 47//129
f 41//5 47//5 48//5
f 42//130 48//130 43//130
f 43//131 49//131 50//131
f 44//2 50//2 51//2
f 45//132 51//132 52//132
f 52//133 53//133 47//133
f 53//5 54//5 48//5
f 54//134 49//134 43//134
f 49//135 55//135 56//135
f 50//2 56//2 57//2
f 51//136 57//136 58//136
f 58//137 59//137 53//137
f 59//5 60//5 54//5
f 60//138 55//138 49//138
f 61//139 62//139 56//139
f 62//2 63//2 57//2
f 63//140 64//140 58//140
f 58//141 64//141 65//141
f 59//5 65//5 66//5
f 60//142 66//142 61//142
f 67//143 68//143 62//143
f 68//2 69//2 63//2
f 69//144 70//144 64//144
f 64//145 70//145 71//145
f 65//5 71//5 72//5
f 66//146 72//146 67//146
f 67//147 73//147 74//147
f 68//2 74//2 75//2
f 69//148 75//148 76//148
f 76//149 77//149 71//149
f 77//5 78//5 72//5
f 78//150 73//150 67//150
f 73//151 1//151 2//151
f 74//2 2//2 3//2
f 75//152 3//152 4//152
f 4//153 5//153 77//153
f 5//5 6//5 78//5
f 6//154 1//154 73//154
f 79//155 85//155 86//155
f 86//2 87//2 81//2
f 87//156 88//156 82//156
f 82//157 88//157 89//157
f 83//5 89//5 90//5
f 84//158 90//158 85//158
f 91//159 92//159 86//159
f 92//2 93//2 87//2
f 93//160 94//160 88//160
f 88//161 94//161 95//161
f 89//5 95//5 96//5
f 90//162 96//162 91//162
f 91//163 97//163 98//163
f 92//2 98//2 99//2
f 93//164 99//164 100//164
f 100//165 101//165 95//165
f 101//5 102//5 96//5
f 102//166 97//166 91//166
f 97//167 103//167 104//167
f 98//2 104//2 105//2
f 99//168 105//168 106//168
f 106//169 107//169 101//169
f 107//5 108//5 102//5
f 108//170 103//170 97//170
f 109//171 110//171 104//171
f 110//2 111//2 105//2
f 111//172 112//172 106//172
f 106//173 112//173 113//173
f 107//5 113//5 114//5
f 108//174 114//174 109//174
f 115//175 116//175 110//175
f 116//2 117//2 111//2
f 117//176 118//176 112//176
f 112//177 118//177 119//177
f 113//5 119//5 120//5
f 114//178 120//178 115//178
f 115//179 121//179 122//179
f 116//2 122//2 123//2
f 117//180 123//180 124//180
f 124//181 125//181 119//181
f 125//5 126//5 120//5
f 126//182 121//182 115//182
f 121//183 127//183 128//183
f 122//2 128//2 129//2
f 123//184 129//184 130//184
f 130//185 131//185 125//185
f 131//5 132//5 126//5
f 132//186 127//186 121//186
f 133//187 134//187 128//187
f 134//2 135//2 129//2
f 135//188 136//188 130//188
f 130//189 136//189 137//189
f 131//5 137//5 138//5
f 132//190 138//190 133//190
f 139//191 140//191 134//191
f 140//2 141//2 135//2
f 141//192 142//192 136//192
f 136//193 142//193 143//193
f 137//5 143//5 144//5
f 138//194 144//194 139//194
f 145//195 146//195 140//195
f 140//2 146//2 147//2
f 147//196 148//196 142//196
f 148//197 149//197 143//197
f 149//5 150//5 144//5
f 150//198 145//198 139//198
f 145//199 79//199 80//199
f 146//2 80//2 81//2
f 147//200 81//200 82//200
f 82//201 83//201 149//201
f 83//5 84//5 150//5
f 84//202 79//202 145//202
o Pool
v 0.000000 0.060000 -1.320000
v 0.000000 0.180000 -1.320000
v 0.505142 0.060000 -1.219521
v 0.505142 0.180000 -1.219521
v 0.933381 0.060000 -0.933381
v 0.933381 0.180000 -0.933381
v 1.219521 0.060000 -0.505142
v 1.219521 0.180000 -0.505142
v 1.320000 0.060000 0.000000
v 1.320000 0.180000 0.000000
v 1.219521 0.060000 0.505142
v 1.219521 0.180000 0.505142
v 0.933381 0.060000 0.933381
v 0.933381 0.180000 0.933381
v 0.505142 0.060000 1.219521
v 0.505142 0.180000 1.219521
v 0.000000 0.060000 1.320000
v 0.000000 0.180000 1.320000
v -0.505142 0.060000 1.219521
v -0.505142 0.180000 1.219521
v -0.933381 0.060000 0.933381
v -0.933381 0.180000 0.933381
v -1.219521 0.060000 0.505142
v -1.219521 0.180000 0.505142
v -1.320000 0.060000 0.000000
v -1.320000 0.180000 0.000000
v -1.219521 0.060000 -0.505142
v -1.219521 0.180000 -0.505142
v -0.933381 0.060000 -0.933381
v -0.933381 0.180000 -0.933381
v -0.505142 0.060000 -1.219521
v -0.505142 0.180000 -1.219521
vn 0.1951 -0.0000 -0.9808
vn 0.5556 -0.0000 -0.8315
vn 0.8315 -0.0000 -0.5556
vn 0.9808 -0.0000 -0.1951
vn 0.9808 -0.0000 0.1951
vn 0.8315 -0.0000 0.5556
vn 0.5556 -0.0000 0.8315
vn 0.1951 -0.0000 0.9808
vn -0.1951 -0.0000 0.9808
vn -0.5556 -0.0000 0.8315
vn -0.8315 -0.0000 0.5556
vn -0.9808 -0.0000 0.1951
vn -0.9808 -0.0000 -0.1951
vn -0.8315 -0.0000 -0.5556
vn -0.0000 1.0000 -0.0000
vn -0.5556 -0.0000 -0.8315
vn -0.1951 -0.0000 -0.9808
vn -0.0000 -1.0000 -0.0000
s 0
usemtl Pool
f 152//203 153//203 151//203
f 154//204 155//204 153//204
f 156//205 157//205 155//205
f 158//206 159//206 157//206
f 160//207 161//207 159//207
f 162//208 163//208 161//208
f 164//209 165//209 163//209
f 166//210 167//210 165//210
f 168//211 169//211 167//211
f 170//212 171//212 169//212
f 172//213 173//213 171//213
f 174//214 175//214 173//214
f 176//215 177//215 175//215
f 178//216 179//216 177//216
f 172//217 164//217 156//217
f 180//218 181//218 179//218
f 182//219 151//219 181//219
f 165//220 173//220 181//220
f 152//203 154//203 153//203
f 154//204 156//204 155//204
f 156//205 158//205 157//205
f 158//206 160//206 159//206
f 160//207 162//207 161//207
f 162//208 164//208 163//208
f 164//209 166//209 165//209
f 166//210 168//210 167//210
f 168//211 170//211 169//211
f 170//212 172//212 171//212
f 172//213 174//213 173//213
f 174//214 176//214 175//214
f 176//215 178//215 177//215
f 178//216 180//216 179//216
f 156//217 154//217 152//217
f 152//217 182//217 180//217
f 180//217 178//217 176//217
f 176//217 174//217 172//217
f 172//217 170//217 168//217
f 168//217 166//217 164//217
f 164//217 162//217 160//217
f 160//217 158//217 156//217
f 156//217 152//217 180//217
f 180//217 176//217 172//217
f 172//217 168//217 164//217
f 164//217 160//217 156//217
f 156//217 180//217 172//217
f 180//218 182//218 181//218
f 182//219 152//219 151//219
f 181//220 151//220 153//220
f 153//220 155//220 157//220
f 157//220 159//220 161//220
f 161//220 163//220 165//220
f 165//220 167//220 169//220
f 169//220 171//220 173//220
f 173//220 175//220 177//220
f 177//220 179//220 181//220
f 181//220 153//220 157//220
f 157//220 161//220 165//220
f 165//220 169//220 173//220
f 173//220 177//220 181//220
f 181//220 157//220 165//220
o Crust
v 1.968675 0.344768 -0.389165
v 1.933630 0.448471 -0.378324
v 1.844557 0.344768 -0.790406
v 1.809512 0.448471 -0.779565
v 2.527077 0.551529 -0.561899
v 2.492032 0.655232 -0.551058
v 2.402959 0.551529 -0.963140
v 2.367913 0.655232 -0.952299
v 1.058248 0.344768 -1.556087
v 1.041133 0.448471 -1.523641
v 0.686762 0.344768 -1.752042
v 0.669647 0.448471 -1.719596
v 1.330956 0.551529 -2.073078
v 1.313841 0.655232 -2.040632
v 0.959471 0.551529 -2.269033
v 0.942355 0.655232 -2.236587
v -0.331039 0.344768 -1.780769
v -0.320198 0.448471 -1.745724
v -0.732280 0.344768 -1.656651
v -0.721439 0.448471 -1.621606
v -0.503772 0.551529 -2.339171
v -0.492932 0.655232 -2.304126
v -0.905014 0.551529 -2.215053
v -0.894173 0.655232 -2.180007
v -1.693263 0.344768 -1.130607
v -1.660817 0.448471 -1.113492
v -1.889218 0.344768 -0.759121
v -1.856772 0.448471 -0.742006
v -2.210254 0.551529 -1.403315
v -2.177808 0.655232 -1.386200
v -2.406209 0.551529 -1.031830
v -2.373763 0.655232 -1.014715
v -1.759140 0.344768 0.324348
v -1.724095 0.448471 0.313507
v -1.635022 0.344768 0.725589
v -1.599976 0.448471 0.714749
v -2.317542 0.551529 0.497082
v -2.282497 0.655232 0.486241
v -2.193423 0.551529 0.898323
v -2.158378 0.655232 0.887482
v -1.073186 0.344768 1.584407
v -1.056071 0.448471 1.551960
v -0.701701 0.344768 1.780362
v -0.684586 0.448471 1.747916
v -1.345895 0.551529 2.101398
v -1.328779 0.655232 2.068951
v -0.974409 0.551529 2.297353
v -0.957294 0.655232 2.264907
v 0.382474 0.344768 1.947046
v 0.371633 0.448471 1.912001
v 0.783715 0.344768 1.822928
v 0.772875 0.448471 1.787883
v 0.555208 0.551529 2.505448
v 0.544367 0.655232 2.470403
v 0.956449 0.551529 2.381330
v 0.945609 0.655232 2.346284
v 1.447231 0.344768 1.000827
v 1.414784 0.448471 0.983712
v 1.643186 0.344768 0.629341
v 1.610740 0.448471 0.612226
v 1.964221 0.551529 1.273535
v 1.931775 0.655232 1.256420
v 2.160177 0.551529 0.902050
v 2.127731 0.655232 0.884935
vn -0.9006 -0.3335 0.2786
vn -0.2955 -0.0000 -0.9553
vn 0.9006 0.3335 -0.2786
vn 0.2955 -0.0000 0.9553
vn 0.3186 -0.9428 -0.0986
vn -0.3186 0.9428 0.0986
vn -0.4399 -0.3335 0.8339
vn -0.8845 -0.0000 -0.4666
vn 0.4399 0.3335 -0.8339
vn 0.8845 -0.0000 0.4666
vn 0.1556 -0.9428 -0.2950
vn -0.1556 0.9428 0.2950
vn 0.2786 -0.3335 0.9006
vn -0.9553 -0.0000 0.2955
vn -0.2786 0.3335 -0.9006
vn 0.9553 -0.0000 -0.2955
vn -0.0986 -0.9428 -0.3186
vn 0.0986 0.9428 0.3186
vn 0.8339 -0.3335 0.4399
vn -0.4666 -0.0000 0.8845
vn -0.8339 0.3335 -0.4399
vn 0.4666 -0.0000 -0.8845
vn -0.2950 -0.9428 -0.1556
vn 0.2950 0.9428 0.1556
vn 0.9006 -0.3335 -0.2786
vn -0.9006 0.3335 0.2786
vn -0.3186 -0.9428 0.0986
vn 0.3186 0.9428 -0.0986
vn 0.4399 -0.3335 -0.8339
vn -0.4399 0.3335 0.8339
vn -0.1556 -0.9428 0.2950
vn 0.1556 0.9428 -0.2950
vn -0.2786 -0.3335 -0.9006
vn 0.2786 0.3335 0.9006
vn 0.0986 -0.9428 0.3186
vn -0.0986 0.9428 -0.3186
vn -0.8339 -0.3335 -0.4399
vn 0.8339 0.3335 0.4399
vn 0.2950 -0.9428 0.1556
vn -0.2950 0.9428 -0.1556
s 0
usemtl Crust
f 184//221 185//221 183//221
f 185//222 190//222 189//222
f 189//223 188//223 187//223
f 188//224 183//224 187//224
f 189//225 183//225 185//225
f 186//226 188//226 190//226
f 192//227 193//227 191//227
f 193//228 198//228 197//228
f 197//229 196//229 195//229
f 195//230 192//230 191//230
f 197//231 191//231 193//231
f 194//232 196//232 198//232
f 200//233 201//233 199//233
f 202//234 205//234 201//234
f 205//235 204//235 203//235
f 203//236 200//236 199//236
f 201//237 203//237 199//237
f 202//238 204//238 206//238
f 208//239 209//239 207//239
f 209//240 214//240 213//240
f 214//241 211//241 213//241
f 211//242 208//242 207//242
f 209//243 211//243 207//243
f 210//244 212//244 214//244
f 215//245 218//245 217//245
f 218//224 221//224 217//224
f 222//246 219//246 221//246
f 220//222 215//222 219//222
f 221//247 215//247 217//247
f 218//248 220//248 222//248
f 224//249 225//249 223//249
f 226//230 229//230 225//230
f 229//250 228//250 227//250
f 228//228 223//228 227//228
f 229//251 223//251 225//251
f 230//252 224//252 228//252
f 231//253 234//253 233//253
f 233//236 238//236 237//236
f 238//254 235//254 237//254
f 236//234 231//234 235//234
f 237//255 231//255 233//255
f 234//256 236//256 238//256
f 239//257 242//257 241//257
f 242//242 245//242 241//242
f 246//258 243//258 245//258
f 244//240 239//240 243//240
f 245//259 239//259 241//259
f 246//260 240//260 244//260
f 184//221 186//221 185//221
f 185//222 186//222 190//222
f 189//223 190//223 188//223
f 188//224 184//224 183//224
f 189//225 187//225 183//225
f 186//226 184//226 188//226
f 192//227 194//227 193//227
f 193//228 194//228 198//228
f 197//229 198//229 196//229
f 195//230 196//230 192//230
f 197//231 195//231 191//231
f 194//232 192//232 196//232
f 200//233 202//233 201//233
f 202//234 206//234 205//234
f 205//235 206//235 204//235
f 203//236 204//236 200//236
f 201//237 205//237 203//237
f 202//238 200//238 204//238
f 208//239 210//239 209//239
f 209//240 210//240 214//240
f 214//241 212//241 211//241
f 211//242 212//242 208//242
f 209//243 213//243 211//243
f 210//244 208//244 212//244
f 215//245 216//245 218//245
f 218//224 222//224 221//224
f 222//246 220//246 219//246
f 220//222 216//222 215//222
f 221//247 219//247 215//247
f 218//248 216//248 220//248
f 224//249 226//249 225//249
f 226//230 230//230 229//230
f 229//250 230//250 228//250
f 228//228 224//228 223//228
f 229//251 227//251 223//251
f 230//252 226//252 224//252
f 231//253 232//253 234//253
f 233//236 234//236 238//236
f 238//254 236//254 235//254
f 236//234 232//234 231//234
f 237//255 235//255 231//255
f 234//256 232//256 236//256
f 239//257 240//257 242//257
f 242//242 246//242 245//242
f 246//258 244//258 243//258
f 244//240 240//240 239//240
f 245//259 243//259 239//259
f 246//260 242//260 240//260
o Spikes
v 1.631313 0.620000 -0.056730
v 1.776489 0.514010 0.094824
v 1.696725 0.554495 0.312258
v 1.502252 0.685505 0.295085
v 1.461825 0.725990 0.067039
v 2.280509 1.617502 0.201374
v 0.660186 0.620000 -1.492835
v 0.860904 0.517066 -1.559134
v 1.021412 0.556384 -1.391892
v 0.919895 0.683616 -1.222232
v 0.696644 0.722934 -1.284618
v 1.179703 1.672872 -1.971554
v -0.992509 0.620000 -1.295888
v -0.958833 0.532570 -1.511528
v -0.733328 0.565965 -1.569068
v -0.627634 0.674035 -1.388989
v -0.787816 0.707430 -1.220155
v -1.057657 1.527053 -1.801996
v -1.631794 0.620000 0.040601
v -1.788206 0.536178 -0.113632
v -1.701430 0.568195 -0.329788
v -1.491387 0.671805 -0.309147
v -1.448350 0.703822 -0.080233
v -2.212141 1.847908 -0.217395
v -0.724493 0.620000 1.462706
v -0.926961 0.514448 1.518780
v -1.080404 0.554765 1.345262
v -0.972770 0.685235 1.181949
v -0.752805 0.725552 1.254533
v -1.243707 1.579531 1.887068
v 0.948217 0.620000 1.328640
v 0.897014 0.499759 1.524085
v 0.673619 0.545687 1.581216
v 0.586756 0.694313 1.421079
v 0.756467 0.740241 1.264979
v 1.198376 1.715052 2.209290
vn 0.6265 -0.2138 -0.7496
vn 0.8268 -0.4144 0.3804
vn -0.0131 0.1108 0.9938
vn -0.5551 -0.8304 -0.0490
vn -0.7325 0.6360 0.2428
vn -0.3372 0.4354 -0.8347
vn -0.4012 -0.2077 -0.8921
vn 0.7059 -0.4026 -0.5828
vn 0.8866 0.1078 0.4497
vn -0.2779 -0.8409 0.4644
vn -0.1087 0.6182 0.7785
vn -0.9046 0.4232 -0.0508
vn -0.9865 -0.1279 -0.1022
vn -0.1955 -0.2928 -0.9360
vn 0.8154 0.1390 -0.5620
vn 0.2327 -0.8881 0.3964
vn 0.6491 0.5707 0.5029
vn -0.4645 0.4058 0.7871
vn -0.6516 -0.1518 0.7433
vn -0.8653 -0.3108 -0.3934
vn 0.0456 0.1054 -0.9934
vn 0.4386 -0.8977 0.0431
vn 0.8223 0.5217 -0.2275
vn 0.3914 0.3627 0.8457
vn 0.3601 -0.2074 0.9096
vn -0.7291 -0.4071 0.5502
vn -0.8693 0.1156 -0.4806
vn 0.3054 -0.8319 -0.4633
vn 0.1332 0.6382 -0.7582
vn 0.8930 0.4386 0.1009
vn 0.9566 -0.2810 0.0777
vn 0.1135 -0.5092 0.8531
vn -0.8390 0.0881 0.5369
vn -0.3014 -0.7748 -0.5557
vn -0.5847 0.6854 -0.4340
vn 0.5251 0.4573 -0.7178
s 0
usemtl Spikes
f 247//261 252//261 248//261
f 248//262 252//262 249//262
f 249//263 252//263 250//263
f 248//264 250//264 251//264
f 250//265 252//265 251//265
f 251//266 252//266 247//266
f 253//267 258//267 254//267
f 254//268 258//268 255//268
f 255//269 258//269 256//269
f 254//270 256//270 257//270
f 256//271 258//271 257//271
f 257//272 258//272 253//272
f 259//273 264//273 260//273
f 260//274 264//274 261//274
f 261//275 264//275 262//275
f 260//276 262//276 263//276
f 262//277 264//277 263//277
f 263//278 264//278 259//278
f 265//279 270//279 266//279
f 266//280 270//280 267//280
f 267//281 270//281 268//281
f 266//282 268//282 269//282
f 268//283 270//283 269//283
f 269//284 270//284 265//284
f 271//285 276//285 272//285
f 272//286 276//286 273//286
f 273//287 276//287 274//287
f 272//288 274//288 275//288
f 274//289 276//289 275//289
f 275//290 276//290 271//290
f 277//291 282//291 278//291
f 278//292 282//292 279//292
f 279//293 282//293 280//293
f 278//294 280//294 281//294
f 280//295 282//295 281//295
f 281//296 282//296 277//296
f 251//264 247//264 248//264
f 248//264 249//264 250//264
f 257//270 253//270 254//270
f 254//270 255//270 256//270
f 263//276 259//276 260//276
f 260//276 261//276 262//276
f 269//282 265//282 266//282
f 266//282 267//282 268//282
f 275//288 271//288 272//288
f 272//288 273//288 274//288
f 281//294 277//294 278//294
f 278//294 279//294 280//294
o Bubbles
v 0.440000 -0.060000 -0.260000
v 0.628136 0.083724 -0.123313
v 0.368140 0.083724 -0.038834
v 0.207450 0.083724 -0.260000
v 0.368140 0.083724 -0.481166
v 0.628136 0.083724 -0.396687
v 0.511860 0.316276 -0.038834
v 0.251864 0.316276 -0.123313
v 0.251864 0.316276 -0.396687
v 0.511860 0.316276 -0.481166
v 0.672550 0.316276 -0.260000
v 0.440000 0.460000 -0.260000
v -0.520000 0.010000 0.180000
v -0.382516 0.115029 0.279887
v -0.572513 0.115029 0.341622
v -0.689941 0.115029 0.180000
v -0.572513 0.115029 0.018378
v -0.382516 0.115029 0.080113
v -0.467487 0.284971 0.341622
v -0.657484 0.284971 0.279887
v -0.657484 0.284971 0.080113
v -0.467487 0.284971 0.018378
v -0.350059 0.284971 0.180000
v -0.520000 0.390000 0.180000
v 0.080000 0.040000 0.600000
v 0.195776 0.128446 0.684115
v 0.035778 0.128446 0.736102
v -0.063108 0.128446 0.600000
v 0.035778 0.128446 0.463898
v 0.195776 0.128446 0.515885
v 0.124222 0.271554 0.736102
v -0.035776 0.271554 0.684115
v -0.035776 0.271554 0.515885
v 0.124222 0.271554 0.463898
v 0.223108 0.271554 0.600000
v 0.080000 0.360000 0.600000
v -0.160000 0.070000 -0.640000
v -0.065932 0.141862 -0.571656
v -0.195930 0.141862 -0.529417
v -0.276275 0.141862 -0.640000
v -0.195930 0.141862 -0.750583
v -0.065932 0.141862 -0.708344
v -0.124070 0.258138 -0.529417
v -0.254068 0.258138 -0.571656
v -0.254068 0.258138 -0.708344
v -0.124070 0.258138 -0.750583
v -0.043725 0.258138 -0.640000
v -0.160000 0.330000 -0.640000
vn 0.1876 -0.7947 0.5774
vn 0.6071 -0.7947 -0.0000
vn -0.4911 -0.7947 0.3568
vn -0.4911 -0.7947 -0.3568
vn 0.1876 -0.7947 -0.5774
vn 0.9822 -0.1876 -0.0000
vn 0.3035 -0.1876 0.9342
vn -0.7946 -0.1876 0.5774
vn -0.7946 -0.1876 -0.5774
vn 0.3035 -0.1876 -0.9342
vn 0.7946 0.1876 0.5774
vn -0.3035 0.1876 0.9342
vn -0.9822 0.1876 -0.0000
vn -0.3035 0.1876 -0.9342
vn 0.7946 0.1876 -0.5774
vn 0.4911 0.7947 0.3568
vn -0.1876 0.7947 0.5774
vn -0.6071 0.7947 -0.0000
vn -0.1876 0.7947 -0.5774
vn 0.4911 0.7947 -0.3568
s 0
usemtl Bubbles
f 283//297 284//297 285//297
f 284//298 283//298 288//298
f 283//299 285//299 286//299
f 283//300 286//300 287//300
f 283//301 287//301 288//301
f 284//302 288//302 293//302
f 285//303 284//303 289//303
f 286//304 285//304 290//304
f 287//305 286//305 291//305
f 288//306 287//306 292//306
f 284//307 293//307 289//307
f 285//308 289//308 290//308
f 286//309 290//309 291//309
f 287//310 291//310 292//310
f 288//311 292//311 293//311
f 289//312 293//312 294//312
f 290//313 289//313 294//313
f 291//314 290//314 294//314
f 292//315 291//315 294//315
f 293//316 292//316 294//316
f 295//297 296//297 297//297
f 296//298 295//298 300//298
f 295//299 297//299 298//299
f 295//300 298//300 299//300
f 295//301 299//301 300//301
f 296//302 300//302 305//302
f 297//303 296//303 301//303
f 298//304 297//304 302//304
f 299//305 298//305 303//305
f 300//306 299//306 304//306
f 296//307 305//307 301//307
f 297//308 301//308 302//308
f 298//309 302//309 303//309
f 299//310 303//310 304//310
f 300//311 304//311 305//311
f 301//312 305//312 306//312
f 302//313 301//313 306//313
f 303//314 302//314 306//314
f 304//315 303//315 306//315
f 305//316 304//316 306//316
f 307//297 308//297 309//297
f 308//298 307//298 312//298
f 307//299 309//299 310//299
f 307//300 310//300 311//300
f 307//301 311//301 312//301
f 308//302 312//302 317//302
f 309//303 308//303 313//303
f 310//304 309//304 314//304
f 311//305 310//305 315//305
f 312//306 311//306 316//306
f 308//307 317//307 313//307
f 309//308 313//308 314//308
f 310//309 314//309 315//309
f 311//310 315//310 316//310
f 312//311 316//311 317//311
f 313//312 317//312 318//312
f 314//313 313//313 318//313
f 315//314 314//314 318//314
f 316//315 315//315 318//315
f 317//316 316//316 318//316
f 319//297 320//297 321//297
f 320//298 319//298 324//298
f 319//299 321//299 322//299
f 319//300 322//300 323//300
f 319//301 323//301 324//301
f 320//302 324//302 329//302
f 321//303 320//303 325//303
f 322//304 321//304 326//304
f 323//305 322//305 327//305
f 324//306 323//306 328//306
f 320//307 329//307 325//307
f 321//308 325//308 326//308
f 322//309 326//309 327//309
f 323//310 327//310 328//310
f 324//311 328//311 329//311
f 325//312 329//312 330//312
f 326//313 325//313 330//313
f 327//314 326//314 330//314
f 328//315 327//315 330//315
f 329//316 328//316 330//316
