# Blender 5.2.1 LTS
# www.blender.org
mtllib NestMarsh.mtl
o Rim
v 2.775217 0.260000 0.000000
v 2.501400 0.672807 0.000000
v 1.936564 0.774762 0.000000
v 1.439454 0.489091 0.000000
v 1.501837 0.210000 0.000000
v 1.863503 0.210000 0.000000
v 2.500695 0.210000 0.000000
v 2.866059 0.260000 -1.043160
v 2.561038 0.672807 -0.932141
v 2.014727 0.774762 -0.733301
v 1.442248 0.489091 -0.524935
v 1.451258 0.210000 -0.528215
v 1.911177 0.210000 -0.695611
v 2.454549 0.210000 -0.893383
v 2.094995 0.260000 -1.757910
v 1.978148 0.672807 -1.659864
v 1.485956 0.774762 -1.246866
v 1.152908 0.489091 -0.967405
v 1.193361 0.210000 -1.001349
v 1.583805 0.210000 -1.328971
v 2.026640 0.210000 -1.700554
v 1.230873 0.260000 -2.131934
v 1.121336 0.672807 -1.942211
v 0.906703 0.774762 -1.570456
v 0.639183 0.489091 -1.107098
v 0.680054 0.210000 -1.177889
v 0.846827 0.210000 -1.466748
v 1.128984 0.210000 -1.955459
v 0.401923 0.260000 -2.279419
v 0.380794 0.672807 -2.159587
v 0.284626 0.774762 -1.614191
v 0.217697 0.489091 -1.234623
v 0.205906 0.210000 -1.167751
v 0.272458 0.210000 -1.545183
v 0.377069 0.210000 -2.138462
v -0.426402 0.260000 -2.418246
v -0.391845 0.672807 -2.222264
v -0.280580 0.774762 -1.591247
v -0.211171 0.489091 -1.197611
v -0.219964 0.210000 -1.247478
v -0.287228 0.210000 -1.628952
v -0.373016 0.210000 -2.115482
v -1.428515 0.260000 -2.474262
v -1.306494 0.672807 -2.262915
v -0.937697 0.774762 -1.624139
v -0.700062 0.489091 -1.212544
v -0.706196 0.210000 -1.223167
v -0.934023 0.210000 -1.617776
v -1.283061 0.210000 -2.222327
v -2.259349 0.260000 -1.895820
v -2.156020 0.672807 -1.809116
v -1.517833 0.774762 -1.273613
v -1.201901 0.489091 -1.008515
v -1.159210 0.210000 -0.972693
v -1.634435 0.210000 -1.371454
v -2.046586 0.210000 -1.717291
v -2.610904 0.260000 -0.950292
v -2.442081 0.672807 -0.888846
v -1.921804 0.774762 -0.699480
v -1.340756 0.489091 -0.487996
v -1.368759 0.210000 -0.498188
v -1.927011 0.210000 -0.701375
v -2.405494 0.210000 -0.875529
v -2.399770 0.260000 -0.000000
v -2.373566 0.672807 -0.000000
v -1.822266 0.774762 -0.000000
v -1.305078 0.489091 -0.000000
v -1.273099 0.210000 -0.000000
v -1.653567 0.210000 -0.000000
v -2.328475 0.210000 -0.000000
v -2.228058 0.260000 0.810946
v -2.010753 0.672807 0.731854
v -1.533302 0.774762 0.558076
v -1.114779 0.489091 0.405746
v -1.106192 0.210000 0.402621
v -1.513253 0.210000 0.550779
v -2.023322 0.210000 0.736429
v -1.857881 0.260000 1.558946
v -1.691184 0.672807 1.419071
v -1.278569 0.774762 1.072846
v -1.012278 0.489091 0.849401
v -1.026506 0.210000 0.861340
v -1.262499 0.210000 1.059362
v -1.772650 0.210000 1.487429
v -1.428125 0.260000 2.473587
v -1.244832 0.672807 2.156113
v -0.940353 0.774762 1.628740
v -0.740539 0.489091 1.282651
v -0.730699 0.210000 1.265608
v -0.971301 0.210000 1.682343
v -1.315331 0.210000 2.278222
v -0.539621 0.260000 3.060347
v -0.477301 0.672807 2.706910
v -0.359973 0.774762 2.041508
v -0.263580 0.489091 1.494835
v -0.261383 0.210000 1.482376
v -0.369586 0.210000 2.096027
v -0.458703 0.210000 2.601437
v 0.502688 0.260000 2.850882
v 0.439696 0.672807 2.493637
v 0.334186 0.774762 1.895261
v 0.263845 0.489091 1.496337
v 0.251521 0.210000 1.426446
v 0.329598 0.210000 1.869240
v 0.468412 0.210000 2.656497
v 1.239844 0.260000 2.147473
v 1.118547 0.672807 1.937381
v 0.896708 0.774762 1.553145
v 0.637604 0.489091 1.104362
v 0.677970 0.210000 1.174279
v 0.845653 0.210000 1.464714
v 1.162318 0.210000 2.013194
v 1.812376 0.260000 1.520764
v 1.523940 0.672807 1.278738
v 1.206679 0.774762 1.012524
v 0.961126 0.489091 0.806480
v 0.923411 0.210000 0.774834
v 1.213588 0.210000 1.018321
v 1.516227 0.210000 1.272266
v 2.200761 0.260000 0.801012
v 2.171468 0.672807 0.790350
v 1.671829 0.774762 0.608496
v 1.202384 0.489091 0.437632
v 1.221027 0.210000 0.444418
v 1.524284 0.210000 0.554794
v 2.171131 0.210000 0.790228
v 1.799044 -0.026400 -0.982822
v 2.247676 0.220363 -0.656876
v 1.627686 0.220363 -0.455426
v 1.244501 0.220363 -0.982822
v 1.627686 0.220363 -1.510219
v 2.247676 0.220363 -1.308769
v 1.970403 0.619637 -0.455426
v 1.350412 0.619637 -0.656876
v 1.350412 0.619637 -1.308769
v 1.970403 0.619637 -1.510219
v 2.353588 0.619637 -0.982822
v 1.799044 0.866400 -0.982822
v -0.984450 0.125600 -1.683258
v -0.608178 0.332563 -1.409884
v -1.128170 0.332563 -1.240926
v -1.449551 0.332563 -1.683258
v -1.128170 0.332563 -2.125591
v -0.608178 0.332563 -1.956633
v -0.840730 0.667437 -1.240926
v -1.360722 0.667437 -1.409884
v -1.360722 0.667437 -1.956633
v -0.840730 0.667437 -2.125591
v -0.519349 0.667437 -1.683258
v -0.984450 0.874400 -1.683258
v -1.966559 -0.124000 0.736645
v -1.460039 0.154604 1.104649
v -2.160028 0.154604 1.332093
v -2.592657 0.154604 0.736645
v -2.160028 0.154604 0.141197
v -1.460039 0.154604 0.368641
v -1.773090 0.605396 1.332093
v -2.473079 0.605396 1.104649
v -2.473079 0.605396 0.368641
v -1.773090 0.605396 0.141197
v -1.340462 0.605396 0.736645
v -1.966559 0.884000 0.736645
v 0.538958 0.208800 1.821956
v 0.871814 0.391882 2.063787
v 0.411821 0.391882 2.213251
v 0.127523 0.391882 1.821956
v 0.411821 0.391882 1.430662
v 0.871814 0.391882 1.580125
v 0.666095 0.688118 2.213251
v 0.206102 0.688118 2.063787
v 0.206102 0.688118 1.580125
v 0.666095 0.688118 1.430662
v 0.950394 0.688118 1.821956
v 0.538958 0.871200 1.821956
vn 0.8322 0.5520 0.0532
vn 0.1776 0.9839 0.0189
vn -0.4983 0.8670 -0.0027
vn -0.9759 -0.2181 -0.0052
vn -0.0000 -1.0000 -0.0000
vn 0.1792 -0.9838 -0.0093
vn 0.5570 0.5732 -0.6009
vn 0.1421 0.9833 -0.1138
vn -0.3219 0.8869 0.3314
vn -0.8365 -0.0334 0.5470
vn 0.0865 -0.9919 -0.0934
vn 0.3772 0.3137 -0.8714
vn 0.0574 0.9830 -0.1742
vn -0.2805 0.8181 0.5020
vn -0.3210 -0.1601 0.9334
vn 0.2109 -0.8474 -0.4873
vn 0.1567 0.4465 -0.8810
vn 0.0669 0.9714 -0.2278
vn -0.0358 0.8598 0.5094
vn 0.0207 -0.2430 0.9698
vn 0.0442 -0.9676 -0.2486
vn 0.0776 0.2816 -0.9564
vn -0.0075 0.9827 -0.1850
vn 0.0245 0.7967 0.6039
vn 0.0837 0.2288 0.9699
vn -0.0103 -0.9418 -0.3359
vn 0.0402 0.4258 -0.9039
vn 0.0081 0.9869 -0.1609
vn -0.0180 0.8077 0.5893
vn -0.0301 -0.1749 0.9841
vn 0.0195 -0.9859 -0.1663
vn -0.4057 0.5087 -0.7594
vn -0.0708 0.9906 -0.1172
vn 0.1954 0.8549 0.4806
vn 0.4834 -0.0439 0.8743
vn -0.0936 -0.9855 -0.1415
vn -0.8958 0.2942 -0.3331
vn -0.1256 0.9913 -0.0390
vn 0.4668 0.8211 0.3285
vn 0.9508 0.1780 0.2536
vn -0.1759 -0.9822 -0.0654
vn -0.9164 0.3445 0.2036
vn -0.1976 0.9802 0.0152
vn 0.4593 0.8859 -0.0654
vn 0.9780 -0.0913 -0.1878
vn -0.2556 -0.9651 0.0568
vn -0.9764 0.0620 0.2068
vn -0.1811 0.9794 0.0898
vn 0.4690 0.8491 -0.2429
vn 0.9005 0.1032 -0.4224
vn -0.5700 -0.8127 0.1207
vn -0.7918 0.4873 0.3682
vn -0.1774 0.9802 0.0878
vn 0.5288 0.8399 -0.1222
vn 0.9738 0.0325 -0.2250
vn -0.2122 -0.9746 0.0708
vn -0.7586 0.4620 0.4594
vn -0.1607 0.9822 0.0978
vn 0.5409 0.7696 -0.3393
vn 0.8053 -0.0663 -0.5892
vn -0.3593 -0.9098 0.2078
vn -0.4369 0.6622 0.6088
vn -0.0961 0.9862 0.1352
vn 0.2372 0.8120 -0.5333
vn 0.4183 0.0701 -0.9056
vn -0.0774 -0.9757 0.2050
vn 0.1531 0.6293 0.7620
vn 0.0367 0.9868 0.1577
vn -0.1000 0.8745 -0.4746
vn -0.1083 0.0435 -0.9932
vn 0.0226 -0.9934 0.1122
vn 0.5572 0.5904 0.5839
vn 0.1198 0.9820 0.1462
vn -0.3136 0.7973 -0.5157
vn -0.7090 0.2006 -0.6761
vn 0.2010 -0.9567 0.2106
vn 0.6441 0.4887 0.5884
vn 0.2152 0.9675 0.1325
vn -0.4664 0.8432 -0.2674
vn -0.8257 -0.2465 -0.5074
vn 0.2366 -0.9473 0.2161
vn 0.4501 0.6643 0.5967
vn 0.1586 0.9703 0.1826
vn -0.5590 0.7442 -0.3656
vn -0.8243 0.1725 -0.5392
vn 0.0782 -0.9913 0.1062
vn 0.9202 0.0752 0.3841
vn 0.1730 0.9820 0.0753
vn -0.4401 0.8657 -0.2384
vn -0.8771 -0.0701 -0.4751
vn 0.7809 -0.5330 0.3257
vn 0.1489 -0.8762 0.4584
vn 0.4819 -0.8762 -0.0000
vn -0.3899 -0.8762 0.2833
vn -0.3899 -0.8762 -0.2833
vn 0.1489 -0.8762 -0.4584
vn 0.9666 -0.2564 -0.0000
vn 0.2987 -0.2564 0.9193
vn -0.7820 -0.2564 0.5681
vn -0.7820 -0.2564 -0.5681
vn 0.2987 -0.2564 -0.9193
vn 0.7820 0.2564 0.5681
vn -0.2987 0.2564 0.9193
vn -0.9666 0.2564 -0.0000
vn -0.2987 0.2564 -0.9193
vn 0.7820 0.2564 -0.5681
vn 0.3899 0.8762 0.2833
vn -0.1489 0.8762 0.4584
vn -0.4819 0.8762 -0.0000
vn -0.1489 0.8762 -0.4584
vn 0.3899 0.8762 -0.2833
vn 0.8112 0.5804 0.0706
vn 0.1877 0.9822 0.0120
vn -0.4602 0.8865 -0.0491
vn -0.9949 -0.0332 0.0953
vn 0.1245 -0.9922 0.0108
vn 0.7321 0.3465 -0.5864
vn 0.1097 0.9875 -0.1130
vn -0.4619 0.8339 0.3020
vn -0.8633 -0.1824 0.4706
vn 0.4393 -0.8676 -0.2329
vn 0.2777 0.4610 -0.8428
vn 0.1127 0.9729 -0.2018
vn -0.1268 0.8754 0.4665
vn -0.2525 -0.2725 0.9285
vn 0.0670 -0.9694 -0.2360
vn 0.2703 0.2811 -0.9208
vn 0.0128 0.9833 -0.1816
vn -0.1732 0.8013 0.5726
vn -0.2815 0.2348 0.9304
vn 0.0781 -0.9438 -0.3210
vn 0.1505 0.4137 -0.8979
vn 0.0131 0.9867 -0.1617
vn 0.0501 0.8125 0.5808
vn -0.1814 -0.1674 0.9690
vn 0.0281 -0.9854 -0.1677
vn 0.0500 0.4434 -0.8949
vn 0.0072 0.9868 -0.1617
vn -0.0291 0.8132 0.5812
vn 0.0499 -0.0391 0.9980
vn 0.0112 -0.9795 -0.2009
vn -0.5449 0.3008 -0.7827
vn -0.0616 0.9914 -0.1153
vn 0.3054 0.8069 0.5055
vn 0.3709 0.1738 0.9123
vn -0.1048 -0.9830 -0.1505
vn -0.8758 0.3987 -0.2722
vn -0.1532 0.9823 -0.1078
vn 0.4065 0.9072 0.1084
vn 0.9096 -0.1059 0.4017
vn -0.2054 -0.9748 -0.0876
vn -0.9951 0.0632 0.0767
vn -0.1818 0.9830 0.0259
vn 0.4832 0.8748 -0.0353
vn 0.9909 0.1135 -0.0724
vn -0.5735 -0.8177 0.0504
vn -0.7828 0.4864 0.3881
vn -0.1761 0.9801 0.0912
vn 0.4902 0.8407 -0.2299
vn 0.9233 0.0327 -0.3827
vn -0.2068 -0.9746 0.0857
vn -0.7977 0.4559 0.3948
vn -0.1744 0.9813 0.0811
vn 0.5788 0.7635 -0.2864
vn 0.9836 -0.0575 -0.1709
vn -0.3762 -0.9076 0.1862
vn -0.7314 0.5890 0.3437
vn -0.1605 0.9822 0.0972
vn 0.5396 0.7752 -0.3283
vn 0.8455 0.0622 -0.5303
vn -0.2359 -0.9654 0.1109
vn -0.4308 0.6236 0.6524
vn -0.0963 0.9863 0.1341
vn 0.2869 0.8689 -0.4034
vn 0.4061 0.0439 -0.9128
vn -0.0640 -0.9932 0.0969
vn 0.1703 0.6596 0.7321
vn 0.0341 0.9862 0.1620
vn 0.0017 0.8129 -0.5824
vn 0.0028 0.2428 -0.9701
vn -0.0149 -0.9677 0.2516
vn 0.5483 0.5016 0.6691
vn 0.1164 0.9746 0.1914
vn -0.3605 0.8671 -0.3438
vn -0.4889 -0.2779 -0.8269
vn 0.2135 -0.9494 0.2303
vn 0.6323 0.6699 0.3892
vn 0.2105 0.9701 0.1207
vn -0.4527 0.7438 -0.4917
vn -0.6672 0.1723 -0.7247
vn 0.1195 -0.9912 0.0571
vn 0.8776 0.0745 0.4736
vn 0.1342 0.9749 0.1779
vn -0.3589 0.8369 -0.4132
vn -0.7414 -0.0658 -0.6678
vn 0.7466 -0.5293 0.4029
vn 0.7153 0.4745 0.5130
vn 0.1771 0.9814 0.0740
vn -0.4869 0.8474 -0.2119
vn -0.8307 -0.1857 -0.5249
vn 0.1777 -0.9758 0.1275
s 0
usemtl Rim
f 1//1 9//1 2//1
f 2//2 10//2 3//2
f 3//3 11//3 4//3
f 11//4 5//4 4//4
f 12//5 6//5 5//5
f 13//5 7//5 6//5
f 14//6 1//6 7//6
f 15//7 9//7 8//7
f 16//8 10//8 9//8
f 17//9 11//9 10//9
f 18//10 12//10 11//10
f 19//5 13//5 12//5
f 20//5 14//5 13//5
f 14//11 15//11 8//11
f 22//12 16//12 15//12
f 23//13 17//13 16//13
f 24//14 18//14 17//14
f 18//15 26//15 19//15
f 19//5 27//5 20//5
f 20//5 28//5 21//5
f 21//16 22//16 15//16
f 29//17 23//17 22//17
f 30//18 24//18 23//18
f 31//19 25//19 24//19
f 25//20 33//20 26//20
f 26//5 34//5 27//5
f 27//5 35//5 28//5
f 28//21 29//21 22//21
f 29//22 37//22 30//22
f 30//23 38//23 31//23
f 38//24 32//24 31//24
f 39//25 33//25 32//25
f 40//5 34//5 33//5
f 41//5 35//5 34//5
f 42//26 29//26 35//26
f 36//27 44//27 37//27
f 37//28 45//28 38//28
f 38//29 46//29 39//29
f 46//30 40//30 39//30
f 47//5 41//5 40//5
f 48//5 42//5 41//5
f 49//31 36//31 42//31
f 43//32 51//32 44//32
f 44//33 52//33 45//33
f 45//34 53//34 46//34
f 46//35 54//35 47//35
f 54//5 48//5 47//5
f 55//5 49//5 48//5
f 56//36 43//36 49//36
f 57//37 51//37 50//37
f 58//38 52//38 51//38
f 59//39 53//39 52//39
f 60//40 54//40 53//40
f 54//5 62//5 55//5
f 55//5 63//5 56//5
f 56//41 57//41 50//41
f 64//42 58//42 57//42
f 65//43 59//43 58//43
f 66//44 60//44 59//44
f 60//45 68//45 61//45
f 61//5 69//5 62//5
f 62//5 70//5 63//5
f 63//46 64//46 57//46
f 71//47 65//47 64//47
f 72//48 66//48 65//48
f 73//49 67//49 66//49
f 74//50 68//50 67//50
f 68//5 76//5 69//5
f 69//5 77//5 70//5
f 70//51 71//51 64//51
f 71//52 79//52 72//52
f 72//53 80//53 73//53
f 73//54 81//54 74//54
f 81//55 75//55 74//55
f 82//5 76//5 75//5
f 83//5 77//5 76//5
f 84//56 71//56 77//56
f 78//57 86//57 79//57
f 79//58 87//58 80//58
f 80//59 88//59 81//59
f 81//60 89//60 82//60
f 89//5 83//5 82//5
f 90//5 84//5 83//5
f 91//61 78//61 84//61
f 85//62 93//62 86//62
f 86//63 94//63 87//63
f 87//64 95//64 88//64
f 88//65 96//65 89//65
f 96//5 90//5 89//5
f 97//5 91//5 90//5
f 98//66 85//66 91//66
f 99//67 93//67 92//67
f 100//68 94//68 93//68
f 101//69 95//69 94//69
f 95//70 103//70 96//70
f 96//5 104//5 97//5
f 97//5 105//5 98//5
f 98//71 99//71 92//71
f 106//72 100//72 99//72
f 107//73 101//73 100//73
f 108//74 102//74 101//74
f 109//75 103//75 102//75
f 103//5 111//5 104//5
f 104//5 112//5 105//5
f 105//76 106//76 99//76
f 113//77 107//77 106//77
f 114//78 108//78 107//78
f 115//79 109//79 108//79
f 109//80 117//80 110//80
f 110//5 118//5 111//5
f 111//5 119//5 112//5
f 112//81 113//81 106//81
f 113//82 121//82 114//82
f 114//83 122//83 115//83
f 115//84 123//84 116//84
f 123//85 117//85 116//85
f 124//5 118//5 117//5
f 125//5 119//5 118//5
f 126//86 113//86 119//86
f 120//87 2//87 121//87
f 121//88 3//88 122//88
f 122//89 4//89 123//89
f 4//90 124//90 123//90
f 5//5 125//5 124//5
f 6//5 126//5 125//5
f 7//91 120//91 126//91
f 127//92 128//92 129//92
f 128//93 127//93 132//93
f 127//94 129//94 130//94
f 127//95 130//95 131//95
f 127//96 131//96 132//96
f 128//97 132//97 137//97
f 129//98 128//98 133//98
f 130//99 129//99 134//99
f 131//100 130//100 135//100
f 132//101 131//101 136//101
f 128//102 137//102 133//102
f 129//103 133//103 134//103
f 130//104 134//104 135//104
f 131//105 135//105 136//105
f 132//106 136//106 137//106
f 133//107 137//107 138//107
f 134//108 133//108 138//108
f 135//109 134//109 138//109
f 136//110 135//110 138//110
f 137//111 136//111 138//111
f 139//92 140//92 141//92
f 140//93 139//93 144//93
f 139//94 141//94 142//94
f 139//95 142//95 143//95
f 139//96 143//96 144//96
f 140//97 144//97 149//97
f 141//98 140//98 145//98
f 142//99 141//99 146//99
f 143//100 142//100 147//100
f 144//101 143//101 148//101
f 140//102 149//102 145//102
f 141//103 145//103 146//103
f 142//104 146//104 147//104
f 143//105 147//105 148//105
f 144//106 148//106 149//106
f 145//107 149//107 150//107
f 146//108 145//108 150//108
f 147//109 146//109 150//109
f 148//110 147//110 150//110
f 149//111 148//111 150//111
f 151//92 152//92 153//92
f 152//93 151//93 156//93
f 151//94 153//94 154//94
f 151//95 154//95 155//95
f 151//96 155//96 156//96
f 152//97 156//97 161//97
f 153//98 152//98 157//98
f 154//99 153//99 158//99
f 155//100 154//100 159//100
f 156//101 155//101 160//101
f 152//102 161//102 157//102
f 153//103 157//103 158//103
f 154//104 158//104 159//104
f 155//105 159//105 160//105
f 156//106 160//106 161//106
f 157//107 161//107 162//107
f 158//108 157//108 162//108
f 159//109 158//109 162//109
f 160//110 159//110 162//110
f 161//111 160//111 162//111
f 163//92 164//92 165//92
f 164//93 163//93 168//93
f 163//94 165//94 166//94
f 163//95 166//95 167//95
f 163//96 167//96 168//96
f 164//97 168//97 173//97
f 165//98 164//98 169//98
f 166//99 165//99 170//99
f 167//100 166//100 171//100
f 168//101 167//101 172//101
f 164//102 173//102 169//102
f 165//103 169//103 170//103
f 166//104 170//104 171//104
f 167//105 171//105 172//105
f 168//106 172//106 173//106
f 169//107 173//107 174//107
f 170//108 169//108 174//108
f 171//109 170//109 174//109
f 172//110 171//110 174//110
f 173//111 172//111 174//111
f 1//112 8//112 9//112
f 2//113 9//113 10//113
f 3//114 10//114 11//114
f 11//115 12//115 5//115
f 12//5 13//5 6//5
f 13//5 14//5 7//5
f 14//116 8//116 1//116
f 15//117 16//117 9//117
f 16//118 17//118 10//118
f 17//119 18//119 11//119
f 18//120 19//120 12//120
f 19//5 20//5 13//5
f 20//5 21//5 14//5
f 14//121 21//121 15//121
f 22//122 23//122 16//122
f 23//123 24//123 17//123
f 24//124 25//124 18//124
f 18//125 25//125 26//125
f 19//5 26//5 27//5
f 20//5 27//5 28//5
f 21//126 28//126 22//126
f 29//127 30//127 23//127
f 30//128 31//128 24//128
f 31//129 32//129 25//129
f 25//130 32//130 33//130
f 26//5 33//5 34//5
f 27//5 34//5 35//5
f 28//131 35//131 29//131
f 29//132 36//132 37//132
f 30//133 37//133 38//133
f 38//134 39//134 32//134
f 39//135 40//135 33//135
f 40//5 41//5 34//5
f 41//5 42//5 35//5
f 42//136 36//136 29//136
f 36//137 43//137 44//137
f 37//138 44//138 45//138
f 38//139 45//139 46//139
f 46//140 47//140 40//140
f 47//5 48//5 41//5
f 48//5 49//5 42//5
f 49//141 43//141 36//141
f 43//142 50//142 51//142
f 44//143 51//143 52//143
f 45//144 52//144 53//144
f 46//145 53//145 54//145
f 54//5 55//5 48//5
f 55//5 56//5 49//5
f 56//146 50//146 43//146
f 57//147 58//147 51//147
f 58//148 59//148 52//148
f 59//149 60//149 53//149
f 60//150 61//150 54//150
f 54//5 61//5 62//5
f 55//5 62//5 63//5
f 56//151 63//151 57//151
f 64//152 65//152 58//152
f 65//153 66//153 59//153
f 66//154 67//154 60//154
f 60//155 67//155 68//155
f 61//5 68//5 69//5
f 62//5 69//5 70//5
f 63//156 70//156 64//156
f 71//157 72//157 65//157
f 72//158 73//158 66//158
f 73//159 74//159 67//159
f 74//160 75//160 68//160
f 68//5 75//5 76//5
f 69//5 76//5 77//5
f 70//161 77//161 71//161
f 71//162 78//162 79//162
f 72//163 79//163 80//163
f 73//164 80//164 81//164
f 81//165 82//165 75//165
f 82//5 83//5 76//5
f 83//5 84//5 77//5
f 84//166 78//166 71//166
f 78//167 85//167 86//167
f 79//168 86//168 87//168
f 80//169 87//169 88//169
f 81//170 88//170 89//170
f 89//5 90//5 83//5
f 90//5 91//5 84//5
f 91//171 85//171 78//171
f 85//172 92//172 93//172
f 86//173 93//173 94//173
f 87//174 94//174 95//174
f 88//175 95//175 96//175
f 96//5 97//5 90//5
f 97//5 98//5 91//5
f 98//176 92//176 85//176
f 99//177 100//177 93//177
f 100//178 101//178 94//178
f 101//179 102//179 95//179
f 95//180 102//180 103//180
f 96//5 103//5 104//5
f 97//5 104//5 105//5
f 98//181 105//181 99//181
f 106//182 107//182 100//182
f 107//183 108//183 101//183
f 108//184 109//184 102//184
f 109//185 110//185 103//185
f 103//5 110//5 111//5
f 104//5 111//5 112//5
f 105//186 112//186 106//186
f 113//187 114//187 107//187
f 114//188 115//188 108//188
f 115//189 116//189 109//189
f 109//190 116//190 117//190
f 110//5 117//5 118//5
f 111//5 118//5 119//5
f 112//191 119//191 113//191
f 113//192 120//192 121//192
f 114//193 121//193 122//193
f 115//194 122//194 123//194
f 123//195 124//195 117//195
f 124//5 125//5 118//5
f 125//5 126//5 119//5
f 126//196 120//196 113//196
f 120//197 1//197 2//197
f 121//198 2//198 3//198
f 122//199 3//199 4//199
f 4//200 5//200 124//200
f 5//5 6//5 125//5
f 6//5 7//5 126//5
f 7//201 1//201 120//201
o Pool
v 0.000000 0.080000 -1.620000
v 0.000000 0.200000 -1.620000
v 0.619947 0.080000 -1.496685
v 0.619947 0.200000 -1.496685
v 1.145513 0.080000 -1.145513
v 1.145513 0.200000 -1.145513
v 1.496685 0.080000 -0.619947
v 1.496685 0.200000 -0.619947
v 1.620000 0.080000 0.000000
v 1.620000 0.200000 0.000000
v 1.496685 0.080000 0.619947
v 1.496685 0.200000 0.619947
v 1.145513 0.080000 1.145513
v 1.145513 0.200000 1.145513
v 0.619947 0.080000 1.496685
v 0.619947 0.200000 1.496685
v 0.000000 0.080000 1.620000
v 0.000000 0.200000 1.620000
v -0.619947 0.080000 1.496685
v -0.619947 0.200000 1.496685
v -1.145513 0.080000 1.145513
v -1.145513 0.200000 1.145513
v -1.496685 0.080000 0.619947
v -1.496685 0.200000 0.619947
v -1.620000 0.080000 0.000000
v -1.620000 0.200000 0.000000
v -1.496685 0.080000 -0.619947
v -1.496685 0.200000 -0.619947
v -1.145513 0.080000 -1.145513
v -1.145513 0.200000 -1.145513
v -0.619947 0.080000 -1.496685
v -0.619947 0.200000 -1.496685
vn 0.1951 -0.0000 -0.9808
vn 0.5556 -0.0000 -0.8315
vn 0.8315 -0.0000 -0.5556
vn 0.9808 -0.0000 -0.1951
vn 0.9808 -0.0000 0.1951
vn 0.8315 -0.0000 0.5556
vn 0.5556 -0.0000 0.8315
vn 0.1951 -0.0000 0.9808
vn -0.1951 -0.0000 0.9808
vn -0.5556 -0.0000 0.8315
vn -0.8315 -0.0000 0.5556
vn -0.9808 -0.0000 0.1951
vn -0.9808 -0.0000 -0.1951
vn -0.8315 -0.0000 -0.5556
vn -0.0000 1.0000 -0.0000
vn -0.5556 -0.0000 -0.8315
vn -0.1951 -0.0000 -0.9808
vn -0.0000 -1.0000 -0.0000
s 0
usemtl Pool
f 176//202 177//202 175//202
f 178//203 179//203 177//203
f 180//204 181//204 179//204
f 182//205 183//205 181//205
f 184//206 185//206 183//206
f 186//207 187//207 185//207
f 188//208 189//208 187//208
f 190//209 191//209 189//209
f 192//210 193//210 191//210
f 194//211 195//211 193//211
f 196//212 197//212 195//212
f 198//213 199//213 197//213
f 200//214 201//214 199//214
f 202//215 203//215 201//215
f 196//216 188//216 180//216
f 204//217 205//217 203//217
f 206//218 175//218 205//218
f 189//219 197//219 205//219
f 176//202 178//202 177//202
f 178//203 180//203 179//203
f 180//204 182//204 181//204
f 182//205 184//205 183//205
f 184//206 186//206 185//206
f 186//207 188//207 187//207
f 188//208 190//208 189//208
f 190//209 192//209 191//209
f 192//210 194//210 193//210
f 194//211 196//211 195//211
f 196//212 198//212 197//212
f 198//213 200//213 199//213
f 200//214 202//214 201//214
f 202//215 204//215 203//215
f 180//216 178//216 176//216
f 176//216 206//216 204//216
f 204//216 202//216 200//216
f 200//216 198//216 196//216
f 196//216 194//216 192//216
f 192//216 190//216 188//216
f 188//216 186//216 184//216
f 184//216 182//216 180//216
f 180//216 176//216 204//216
f 204//216 200//216 196//216
f 196//216 192//216 188//216
f 188//216 184//216 180//216
f 180//216 204//216 196//216
f 204//217 206//217 205//217
f 206//218 176//218 175//218
f 205//219 175//219 177//219
f 177//219 179//219 181//219
f 181//219 183//219 185//219
f 185//219 187//219 189//219
f 189//219 191//219 193//219
f 193//219 195//219 197//219
f 197//219 199//219 201//219
f 201//219 203//219 205//219
f 205//219 177//219 181//219
f 181//219 185//219 189//219
f 189//219 193//219 197//219
f 197//219 201//219 205//219
f 205//219 181//219 189//219
o Spikes
v 1.964802 0.500000 0.027430
v 2.086288 0.472124 0.134904
v 2.023407 0.482772 0.286625
v 1.863060 0.517228 0.272919
v 1.826839 0.527876 0.112728
v 2.295589 2.106519 0.196214
v 1.543672 0.500000 -1.215844
v 1.704398 0.465483 -1.207946
v 1.751586 0.478668 -1.050828
v 1.620024 0.521332 -0.961622
v 1.491526 0.534517 -1.063607
v 2.023127 2.304519 -1.371793
v 0.924142 0.500000 -1.734117
v 1.074044 0.462646 -1.790869
v 1.180612 0.476914 -1.666266
v 1.096575 0.523086 -1.532504
v 0.938068 0.537354 -1.574438
v 1.253066 1.853002 -1.994496
v 0.128590 0.500000 -1.960782
v 0.242408 0.481696 -2.078241
v 0.390601 0.488688 -2.006992
v 0.368371 0.511312 -1.845497
v 0.206439 0.518304 -1.816938
v 0.299299 2.191714 -2.174284
v -0.742560 0.500000 -1.819287
v -0.691604 0.481108 -1.974636
v -0.527185 0.488324 -1.975463
v -0.476523 0.511676 -1.820625
v -0.609632 0.518892 -1.724103
v -0.692860 2.370130 -2.117595
v -1.433474 0.500000 -1.344007
v -1.451337 0.475785 -1.505812
v -1.302462 0.485034 -1.575362
v -1.192588 0.514966 -1.456541
v -1.273558 0.524215 -1.313555
v -1.519345 2.002469 -1.643082
v -1.935844 0.500000 -0.337208
v -2.040203 0.479748 -0.462848
v -1.953644 0.487484 -0.602613
v -1.795788 0.512516 -0.563352
v -1.784787 0.520252 -0.399322
v -2.144014 2.120193 -0.533248
v -1.928366 0.500000 0.377633
v -2.070293 0.476869 0.297583
v -2.039642 0.485705 0.136124
v -1.878771 0.514295 0.116387
v -1.809998 0.523131 0.265648
v -2.212685 2.026476 0.271465
v -1.361119 0.500000 1.417236
v -1.521732 0.467216 1.431896
v -1.590023 0.479738 1.282678
v -1.471615 0.520262 1.175795
v -1.330145 0.532784 1.258956
v -1.764211 2.140072 1.592493
v -0.590634 0.500000 1.874127
v -0.728197 0.468823 1.958924
v -0.855569 0.480731 1.855381
v -0.796725 0.519269 1.706590
v -0.632986 0.531177 1.718176
v -0.855934 2.025367 2.164279
v 0.561383 0.500000 1.883095
v 0.495571 0.483428 2.033031
v 0.331831 0.489758 2.017684
v 0.296445 0.510242 1.858264
v 0.438317 0.516572 1.775084
v 0.472269 2.249676 2.127700
v 1.153235 0.500000 1.590989
v 1.138324 0.461486 1.750303
v 0.979678 0.476197 1.791550
v 0.896540 0.523803 1.657728
v 1.003804 0.538514 1.533775
v 1.335731 2.390198 2.150035
v 1.760408 0.500000 0.873020
v 1.825292 0.483937 1.023414
v 1.702419 0.490073 1.132735
v 1.561595 0.509927 1.049905
v 1.597434 0.516063 0.889392
v 1.840108 1.938462 1.082320
vn 0.6544 -0.0555 -0.7541
vn 0.9125 -0.1314 0.3874
vn -0.0706 0.0673 0.9952
vn -0.2086 -0.9778 -0.0178
vn -0.9363 0.2659 0.2294
vn -0.4882 0.1900 -0.8518
vn 0.0288 -0.0937 -0.9952
vn 0.9450 -0.1877 -0.2681
vn 0.5732 0.0584 0.8174
vn -0.2146 -0.9658 0.1455
vn -0.5728 0.3045 0.7610
vn -0.9092 0.2105 -0.3592
vn -0.3717 -0.0875 -0.9242
vn 0.7568 -0.1891 -0.6256
vn 0.8560 0.0769 0.5112
vn -0.1492 -0.9598 0.2376
vn -0.2113 0.3428 0.9153
vn -0.9701 0.2412 0.0282
vn -0.7192 -0.0151 -0.6946
vn 0.4349 -0.0649 -0.8981
vn 0.9897 0.0655 0.1271
vn -0.0187 -0.9905 0.1362
vn 0.1785 0.1960 0.9642
vn -0.8777 0.1462 0.4564
vn -0.9508 -0.0240 -0.3089
vn -0.0017 -0.0755 -0.9971
vn 0.9461 0.0592 -0.3185
vn 0.0441 -0.9899 0.1349
vn 0.5828 0.1939 0.7892
vn -0.5896 0.1425 0.7951
vn -0.9928 -0.0339 0.1147
vn -0.4160 -0.0998 -0.9038
vn 0.7231 0.0727 -0.6869
vn 0.1235 -0.9833 0.1335
vn 0.8503 0.2452 0.4657
vn -0.2102 0.1793 0.9611
vn -0.7674 -0.0211 0.6408
vn -0.8458 -0.0762 -0.5280
vn 0.2306 0.0681 -0.9707
vn 0.1476 -0.9884 0.0367
vn 0.9743 0.2124 -0.0754
vn 0.3575 0.1573 0.9206
vn -0.4873 -0.0301 0.8727
vn -0.9772 -0.0930 -0.1906
vn -0.1340 0.0718 -0.9884
vn 0.1724 -0.9848 -0.0212
vn 0.8771 0.2365 -0.4181
vn 0.6587 0.1736 0.7321
vn 0.1067 -0.0797 0.9911
vn -0.9015 -0.1689 0.3984
vn -0.6808 0.0647 -0.7296
vn 0.1828 -0.9692 -0.1650
vn 0.4639 0.2984 -0.8341
vn 0.9506 0.2091 0.2293
vn 0.5346 -0.0673 0.8425
vn -0.6320 -0.1521 0.7599
vn -0.9337 0.0700 -0.3511
vn 0.0861 -0.9722 -0.2177
vn 0.0463 0.2921 -0.9553
vn 0.9538 0.2073 -0.2176
vn 0.9160 -0.0094 0.4010
vn -0.0953 -0.0545 0.9940
vn -0.9725 0.0636 0.2240
vn -0.0270 -0.9922 -0.1215
vn -0.5034 0.1817 -0.8447
vn 0.6638 0.1366 -0.7353
vn 0.9912 -0.1149 0.0650
vn 0.2263 -0.2198 0.9489
vn -0.8393 0.0548 0.5409
vn -0.1526 -0.9573 -0.2457
vn -0.7330 0.3295 -0.5952
vn 0.3984 0.2246 -0.8893
vn 0.9184 0.0067 -0.3955
vn 0.6632 -0.0370 0.7475
vn -0.4973 0.0774 0.8641
vn -0.1040 -0.9927 -0.0612
vn -0.9594 0.1917 -0.2069
vn -0.0844 0.1481 -0.9854
s 0
usemtl Spikes
f 207//220 212//220 208//220
f 208//221 212//221 209//221
f 209//222 212//222 210//222
f 208//223 210//223 211//223
f 210//224 212//224 211//224
f 211//225 212//225 207//225
f 213//226 218//226 214//226
f 214//227 218//227 215//227
f 215//228 218//228 216//228
f 214//229 216//229 217//229
f 216//230 218//230 217//230
f 217//231 218//231 213//231
f 219//232 224//232 220//232
f 220//233 224//233 221//233
f 221//234 224//234 222//234
f 220//235 222//235 223//235
f 222//236 224//236 223//236
f 223//237 224//237 219//237
f 225//238 230//238 226//238
f 226//239 230//239 227//239
f 227//240 230//240 228//240
f 226//241 228//241 229//241
f 228//242 230//242 229//242
f 229//243 230//243 225//243
f 231//244 236//244 232//244
f 232//245 236//245 233//245
f 233//246 236//246 234//246
f 232//247 234//247 235//247
f 234//248 236//248 235//248
f 235//249 236//249 231//249
f 237//250 242//250 238//250
f 238//251 242//251 239//251
f 239//252 242//252 240//252
f 238//253 240//253 241//253
f 240//254 242//254 241//254
f 241//255 242//255 237//255
f 243//256 248//256 244//256
f 244//257 248//257 245//257
f 245//258 248//258 246//258
f 244//259 246//259 247//259
f 246//260 248//260 247//260
f 247//261 248//261 243//261
f 249//262 254//262 250//262
f 250//263 254//263 251//263
f 251//264 254//264 252//264
f 250//265 252//265 253//265
f 252//266 254//266 253//266
f 253//267 254//267 249//267
f 255//268 260//268 256//268
f 256//269 260//269 257//269
f 257//270 260//270 258//270
f 256//271 258//271 259//271
f 258//272 260//272 259//272
f 259//273 260//273 255//273
f 261//274 266//274 262//274
f 262//275 266//275 263//275
f 263//276 266//276 264//276
f 262//277 264//277 265//277
f 264//278 266//278 265//278
f 265//279 266//279 261//279
f 267//280 272//280 268//280
f 268//281 272//281 269//281
f 269//282 272//282 270//282
f 268//283 270//283 271//283
f 270//284 272//284 271//284
f 271//285 272//285 267//285
f 273//286 278//286 274//286
f 274//287 278//287 275//287
f 275//288 278//288 276//288
f 274//289 276//289 277//289
f 276//290 278//290 277//290
f 277//291 278//291 273//291
f 279//292 284//292 280//292
f 280//293 284//293 281//293
f 281//294 284//294 282//294
f 280//295 282//295 283//295
f 282//296 284//296 283//296
f 283//297 284//297 279//297
f 211//223 207//223 208//223
f 208//223 209//223 210//223
f 217//229 213//229 214//229
f 214//229 215//229 216//229
f 223//235 219//235 220//235
f 220//235 221//235 222//235
f 229//241 225//241 226//241
f 226//241 227//241 228//241
f 235//247 231//247 232//247
f 232//247 233//247 234//247
f 241//253 237//253 238//253
f 238//253 239//253 240//253
f 247//259 243//259 244//259
f 244//259 245//259 246//259
f 253//265 249//265 250//265
f 250//265 251//265 252//265
f 259//271 255//271 256//271
f 256//271 257//271 258//271
f 265//277 261//277 262//277
f 262//277 263//277 264//277
f 271//283 267//283 268//283
f 268//283 269//283 270//283
f 277//289 273//289 274//289
f 274//289 275//289 276//289
f 283//295 279//295 280//295
f 280//295 281//295 282//295
o Bubbles
v 0.520000 -0.100000 -0.340000
v 0.751552 0.076891 -0.171770
v 0.431557 0.076891 -0.067795
v 0.233784 0.076891 -0.340000
v 0.431557 0.076891 -0.612205
v 0.751552 0.076891 -0.508230
v 0.608443 0.363109 -0.067795
v 0.288448 0.363109 -0.171770
v 0.288448 0.363109 -0.508230
v 0.608443 0.363109 -0.612205
v 0.806216 0.363109 -0.340000
v 0.520000 0.540000 -0.340000
v -0.640000 -0.040000 0.220000
v -0.451864 0.103724 0.356687
v -0.711860 0.103724 0.441166
v -0.872550 0.103724 0.220000
v -0.711860 0.103724 -0.001166
v -0.451864 0.103724 0.083313
v -0.568140 0.336276 0.441166
v -0.828136 0.336276 0.356687
v -0.828136 0.336276 0.083313
v -0.568140 0.336276 -0.001166
v -0.407449 0.336276 0.220000
v -0.640000 0.480000 0.220000
v 0.120000 0.010000 0.740000
v 0.271956 0.126085 0.850401
v 0.061959 0.126085 0.918634
v -0.067829 0.126085 0.740000
v 0.061959 0.126085 0.561366
v 0.271956 0.126085 0.629599
v 0.178041 0.313915 0.918634
v -0.031956 0.313915 0.850401
v -0.031956 0.313915 0.629599
v 0.178041 0.313915 0.561366
v 0.307829 0.313915 0.740000
v 0.120000 0.430000 0.740000
v -0.220000 0.040000 -0.800000
v -0.089752 0.139501 -0.705370
v -0.269749 0.139501 -0.646885
v -0.380997 0.139501 -0.800000
v -0.269749 0.139501 -0.953115
v -0.089752 0.139501 -0.894630
v -0.170251 0.300499 -0.646885
v -0.350248 0.300499 -0.705370
v -0.350248 0.300499 -0.894630
v -0.170251 0.300499 -0.953115
v -0.059004 0.300499 -0.800000
v -0.220000 0.400000 -0.800000
v 0.860000 0.060000 0.340000
v 0.975776 0.148446 0.424115
v 0.815778 0.148446 0.476102
v 0.716892 0.148446 0.340000
v 0.815778 0.148446 0.203898
v 0.975776 0.148446 0.255885
v 0.904222 0.291554 0.476102
v 0.744224 0.291554 0.424115
v 0.744224 0.291554 0.255885
v 0.904222 0.291554 0.203898
v 1.003108 0.291554 0.340000
v 0.860000 0.380000 0.340000
v -0.900000 0.080000 -0.420000
v -0.798696 0.157390 -0.346399
v -0.938694 0.157390 -0.300910
v -1.025219 0.157390 -0.420000
v -0.938694 0.157390 -0.539090
v -0.798696 0.157390 -0.493601
v -0.861306 0.282610 -0.300910
v -1.001304 0.282610 -0.346399
v -1.001304 0.282610 -0.493601
v -0.861306 0.282610 -0.539090
v -0.774781 0.282610 -0.420000
v -0.900000 0.360000 -0.420000
v 0.300000 0.090000 -0.920000
v 0.394068 0.161862 -0.851656
v 0.264070 0.161862 -0.809417
v 0.183725 0.161862 -0.920000
v 0.264070 0.161862 -1.030583
v 0.394068 0.161862 -0.988344
v 0.335930 0.278138 -0.809417
v 0.205932 0.278138 -0.851656
v 0.205932 0.278138 -0.988344
v 0.335930 0.278138 -1.030583
v 0.416275 0.278138 -0.920000
v 0.300000 0.350000 -0.920000
vn 0.1876 -0.7947 0.5774
vn 0.6071 -0.7947 -0.0000
vn -0.4911 -0.7947 0.3568
vn -0.4911 -0.7947 -0.3568
vn 0.1876 -0.7947 -0.5774
vn 0.9822 -0.1876 -0.0000
vn 0.3035 -0.1876 0.9342
vn -0.7946 -0.1876 0.5774
vn -0.7946 -0.1876 -0.5774
vn 0.3035 -0.1876 -0.9342
vn 0.7946 0.1876 0.5774
vn -0.3035 0.1876 0.9342
vn -0.9822 0.1876 -0.0000
vn -0.3035 0.1876 -0.9342
vn 0.7946 0.1876 -0.5774
vn 0.4911 0.7947 0.3568
vn -0.1876 0.7947 0.5774
vn -0.6071 0.7947 -0.0000
vn -0.1876 0.7947 -0.5774
vn 0.4911 0.7947 -0.3568
s 0
usemtl Bubbles
f 285//298 286//298 287//298
f 286//299 285//299 290//299
f 285//300 287//300 288//300
f 285//301 288//301 289//301
f 285//302 289//302 290//302
f 286//303 290//303 295//303
f 287//304 286//304 291//304
f 288//305 287//305 292//305
f 289//306 288//306 293//306
f 290//307 289//307 294//307
f 286//308 295//308 291//308
f 287//309 291//309 292//309
f 288//310 292//310 293//310
f 289//311 293//311 294//311
f 290//312 294//312 295//312
f 291//313 295//313 296//313
f 292//314 291//314 296//314
f 293//315 292//315 296//315
f 294//316 293//316 296//316
f 295//317 294//317 296//317
f 297//298 298//298 299//298
f 298//299 297//299 302//299
f 297//300 299//300 300//300
f 297//301 300//301 301//301
f 297//302 301//302 302//302
f 298//303 302//303 307//303
f 299//304 298//304 303//304
f 300//305 299//305 304//305
f 301//306 300//306 305//306
f 302//307 301//307 306//307
f 298//308 307//308 303//308
f 299//309 303//309 304//309
f 300//310 304//310 305//310
f 301//311 305//311 306//311
f 302//312 306//312 307//312
f 303//313 307//313 308//313
f 304//314 303//314 308//314
f 305//315 304//315 308//315
f 306//316 305//316 308//316
f 307//317 306//317 308//317
f 309//298 310//298 311//298
f 310//299 309//299 314//299
f 309//300 311//300 312//300
f 309//301 312//301 313//301
f 309//302 313//302 314//302
f 310//303 314//303 319//303
f 311//304 310//304 315//304
f 312//305 311//305 316//305
f 313//306 312//306 317//306
f 314//307 313//307 318//307
f 310//308 319//308 315//308
f 311//309 315//309 316//309
f 312//310 316//310 317//310
f 313//311 317//311 318//311
f 314//312 318//312 319//312
f 315//313 319//313 320//313
f 316//314 315//314 320//314
f 317//315 316//315 320//315
f 318//316 317//316 320//316
f 319//317 318//317 320//317
f 321//298 322//298 323//298
f 322//299 321//299 326//299
f 321//300 323//300 324//300
f 321//301 324//301 325//301
f 321//302 325//302 326//302
f 322//303 326//303 331//303
f 323//304 322//304 327//304
f 324//305 323//305 328//305
f 325//306 324//306 329//306
f 326//307 325//307 330//307
f 322//308 331//308 327//308
f 323//309 327//309 328//309
f 324//310 328//310 329//310
f 325//311 329//311 330//311
f 326//312 330//312 331//312
f 327//313 331//313 332//313
f 328//314 327//314 332//314
f 329//315 328//315 332//315
f 330//316 329//316 332//316
f 331//317 330//317 332//317
f 333//298 334//298 335//298
f 334//299 333//299 338//299
f 333//300 335//300 336//300
f 333//301 336//301 337//301
f 333//302 337//302 338//302
f 334//303 338//303 343//303
f 335//304 334//304 339//304
f 336//305 335//305 340//305
f 337//306 336//306 341//306
f 338//307 337//307 342//307
f 334//308 343//308 339//308
f 335//309 339//309 340//309
f 336//310 340//310 341//310
f 337//311 341//311 342//311
f 338//312 342//312 343//312
f 339//313 343//313 344//313
f 340//314 339//314 344//314
f 341//315 340//315 344//315
f 342//316 341//316 344//316
f 343//317 342//317 344//317
f 345//298 346//298 347//298
f 346//299 345//299 350//299
f 345//300 347//300 348//300
f 345//301 348//301 349//301
f 345//302 349//302 350//302
f 346//303 350//303 355//303
f 347//304 346//304 351//304
f 348//305 347//305 352//305
f 349//306 348//306 353//306
f 350//307 349//307 354//307
f 346//308 355//308 351//308
f 347//309 351//309 352//309
f 348//310 352//310 353//310
f 349//311 353//311 354//311
f 350//312 354//312 355//312
f 351//313 355//313 356//313
f 352//314 351//314 356//314
f 353//315 352//315 356//315
f 354//316 353//316 356//316
f 355//317 354//317 356//317
f 357//298 358//298 359//298
f 358//299 357//299 362//299
f 357//300 359//300 360//300
f 357//301 360//301 361//301
f 357//302 361//302 362//302
f 358//303 362//303 367//303
f 359//304 358//304 363//304
f 360//305 359//305 364//305
f 361//306 360//306 365//306
f 362//307 361//307 366//307
f 358//308 367//308 363//308
f 359//309 363//309 364//309
f 360//310 364//310 365//310
f 361//311 365//311 366//311
f 362//312 366//312 367//312
f 363//313 367//313 368//313
f 364//314 363//314 368//314
f 365//315 364//315 368//315
f 366//316 365//316 368//316
f 367//317 366//317 368//317
o Glow
v 1.346082 0.783638 -1.503229
v 1.397146 0.820402 -1.567578
v 1.158083 0.783638 -1.652415
v 1.209148 0.820402 -1.716765
v 1.625394 -0.220402 -1.855206
v 1.676458 -0.183638 -1.919555
v 1.437395 -0.220402 -2.004392
v 1.488460 -0.183638 -2.068742
v -1.699137 0.692362 -1.162237
v -1.769530 0.729126 -1.204585
v -1.822858 0.692362 -0.956583
v -1.893250 0.729126 -0.998931
v -2.014163 -0.129126 -1.351755
v -2.084555 -0.092362 -1.394103
v -2.137883 -0.129126 -1.146102
v -2.208276 -0.092362 -1.188450
v -1.244296 0.829276 1.562529
v -1.291517 0.866040 1.629750
v -1.047910 0.829276 1.700487
v -1.095131 0.866040 1.767707
v -1.526066 -0.266040 1.963636
v -1.573287 -0.229276 2.030857
v -1.329680 -0.266040 2.101594
v -1.376901 -0.229276 2.168814
v 1.224593 0.646724 1.680060
v 1.276732 0.683488 1.743541
v 1.410056 0.646724 1.527733
v 1.462196 0.683488 1.591215
v 1.432004 -0.083488 1.932591
v 1.484143 -0.046724 1.996073
v 1.617468 -0.083488 1.780265
v 1.669607 -0.046724 1.843747
vn -0.2539 0.9128 0.3200
vn -0.7833 -0.0000 -0.6216
vn 0.2539 -0.9128 -0.3200
vn 0.7833 -0.0000 0.6216
vn -0.5674 -0.4085 0.7150
vn 0.5674 0.4085 -0.7150
vn 0.3500 0.9128 0.2106
vn -0.5155 -0.0000 0.8569
vn -0.3500 -0.9128 -0.2106
vn 0.5155 -0.0000 -0.8569
vn 0.7821 -0.4085 0.4705
vn -0.7821 0.4085 -0.4705
vn 0.2348 0.9128 -0.3343
vn 0.8183 -0.0000 0.5748
vn -0.2348 -0.9128 0.3343
vn -0.8183 -0.0000 -0.5748
vn 0.5247 -0.4085 -0.7469
vn -0.5247 0.4085 0.7469
vn -0.2593 0.9128 -0.3157
vn 0.7728 -0.0000 -0.6347
vn 0.2593 -0.9128 0.3157
vn -0.7728 -0.0000 0.6347
vn -0.5793 -0.4085 -0.7054
vn 0.5793 0.4085 0.7054
s 0
usemtl Glow
f 370//318 371//318 369//318
f 372//319 375//319 371//319
f 375//320 374//320 373//320
f 373//321 370//321 369//321
f 375//322 369//322 371//322
f 372//323 374//323 376//323
f 377//324 380//324 379//324
f 380//325 383//325 379//325
f 384//326 381//326 383//326
f 382//327 377//327 381//327
f 379//328 381//328 377//328
f 380//329 382//329 384//329
f 386//330 387//330 385//330
f 388//331 391//331 387//331
f 392//332 389//332 391//332
f 390//333 385//333 389//333
f 391//334 385//334 387//334
f 388//335 390//335 392//335
f 393//336 396//336 395//336
f 396//337 399//337 395//337
f 400//338 397//338 399//338
f 398//339 393//339 397//339
f 395//340 397//340 393//340
f 396//341 398//341 400//341
f 370//318 372//318 371//318
f 372//319 376//319 375//319
f 375//320 376//320 374//320
f 373//321 374//321 370//321
f 375//322 373//322 369//322
f 372//323 370//323 374//323
f 377//324 378//324 380//324
f 380//325 384//325 383//325
f 384//326 382//326 381//326
f 382//327 378//327 377//327
f 379//328 383//328 381//328
f 380//329 378//329 382//329
f 386//330 388//330 387//330
f 388//331 392//331 391//331
f 392//332 390//332 389//332
f 390//333 386//333 385//333
f 391//334 389//334 385//334
f 388//335 386//335 390//335
f 393//336 394//336 396//336
f 396//337 400//337 399//337
f 400//338 398//338 397//338
f 398//339 394//339 393//339
f 395//340 399//340 397//340
f 396//341 394//341 398//341
