# Blender 5.2.1 LTS
# www.blender.org
mtllib NestMeadow.mtl
o Rim
v 2.781415 0.220000 0.000000
v 2.496440 0.559315 0.000000
v 2.008517 0.643119 0.000000
v 1.477876 0.408306 0.000000
v 1.529463 0.170000 0.000000
v 1.967167 0.170000 0.000000
v 2.479084 0.170000 0.000000
v 2.580630 0.220000 -0.838497
v 2.262684 0.559315 -0.735190
v 1.809358 0.643119 -0.587896
v 1.350830 0.408306 -0.438911
v 1.353038 0.170000 -0.439629
v 1.808100 0.170000 -0.587487
v 2.403013 0.170000 -0.780786
v 1.887212 0.220000 -1.371140
v 1.730831 0.559315 -1.257522
v 1.389686 0.643119 -1.009666
v 1.095933 0.408306 -0.796242
v 1.062559 0.170000 -0.771994
v 1.362624 0.170000 -0.990004
v 1.844707 0.170000 -1.340258
v 1.314304 0.220000 -1.808985
v 1.284128 0.559315 -1.767451
v 0.947388 0.643119 -1.303968
v 0.717955 0.408306 -0.988181
v 0.716224 0.170000 -0.985798
v 0.948996 0.170000 -1.306181
v 1.279476 0.170000 -1.761047
v 0.777332 0.220000 -2.392381
v 0.729882 0.559315 -2.246344
v 0.568601 0.643119 -1.749972
v 0.427441 0.408306 -1.315527
v 0.433472 0.170000 -1.334090
v 0.542793 0.170000 -1.670543
v 0.699730 0.170000 -2.153545
v 0.000000 0.220000 -2.757180
v 0.000000 0.559315 -2.595427
v 0.000000 0.643119 -1.976141
v 0.000000 0.408306 -1.504781
v 0.000000 0.170000 -1.534993
v 0.000000 0.170000 -1.979851
v 0.000000 0.170000 -2.524277
v -0.856728 0.220000 -2.636738
v -0.773401 0.559315 -2.380282
v -0.579405 0.643119 -1.783226
v -0.456267 0.408306 -1.404246
v -0.454574 0.170000 -1.399034
v -0.607673 0.170000 -1.870226
v -0.775160 0.170000 -2.385696
v -1.390975 0.220000 -1.914513
v -1.340689 0.559315 -1.845299
v -0.966265 0.643119 -1.329949
v -0.761593 0.408306 -1.048242
v -0.783774 0.170000 -1.078771
v -0.969155 0.170000 -1.333926
v -1.286718 0.170000 -1.771015
v -1.807759 0.220000 -1.313413
v -1.738680 0.559315 -1.263224
v -1.359670 0.643119 -0.987858
v -1.026794 0.408306 -0.746009
v -1.054030 0.170000 -0.765797
v -1.306799 0.170000 -0.949444
v -1.742775 0.170000 -1.266199
v -2.473264 0.220000 -0.803612
v -2.246041 0.559315 -0.729783
v -1.724782 0.643119 -0.560416
v -1.365026 0.408306 -0.443524
v -1.376112 0.170000 -0.447126
v -1.727249 0.170000 -0.561217
v -2.261020 0.170000 -0.734650
v -2.727308 0.220000 -0.000000
v -2.599369 0.559315 -0.000000
v -2.007966 0.643119 -0.000000
v -1.580356 0.408306 -0.000000
v -1.561303 0.170000 -0.000000
v -1.955412 0.170000 -0.000000
v -2.540357 0.170000 -0.000000
v -2.612154 0.220000 0.848739
v -2.260030 0.559315 0.734327
v -1.813226 0.643119 0.589152
v -1.361226 0.408306 0.442288
v -1.355832 0.170000 0.440536
v -1.757701 0.170000 0.571111
v -2.392592 0.170000 0.777399
v -1.888134 0.220000 1.371808
v -1.734518 0.559315 1.260200
v -1.361952 0.643119 0.989516
v -1.089063 0.408306 0.791250
v -1.017846 0.170000 0.739508
v -1.368782 0.170000 0.994478
v -1.780162 0.170000 1.293362
v -1.415431 0.220000 1.948173
v -1.279823 0.559315 1.761524
v -0.996329 0.643119 1.371329
v -0.726734 0.408306 1.000263
v -0.735689 0.170000 1.012589
v -0.953281 0.170000 1.312078
v -1.286955 0.170000 1.771340
v -0.826698 0.220000 2.544314
v -0.705004 0.559315 2.169779
v -0.547874 0.643119 1.686181
v -0.422610 0.408306 1.300660
v -0.422657 0.170000 1.300806
v -0.561704 0.170000 1.728747
v -0.730316 0.170000 2.247681
v 0.000000 0.220000 2.768855
v 0.000000 0.559315 2.469008
v 0.000000 0.643119 1.974888
v 0.000000 0.408306 1.510915
v 0.000000 0.170000 1.532853
v 0.000000 0.170000 2.052320
v 0.000000 0.170000 2.597313
v 0.839010 0.220000 2.582205
v 0.768699 0.559315 2.365811
v 0.598762 0.643119 1.842799
v 0.438366 0.408306 1.349151
v 0.467450 0.170000 1.438663
v 0.603410 0.170000 1.857105
v 0.783540 0.170000 2.411485
v 1.452599 0.220000 1.999334
v 1.276106 0.559315 1.756411
v 0.990200 0.643119 1.362894
v 0.741009 0.408306 1.019913
v 0.775735 0.170000 1.067709
v 0.961508 0.170000 1.323403
v 1.240394 0.170000 1.707258
v 1.835960 0.220000 1.333905
v 1.662172 0.559315 1.207640
v 1.309883 0.643119 0.951687
v 0.979925 0.408306 0.711958
v 0.975211 0.170000 0.708533
v 1.287742 0.170000 0.935601
v 1.652971 0.170000 1.200955
v 2.428141 0.220000 0.788952
v 2.147482 0.559315 0.697760
v 1.782428 0.643119 0.579147
v 1.341111 0.408306 0.435754
v 1.291830 0.170000 0.419741
v 1.696664 0.170000 0.551280
v 2.204706 0.170000 0.716353
vn 0.7532 0.6326 -0.1804
vn 0.1690 0.9841 -0.0537
vn -0.4009 0.9060 0.1358
vn -0.9099 -0.1970 0.3651
vn -0.0000 -1.0000 -0.0000
vn 0.1630 -0.9858 -0.0390
vn 0.4728 0.6305 -0.6156
vn 0.1363 0.9809 -0.1387
vn -0.3397 0.8777 0.3380
vn -0.8141 -0.0093 0.5807
vn 0.1882 -0.9511 -0.2449
vn 0.5330 0.4791 -0.6974
vn 0.1472 0.9807 -0.1290
vn -0.3145 0.8232 0.4727
vn -0.4475 0.1523 0.8812
vn 0.4279 -0.7095 -0.5599
vn 0.6465 0.1491 -0.7482
vn 0.1135 0.9889 -0.0964
vn -0.3923 0.8514 0.3481
vn -0.7479 0.0121 0.6637
vn 0.3617 -0.7641 -0.5342
vn 0.3937 0.4093 -0.8231
vn 0.0587 0.9873 -0.1476
vn -0.1859 0.8884 0.4198
vn -0.4035 -0.0812 0.9114
vn 0.0928 -0.9802 -0.1751
vn -0.1259 0.4269 -0.8955
vn -0.0373 0.9903 -0.1340
vn 0.1469 0.8854 0.4411
vn 0.2845 -0.1206 0.9511
vn -0.0295 -0.9773 -0.2098
vn -0.6750 0.5432 -0.4993
vn -0.1002 0.9893 -0.1063
vn 0.4325 0.8226 0.3691
vn 0.6972 0.0206 0.7166
vn -0.1822 -0.9740 -0.1348
vn -0.7995 0.2315 -0.5543
vn -0.1142 0.9904 -0.0781
vn 0.4274 0.8226 0.3751
vn 0.7480 -0.1524 0.6459
vn -0.2351 -0.9582 -0.1630
vn -0.7031 0.2420 -0.6687
vn -0.1343 0.9843 -0.1147
vn 0.3361 0.8636 0.3758
vn 0.6604 -0.1368 0.7384
vn -0.3812 -0.8465 -0.3717
vn -0.7382 0.5721 -0.3574
vn -0.1365 0.9882 -0.0690
vn 0.4777 0.8474 0.2319
vn 0.9228 -0.0487 0.3822
vn -0.2046 -0.9758 -0.0778
vn -0.9282 0.3500 0.1259
vn -0.1400 0.9880 0.0647
vn 0.4754 0.8656 -0.1571
vn 0.8938 0.0715 -0.4428
vn -0.2582 -0.9655 0.0350
vn -0.4394 0.6611 0.6082
vn -0.1388 0.9805 0.1387
vn 0.3299 0.8677 -0.3719
vn 0.7883 0.0224 -0.6148
vn -0.1517 -0.9659 0.2100
vn -0.6473 0.4861 0.5871
vn -0.1305 0.9835 0.1249
vn 0.4152 0.8182 -0.3976
vn 0.4735 0.3197 -0.8208
vn -0.2474 -0.9347 0.2553
vn -0.4789 0.5622 0.6742
vn -0.0984 0.9852 0.1401
vn 0.3231 0.8880 -0.3272
vn 0.7013 -0.0631 -0.7100
vn -0.1454 -0.9747 0.1699
vn -0.2556 0.7563 0.6022
vn -0.0769 0.9863 0.1459
vn 0.2251 0.8629 -0.4524
vn 0.4454 -0.0006 -0.8953
vn -0.0689 -0.9872 0.1440
vn 0.1644 0.6532 0.7391
vn 0.0224 0.9857 0.1672
vn -0.0991 0.8878 -0.4493
vn -0.1967 -0.0899 -0.9763
vn 0.0621 -0.9582 0.2793
vn 0.5893 0.5177 0.6203
vn 0.1362 0.9842 0.1134
vn -0.3672 0.8806 -0.2995
vn -0.7295 -0.3167 -0.6062
vn 0.2031 -0.9555 0.2138
vn 0.6739 0.6285 0.3883
vn 0.1465 0.9838 0.1031
vn -0.3944 0.8663 -0.3066
vn -0.8529 -0.2193 -0.4737
vn 0.1299 -0.9887 0.0749
vn 0.6135 0.5315 0.5840
vn 0.1214 0.9806 0.1540
vn -0.3128 0.8572 -0.4091
vn -0.6737 0.0239 -0.7386
vn 0.1458 -0.9753 0.1660
vn 0.6781 0.6520 0.3391
vn 0.1990 0.9769 0.0777
vn -0.4308 0.8923 -0.1352
vn -0.9323 0.2125 -0.2926
vn 0.1946 -0.9780 0.0746
vn 0.6789 0.7018 -0.2158
vn 0.1640 0.9849 -0.0556
vn -0.4208 0.8989 0.1218
vn -0.9605 -0.0097 0.2780
vn 0.2632 -0.9644 -0.0256
vn 0.6109 0.4898 -0.6220
vn 0.1398 0.9804 -0.1391
vn -0.4421 0.8397 0.3154
vn -0.7420 0.1699 0.6485
vn 0.4911 -0.7202 -0.4901
vn 0.7441 0.1460 -0.6519
vn 0.0802 0.9895 -0.1206
vn -0.2356 0.8540 0.4639
vn -0.5253 0.0123 0.8509
vn 0.3851 -0.7642 -0.5173
vn 0.6845 0.3669 -0.6300
vn 0.1122 0.9852 -0.1299
vn -0.3940 0.8560 0.3346
vn -0.7745 -0.0686 0.6288
vn 0.1639 -0.9749 -0.1508
vn 0.3901 0.3962 -0.8312
vn 0.0640 0.9889 -0.1338
vn -0.1746 0.8813 0.4390
vn -0.4178 -0.1143 0.9013
vn 0.0980 -0.9730 -0.2089
vn -0.2099 0.6218 -0.7545
vn -0.0418 0.9912 -0.1255
vn 0.1096 0.8605 0.4975
vn 0.2151 0.0229 0.9763
vn -0.0331 -0.9822 -0.1849
vn -0.6656 0.2426 -0.7058
vn -0.1020 0.9910 -0.0870
vn 0.4324 0.8219 0.3709
vn 0.7502 -0.1523 0.6434
vn -0.2146 -0.9602 -0.1786
vn -0.8005 0.2439 -0.5474
vn -0.1185 0.9836 -0.1363
vn 0.3316 0.8629 0.3814
vn 0.7443 -0.1393 0.6531
vn -0.3937 -0.8476 -0.3557
vn -0.5261 0.5017 -0.6867
vn -0.1211 0.9859 -0.1152
vn 0.4241 0.8300 0.3622
vn 0.7027 -0.0434 0.7102
vn -0.1596 -0.9649 -0.2084
vn -0.8973 0.3383 -0.2837
vn -0.1400 0.9878 -0.0678
vn 0.4677 0.8517 0.2363
vn 0.8973 0.0717 0.4356
vn -0.2575 -0.9628 -0.0814
vn -0.6157 0.7348 0.2845
vn -0.1667 0.9845 0.0551
vn 0.4003 0.8947 -0.1983
vn 0.9060 0.0236 -0.4226
vn -0.2095 -0.9770 0.0398
vn -0.6191 0.4838 0.6186
vn -0.1216 0.9831 0.1370
vn 0.4507 0.8206 -0.3515
vn 0.6233 0.3392 -0.7046
vn -0.2320 -0.9329 0.2753
vn -0.6460 0.5496 0.5298
vn -0.1295 0.9846 0.1174
vn 0.2287 0.8891 -0.3965
vn 0.6941 -0.0632 -0.7171
vn -0.1779 -0.9732 0.1459
vn -0.4954 0.7177 0.4893
vn -0.0985 0.9854 0.1387
vn 0.2978 0.8552 -0.4241
vn 0.6773 -0.0006 -0.7357
vn -0.1264 -0.9841 0.1248
vn -0.1994 0.6489 0.7343
vn -0.0708 0.9834 0.1668
vn 0.2315 0.8680 -0.4393
vn 0.4797 -0.0804 -0.8737
vn -0.0758 -0.9573 0.2790
vn 0.1111 0.5506 0.8273
vn 0.0326 0.9885 0.1478
vn -0.1428 0.9110 -0.3869
vn -0.3220 -0.3671 -0.8727
vn 0.0621 -0.9631 0.2619
vn 0.5833 0.6511 0.4857
vn 0.1359 0.9845 0.1109
vn -0.3622 0.8706 -0.3329
vn -0.7154 -0.2361 -0.6576
vn 0.1231 -0.9892 0.0799
vn 0.6911 0.5349 0.4862
vn 0.1493 0.9820 0.1161
vn -0.3944 0.8665 -0.3060
vn -0.7899 0.0244 -0.6128
vn 0.1676 -0.9764 0.1366
vn 0.5397 0.6040 0.5865
vn 0.1704 0.9719 0.1622
vn -0.3219 0.8542 -0.4083
vn -0.5979 0.1762 -0.7819
vn 0.1607 -0.9714 0.1746
vn 0.7244 0.6084 0.3244
vn 0.1687 0.9821 0.0844
vn -0.3997 0.9033 -0.1560
vn -0.8552 -0.1851 -0.4842
vn 0.1627 -0.9840 0.0729
s 0
usemtl Rim
f 8//1 2//1 1//1
f 9//2 3//2 2//2
f 10//3 4//3 3//3
f 4//4 12//4 5//4
f 5//5 13//5 6//5
f 6//5 14//5 7//5
f 7//6 8//6 1//6
f 15//7 9//7 8//7
f 16//8 10//8 9//8
f 17//9 11//9 10//9
f 18//10 12//10 11//10
f 12//5 20//5 13//5
f 13//5 21//5 14//5
f 14//11 15//11 8//11
f 22//12 16//12 15//12
f 23//13 17//13 16//13
f 24//14 18//14 17//14
f 25//15 19//15 18//15
f 19//5 27//5 20//5
f 20//5 28//5 21//5
f 21//16 22//16 15//16
f 22//17 30//17 23//17
f 23//18 31//18 24//18
f 24//19 32//19 25//19
f 32//20 26//20 25//20
f 33//5 27//5 26//5
f 34//5 28//5 27//5
f 35//21 22//21 28//21
f 29//22 37//22 30//22
f 30//23 38//23 31//23
f 31//24 39//24 32//24
f 39//25 33//25 32//25
f 40//5 34//5 33//5
f 41//5 35//5 34//5
f 42//26 29//26 35//26
f 43//27 37//27 36//27
f 44//28 38//28 37//28
f 45//29 39//29 38//29
f 39//30 47//30 40//30
f 40//5 48//5 41//5
f 41//5 49//5 42//5
f 42//31 43//31 36//31
f 50//32 44//32 43//32
f 51//33 45//33 44//33
f 52//34 46//34 45//34
f 46//35 54//35 47//35
f 47//5 55//5 48//5
f 48//5 56//5 49//5
f 49//36 50//36 43//36
f 57//37 51//37 50//37
f 58//38 52//38 51//38
f 52//39 60//39 53//39
f 53//40 61//40 54//40
f 54//5 62//5 55//5
f 55//5 63//5 56//5
f 56//41 57//41 50//41
f 57//42 65//42 58//42
f 58//43 66//43 59//43
f 59//44 67//44 60//44
f 67//45 61//45 60//45
f 68//5 62//5 61//5
f 69//5 63//5 62//5
f 70//46 57//46 63//46
f 64//47 72//47 65//47
f 65//48 73//48 66//48
f 66//49 74//49 67//49
f 67//50 75//50 68//50
f 75//5 69//5 68//5
f 76//5 70//5 69//5
f 77//51 64//51 70//51
f 78//52 72//52 71//52
f 79//53 73//53 72//53
f 80//54 74//54 73//54
f 81//55 75//55 74//55
f 75//5 83//5 76//5
f 76//5 84//5 77//5
f 77//56 78//56 71//56
f 85//57 79//57 78//57
f 86//58 80//58 79//58
f 87//59 81//59 80//59
f 88//60 82//60 81//60
f 82//5 90//5 83//5
f 83//5 91//5 84//5
f 84//61 85//61 78//61
f 85//62 93//62 86//62
f 86//63 94//63 87//63
f 94//64 88//64 87//64
f 95//65 89//65 88//65
f 89//5 97//5 90//5
f 90//5 98//5 91//5
f 98//66 85//66 91//66
f 92//67 100//67 93//67
f 93//68 101//68 94//68
f 94//69 102//69 95//69
f 102//70 96//70 95//70
f 103//5 97//5 96//5
f 104//5 98//5 97//5
f 105//71 92//71 98//71
f 99//72 107//72 100//72
f 100//73 108//73 101//73
f 101//74 109//74 102//74
f 109//75 103//75 102//75
f 110//5 104//5 103//5
f 111//5 105//5 104//5
f 112//76 99//76 105//76
f 113//77 107//77 106//77
f 114//78 108//78 107//78
f 115//79 109//79 108//79
f 109//80 117//80 110//80
f 110//5 118//5 111//5
f 111//5 119//5 112//5
f 112//81 113//81 106//81
f 120//82 114//82 113//82
f 121//83 115//83 114//83
f 122//84 116//84 115//84
f 116//85 124//85 117//85
f 117//5 125//5 118//5
f 118//5 126//5 119//5
f 119//86 120//86 113//86
f 127//87 121//87 120//87
f 128//88 122//88 121//88
f 129//89 123//89 122//89
f 123//90 131//90 124//90
f 124//5 132//5 125//5
f 125//5 133//5 126//5
f 126//91 127//91 120//91
f 127//92 135//92 128//92
f 128//93 136//93 129//93
f 129//94 137//94 130//94
f 130//95 138//95 131//95
f 138//5 132//5 131//5
f 139//5 133//5 132//5
f 140//96 127//96 133//96
f 134//97 2//97 135//97
f 135//98 3//98 136//98
f 136//99 4//99 137//99
f 4//100 138//100 137//100
f 5//5 139//5 138//5
f 6//5 140//5 139//5
f 7//101 134//101 140//101
f 8//102 9//102 2//102
f 9//103 10//103 3//103
f 10//104 11//104 4//104
f 4//105 11//105 12//105
f 5//5 12//5 13//5
f 6//5 13//5 14//5
f 7//106 14//106 8//106
f 15//107 16//107 9//107
f 16//108 17//108 10//108
f 17//109 18//109 11//109
f 18//110 19//110 12//110
f 12//5 19//5 20//5
f 13//5 20//5 21//5
f 14//111 21//111 15//111
f 22//112 23//112 16//112
f 23//113 24//113 17//113
f 24//114 25//114 18//114
f 25//115 26//115 19//115
f 19//5 26//5 27//5
f 20//5 27//5 28//5
f 21//116 28//116 22//116
f 22//117 29//117 30//117
f 23//118 30//118 31//118
f 24//119 31//119 32//119
f 32//120 33//120 26//120
f 33//5 34//5 27//5
f 34//5 35//5 28//5
f 35//121 29//121 22//121
f 29//122 36//122 37//122
f 30//123 37//123 38//123
f 31//124 38//124 39//124
f 39//125 40//125 33//125
f 40//5 41//5 34//5
f 41//5 42//5 35//5
f 42//126 36//126 29//126
f 43//127 44//127 37//127
f 44//128 45//128 38//128
f 45//129 46//129 39//129
f 39//130 46//130 47//130
f 40//5 47//5 48//5
f 41//5 48//5 49//5
f 42//131 49//131 43//131
f 50//132 51//132 44//132
f 51//133 52//133 45//133
f 52//134 53//134 46//134
f 46//135 53//135 54//135
f 47//5 54//5 55//5
f 48//5 55//5 56//5
f 49//136 56//136 50//136
f 57//137 58//137 51//137
f 58//138 59//138 52//138
f 52//139 59//139 60//139
f 53//140 60//140 61//140
f 54//5 61//5 62//5
f 55//5 62//5 63//5
f 56//141 63//141 57//141
f 57//142 64//142 65//142
f 58//143 65//143 66//143
f 59//144 66//144 67//144
f 67//145 68//145 61//145
f 68//5 69//5 62//5
f 69//5 70//5 63//5
f 70//146 64//146 57//146
f 64//147 71//147 72//147
f 65//148 72//148 73//148
f 66//149 73//149 74//149
f 67//150 74//150 75//150
f 75//5 76//5 69//5
f 76//5 77//5 70//5
f 77//151 71//151 64//151
f 78//152 79//152 72//152
f 79//153 80//153 73//153
f 80//154 81//154 74//154
f 81//155 82//155 75//155
f 75//5 82//5 83//5
f 76//5 83//5 84//5
f 77//156 84//156 78//156
f 85//157 86//157 79//157
f 86//158 87//158 80//158
f 87//159 88//159 81//159
f 88//160 89//160 82//160
f 82//5 89//5 90//5
f 83//5 90//5 91//5
f 84//161 91//161 85//161
f 85//162 92//162 93//162
f 86//163 93//163 94//163
f 94//164 95//164 88//164
f 95//165 96//165 89//165
f 89//5 96//5 97//5
f 90//5 97//5 98//5
f 98//166 92//166 85//166
f 92//167 99//167 100//167
f 93//168 100//168 101//168
f 94//169 101//169 102//169
f 102//170 103//170 96//170
f 103//5 104//5 97//5
f 104//5 105//5 98//5
f 105//171 99//171 92//171
f 99//172 106//172 107//172
f 100//173 107//173 108//173
f 101//174 108//174 109//174
f 109//175 110//175 103//175
f 110//5 111//5 104//5
f 111//5 112//5 105//5
f 112//176 106//176 99//176
f 113//177 114//177 107//177
f 114//178 115//178 108//178
f 115//179 116//179 109//179
f 109//180 116//180 117//180
f 110//5 117//5 118//5
f 111//5 118//5 119//5
f 112//181 119//181 113//181
f 120//182 121//182 114//182
f 121//183 122//183 115//183
f 122//184 123//184 116//184
f 116//185 123//185 124//185
f 117//5 124//5 125//5
f 118//5 125//5 126//5
f 119//186 126//186 120//186
f 127//187 128//187 121//187
f 128//188 129//188 122//188
f 129//189 130//189 123//189
f 123//190 130//190 131//190
f 124//5 131//5 132//5
f 125//5 132//5 133//5
f 126//191 133//191 127//191
f 127//192 134//192 135//192
f 128//193 135//193 136//193
f 129//194 136//194 137//194
f 130//195 137//195 138//195
f 138//5 139//5 132//5
f 139//5 140//5 133//5
f 140//196 134//196 127//196
f 134//197 1//197 2//197
f 135//198 2//198 3//198
f 136//199 3//199 4//199
f 4//200 5//200 138//200
f 5//5 6//5 139//5
f 6//5 7//5 140//5
f 7//201 1//201 134//201
o Pool
v 0.000000 0.060000 -1.620000
v 0.000000 0.180000 -1.620000
v 0.619947 0.060000 -1.496685
v 0.619947 0.180000 -1.496685
v 1.145513 0.060000 -1.145513
v 1.145513 0.180000 -1.145513
v 1.496685 0.060000 -0.619947
v 1.496685 0.180000 -0.619947
v 1.620000 0.060000 0.000000
v 1.620000 0.180000 0.000000
v 1.496685 0.060000 0.619947
v 1.496685 0.180000 0.619947
v 1.145513 0.060000 1.145513
v 1.145513 0.180000 1.145513
v 0.619947 0.060000 1.496685
v 0.619947 0.180000 1.496685
v 0.000000 0.060000 1.620000
v 0.000000 0.180000 1.620000
v -0.619947 0.060000 1.496685
v -0.619947 0.180000 1.496685
v -1.145513 0.060000 1.145513
v -1.145513 0.180000 1.145513
v -1.496685 0.060000 0.619947
v -1.496685 0.180000 0.619947
v -1.620000 0.060000 0.000000
v -1.620000 0.180000 0.000000
v -1.496685 0.060000 -0.619947
v -1.496685 0.180000 -0.619947
v -1.145513 0.060000 -1.145513
v -1.145513 0.180000 -1.145513
v -0.619947 0.060000 -1.496685
v -0.619947 0.180000 -1.496685
vn 0.1951 -0.0000 -0.9808
vn 0.5556 -0.0000 -0.8315
vn 0.8315 -0.0000 -0.5556
vn 0.9808 -0.0000 -0.1951
vn 0.9808 -0.0000 0.1951
vn 0.8315 -0.0000 0.5556
vn 0.5556 -0.0000 0.8315
vn 0.1951 -0.0000 0.9808
vn -0.1951 -0.0000 0.9808
vn -0.5556 -0.0000 0.8315
vn -0.8315 -0.0000 0.5556
vn -0.9808 -0.0000 0.1951
vn -0.9808 -0.0000 -0.1951
vn -0.8315 -0.0000 -0.5556
vn -0.0000 1.0000 -0.0000
vn -0.5556 -0.0000 -0.8315
vn -0.1951 -0.0000 -0.9808
vn -0.0000 -1.0000 -0.0000
s 0
usemtl Pool
f 142//202 143//202 141//202
f 144//203 145//203 143//203
f 146//204 147//204 145//204
f 148//205 149//205 147//205
f 150//206 151//206 149//206
f 152//207 153//207 151//207
f 154//208 155//208 153//208
f 156//209 157//209 155//209
f 158//210 159//210 157//210
f 160//211 161//211 159//211
f 162//212 163//212 161//212
f 164//213 165//213 163//213
f 166//214 167//214 165//214
f 168//215 169//215 167//215
f 162//216 154//216 146//216
f 170//217 171//217 169//217
f 172//218 141//218 171//218
f 155//219 163//219 171//219
f 142//202 144//202 143//202
f 144//203 146//203 145//203
f 146//204 148//204 147//204
f 148//205 150//205 149//205
f 150//206 152//206 151//206
f 152//207 154//207 153//207
f 154//208 156//208 155//208
f 156//209 158//209 157//209
f 158//210 160//210 159//210
f 160//211 162//211 161//211
f 162//212 164//212 163//212
f 164//213 166//213 165//213
f 166//214 168//214 167//214
f 168//215 170//215 169//215
f 146//216 144//216 142//216
f 142//216 172//216 170//216
f 170//216 168//216 166//216
f 166//216 164//216 162//216
f 162//216 160//216 158//216
f 158//216 156//216 154//216
f 154//216 152//216 150//216
f 150//216 148//216 146//216
f 146//216 142//216 170//216
f 170//216 166//216 162//216
f 162//216 158//216 154//216
f 154//216 150//216 146//216
f 146//216 170//216 162//216
f 170//217 172//217 171//217
f 172//218 142//218 141//218
f 171//219 141//219 143//219
f 143//219 145//219 147//219
f 147//219 149//219 151//219
f 151//219 153//219 155//219
f 155//219 157//219 159//219
f 159//219 161//219 163//219
f 163//219 165//219 167//219
f 167//219 169//219 171//219
f 171//219 143//219 147//219
f 147//219 151//219 155//219
f 155//219 159//219 163//219
f 163//219 167//219 171//219
f 171//219 147//219 155//219
o Spikes
v 1.886487 -0.647771 -0.145994
v 2.143164 -0.725321 0.083091
v 2.011168 -0.695699 0.408786
v 1.672915 -0.599842 0.380991
v 1.595857 -0.570221 0.038118
v 2.423638 1.347771 0.199156
v 1.196307 -0.347329 -1.549788
v 1.536735 -0.431506 -1.587201
v 1.692195 -0.399353 -1.272280
v 1.447847 -0.295305 -1.040236
v 1.141371 -0.263152 -1.211746
v 1.715157 1.047329 -1.628793
v -0.253688 -0.368592 -1.871204
v -0.039883 -0.473991 -2.131119
v 0.292913 -0.433732 -2.021561
v 0.284788 -0.303452 -1.693937
v -0.053030 -0.263193 -1.601011
v 0.060384 1.068592 -2.434912
v -1.170048 -0.456837 -1.472143
v -1.120469 -0.554403 -1.807404
v -0.777847 -0.517136 -1.882224
v -0.615672 -0.396538 -1.593204
v -0.858065 -0.359271 -1.339760
v -1.195765 1.156837 -2.131041
v -1.834979 -0.605340 -0.535204
v -1.995190 -0.680869 -0.840171
v -1.756881 -0.652020 -1.098537
v -1.449387 -0.558661 -0.953250
v -1.497654 -0.529811 -0.605091
v -2.181054 1.305341 -1.030521
v -1.789091 -0.324715 0.805056
v -2.106721 -0.409946 0.677684
v -2.095710 -0.377391 0.326691
v -1.771275 -0.272040 0.237138
v -1.581774 -0.239485 0.532784
v -2.276079 1.024716 0.628259
v -0.700313 -0.612285 1.711658
v -1.018481 -0.703610 1.833337
v -1.250118 -0.668727 1.569700
v -1.075109 -0.555844 1.285084
v -0.735311 -0.520961 1.372819
v -1.296452 1.312286 2.108412
v 0.405431 -0.362312 1.786695
v 0.213564 -0.485984 2.055525
v -0.127026 -0.438745 1.977144
v -0.145657 -0.285879 1.659871
v 0.183420 -0.238641 1.542167
v 0.146113 1.062312 2.488326
v 1.475411 -0.518922 1.166550
v 1.505157 -0.610146 1.505917
v 1.188079 -0.575301 1.656330
v 0.962367 -0.462543 1.409923
v 1.139948 -0.427699 1.107222
v 1.650295 1.218922 1.801609
vn 0.6572 -0.0468 -0.7522
vn 0.9123 -0.1449 0.3829
vn -0.0498 0.1119 0.9925
vn -0.2709 -0.9624 -0.0223
vn -0.8996 0.3686 0.2340
vn -0.4626 0.2706 -0.8443
vn -0.1127 -0.0143 -0.9935
vn 0.8950 -0.1201 -0.4296
vn 0.7144 0.1567 0.6820
vn -0.2139 -0.9555 0.2032
vn -0.4050 0.4335 0.8050
vn -0.9162 0.3278 -0.2305
vn -0.7842 -0.0704 -0.6165
vn 0.3283 -0.2030 -0.9225
vn 0.9890 0.1441 -0.0328
vn -0.0092 -0.9293 0.3693
vn 0.2850 0.4911 0.8231
vn -0.8109 0.3586 0.4624
vn -0.9896 -0.0675 -0.1267
vn -0.1896 -0.1905 -0.9632
vn 0.8401 0.1315 -0.5263
vn 0.1673 -0.9397 0.2982
vn 0.6765 0.4535 0.5803
vn -0.4544 0.3305 0.8272
vn -0.8808 -0.0372 0.4720
vn -0.7211 -0.1326 -0.6800
vn 0.3949 0.1172 -0.9112
vn 0.2393 -0.9643 0.1131
vn 0.9250 0.3671 0.0978
vn 0.1365 0.2717 0.9526
vn -0.3695 -0.0116 0.9292
vn -0.9921 -0.1186 -0.0421
vn -0.3110 0.1614 -0.9366
vn 0.2880 -0.9543 -0.0795
vn 0.7326 0.4415 -0.5182
vn 0.6964 0.3345 0.6350
vn 0.3748 -0.0744 0.9241
vn -0.7499 -0.1899 0.6337
vn -0.8657 0.1124 -0.4878
vn 0.1677 -0.9474 -0.2727
vn 0.1874 0.4147 -0.8905
vn 0.9540 0.2992 -0.0179
vn 0.8328 -0.1151 0.5415
vn -0.2514 -0.2707 0.9293
vn -0.9829 0.1368 0.1236
vn -0.0254 -0.9012 -0.4327
vn -0.3507 0.5442 -0.7621
vn 0.7714 0.3886 -0.5039
vn 0.9927 -0.0620 -0.1037
vn 0.4059 -0.1772 0.8966
vn -0.7027 0.1243 0.7006
vn -0.2160 -0.9475 -0.2358
vn -0.8010 0.4257 -0.4209
vn 0.2468 0.3106 -0.9179
s 0
usemtl Spikes
f 173//220 178//220 174//220
f 174//221 178//221 175//221
f 175//222 178//222 176//222
f 174//223 176//223 177//223
f 176//224 178//224 177//224
f 177//225 178//225 173//225
f 179//226 184//226 180//226
f 180//227 184//227 181//227
f 181//228 184//228 182//228
f 180//229 182//229 183//229
f 182//230 184//230 183//230
f 183//231 184//231 179//231
f 185//232 190//232 186//232
f 186//233 190//233 187//233
f 187//234 190//234 188//234
f 186//235 188//235 189//235
f 188//236 190//236 189//236
f 189//237 190//237 185//237
f 191//238 196//238 192//238
f 192//239 196//239 193//239
f 193//240 196//240 194//240
f 192//241 194//241 195//241
f 194//242 196//242 195//242
f 195//243 196//243 191//243
f 197//244 202//244 198//244
f 198//245 202//245 199//245
f 199//246 202//246 200//246
f 198//247 200//247 201//247
f 200//248 202//248 201//248
f 201//249 202//249 197//249
f 203//250 208//250 204//250
f 204//251 208//251 205//251
f 205//252 208//252 206//252
f 204//253 206//253 207//253
f 206//254 208//254 207//254
f 207//255 208//255 203//255
f 209//256 214//256 210//256
f 210//257 214//257 211//257
f 211//258 214//258 212//258
f 210//259 212//259 213//259
f 212//260 214//260 213//260
f 213//261 214//261 209//261
f 215//262 220//262 216//262
f 216//263 220//263 217//263
f 217//264 220//264 218//264
f 216//265 218//265 219//265
f 218//266 220//266 219//266
f 219//267 220//267 215//267
f 221//268 226//268 222//268
f 222//269 226//269 223//269
f 223//270 226//270 224//270
f 222//271 224//271 225//271
f 224//272 226//272 225//272
f 225//273 226//273 221//273
f 177//223 173//223 174//223
f 174//223 175//223 176//223
f 183//229 179//229 180//229
f 180//229 181//229 182//229
f 189//235 185//235 186//235
f 186//235 187//235 188//235
f 195//241 191//241 192//241
f 192//241 193//241 194//241
f 201//247 197//247 198//247
f 198//247 199//247 200//247
f 207//253 203//253 204//253
f 204//253 205//253 206//253
f 213//259 209//259 210//259
f 210//259 211//259 212//259
f 219//265 215//265 216//265
f 216//265 217//265 218//265
f 225//271 221//271 222//271
f 222//271 223//271 224//271
o Bubbles
v 0.500000 -0.100000 -0.300000
v 0.717080 0.065836 -0.142284
v 0.417085 0.065836 -0.044808
v 0.231672 0.065836 -0.300000
v 0.417085 0.065836 -0.555192
v 0.717080 0.065836 -0.457716
v 0.582915 0.334165 -0.044808
v 0.282920 0.334165 -0.142284
v 0.282920 0.334165 -0.457716
v 0.582915 0.334165 -0.555192
v 0.768327 0.334165 -0.300000
v 0.500000 0.500000 -0.300000
v -0.600000 -0.020000 0.200000
v -0.440808 0.101613 0.315658
v -0.660805 0.101613 0.387141
v -0.796774 0.101613 0.200000
v -0.660805 0.101613 0.012859
v -0.440808 0.101613 0.084342
v -0.539195 0.298387 0.387141
v -0.759192 0.298387 0.315658
v -0.759192 0.298387 0.084342
v -0.539195 0.298387 0.012859
v -0.403226 0.298387 0.200000
v -0.600000 0.420000 0.200000
v 0.100000 0.020000 0.700000
v 0.230248 0.119501 0.794630
v 0.050251 0.119501 0.853115
v -0.060997 0.119501 0.700000
v 0.050251 0.119501 0.546885
v 0.230248 0.119501 0.605370
v 0.149749 0.280499 0.853115
v -0.030248 0.280499 0.794630
v -0.030248 0.280499 0.605370
v 0.149749 0.280499 0.546885
v 0.260996 0.280499 0.700000
v 0.100000 0.380000 0.700000
v -0.200000 0.050000 -0.750000
v -0.091460 0.132918 -0.671142
v -0.241458 0.132918 -0.622404
v -0.334164 0.132918 -0.750000
v -0.241458 0.132918 -0.877596
v -0.091460 0.132918 -0.828858
v -0.158542 0.267082 -0.622404
v -0.308540 0.267082 -0.671142
v -0.308540 0.267082 -0.828858
v -0.158542 0.267082 -0.877596
v -0.065836 0.267082 -0.750000
v -0.200000 0.350000 -0.750000
vn 0.1876 -0.7947 0.5774
vn 0.6071 -0.7947 -0.0000
vn -0.4911 -0.7947 0.3568
vn -0.4911 -0.7947 -0.3568
vn 0.1876 -0.7947 -0.5774
vn 0.9822 -0.1876 -0.0000
vn 0.3035 -0.1876 0.9342
vn -0.7946 -0.1876 0.5774
vn -0.7946 -0.1876 -0.5774
vn 0.3035 -0.1876 -0.9342
vn 0.7946 0.1876 0.5774
vn -0.3035 0.1876 0.9342
vn -0.9822 0.1876 -0.0000
vn -0.3035 0.1876 -0.9342
vn 0.7946 0.1876 -0.5774
vn 0.4911 0.7947 0.3568
vn -0.1876 0.7947 0.5774
vn -0.6071 0.7947 -0.0000
vn -0.1876 0.7947 -0.5774
vn 0.4911 0.7947 -0.3568
s 0
usemtl Bubbles
f 227//274 228//274 229//274
f 228//275 227//275 232//275
f 227//276 229//276 230//276
f 227//277 230//277 231//277
f 227//278 231//278 232//278
f 228//279 232//279 237//279
f 229//280 228//280 233//280
f 230//281 229//281 234//281
f 231//282 230//282 235//282
f 232//283 231//283 236//283
f 228//284 237//284 233//284
f 229//285 233//285 234//285
f 230//286 234//286 235//286
f 231//287 235//287 236//287
f 232//288 236//288 237//288
f 233//289 237//289 238//289
f 234//290 233//290 238//290
f 235//291 234//291 238//291
f 236//292 235//292 238//292
f 237//293 236//293 238//293
f 239//274 240//274 241//274
f 240//275 239//275 244//275
f 239//276 241//276 242//276
f 239//277 242//277 243//277
f 239//278 243//278 244//278
f 240//279 244//279 249//279
f 241//280 240//280 245//280
f 242//281 241//281 246//281
f 243//282 242//282 247//282
f 244//283 243//283 248//283
f 240//284 249//284 245//284
f 241//285 245//285 246//285
f 242//286 246//286 247//286
f 243//287 247//287 248//287
f 244//288 248//288 249//288
f 245//289 249//289 250//289
f 246//290 245//290 250//290
f 247//291 246//291 250//291
f 248//292 247//292 250//292
f 249//293 248//293 250//293
f 251//274 252//274 253//274
f 252//275 251//275 256//275
f 251//276 253//276 254//276
f 251//277 254//277 255//277
f 251//278 255//278 256//278
f 252//279 256//279 261//279
f 253//280 252//280 257//280
f 254//281 253//281 258//281
f 255//282 254//282 259//282
f 256//283 255//283 260//283
f 252//284 261//284 257//284
f 253//285 257//285 258//285
f 254//286 258//286 259//286
f 255//287 259//287 260//287
f 256//288 260//288 261//288
f 257//289 261//289 262//289
f 258//290 257//290 262//290
f 259//291 258//291 262//291
f 260//292 259//292 262//292
f 261//293 260//293 262//293
f 263//274 264//274 265//274
f 264//275 263//275 268//275
f 263//276 265//276 266//276
f 263//277 266//277 267//277
f 263//278 267//278 268//278
f 264//279 268//279 273//279
f 265//280 264//280 269//280
f 266//281 265//281 270//281
f 267//282 266//282 271//282
f 268//283 267//283 272//283
f 264//284 273//284 269//284
f 265//285 269//285 270//285
f 266//286 270//286 271//286
f 267//287 271//287 272//287
f 268//288 272//288 273//288
f 269//289 273//289 274//289
f 270//290 269//290 274//290
f 271//291 270//291 274//291
f 272//292 271//292 274//292
f 273//293 272//293 274//293
